<svg xmlns="http://www.w3.org/2000/svg" width="189.156" height="7.754" viewBox="0 0 189.156 7.754">
  <path id="Path_1421" data-name="Path 1421" d="M644.683,354.837c-.93-.063-1.857-.049-2.792-.057s-1.852-.034-2.776-.09c-2.057-.125-4.114-.252-6.172-.366-3.962-.222-7.93-.4-11.9-.491q-5.465-.129-10.934-.137-1.415,0-2.831.01c-3.613.026-7.229.057-10.842.122-8.449.149-16.9.3-25.341.558q-12.374.375-24.741.847c-4.051.161-8.1.313-12.153.491-4.378.192-8.761.36-13.136.578q-13.546.674-27.092,1.352c-7.839.393-15.648.987-23.424,1.733-5.022.482-10.028,1.045-15.014,1.659,0,0,0,0,0,0q8.6.356,17.214.4,5.638.029,11.266-.127,3.635-.1,7.266-.26c1.486-.068,2.968-.171,4.451-.262q5.957-.367,11.916-.731c4.544-.275,9.083-.575,13.63-.823l14.066-.768c4.212-.23,8.43-.416,12.644-.623,4.114-.2,8.232-.354,12.348-.526,4.148-.173,8.3-.3,12.451-.445,4.224-.144,8.456-.223,12.682-.328,7.721-.191,15.446-.254,23.171-.287,4.3-.018,8.591-.117,12.885-.212q6.35-.14,12.693-.386c1.719-.067,3.447-.116,5.161-.228.831-.054,1.659-.119,2.476-.23.725-.1,1.436-.237,2.167-.323h0c.221-.019.44-.033.662-.045C644.688,354.842,644.688,354.837,644.683,354.837Z" transform="translate(-455.531 -353.696)" fill="#fff"/>
</svg>
