<svg xmlns="http://www.w3.org/2000/svg" width="267.464" height="21.272" viewBox="0 0 267.464 21.272">
  <path id="Path_1262" data-name="Path 1262" d="M323.715,221.838c-.96.074-1.923.133-2.881.231l-3.973.407a46.064,46.064,0,0,0-6.513,1.143,30.11,30.11,0,0,0-6.587,2.539c-.415.218-.827.455-1.256.648l-1.386.622c-.656.264-1.314.513-1.99.723a16.6,16.6,0,0,1-2.393.541c-.7.072-1.406.11-2.115.114a15.683,15.683,0,0,1-2.006-.135,22.75,22.75,0,0,1-2.693-.6,26.2,26.2,0,0,1-2.737-1,39.918,39.918,0,0,1-4.455-2.314c-.678-.407-1.35-.823-2.012-1.254-.8-.523-1.586-1.048-2.412-1.527a13.585,13.585,0,0,0-1.957-.987,10.052,10.052,0,0,0-1.351-.407,8.16,8.16,0,0,0-1.412-.157,5.406,5.406,0,0,0-.843.082,8.727,8.727,0,0,0-1.2.272,10.422,10.422,0,0,0-1.772.821q-1.737.912-3.471,1.828c-1.463.775-2.94,1.533-4.455,2.2-.925.37-1.861.7-2.816.983a28.435,28.435,0,0,1-3.831.815,33.7,33.7,0,0,1-3.744.263,30.828,30.828,0,0,1-4.237-.315c-1.78-.254-3.534-.611-5.281-1.033a33.571,33.571,0,0,1-4.733-1.5q-2.295-1-4.488-2.218a35.2,35.2,0,0,0-5.154-2.4,15.733,15.733,0,0,0-2.178-.567,11.488,11.488,0,0,0-7.655,1.145,35.225,35.225,0,0,0-5.336,3.6c-1.03.77-2.03,1.585-3.039,2.38-.845.648-1.686,1.3-2.575,1.887a19.91,19.91,0,0,1-2.918,1.591c-.471.19-.944.362-1.43.516a12.232,12.232,0,0,1-1.943.422c-.259.027-.519.041-.779.044a5.216,5.216,0,0,1-.559-.021,10.423,10.423,0,0,1-1.54-.45A32.431,32.431,0,0,1,192.5,227.6c-.771-.612-1.516-1.248-2.236-1.919q-.756-.7-1.51-1.4a49.27,49.27,0,0,0-3.917-3.676,11.942,11.942,0,0,0-1.882-1.17,7.328,7.328,0,0,0-1.173-.431l-.4-.082-.829-.112c-.134-.007-.268-.016-.4-.025q-.075,0-.15,0a4.394,4.394,0,0,0-.74.064,8.583,8.583,0,0,0-1.407.312,22.553,22.553,0,0,0-2.658,1.028c-.711.31-1.41.646-2.114.974-.495.232-1,.451-1.478.714l-2.263,1.242c-.379.208-.766.4-1.133.634q-1.021.646-2.045,1.291c-.514.324-1.038.636-1.543.974l-3.8,2.544a54.7,54.7,0,0,1-8.524,4.941c-.669.271-1.342.525-2.028.751a16.7,16.7,0,0,1-2.6.6c-.373.043-.744.075-1.122.1a10.473,10.473,0,0,1-1.651-.063,12.519,12.519,0,0,1-2.3-.607,15.287,15.287,0,0,1-2.313-1.374,35.049,35.049,0,0,1-3.207-3.068c-.507-.534-1.02-1.061-1.531-1.591-.613-.636-1.278-1.219-1.95-1.79a9.234,9.234,0,0,0-1.788-1.195,10.262,10.262,0,0,0-1.157-.47,5.242,5.242,0,0,0-1.214-.19,7.178,7.178,0,0,0-.787.088,5.022,5.022,0,0,0-1.084.381,3.91,3.91,0,0,0-.968.642c-.289.277-.563.563-.833.859-.515.561-.972,1.188-1.449,1.782-.377.468-.75.94-1.127,1.411-.437.547-.895,1.079-1.341,1.619a20.714,20.714,0,0,1-2.959,2.9,16,16,0,0,1-2.643,1.56,14.042,14.042,0,0,1-2.613.694,17.3,17.3,0,0,1-3.792-.036,26.445,26.445,0,0,1-5.805-1.7,46.261,46.261,0,0,1-4.946-2.582c-.827-.491-1.624-1.03-2.418-1.57s-1.6-1.086-2.391-1.642-1.588-1.131-2.417-1.648a24.338,24.338,0,0,0-2.629-1.425,12.267,12.267,0,0,0-5.328-1.246,8.6,8.6,0,0,0-1.289.141,13.475,13.475,0,0,0-1.327.29,8.933,8.933,0,0,0-1.148.435c-.408.175-.813.356-1.219.539a33.715,33.715,0,0,0-5.081,2.843,24.369,24.369,0,0,0-3.964,3.381,21.718,21.718,0,0,0-1.564,1.825,3.6,3.6,0,0,0-.538.976l-.144.42c-.058.3-.115.6-.172.9a1.155,1.155,0,0,0,.286,1.082,1.117,1.117,0,0,0,1.082.286c.267-.075.533-.152.8-.229a6.335,6.335,0,0,0,1.08-.459,1.116,1.116,0,0,0,.4-1.518,1.056,1.056,0,0,0-.661-.5,22.8,22.8,0,0,1,3.22-3.062,29.681,29.681,0,0,1,6.036-3.481c.483-.2.968-.4,1.457-.588a9.131,9.131,0,0,1,1.884-.476,10.528,10.528,0,0,1,1.694-.021c.377.062.745.141,1.121.238a12.858,12.858,0,0,1,1.6.559,23.864,23.864,0,0,1,2.924,1.635c1.1.694,2.117,1.52,3.174,2.279s2.09,1.5,3.155,2.212,2.159,1.356,3.269,1.976a33.336,33.336,0,0,0,6.826,2.885,17.934,17.934,0,0,0,7.553.641,13.146,13.146,0,0,0,3.418-.939,15.493,15.493,0,0,0,2.989-1.728,19.633,19.633,0,0,0,2.795-2.517c.454-.492.874-1,1.294-1.524.612-.751,1.21-1.511,1.805-2.276a30.007,30.007,0,0,1,2.3-2.773,2.142,2.142,0,0,1,.193-.107c.091-.032.183-.059.277-.082h.091a3.909,3.909,0,0,1,.494.141,8.437,8.437,0,0,1,1.163.655,31.288,31.288,0,0,1,2.937,2.775,51.447,51.447,0,0,0,3.68,3.6,16.4,16.4,0,0,0,1.8,1.3,13.345,13.345,0,0,0,2.335,1.14,10.7,10.7,0,0,0,2.307.558,13.026,13.026,0,0,0,2.79.117,18.828,18.828,0,0,0,2.317-.325,17.6,17.6,0,0,0,2.709-.776,33.336,33.336,0,0,0,4.8-2.205c2.26-1.242,4.387-2.7,6.523-4.139,1.02-.689,2.03-1.4,3.068-2.061L170,226.459c.137-.086.287-.158.428-.237q.611-.336,1.219-.673l1.858-1.027c.122-.068.254-.122.381-.181.435-.207.871-.411,1.306-.618.731-.344,1.46-.684,2.2-1.006a16.441,16.441,0,0,1,2.286-.722,4.179,4.179,0,0,1,.475-.012c.132,0,.264.011.4.023a7.392,7.392,0,0,1,.955.264,11.653,11.653,0,0,1,1.539.952c1.493,1.25,2.808,2.705,4.233,4.033.892.833,1.784,1.648,2.732,2.418.857.7,1.752,1.343,2.668,1.957a34.178,34.178,0,0,0,3.048,1.75,8.591,8.591,0,0,0,3.04.961,8.711,8.711,0,0,0,1.408.046,13.228,13.228,0,0,0,1.807-.254,14.4,14.4,0,0,0,2.926-.93,21.459,21.459,0,0,0,3.076-1.608,40.941,40.941,0,0,0,3.882-2.893l2.236-1.788,1.775-1.357a22.337,22.337,0,0,1,4.067-2.516,11.839,11.839,0,0,1,2.2-.591c.365-.037.727-.06,1.1-.066a6.723,6.723,0,0,1,.971.066,16.933,16.933,0,0,1,3.367.94c.944.415,1.876.861,2.788,1.344.568.3,1.123.627,1.685.939s1.116.58,1.681.857c1.085.535,2.184,1.032,3.307,1.484a31.042,31.042,0,0,0,3.625,1.143,53.994,53.994,0,0,0,7.8,1.445,28.485,28.485,0,0,0,4,.169,34.744,34.744,0,0,0,3.943-.39,27.361,27.361,0,0,0,6.825-1.923c1.4-.593,2.746-1.274,4.1-1.96,1.62-.819,3.218-1.7,4.868-2.464a8.69,8.69,0,0,1,1-.272,4.02,4.02,0,0,1,.6,0,8.66,8.66,0,0,1,1.393.388,36.236,36.236,0,0,1,4.176,2.612,42.841,42.841,0,0,0,4.423,2.62,37.535,37.535,0,0,0,4.717,2,20.311,20.311,0,0,0,5.65,1.036,18.081,18.081,0,0,0,5.038-.519,21.487,21.487,0,0,0,4.067-1.493c.565-.261,1.129-.515,1.676-.811q.532-.285,1.063-.572c.531-.286,1.092-.531,1.649-.768a35.866,35.866,0,0,1,8.38-2.066c1.547-.2,3.105-.305,4.657-.451,1.346-.126,2.7-.189,4.047-.278,2.734-.18,5.482-.353,8.224-.344a1.925,1.925,0,1,0,0-3.851c-2.082.035-4.161.195-6.237.347Q325.221,221.722,323.715,221.838Zm-50.693,1.947.161-.021h0Z" transform="translate(-67.428 -218.776)" fill="#3d6895"/>
</svg>
