<svg id="Component_168_2" data-name="Component 168 – 2" xmlns="http://www.w3.org/2000/svg" xmlns:xlink="http://www.w3.org/1999/xlink" width="90" height="159.113" viewBox="0 0 126 159.113">
  <defs>
    <clipPath id="clip-path">
      <rect id="Rectangle_439" data-name="Rectangle 439" width="126" height="97" transform="translate(0 -0.164)" fill="none"/>
    </clipPath>
  </defs>
  <g id="Group_1151" data-name="Group 1151" transform="translate(-0.759 -0.105)">
    <g id="Group_1150" data-name="Group 1150" transform="translate(0.759 0.269)" clip-path="url(#clip-path)">
      <path id="Path_3364" data-name="Path 3364" d="M26.171,206.7a9.924,9.924,0,0,0,7.175,3.058h89.6L73.168,155Z" transform="translate(-20.374 -116.619)" fill="#e97724"/>
      <path id="Path_3365" data-name="Path 3365" d="M268.842,251.81,234.333,215,197,254.822h64.711a9.923,9.923,0,0,0,7.131-3.012" transform="translate(-148.685 -161.686)" fill="#e97724"/>
      <path id="Path_3366" data-name="Path 3366" d="M347,86.2A11.2,11.2,0,1,0,358.2,75,11.2,11.2,0,0,0,347,86.2" transform="translate(-261.352 -56.53)" fill="#1e2b3b"/>
      <path id="Path_3367" data-name="Path 3367" d="M113.742,0H13.689A13.7,13.7,0,0,0,0,13.689V83.377A13.7,13.7,0,0,0,13.689,97.066H113.742A13.7,13.7,0,0,0,127.43,83.377V13.689A13.7,13.7,0,0,0,113.742,0M7.467,13.689a6.229,6.229,0,0,1,6.222-6.222H113.742a6.229,6.229,0,0,1,6.222,6.222V83.377c0,.166-.008.33-.021.492L89.088,50.958a3.733,3.733,0,0,0-2.724-1.18h0a3.733,3.733,0,0,0-2.723,1.18l-7.021,7.489L56.273,36.066a3.733,3.733,0,0,0-5.525,0L7.474,83.668c0-.1-.007-.193-.007-.291ZM13.689,89.6a6.214,6.214,0,0,1-1.375-.155l41.2-45.317L71.5,63.911,63.44,72.5a3.733,3.733,0,0,0,5.447,5.107L86.364,58.969l28.6,30.509a6.239,6.239,0,0,1-1.224.121Z" transform="translate(-0.716 -0.196)" fill="#fff"/>
      <path id="Path_3368" data-name="Path 3368" d="M346.933,89.867A14.933,14.933,0,1,0,332,74.933a14.95,14.95,0,0,0,14.933,14.933m0-22.4a7.467,7.467,0,1,1-7.467,7.467,7.475,7.475,0,0,1,7.467-7.467" transform="translate(-250.085 -45.263)" fill="#fff"/>
    </g>
  </g>
</svg>
