<svg id="Component_199_2" data-name="Component 199 – 2" xmlns="http://www.w3.org/2000/svg" xmlns:xlink="http://www.w3.org/1999/xlink" height="169.371" viewBox="0 0 117.597 169.371" style="width:100%; height:100%">
  <defs>
    <clipPath id="clip-path">
      <rect id="Rectangle_523" data-name="Rectangle 523" width="117.597" height="94.63" transform="translate(0 0)" fill="#fff"/>
    </clipPath>
  </defs>
  <g id="Group_1269" data-name="Group 1269">
    <g id="Group_1268" data-name="Group 1268" transform="translate(0 0)" clip-path="url(#clip-path)">
      <path id="Path_3750" data-name="Path 3750" d="M48.186,0a2.8,2.8,0,0,0-2.8,2.8V14.769a2.8,2.8,0,1,0,5.591,0V2.8a2.8,2.8,0,0,0-2.8-2.8m25.268.01h0A2.791,2.791,0,0,0,70.663,2.8V14.775a2.791,2.791,0,0,0,5.583,0V2.8A2.791,2.791,0,0,0,73.454.013m-51.6,0h0a2.8,2.8,0,0,0-2.8,2.8V14.777a2.8,2.8,0,0,0,2.8,2.8h0a2.8,2.8,0,0,0,2.8-2.8V2.806a2.8,2.8,0,0,0-2.8-2.8M96.586,0h0a2.8,2.8,0,0,0-2.8,2.8V14.772a2.8,2.8,0,1,0,5.609,0V2.8a2.8,2.8,0,0,0-2.8-2.8M40.642,31.9a2.725,2.725,0,0,0-2.725,2.725v8.169a2.725,2.725,0,0,0,2.725,2.725H52.333a2.725,2.725,0,0,0,2.725-2.725V34.622A2.725,2.725,0,0,0,52.333,31.9Zm24.766,0a2.725,2.725,0,0,0-2.725,2.725v8.169a2.725,2.725,0,0,0,2.725,2.725H77.1a2.725,2.725,0,0,0,2.725-2.725V34.622A2.725,2.725,0,0,0,77.1,31.9Zm24.772,0a2.725,2.725,0,0,0-2.725,2.725v8.169a2.725,2.725,0,0,0,2.725,2.725h11.692a2.725,2.725,0,0,0,2.724-2.725V34.622a2.725,2.725,0,0,0-2.725-2.725ZM15.959,52.178h0A2.724,2.724,0,0,0,13.234,54.9v8.17A2.725,2.725,0,0,0,15.959,65.8H27.65a2.725,2.725,0,0,0,2.725-2.725V54.9a2.725,2.725,0,0,0-2.725-2.725Zm24.683,0h0A2.724,2.724,0,0,0,37.917,54.9v8.17A2.725,2.725,0,0,0,40.642,65.8H52.333a2.725,2.725,0,0,0,2.725-2.725V54.9a2.725,2.725,0,0,0-2.725-2.725Zm49.538,0h0A2.724,2.724,0,0,0,87.456,54.9v8.17A2.725,2.725,0,0,0,90.18,65.8h11.692a2.725,2.725,0,0,0,2.724-2.725V54.9a2.725,2.725,0,0,0-2.724-2.725Zm-12.049-.025a1.516,1.516,0,0,0-1.039.415h0l-5.53,4.839-5.578-4.881A1.507,1.507,0,1,0,64,54.8l5.274,4.615L64,64.026a1.507,1.507,0,1,0,1.985,2.269l5.578-4.881,5.578,4.881a1.507,1.507,0,1,0,1.985-2.269L73.85,59.411,79.125,54.8a1.508,1.508,0,0,0-.993-2.642M40.642,72.773A2.725,2.725,0,0,0,37.917,75.5v8.169a2.725,2.725,0,0,0,2.725,2.725H52.333a2.725,2.725,0,0,0,2.725-2.725V75.5a2.725,2.725,0,0,0-2.725-2.725Zm24.766,0A2.725,2.725,0,0,0,62.683,75.5v8.169a2.725,2.725,0,0,0,2.725,2.725H77.1a2.725,2.725,0,0,0,2.725-2.725V75.5A2.725,2.725,0,0,0,77.1,72.773Zm24.772,0A2.725,2.725,0,0,0,87.456,75.5v8.169a2.725,2.725,0,0,0,2.725,2.725h11.692a2.725,2.725,0,0,0,2.724-2.725V75.5a2.725,2.725,0,0,0-2.724-2.725Zm-74.222,0A2.725,2.725,0,0,0,13.234,75.5v8.169a2.725,2.725,0,0,0,2.725,2.725H27.65a2.725,2.725,0,0,0,2.725-2.725V75.5a2.725,2.725,0,0,0-2.725-2.725Zm96.954-44.338L112.92,78.5h0c-.235,4.9-.547,8.214-2.039,9.709-1.465,1.468-4.607,1.674-9.389,1.752l-85.4-.086h0c-4.947-.029-8.187-.21-9.637-1.666s-1.688-4.8-1.783-9.793l.1-49.977ZM16.329,7.086l-.089,0c-4.079.156-9.759.227-12.872,3.319C.236,13.516.225,19.141.11,23.14c0,.021,0,.041,0,.062L0,78.4c0,.016,0,.033,0,.049C.078,82.573.032,88.376,3.146,91.5c3.131,3.144,8.881,3.016,12.921,3.04h.012l85.426.086h.04c3.939-.064,9.523,0,12.639-3.122,3.075-3.081,3.206-8.757,3.4-12.849v-.026h0c0-.037,0-.075,0-.112l-.008-55.212c.034-4.076.244-9.9-2.919-13.049-3.144-3.133-9.048-3.034-13.232-3.079h-1.12v7.594a3.724,3.724,0,1,1-7.448,0V7.186L77.175,7.2v7.574a3.721,3.721,0,0,1-7.442,0V7.209l-15.223.015-2.592-.009v7.554a3.733,3.733,0,1,1-7.466,0V7.188L25.582,7.12v7.657a3.731,3.731,0,0,1-7.462,0V7.093l-1.782-.007Z" transform="translate(0 0.003)" fill="#fff"/>
    </g>
  </g>
</svg>
