<svg xmlns="http://www.w3.org/2000/svg" xmlns:xlink="http://www.w3.org/1999/xlink" width="120" height="150" viewBox="0 0 116.205 166.098">
  <defs>
    <clipPath id="clip-path">
      <rect id="Rectangle_522" data-name="Rectangle 522" width="116.205" height="93.51" transform="translate(0 0)" fill="none"/>
    </clipPath>
  </defs>
  <g id="Component_198_2" data-name="Component 198 – 2" opacity="0.51">
    <g id="Group_1267" data-name="Group 1267">
      <g id="Group_1266" data-name="Group 1266" transform="translate(0 0)" clip-path="url(#clip-path)">
        <path id="Path_3749" data-name="Path 3749" d="M47.616,0a2.762,2.762,0,0,0-2.762,2.762V14.594a2.762,2.762,0,0,0,5.524,0V2.764A2.762,2.762,0,0,0,47.616,0m24.969.01a2.758,2.758,0,0,0-2.758,2.758V14.6a2.758,2.758,0,1,0,5.517,0V2.771A2.758,2.758,0,0,0,72.585.012M21.593.01a2.762,2.762,0,0,0-2.762,2.762V14.6a2.762,2.762,0,0,0,5.525,0V2.772A2.762,2.762,0,0,0,21.593.01M95.443,0a2.771,2.771,0,0,0-2.771,2.771V14.6a2.771,2.771,0,0,0,5.543,0V2.768A2.771,2.771,0,0,0,95.443,0M79.854,37.931a5.336,5.336,0,0,0-3.988,1.782L51.68,66.736l-11-14.947a5.349,5.349,0,1,0-8.617,6.341l14.9,20.252a5.35,5.35,0,0,0,4.053,2.173c.086,0,.171.006.257.006a5.35,5.35,0,0,0,3.986-1.782l20.629-23.05,7.948-8.881a5.35,5.35,0,0,0-3.984-8.917M111.577,28.1l.007,49.47h0c-.232,4.838-.541,8.116-2.015,9.594-1.447,1.45-4.552,1.654-9.278,1.731L15.9,88.807h0c-4.889-.029-8.09-.208-9.523-1.646s-1.668-4.74-1.762-9.677h0l.1-49.386ZM16.136,7l-.088,0c-4.031.155-9.643.225-12.72,3.28C.233,13.356.223,18.915.109,22.866c0,.02,0,.041,0,.062L0,77.474c0,.016,0,.032,0,.048C.078,81.6.033,87.329,3.108,90.417c3.095,3.106,8.776,2.98,12.769,3h.011l84.414.085h.04c3.892-.063,9.41,0,12.489-3.085,3.039-3.045,3.168-8.653,3.362-12.7h0V77.7c0-.037,0-.074,0-.11l-.008-54.559c.033-4.027.241-9.78-2.885-12.895-3.106-3.1-8.941-3-13.075-3.042H99.123v7.5a3.68,3.68,0,1,1-7.359,0V7.1l-15.5.015V14.6a3.677,3.677,0,1,1-7.353,0V7.123l-15.043.015L51.3,7.129v7.464a3.689,3.689,0,1,1-7.377,0V7.1L25.28,7.035V14.6a3.687,3.687,0,1,1-7.374,0V7.008L16.145,7Z" transform="translate(0 0.003)" fill="#22323f"/>
      </g>
    </g>
  </g>
</svg>
