<svg xmlns="http://www.w3.org/2000/svg" xmlns:xlink="http://www.w3.org/1999/xlink" height="158.517" viewBox="0 0 130 158.517" style="width:100%; height:100%">
  <defs>
    <clipPath id="clip-path">
      <rect id="Rectangle_512" data-name="Rectangle 512" width="108.988" height="80.286" fill="#e97724"/>
    </clipPath>
  </defs>
  <g id="Component_189_1" data-name="Component 189 – 1" transform="translate(1)">
    <g id="Group_1253" data-name="Group 1253" transform="translate(9.698)">
      <g id="Group_1252" data-name="Group 1252" clip-path="url(#clip-path)">
        <path id="Path_3672" data-name="Path 3672" d="M88.191,5.041,52.749.446,41.173,8.608l-36-4.667A2.877,2.877,0,0,0,1.856,6.755L0,65.1A3.639,3.639,0,0,0,3.11,68.749L91.387,80.192A2.876,2.876,0,0,0,94.7,77.378L96.657,15.8Z" transform="translate(0 0.067)" fill="#1e2b3b"/>
        <path id="Path_3673" data-name="Path 3673" d="M102.284,4.595,66.842,0,53.434,8.229l-36-4.667A3.655,3.655,0,0,0,13.5,6.4L.547,65.147a2.954,2.954,0,0,0,2.493,3.67L91.318,80.26a3.654,3.654,0,0,0,3.928-2.838l13.673-62Z" transform="translate(0.07 0)" fill="#e97724"/>
      </g>
    </g>
  </g>
</svg>
