<svg xmlns="http://www.w3.org/2000/svg" width="90" height="120" viewBox="0 0 204 191.236">
  <g id="Component_191_1" data-name="Component 191 – 1" transform="translate(1)">
    <g id="Group_1237" data-name="Group 1237" transform="translate(47.065)">
      <path id="Path_3593" data-name="Path 3593" d="M201.139,55.523A55.524,55.524,0,1,1,145.616,0a55.523,55.523,0,0,1,55.524,55.523" transform="translate(-90.092)" fill="#e97724"/>
      <path id="Path_3594" data-name="Path 3594" d="M117.953,66.29l18.133,18.134a5.292,5.292,0,0,0,3.739,1.549h2.643a5.289,5.289,0,0,0,3.739-1.549L182.65,47.982a5.288,5.288,0,0,0-3.739-9.027H177.2a5.288,5.288,0,0,0-3.7,1.506L143.65,69.637a5.287,5.287,0,0,1-7.435-.043L125.432,58.811a5.288,5.288,0,0,0-7.479,7.479" transform="translate(-94.778 -6.941)" fill="#fff"/>
    </g>
  </g>
</svg>
