<svg xmlns="http://www.w3.org/2000/svg" xmlns:xlink="http://www.w3.org/1999/xlink" height="208.404" viewBox="0 0 102 208.404" style="width:100%; height:100%">
  <defs>
    <clipPath id="clip-path">
      <rect id="Rectangle_524" data-name="Rectangle 524" width="86.739" height="114.647" fill="none"/>
    </clipPath>
  </defs>
  <g id="Component_200_2" data-name="Component 200 – 2" transform="translate(1)">
    <g id="Group_1271" data-name="Group 1271" transform="translate(9.021)">
      <g id="Group_1270" data-name="Group 1270" transform="translate(0 0)" clip-path="url(#clip-path)">
        <path id="Path_3751" data-name="Path 3751" d="M64.19,103.6,94.964,64.117A38.242,38.242,0,0,0,104.38,39c0-21.538-17.925-39-40.037-39S24.306,17.46,24.306,39a38.232,38.232,0,0,0,9.207,24.88Zm.153-89.306c12.454,0,22.55,9.8,22.55,21.88s-10.1,21.88-22.55,21.88-22.55-9.8-22.55-21.88,10.1-21.88,22.55-21.88" transform="translate(-20.973 0.018)" fill="#fff"/>
        <path id="Path_3752" data-name="Path 3752" d="M71.993,747.413a138.071,138.071,0,0,0-16.99-1.9l-4.758,5.747A153.371,153.371,0,0,1,68.738,752.9c6.029.967,8.993,2.021,10.39,2.7-1.4.68-4.361,1.735-10.39,2.7A169.408,169.408,0,0,1,43.1,760.064h-.154a169.1,169.1,0,0,1-25.48-1.763c-6.029-.967-8.993-2.021-10.391-2.7,1.4-.68,4.361-1.735,10.391-2.7a152.289,152.289,0,0,1,18.052-1.626l-4.842-5.731a136.717,136.717,0,0,0-16.465,1.873C4.385,749.241,0,751.765,0,755.6s4.385,6.358,14.217,8.186A166.15,166.15,0,0,0,43.1,766.018a166.15,166.15,0,0,0,28.888-2.233c9.832-1.828,14.217-4.353,14.217-8.186s-4.385-6.359-14.217-8.186" transform="translate(0.265 -651.39)" fill="#e97724"/>
      </g>
    </g>
  </g>
</svg>
