<svg xmlns="http://www.w3.org/2000/svg" xmlns:xlink="http://www.w3.org/1999/xlink" height="214.457" viewBox="0 0 130 214.457" style="width:100%; height:100%">
  <defs>
    <clipPath id="clip-path">
      <rect id="Rectangle_525" data-name="Rectangle 525" width="110.121" height="122.944" transform="translate(0)" fill="none"/>
    </clipPath>
  </defs>
  <g id="Component_201_2" data-name="Component 201 – 2" transform="translate(1)">
    <g id="Group_1273" data-name="Group 1273" transform="translate(8.439)">
      <g id="Group_1272" data-name="Group 1272" transform="translate(0 0)" clip-path="url(#clip-path)">
        <path id="Path_3753" data-name="Path 3753" d="M101.058,585.106H8.9a8.9,8.9,0,0,1-8.9-8.9V536.9A8.9,8.9,0,0,1,8.9,528h92.162a8.9,8.9,0,0,1,8.9,8.9V576.21a8.9,8.9,0,0,1-8.9,8.9" transform="translate(0.083 -462.162)" fill="#e97724"/>
        <path id="Path_3754" data-name="Path 3754" d="M164.877,102.783,195.41,63.615a37.942,37.942,0,0,0,9.342-24.923C204.752,17.323,186.967,0,165.029,0s-39.723,17.323-39.723,38.691a37.932,37.932,0,0,0,9.135,24.685Zm.152-88.606c12.356,0,22.373,9.719,22.373,21.709s-10.016,21.708-22.373,21.708-22.373-9.719-22.373-21.708,10.017-21.709,22.373-21.709" transform="translate(-109.53 -0.285)" fill="#1e2b3b"/>
        <path id="Path_3755" data-name="Path 3755" d="M796.379,676.438h0A2.38,2.38,0,0,1,794,674.058V645a2.379,2.379,0,0,1,4.759,0v29.054a2.38,2.38,0,0,1-2.379,2.379" transform="translate(-694.482 -562.433)" fill="#fff"/>
      </g>
    </g>
  </g>
</svg>
