<svg id="Component_166_2" data-name="Component 166 – 2" xmlns="http://www.w3.org/2000/svg" xmlns:xlink="http://www.w3.org/1999/xlink" width="128" height="160.114" viewBox="0 0 128 160.114">
  <defs>
    <clipPath id="clip-path">
      <rect id="Rectangle_443" data-name="Rectangle 443" width="128" height="98" transform="translate(0.144 -0.339)" fill="none"/>
    </clipPath>
    <clipPath id="clip-path-3">
      <rect id="Rectangle_441" data-name="Rectangle 441" width="26.642" height="29.37" fill="none"/>
    </clipPath>
  </defs>
  <g id="Group_1160" data-name="Group 1160" transform="translate(0.09 0.282)">
    <g id="Group_1159" data-name="Group 1159" transform="translate(-0.234 0.057)" clip-path="url(#clip-path)">
      <g id="Group_1158" data-name="Group 1158" transform="translate(0 0)">
        <g id="Group_1157" data-name="Group 1157" clip-path="url(#clip-path)">
          <path id="Path_3371" data-name="Path 3371" d="M114.115,0H13.734A13.749,13.749,0,0,0,0,13.734V83.651A13.749,13.749,0,0,0,13.734,97.385H114.115a13.749,13.749,0,0,0,13.734-13.734V13.734A13.749,13.749,0,0,0,114.115,0" transform="translate(0.22 -0.063)" fill="#3d6895"/>
          <path id="Path_3372" data-name="Path 3372" d="M7.491,91.142V21.225A13.749,13.749,0,0,1,21.225,7.491H121.607a13.654,13.654,0,0,1,5.212,1.03A13.754,13.754,0,0,0,114.115,0H13.734A13.749,13.749,0,0,0,0,13.734V83.651a13.753,13.753,0,0,0,8.521,12.7,13.654,13.654,0,0,1-1.03-5.212" transform="translate(0.22 -0.063)" fill="#fff"/>
          <path id="Path_3373" data-name="Path 3373" d="M260.556,238.115l-34.622-36.931a3.746,3.746,0,0,0-5.465,0l-37.456,39.953a3.746,3.746,0,0,0,2.733,6.307h64.923a13.625,13.625,0,0,0,9.838-4.155,3.746,3.746,0,0,0,.049-5.175" transform="translate(-136.333 -150.121)" fill="#dd6b1f"/>
          <path id="Path_3374" data-name="Path 3374" d="M18.407,202.426h98.4L61.334,141.406a4.295,4.295,0,0,0-6.356,0L6.229,195.03a13.745,13.745,0,0,0,12.178,7.4" transform="translate(-4.453 -105.104)" fill="#e97724"/>
          <path id="Path_3375" data-name="Path 3375" d="M62.469,148.9A4.272,4.272,0,0,1,67.1,147.75l-5.767-6.344a4.295,4.295,0,0,0-6.356,0L6.229,195.029a13.8,13.8,0,0,0,8.132,6.786Z" transform="translate(-4.453 -105.104)" fill="#dd6b1f"/>
          <path id="Path_3376" data-name="Path 3376" d="M346.982,60a14.982,14.982,0,1,0,14.982,14.982A15,15,0,0,0,346.982,60" transform="translate(-248.878 -45.08)" fill="#1e2b3b"/>
          <g id="Group_1156" data-name="Group 1156" transform="translate(83.122 15.514)" style="mix-blend-mode: multiply;isolation: isolate">
            <g id="Group_1155" data-name="Group 1155">
              <g id="Group_1154" data-name="Group 1154" clip-path="url(#clip-path-3)">
                <path id="Path_3377" data-name="Path 3377" d="M354.474,86.757a14.971,14.971,0,0,1-11.66-24.376,14.979,14.979,0,1,0,15.828,23.781,14.934,14.934,0,0,1-4.169.595" transform="translate(-332 -62.381)" fill="#1e2b3b"/>
              </g>
            </g>
          </g>
        </g>
      </g>
    </g>
  </g>
</svg>
