<svg id="Component_169_1" data-name="Component 169 – 1" xmlns="http://www.w3.org/2000/svg" xmlns:xlink="http://www.w3.org/1999/xlink" width="90" height="120" viewBox="0 0 150.999 194.466">
  <defs>
    <clipPath id="clip-path">
      <rect id="Rectangle_461" data-name="Rectangle 461" width="150.999" height="120.626" fill="none"/>
    </clipPath>
    <clipPath id="clip-path-3">
      <rect id="Rectangle_453" data-name="Rectangle 453" width="5.88" height="5.734" fill="none"/>
    </clipPath>
    <clipPath id="clip-path-4">
      <rect id="Rectangle_454" data-name="Rectangle 454" width="4.193" height="5.62" fill="none"/>
    </clipPath>
    <clipPath id="clip-path-5">
      <rect id="Rectangle_456" data-name="Rectangle 456" width="3.951" height="5.537" fill="none"/>
    </clipPath>
    <clipPath id="clip-path-6">
      <rect id="Rectangle_457" data-name="Rectangle 457" width="3.161" height="5.208" fill="none"/>
    </clipPath>
  </defs>
  <g id="Group_1426" data-name="Group 1426" transform="translate(24.18 -851.25)">
    <g id="Group_1424" data-name="Group 1424" transform="translate(-24.18 851.25)" opacity="0.57">
      <g id="Group_1195" data-name="Group 1195" clip-path="url(#clip-path)">
        <g id="Group_1194" data-name="Group 1194">
          <g id="Group_1193" data-name="Group 1193" clip-path="url(#clip-path)">
            <path id="Path_3460" data-name="Path 3460" d="M198.774,168.494c6.128-4.067,17.057-11.041,17.057-11.041s19.32-12.535,18.96-13.608-6.879,1.735-6.879,1.735c.51-.991,6.465-4.538,6.228-5.181s-7.8,3.5-8.133,3.182,7.547-4.572,7.087-5.424-8.343,3.406-8.782,3.2,7.429-4.894,6.43-5.62-11.9,7.526-12.876,7.341,2.441-5.061,2.263-7.222-9.107,11.06-9.107,11.06c-2.05,1.784-18.192,8.715-18.192,8.715Z" transform="translate(-111.011 -78.076)" fill="#e97724"/>
            <path id="Path_3461" data-name="Path 3461" d="M250.454,151.59l-2.866,5.291s1.331-5.379.992-5.8Z" transform="translate(-142.534 -86.975)" fill="#b6613b"/>
            <path id="Path_3462" data-name="Path 3462" d="M120.436,143.373s-20.267-43.106-32.912-26.692c-13.6,17.649,10.829,33.7,23.281,46.866a9.155,9.155,0,0,0,12.483.752l29.363-19.672-4.973-10.167Z" transform="translate(-48.085 -65.026)" fill="#e97724"/>
            <path id="Path_3463" data-name="Path 3463" d="M98.609,151.41c5.418-6.133,12.854-14.264,18.751-19.917-6.826-11.635-21.12-26.535-29.835-15.222-9.784,12.7.121,24.574,11.084,35.14" transform="translate(-48.085 -64.616)" fill="#1e2b3b"/>
            <path id="Path_3464" data-name="Path 3464" d="M19.859,119.412C19.162,108.536,37.8,99.755,37.8,99.755l6.937-4.414.415,1.158,11.573,10.816,1.919-5-.109-1.872,1.9,1.992c1.4.229,7.094,8,8.588,11.623,2.273,5.508,2.965,12.728,3.184,17.061,5.154,42.206,5.551,43.52,5.551,43.52H26.147s-1.958,12.309-6.288-55.222" transform="translate(-11.422 -54.887)" fill="#1e2b3b"/>
            <path id="Path_3465" data-name="Path 3465" d="M30.641,115.37c.532-.352,34.047,70.794,34.047,70.794H23.147s-3.514-31.166-3-56.291c0,0,.607-7.957,10.494-14.5" transform="translate(-11.569 -66.417)" fill="#1e2b3b"/>
            <path id="Path_3466" data-name="Path 3466" d="M99.513,17.6a11.524,11.524,0,0,0,.65-5.17s8.23-2.807,6.265-7.512S94.795,2.837,94.795,2.837s3.661-5.614-3.533-1.048C88.4,3.605,87.924,4.051,85.7,3.062s-5.747.281-6.773,2.141c-.636,1.153-.244,2.178-1.113,2.087C74.6,6.954,73.092,10.314,75.3,17.438c0,0-1.114,3.633,1.054,9.3.783,2.046,3.453,2.733,3.453,2.733" transform="translate(-42.749 0)" fill="#1e2b3b"/>
            <path id="Path_3467" data-name="Path 3467" d="M101.834,30.035s2.441,16.509-2.587,22.875c-2.58,2.5-5.625,1.4-7.579,1.328-.076-.706.307,5.733.65,11.506,0,.014,0,.029,0,.044-.1.994-1.435,1.31-3.006,1.22a9.394,9.394,0,0,1-6.293-3.04l-4.773-5.126,2.663-12a20.074,20.074,0,0,0,.423-3.577c-1.939-.244-3.286-3.2-2.477-5.129.772-1.835,3.776-1.956,4.245-.224.475,1.757,1.947,1.71,2.13.252.106-.84-.53-7.735,4.441-8.549,2.985.209,3.673,2.278,5.193,2.36s2.923-3.12,3.672-2.256c2.36,2.727,3.3.315,3.3.315" transform="translate(-45.043 -17.024)" fill="#e97724"/>
            <path id="Path_3468" data-name="Path 3468" d="M81.75,51.52c1.038-3.5,3.336-.625,3.336-.625Z" transform="translate(-47.063 -28.661)" fill="#b6613b"/>
            <path id="Path_3469" data-name="Path 3469" d="M107.231,87.4l-3-.266,2.39,6.129Z" transform="translate(-60.004 -50.161)" fill="#b6613b"/>
            <path id="Path_3470" data-name="Path 3470" d="M127.063,58.044a24.468,24.468,0,0,1,1.189,3.506c-.535-.044-1.631.017-1.631.017Z" transform="translate(-72.895 -33.415)" fill="#b6613b"/>
            <path id="Path_3471" data-name="Path 3471" d="M130.59,55.885c-.013.524.182.953.435.959s.468-.413.481-.937-.182-.953-.434-.959-.468.413-.481.937" transform="translate(-75.179 -31.633)" fill="#0e162e"/>
            <path id="Path_3472" data-name="Path 3472" d="M122.448,55.395c-.013.524.182.953.435.959s.468-.413.481-.937-.181-.953-.434-.959-.468.413-.481.937" transform="translate(-70.492 -31.351)" fill="#0e162e"/>
            <path id="Path_3473" data-name="Path 3473" d="M116.415,46.3c-.605.06-.647-2.078,2.413-1.8.866.079,1.6.93,1.194,1.58-.265.424-1.415,0-3.607.22" transform="translate(-66.832 -25.607)" fill="#0e162e"/>
            <path id="Path_3474" data-name="Path 3474" d="M132.593,46.784c.575.2,1.458-1.415-.25-2.007a1.087,1.087,0,0,0-1.4,1.516c.216.395.746.179,1.653.491" transform="translate(-75.306 -25.728)" fill="#0e162e"/>
            <path id="Path_3475" data-name="Path 3475" d="M125.417,68.953l-4.109-.327a2.721,2.721,0,0,0,2.234,2.118c1.449.117,1.875-1.791,1.875-1.791" transform="translate(-69.836 -39.507)" fill="#fff"/>
            <path id="Path_3476" data-name="Path 3476" d="M69.129,250.621c7.307-.832,20.424-2.356,20.424-2.356s26.274.55,26.442-.568-15.945-9.651-15.945-9.651c-2.638.656-30.361-1.58-30.361-1.58Z" transform="translate(-39.797 -136.132)" fill="#df9257"/>
            <path id="Path_3477" data-name="Path 3477" d="M26.754,124.289c.177-3.59,5.129-15.735-1.861-17.2-7.37-1.544-29.158,20.776-24.155,58.041,1.135,8.456,6.026,15.435,20.685,12.756L49.133,173.8l-.839-10.63-26.854-6.154s4.79-22.07,5.315-32.729" transform="translate(0 -61.608)" fill="#e97724"/>
            <path id="Path_3478" data-name="Path 3478" d="M29.516,148.083c1.119-10.63,1.957-17.806,2.238-23.5.177-3.59.373-16.015-6.617-17.479C19.776,105.984,5.182,119.835.423,140.53c7.915,2.892,21.062,4.986,29.093,7.553" transform="translate(-0.244 -61.623)" fill="#1e2b3b"/>
            <g id="Group_1183" data-name="Group 1183" transform="translate(47.816 20.433)" opacity="0.33">
              <g id="Group_1182" data-name="Group 1182">
                <g id="Group_1181" data-name="Group 1181" clip-path="url(#clip-path-3)">
                  <path id="Path_3479" data-name="Path 3479" d="M116.775,53.891h-2.287a1.8,1.8,0,0,1-1.8-1.8V49.954a1.8,1.8,0,0,1,1.8-1.8h2.287a1.8,1.8,0,0,1,1.8,1.8v2.141a1.8,1.8,0,0,1-1.8,1.8" transform="translate(-112.691 -48.157)" fill="#fff"/>
                </g>
              </g>
            </g>
            <g id="Group_1186" data-name="Group 1186" transform="translate(47.816 20.433)" opacity="0.33">
              <g id="Group_1185" data-name="Group 1185">
                <g id="Group_1184" data-name="Group 1184" clip-path="url(#clip-path-4)">
                  <path id="Path_3480" data-name="Path 3480" d="M113.77,53.777c.308-.486.608-.978.89-1.483.762-1.364,1.464-2.782,2.223-4.137h-2.615A1.858,1.858,0,0,0,112.69,50.2v1.643a2.06,2.06,0,0,0,1.08,1.931" transform="translate(-112.69 -48.157)" fill="#fff"/>
                </g>
              </g>
            </g>
            <rect id="Rectangle_455" data-name="Rectangle 455" width="5.88" height="5.734" rx="2.867" transform="translate(47.816 20.434)" fill="none" stroke="#0e162e" stroke-width="2.156"/>
            <g id="Group_1189" data-name="Group 1189" transform="translate(55.008 20.548)" opacity="0.33">
              <g id="Group_1188" data-name="Group 1188">
                <g id="Group_1187" data-name="Group 1187" clip-path="url(#clip-path-5)">
                  <path id="Path_3481" data-name="Path 3481" d="M132.212,53.964h-1.189a1.381,1.381,0,0,1-1.381-1.381V49.808a1.381,1.381,0,0,1,1.381-1.381h1.189a1.381,1.381,0,0,1,1.381,1.381v2.775a1.381,1.381,0,0,1-1.381,1.381" transform="translate(-129.642 -48.427)" fill="#fff"/>
                </g>
              </g>
            </g>
            <g id="Group_1192" data-name="Group 1192" transform="translate(55.008 20.548)" opacity="0.33">
              <g id="Group_1191" data-name="Group 1191">
                <g id="Group_1190" data-name="Group 1190" clip-path="url(#clip-path-6)">
                  <path id="Path_3482" data-name="Path 3482" d="M130.121,53.636q1.344-2.55,2.682-5.1a.96.96,0,0,0-.423-.1h-1.525A1.428,1.428,0,0,0,129.642,50v2.392a1.755,1.755,0,0,0,.479,1.244" transform="translate(-129.642 -48.428)" fill="#fff"/>
                </g>
              </g>
            </g>
            <rect id="Rectangle_458" data-name="Rectangle 458" width="3.951" height="5.537" rx="1.976" transform="translate(55.008 20.548)" fill="none" stroke="#0e162e" stroke-width="1.657"/>
            <line id="Line_8" data-name="Line 8" x2="1.2" transform="translate(53.696 23.815)" fill="none" stroke="#0e162e" stroke-width="2.156"/>
            <line id="Line_9" data-name="Line 9" x2="8.681" y2="0.118" transform="translate(39.078 21.807)" fill="none" stroke="#0e162e" stroke-width="2.156"/>
            <rect id="Rectangle_459" data-name="Rectangle 459" width="37.363" height="4.382" transform="translate(52.717 110.632)" fill="#fff"/>
            <path id="Path_3483" data-name="Path 3483" d="M179.5,260.734q-2.818,2.132-5.545,4.382h16.268v-4.382Z" transform="translate(-100.147 -150.102)" fill="#efefef"/>
            <path id="Path_3484" data-name="Path 3484" d="M242.474,215.959H183.586L197.8,175.347h58.888Z" transform="translate(-105.689 -100.946)" fill="#fff"/>
            <line id="Line_10" data-name="Line 10" x2="59.184" transform="translate(78.954 110.331)" fill="none" stroke="#efefef" stroke-width="1.311"/>
            <path id="Path_3485" data-name="Path 3485" d="M267.861,220.877a3.7,3.7,0,1,0-3.7,3.7,3.7,3.7,0,0,0,3.7-3.7" transform="translate(-149.949 -125.029)" fill="#efefef"/>
          </g>
        </g>
      </g>
    </g>
    <g id="Group_1425" data-name="Group 1425" transform="translate(-11.962 862.214)">
      <g id="Ellipse_86" data-name="Ellipse 86" fill="none" stroke="#e97724" stroke-width="11">
        <circle cx="59.059" cy="59.059" r="59.059" stroke="none"/>
        <circle cx="59.059" cy="59.059" r="53.559" fill="none"/>
      </g>
      <path id="Path_2807" data-name="Path 2807" d="M19298.121-1717.486l-55.736,87.712" transform="translate(-19211.17 1730.066)" fill="#e97724" stroke="#e97724" stroke-width="11"/>
    </g>
  </g>
</svg>
