<svg xmlns="http://www.w3.org/2000/svg" width="120" height="150" viewBox="0 0 158.364 212.005">
  <g id="Component_177_1" data-name="Component 177 – 1" transform="translate(1.678)">
    <g id="map-2277029" transform="translate(1.822 30.892)">
      <rect id="Rectangle_395" data-name="Rectangle 395" width="151.364" height="99.744" fill="none" stroke="#1e2b3b" stroke-linecap="round" stroke-linejoin="round" stroke-width="7"/>
      <rect id="Rectangle_396" data-name="Rectangle 396" width="45.021" height="8.926" rx="4.463" transform="translate(53.173 14.36)" fill="#fff"/>
      <path id="Path_2852" data-name="Path 2852" d="M227.656,618.909a9.025,9.025,0,0,0-9.121,8.927,8.844,8.844,0,0,0,3.048,6.647A20,20,0,0,0,208.715,658.5H247.7a20.065,20.065,0,0,0-13.662-24.287,8.834,8.834,0,0,0,2.739-6.374,9.025,9.025,0,0,0-9.121-8.927Z" transform="translate(-194.86 -575.441)" fill="#fff" fill-rule="evenodd"/>
      <rect id="Rectangle_397" data-name="Rectangle 397" width="68.307" height="3.881" rx="1.941" transform="translate(73.355 45.797)" fill="#fff"/>
      <rect id="Rectangle_398" data-name="Rectangle 398" width="68.307" height="3.881" rx="1.941" transform="translate(73.355 55.499)" fill="#fff"/>
      <rect id="Rectangle_399" data-name="Rectangle 399" width="68.307" height="3.881" rx="1.941" transform="translate(73.741 65.202)" fill="#fff"/>
      <rect id="Rectangle_400" data-name="Rectangle 400" width="68.307" height="3.881" rx="1.941" transform="translate(73.741 74.904)" fill="#fff"/>
    </g>
    <g id="Group_982" data-name="Group 982">
      <g id="Ellipse_86" data-name="Ellipse 86" fill="none" stroke="#e97724" stroke-width="16">
        <ellipse cx="77.239" cy="77.239" rx="77.239" ry="77.239" stroke="none"/>
        <ellipse cx="77.239" cy="77.239" rx="69.239" ry="69.239" fill="none"/>
      </g>
      <path id="Path_2807" data-name="Path 2807" d="M19315.426-1717.486l-73.043,114.943" transform="translate(-19201.367 1733.693)" fill="#e97724" stroke="#e97724" stroke-width="19"/>
    </g>
  </g>
</svg>
