<svg xmlns="http://www.w3.org/2000/svg" width="90" height="120" viewBox="0 0 158.364 248.298">
  <g id="Component_178_1" data-name="Component 178 – 1" transform="translate(3.5)">
    <g id="Group_994" data-name="Group 994">
      <g id="map-2277029" transform="translate(0 67.185)">
        <rect id="Rectangle_395" data-name="Rectangle 395" width="151.364" height="99.744" transform="translate(0 0)" fill="none" stroke="#1e2b3b" stroke-linecap="round" stroke-linejoin="round" stroke-width="7"/>
        <rect id="Rectangle_396" data-name="Rectangle 396" width="45.021" height="8.926" rx="4.463" transform="translate(53.173 14.36)" fill="#fff"/>
        <path id="Path_2852" data-name="Path 2852" d="M227.656,618.909a9.025,9.025,0,0,0-9.121,8.927,8.844,8.844,0,0,0,3.048,6.647A20,20,0,0,0,208.715,658.5H247.7a20.065,20.065,0,0,0-13.662-24.287,8.834,8.834,0,0,0,2.739-6.374,9.025,9.025,0,0,0-9.121-8.927Z" transform="translate(-194.86 -575.441)" fill="#fff" fill-rule="evenodd"/>
        <rect id="Rectangle_397" data-name="Rectangle 397" width="68.307" height="3.881" rx="1.941" transform="translate(73.355 45.797)" fill="#fff"/>
        <rect id="Rectangle_398" data-name="Rectangle 398" width="68.307" height="3.881" rx="1.941" transform="translate(73.355 55.499)" fill="#fff"/>
        <rect id="Rectangle_399" data-name="Rectangle 399" width="68.307" height="3.881" rx="1.941" transform="translate(73.741 65.202)" fill="#fff"/>
        <rect id="Rectangle_400" data-name="Rectangle 400" width="68.307" height="3.881" rx="1.941" transform="translate(73.741 74.904)" fill="#fff"/>
      </g>
      <text id="_" data-name="?" transform="translate(36.902 127)" fill="#e97724" font-size="131" font-family="Montserrat-Bold, Montserrat" font-weight="700"><tspan x="0" y="0">?</tspan></text>
    </g>
  </g>
</svg>
