<svg xmlns="http://www.w3.org/2000/svg" xmlns:xlink="http://www.w3.org/1999/xlink" height="201.144" viewBox="0 0 128 201.144" style="width:100%; height:100%">
  <defs>
    <clipPath id="clip-path">
      <rect id="Rectangle_504" data-name="Rectangle 504" width="118.885" height="101.396" fill="none"/>
    </clipPath>
    <clipPath id="clip-path-3">
      <rect id="Rectangle_500" data-name="Rectangle 500" width="73.687" height="3.378" fill="#3d6895"/>
    </clipPath>
    <clipPath id="clip-path-4">
      <rect id="Rectangle_501" data-name="Rectangle 501" width="73.687" height="3.302" fill="#3d6895"/>
    </clipPath>
    <clipPath id="clip-path-5">
      <rect id="Rectangle_502" data-name="Rectangle 502" width="73.688" height="3.512" fill="#3d6895"/>
    </clipPath>
  </defs>
  <g id="Component_185_1" data-name="Component 185 – 1" transform="translate(1)">
    <g id="Group_1236" data-name="Group 1236" transform="translate(3.558)">
      <g id="Group_1235" data-name="Group 1235" clip-path="url(#clip-path)">
        <g id="Group_1234" data-name="Group 1234">
          <g id="Group_1233" data-name="Group 1233" clip-path="url(#clip-path)">
            <path id="Path_3586" data-name="Path 3586" d="M118.857,151.494l.028-61.02a3.851,3.851,0,0,0-3.838-3.842L3.87,86.582A3.851,3.851,0,0,0,.028,90.42L0,151.439a3.851,3.851,0,0,0,3.838,3.843l111.177.05a3.851,3.851,0,0,0,3.841-3.838" transform="translate(0 -53.936)" fill="#fff"/>
            <rect id="Rectangle_498" data-name="Rectangle 498" width="118.857" height="13.595" transform="translate(0.022 42.886)" fill="#1e2b3b"/>
            <rect id="Rectangle_499" data-name="Rectangle 499" width="72.723" height="10.688" transform="translate(8.962 60.27)" fill="#3d6895"/>
            <path id="Path_3587" data-name="Path 3587" d="M38.575,221.445l0-7.791a2.9,2.9,0,0,0-2.9-2.9l-9.032,0a2.9,2.9,0,0,0-2.9,2.9l0,7.791a2.9,2.9,0,0,0,2.9,2.9l9.033,0a2.9,2.9,0,0,0,2.9-2.9" transform="translate(-14.788 -131.285)" fill="#3d6895"/>
            <g id="Group_1226" data-name="Group 1226" transform="translate(36.231 77.5)" opacity="0.2">
              <g id="Group_1225" data-name="Group 1225">
                <g id="Group_1224" data-name="Group 1224" clip-path="url(#clip-path-3)">
                  <path id="Path_3588" data-name="Path 3588" d="M97.213,208.889l71.438.032a1.122,1.122,0,0,0,1.124-1.124v-1.1a1.124,1.124,0,0,0-1.123-1.124l-71.438-.032a1.124,1.124,0,0,0-1.125,1.123v1.1a1.124,1.124,0,0,0,1.123,1.125" transform="translate(-96.09 -205.543)" fill="#3d6895"/>
                </g>
              </g>
            </g>
            <g id="Group_1229" data-name="Group 1229" transform="translate(36.228 83.851)" opacity="0.2">
              <g id="Group_1228" data-name="Group 1228">
                <g id="Group_1227" data-name="Group 1227" clip-path="url(#clip-path-4)">
                  <path id="Path_3589" data-name="Path 3589" d="M97.194,225.658l71.464.032a1.11,1.11,0,0,0,1.112-1.11v-1.047a1.111,1.111,0,0,0-1.111-1.112l-71.464-.032a1.112,1.112,0,0,0-1.112,1.11v1.049a1.109,1.109,0,0,0,1.11,1.111" transform="translate(-96.083 -222.389)" fill="#3d6895"/>
                </g>
              </g>
            </g>
            <g id="Group_1232" data-name="Group 1232" transform="translate(36.225 89.722)" opacity="0.2">
              <g id="Group_1231" data-name="Group 1231">
                <g id="Group_1230" data-name="Group 1230" clip-path="url(#clip-path-5)">
                  <path id="Path_3590" data-name="Path 3590" d="M169.762,240.324v-1.186a1.147,1.147,0,0,0-1.146-1.147l-71.394-.032a1.146,1.146,0,0,0-1.147,1.146v1.186a1.148,1.148,0,0,0,1.146,1.148l71.394.033a1.149,1.149,0,0,0,1.147-1.147" transform="translate(-96.075 -237.959)" fill="#3d6895"/>
                </g>
              </g>
            </g>
          </g>
        </g>
      </g>
    </g>
  </g>
</svg>
