<svg xmlns="http://www.w3.org/2000/svg" xmlns:xlink="http://www.w3.org/1999/xlink" height="192.859" viewBox="0 0 128.463 192.859"
 style="width:100%; height:100%"
>
  <defs>
    <filter id="Rectangle_359" x="0" y="0" width="128.463" height="120.165" filterUnits="userSpaceOnUse">
      <feOffset dx="0.685" dy="0.685" input="SourceAlpha"/>
      <feGaussianBlur stdDeviation="0.514" result="blur"/>
      <feFlood flood-opacity="0.251"/>
      <feComposite operator="in" in2="blur"/>
      <feComposite in="SourceGraphic"/>
    </filter>
  </defs>
  <g id="Component_174_1" data-name="Component 174 – 1" transform="translate(0.857 0.857)">
    <g id="Artwork_18" data-name="Artwork 18" transform="translate(62.689 58.541)">
      <g id="Group_973" data-name="Group 973" transform="translate(-62.689 -58.541)">
        <g transform="matrix(1, 0, 0, 1, -0.86, -0.86)" filter="url(#Rectangle_359)">
          <rect id="Rectangle_359-2" data-name="Rectangle 359" width="125.378" height="117.081" rx="11.529" transform="translate(0.86 0.86)" fill="#f4f4f4"/>
        </g>
        <rect id="Rectangle_360" data-name="Rectangle 360" width="109.683" height="24.903" rx="7.408" transform="translate(7.847 13.743)" fill="#3c5a99"/>
        <rect id="Rectangle_361" data-name="Rectangle 361" width="109.683" height="24.903" rx="7.408" transform="translate(7.847 46.089)" fill="#389eef"/>
        <rect id="Rectangle_362" data-name="Rectangle 362" width="109.683" height="24.903" rx="7.408" transform="translate(7.847 78.435)" fill="#cd083f"/>
        <path id="Path_2787" data-name="Path 2787" d="M51.047,56.242v6.835a.178.178,0,0,0,.178.178h2.538a.178.178,0,0,0,.178-.178V56.131h1.84a.177.177,0,0,0,.177-.163l.177-2.093a.178.178,0,0,0-.178-.193H53.941V52.2a.629.629,0,0,1,.63-.63h1.418a.178.178,0,0,0,.178-.178V49.3a.178.178,0,0,0-.178-.178h-2.4a2.546,2.546,0,0,0-2.546,2.547v2.018H49.778a.177.177,0,0,0-.178.178v2.093a.177.177,0,0,0,.178.178h1.269Z" transform="translate(-30.347 -29.992)" fill="#fff" fill-rule="evenodd"/>
        <path id="Path_2788" data-name="Path 2788" d="M54.582,128.812a7.264,7.264,0,0,1-1.639.426c.24-.041.519-.475.66-.651a2.655,2.655,0,0,0,.459-.9.064.064,0,0,0-.021-.078.108.108,0,0,0-.089.007,7.616,7.616,0,0,1-1.773.677.122.122,0,0,1-.124-.033,1.607,1.607,0,0,0-.156-.158,3.147,3.147,0,0,0-.858-.525,2.994,2.994,0,0,0-1.315-.211,3.14,3.14,0,0,0-1.246.352,3.211,3.211,0,0,0-1.006.821,3.092,3.092,0,0,0-.6,1.2,3.279,3.279,0,0,0-.033,1.271c.01.071,0,.08-.061.071a9.439,9.439,0,0,1-6.076-3.093c-.071-.081-.109-.081-.168.007a3.082,3.082,0,0,0,.525,3.64c.12.113.242.226.374.329a3.094,3.094,0,0,1-1.172-.329c-.071-.045-.107-.018-.113.062a1.757,1.757,0,0,0,.019.348,3.115,3.115,0,0,0,1.921,2.484,1.8,1.8,0,0,0,.389.119,3.5,3.5,0,0,1-1.15.035c-.084-.016-.116.026-.084.107a3.234,3.234,0,0,0,2.417,2.023c.109.019.219.019.328.044-.006.01-.013.01-.019.02a3.825,3.825,0,0,1-1.65.875,5.9,5.9,0,0,1-2.506.32c-.135-.02-.164-.018-.2,0s0,.055.039.09c.171.114.344.213.523.31a8.2,8.2,0,0,0,1.674.67,8.921,8.921,0,0,0,8.663-2.025,9.087,9.087,0,0,0,2.4-6.631c0-.1.112-.147.179-.2a7.466,7.466,0,0,0,1.472-1.226c.078-.1.371-.2.371-.235v-.013C54.936,128.773,54.642,128.785,54.582,128.812Z" transform="translate(-24.731 -73.93)" fill="#fff"/>
        <g id="Group_972" data-name="Group 972" transform="translate(14.869 85.313)">
          <path id="Path_2789" data-name="Path 2789" d="M45.169,204.542c0,.033-.006.061-.006.088,0,.68,0,2.151,0,2.151h2.983a2.531,2.531,0,0,1-1.095,1.677,3.19,3.19,0,0,1-1.621.521,3.284,3.284,0,0,1-1.209-.14,3.36,3.36,0,0,1-2.3-2.9,3.2,3.2,0,0,1,.067-1.01,3.292,3.292,0,0,1,3.667-2.566,3.006,3.006,0,0,1,1.638.79l1.622-1.623a6.845,6.845,0,0,0-.987-.725,5.309,5.309,0,0,0-2.645-.719c-.178,0-.356.008-.533.015a4.393,4.393,0,0,0-.918.143,5.588,5.588,0,0,0-4.224,5.092,5.272,5.272,0,0,0,.118,1.5,5.52,5.52,0,0,0,2.18,3.332,5.442,5.442,0,0,0,2.976,1.054,5.917,5.917,0,0,0,1.827-.18,4.851,4.851,0,0,0,2.743-1.8,5.973,5.973,0,0,0,.956-4.7Z" transform="translate(-39.601 -200.087)" fill="#fff"/>
          <path id="Path_2790" data-name="Path 2790" d="M72.778,207.924H70.89v-1.945H69.368v1.945H67.424v1.522h1.944v1.944H70.89v-1.944h1.944v-1.522Z" transform="translate(-55.226 -203.396)" fill="#fff"/>
        </g>
      </g>
    </g>
  </g>
</svg>
