<svg xmlns="http://www.w3.org/2000/svg" width="90" height="120" viewBox="0 0 148 183.693">
  <g id="Component_184_1" data-name="Component 184 – 1" transform="translate(1)">
    <g id="Group_1237" data-name="Group 1237" transform="translate(29.314)">
      <path id="Path_3593" data-name="Path 3593" d="M179.113,44.51A44.511,44.511,0,1,1,134.6,0a44.51,44.51,0,0,1,44.511,44.51" transform="translate(-90.092)" fill="#e97724"/>
      <path id="Path_3594" data-name="Path 3594" d="M117.644,60.868,132.18,75.405a4.243,4.243,0,0,0,3,1.242H137.3a4.24,4.24,0,0,0,3-1.242l29.214-29.214a4.239,4.239,0,0,0-3-7.237h-1.374a4.239,4.239,0,0,0-2.963,1.208L138.244,63.552a4.239,4.239,0,0,1-5.96-.034l-8.645-8.644a4.239,4.239,0,0,0-6,6" transform="translate(-99.065 -13.29)" fill="#fff"/>
    </g>
  </g>
</svg>