<svg id="Component_160_1" data-name="Component 160 – 1" xmlns="http://www.w3.org/2000/svg" xmlns:xlink="http://www.w3.org/1999/xlink" width="80" height="80" viewBox="0 0 173.695 151.163">
  <defs>
    <clipPath id="clip-path">
      <rect id="Rectangle_556" data-name="Rectangle 556" width="173.695" height="96.788" fill="none"/>
    </clipPath>
    <clipPath id="clip-path-2">
      <path id="Path_4176" data-name="Path 4176" d="M28.729,1374.5a2.243,2.243,0,0,0,1.766,2.275l48.63,8.248a7.069,7.069,0,0,0,1.745.077l117.966-9.4a2.148,2.148,0,0,0,1.869-2.221v-1.748l-171.976-1.416Z" transform="translate(-28.729 -1370.309)" fill="none"/>
    </clipPath>
    <linearGradient id="linear-gradient" x1="-0.034" y1="0.592" x2="-0.033" y2="0.592" gradientUnits="objectBoundingBox">
      <stop offset="0" stop-color="#283649"/>
      <stop offset="0.996" stop-color="#1e2b3b"/>
      <stop offset="1" stop-color="#1e2b3b"/>
    </linearGradient>
    <clipPath id="clip-path-3">
      <path id="Path_4177" data-name="Path 4177" d="M3.5,0A3.5,3.5,0,0,0,0,3.5V81.01a3.218,3.218,0,0,0,3.5,3.254L111.285,76.6a3.3,3.3,0,0,0,2.874-3.371V3.167A3.03,3.03,0,0,0,111.285,0Z" fill="none"/>
    </clipPath>
    <linearGradient id="linear-gradient-2" x1="0.086" y1="0.947" x2="0.087" y2="0.947" gradientUnits="objectBoundingBox">
      <stop offset="0" stop-color="#2a394b"/>
      <stop offset="0.959" stop-color="#1e2c3c"/>
      <stop offset="0.996" stop-color="#1e2b3b"/>
      <stop offset="1" stop-color="#1e2b3b"/>
    </linearGradient>
    <clipPath id="clip-path-4">
      <path id="Path_4178" data-name="Path 4178" d="M210.343,75.223l-100.393.418a2.868,2.868,0,0,0-2.845,2.872V146.37a2.637,2.637,0,0,0,2.845,2.671l100.393-6.655a2.705,2.705,0,0,0,2.371-2.762V77.818a2.484,2.484,0,0,0-2.362-2.595h-.009" transform="translate(-107.105 -75.223)" fill="#fff"/>
    </clipPath>
    <clipPath id="clip-path-5">
      <rect id="Rectangle_552" data-name="Rectangle 552" width="173.694" height="96.788" fill="none"/>
    </clipPath>
    <clipPath id="clip-path-6">
      <path id="Path_4180" data-name="Path 4180" d="M144.31,1274.319l-115.581,8.065,50.4,8.547a7.075,7.075,0,0,0,1.745.077l119.835-9.552-54.556-7.082a9.264,9.264,0,0,0-1.194-.077q-.322,0-.645.022" transform="translate(-28.729 -1274.297)" fill="none"/>
    </clipPath>
    <linearGradient id="linear-gradient-3" x1="-0.01" y1="1.227" x2="-0.01" y2="1.227" xlink:href="#linear-gradient-2"/>
    <clipPath id="clip-path-8">
      <rect id="Rectangle_554" data-name="Rectangle 554" width="126.006" height="11.119" fill="none"/>
    </clipPath>
  </defs>
  <g id="Group_1370" data-name="Group 1370">
    <g id="Group_1369" data-name="Group 1369" clip-path="url(#clip-path)">
      <g id="Group_1355" data-name="Group 1355" transform="translate(1.719 81.976)">
        <g id="Group_1354" data-name="Group 1354" clip-path="url(#clip-path-2)">
          <rect id="Rectangle_549" data-name="Rectangle 549" width="164.303" height="80.272" transform="matrix(0.922, -0.387, 0.387, 0.922, -5.296, 2.225)" fill="url(#linear-gradient)"/>
        </g>
      </g>
      <g id="Group_1357" data-name="Group 1357">
        <g id="Group_1356" data-name="Group 1356" clip-path="url(#clip-path-3)">
          <rect id="Rectangle_550" data-name="Rectangle 550" width="137.935" height="122.023" transform="translate(-30.133 12.656) rotate(-22.782)" fill="url(#linear-gradient-2)"/>
        </g>
      </g>
      <g id="Group_1359" data-name="Group 1359" transform="translate(6.407 4.5)">
        <g id="Group_1358" data-name="Group 1358" clip-path="url(#clip-path-4)">
          <rect id="Rectangle_551" data-name="Rectangle 551" width="118.169" height="128.665" transform="matrix(0.522, -0.853, 0.853, 0.522, -32.906, 53.794)" fill="#fff"/>
        </g>
      </g>
      <g id="Group_1361" data-name="Group 1361">
        <g id="Group_1360" data-name="Group 1360" clip-path="url(#clip-path-5)">
          <path id="Path_4179" data-name="Path 4179" d="M1012.691,14.957a1.243,1.243,0,1,1-1.24-1.3,1.278,1.278,0,0,1,1.24,1.3" transform="translate(-949.775 -12.837)" fill="#fff"/>
        </g>
      </g>
      <g id="Group_1363" data-name="Group 1363" transform="translate(1.719 76.233)">
        <g id="Group_1362" data-name="Group 1362" clip-path="url(#clip-path-6)">
          <rect id="Rectangle_553" data-name="Rectangle 553" width="171.976" height="16.758" transform="translate(0 0)" fill="url(#linear-gradient-3)"/>
        </g>
      </g>
      <g id="Group_1368" data-name="Group 1368">
        <g id="Group_1367" data-name="Group 1367" clip-path="url(#clip-path-5)">
          <g id="Group_1366" data-name="Group 1366" transform="translate(18.584 77.708)" opacity="0.3" style="mix-blend-mode: multiply;isolation: isolate">
            <g id="Group_1365" data-name="Group 1365">
              <g id="Group_1364" data-name="Group 1364" clip-path="url(#clip-path-8)">
                <path id="Path_4181" data-name="Path 4181" d="M310.644,1305.781l96.225-6.814,29.781,3.835-95.4,7.284Z" transform="translate(-310.644 -1298.967)" fill="#1e2b3b"/>
              </g>
            </g>
          </g>
        </g>
      </g>
    </g>
  </g>
</svg>
