<svg id="Component_179_1" data-name="Component 179 – 1" xmlns="http://www.w3.org/2000/svg" xmlns:xlink="http://www.w3.org/1999/xlink" width="120" height="150" viewBox="0 0 233.946 213.662">
  <defs>
    <clipPath id="clip-path">
      <rect id="Rectangle_490" data-name="Rectangle 490" width="233.946" height="131.652" fill="none"/>
    </clipPath>
  </defs>
  <g id="Group_1204" data-name="Group 1204" transform="translate(0 0)">
    <g id="Group_1203" data-name="Group 1203" transform="translate(0 0)" clip-path="url(#clip-path)">
      <path id="Path_3522" data-name="Path 3522" d="M194.921,128.7H21.055a10.379,10.379,0,0,1-10.379-10.38V10.378A10.378,10.378,0,0,1,21.055,0H194.921A10.378,10.378,0,0,1,205.3,10.378V118.323a10.379,10.379,0,0,1-10.379,10.38" transform="translate(-3.069)" fill="#1e2b3b"/>
      <path id="Path_3523" data-name="Path 3523" d="M200.1,180.232H10.76A10.76,10.76,0,0,1,0,169.472v-.5H210.86v.5a10.76,10.76,0,0,1-10.76,10.76" transform="translate(0 -48.58)" fill="#1e2b3b"/>
      <rect id="Rectangle_470" data-name="Rectangle 470" width="183.631" height="108.688" transform="translate(12.831 5.114)" fill="#1e2b3b"/>
      <path id="Path_3524" data-name="Path 3524" d="M120.327,167.277l2.616,4.162h36.819l2.43-4.162Z" transform="translate(-34.595 -48.093)" fill="#4d6892"/>
      <path id="Path_3525" data-name="Path 3525" d="M197.429,117H25.649a2.332,2.332,0,0,1-2.333-2.332v-100a2.333,2.333,0,0,1,2.332-2.333H197.429a2.332,2.332,0,0,1,2.331,2.333v100A2.332,2.332,0,0,1,197.429,117" transform="translate(-6.703 -3.548)" fill="#ebebeb"/>
      <path id="Path_3526" data-name="Path 3526" d="M199.5,120.31H23.051l.189-96.992H199.5Z" transform="translate(-6.627 -6.704)" fill="#fff"/>
      <path id="Path_3527" data-name="Path 3527" d="M42.49,17.445a1.409,1.409,0,1,1-1.409-1.409,1.409,1.409,0,0,1,1.409,1.409" transform="translate(-11.406 -4.61)" fill="#263238"/>
      <path id="Path_3528" data-name="Path 3528" d="M30.5,17.445a1.409,1.409,0,1,1-1.409-1.409A1.409,1.409,0,0,1,30.5,17.445" transform="translate(-7.959 -4.61)" fill="#263238"/>
      <path id="Path_3529" data-name="Path 3529" d="M36.257,17.445a1.409,1.409,0,1,1-1.409-1.409,1.409,1.409,0,0,1,1.409,1.409" transform="translate(-9.614 -4.61)" fill="#263238"/>
      <path id="Path_3530" data-name="Path 3530" d="M203.627,167.225c0,.07-43.2.126-96.471.126-53.292,0-96.48-.056-96.48-.126s43.188-.126,96.48-.126c53.274,0,96.471.056,96.471.126" transform="translate(-3.069 -48.042)" fill="#455a64"/>
      <rect id="Rectangle_471" data-name="Rectangle 471" width="176.444" height="39.387" transform="translate(16.613 32.25)" fill="#f5f5f5"/>
      <rect id="Rectangle_472" data-name="Rectangle 472" width="25.463" height="6.665" transform="translate(20.945 21.878)" fill="#f5f5f5"/>
      <rect id="Rectangle_473" data-name="Rectangle 473" width="13.943" height="6.665" transform="translate(174.927 21.878)" fill="#f5f5f5"/>
      <rect id="Rectangle_474" data-name="Rectangle 474" width="22.816" height="6.665" transform="translate(147.922 21.878)" fill="#f5f5f5"/>
      <rect id="Rectangle_475" data-name="Rectangle 475" width="22.816" height="6.665" transform="translate(120.361 21.878)" fill="#f5f5f5"/>
      <rect id="Rectangle_476" data-name="Rectangle 476" width="155.511" height="6.982" transform="translate(25.234 94.88)" fill="#f5f5f5"/>
      <rect id="Rectangle_477" data-name="Rectangle 477" width="155.511" height="6.982" transform="translate(25.234 81.674)" fill="#f5f5f5"/>
      <path id="Path_3531" data-name="Path 3531" d="M303.047,120.124l-31.706-.019a6.9,6.9,0,0,1-6.9-6.888l.016-79.262a6.9,6.9,0,0,1,6.91-6.886l31.706.019a6.9,6.9,0,0,1,6.9,6.888l-.016,79.262a6.9,6.9,0,0,1-6.911,6.886" transform="translate(-76.028 -7.783)" fill="#1e2b3b"/>
      <path id="Path_3532" data-name="Path 3532" d="M304.025,30.354l-6.169-.029a1.532,1.532,0,0,0-1.5,1.559l0,1.119a1.533,1.533,0,0,1-1.5,1.559l-12.024-.056a1.534,1.534,0,0,1-1.491-1.573l0-1.119a1.534,1.534,0,0,0-1.491-1.573l-2.17-.01-5.4-.025a4.853,4.853,0,0,0-4.876,4.834l-.329,77.855a4.853,4.853,0,0,0,4.831,4.874l31.752.147a4.854,4.854,0,0,0,4.876-4.834l.329-77.855a4.854,4.854,0,0,0-4.831-4.874" transform="translate(-76.783 -8.685)" fill="#fff"/>
      <rect id="Rectangle_478" data-name="Rectangle 478" width="41.319" height="15.127" transform="translate(190.519 35.529)" fill="#f5f5f5"/>
      <rect id="Rectangle_479" data-name="Rectangle 479" width="9.78" height="2.56" transform="translate(191.438 30.408)" fill="#f5f5f5"/>
      <rect id="Rectangle_480" data-name="Rectangle 480" width="8.763" height="2.56" transform="translate(222.26 30.408)" fill="#f5f5f5"/>
      <rect id="Rectangle_481" data-name="Rectangle 481" width="8.763" height="2.56" transform="translate(211.832 30.408)" fill="#f5f5f5"/>
      <rect id="Rectangle_482" data-name="Rectangle 482" width="35.278" height="2.681" transform="translate(193.086 58.446)" fill="#f5f5f5"/>
      <rect id="Rectangle_483" data-name="Rectangle 483" width="35.278" height="2.681" transform="translate(193.086 53.374)" fill="#f5f5f5"/>
      <rect id="Rectangle_484" data-name="Rectangle 484" width="35.278" height="2.681" transform="translate(193.086 68.831)" fill="#f5f5f5"/>
      <rect id="Rectangle_485" data-name="Rectangle 485" width="35.278" height="2.681" transform="translate(193.086 73.575)" fill="#f5f5f5"/>
      <rect id="Rectangle_486" data-name="Rectangle 486" width="35.278" height="2.681" transform="translate(193.086 78.996)" fill="#f5f5f5"/>
      <rect id="Rectangle_487" data-name="Rectangle 487" width="35.278" height="2.681" transform="translate(193.086 84.418)" fill="#f5f5f5"/>
      <rect id="Rectangle_488" data-name="Rectangle 488" width="35.278" height="2.681" transform="translate(193.086 89.84)" fill="#f5f5f5"/>
      <rect id="Rectangle_489" data-name="Rectangle 489" width="35.278" height="2.681" transform="translate(193.086 63.759)" fill="#f5f5f5"/>
      <path id="Path_3533" data-name="Path 3533" d="M207.611,90.286h27.775v10.173l27.6-15.942-27.6-15.94V78.749H207.611Z" transform="translate(-59.689 -19.716)" fill="#da7d3b"/>
    </g>
  </g>
</svg>
