<svg xmlns="http://www.w3.org/2000/svg" width="202.564" height="133.58" viewBox="0 0 202.564 133.58">
  <g id="Artwork_5" data-name="Artwork 5" transform="translate(101.282 66.79)">
    <g id="Group_12" data-name="Group 12" transform="translate(-101.282 -66.79)">
      <path id="Path_141" data-name="Path 141" d="M16.763,498.034a.328.328,0,0,1-.371.372h-5.04v16.489a.333.333,0,0,1-.1.244.361.361,0,0,1-.267.1.357.357,0,0,1-.348-.348V498.406H5.569a.333.333,0,0,1-.244-.1.393.393,0,0,1,0-.534.333.333,0,0,1,.244-.1H16.391A.328.328,0,0,1,16.763,498.034Z" transform="translate(-4.006 -381.849)" fill="#fff"/>
      <path id="Path_142" data-name="Path 142" d="M88.255,514.2a.362.362,0,0,1,.1.267.357.357,0,0,1-.348.348H77.189a.361.361,0,0,1-.267-.1.334.334,0,0,1-.1-.244V497.236a.328.328,0,0,1,.372-.371H88.011a.334.334,0,0,1,.244.1.362.362,0,0,1,.1.267.358.358,0,0,1-.348.348H77.537v7.594h6.108a.329.329,0,0,1,.372.372q0,.348-.372.348H77.537v8.2H88.011A.334.334,0,0,1,88.255,514.2Z" transform="translate(-58.94 -381.237)" fill="#fff"/>
      <path id="Path_143" data-name="Path 143" d="M146.1,514.14a8.849,8.849,0,0,1-4.7-4.7,8.854,8.854,0,0,1,0-6.886,8.88,8.88,0,0,1,4.7-4.691,8.608,8.608,0,0,1,3.449-.7,8.975,8.975,0,0,1,3.042.522,8.281,8.281,0,0,1,2.647,1.545.465.465,0,0,1,.139.255.283.283,0,0,1-.093.256.374.374,0,0,1-.244.139.3.3,0,0,1-.267-.093,8.193,8.193,0,0,0-2.45-1.417,8.029,8.029,0,0,0-2.775-.488,7.913,7.913,0,0,0-3.158.639,8.155,8.155,0,0,0-4.331,4.319,7.831,7.831,0,0,0-.639,3.147,7.914,7.914,0,0,0,.639,3.158,8.124,8.124,0,0,0,4.331,4.331,7.917,7.917,0,0,0,3.158.639,8.047,8.047,0,0,0,2.706-.465,7.786,7.786,0,0,0,2.38-1.347.331.331,0,0,1,.267-.07.374.374,0,0,1,.244.139.32.32,0,0,1-.046.511,8.787,8.787,0,0,1-5.551,1.951A8.607,8.607,0,0,1,146.1,514.14Z" transform="translate(-107.955 -381.466)" fill="#fff"/>
      <path id="Path_144" data-name="Path 144" d="M241.055,496.77a.334.334,0,0,1,.1.244v17.046a.362.362,0,0,1-.1.267.334.334,0,0,1-.244.1.328.328,0,0,1-.372-.371v-8.128H230.361v8.128a.362.362,0,0,1-.1.267.334.334,0,0,1-.244.1.328.328,0,0,1-.371-.371V497.083a.328.328,0,0,1,.371-.371.334.334,0,0,1,.244.1.362.362,0,0,1,.1.267v8.128H240.44v-8.2a.335.335,0,0,1,.1-.244.361.361,0,0,1,.267-.1A.333.333,0,0,1,241.055,496.77Z" transform="translate(-176.2 -381.083)" fill="#fff"/>
      <path id="Path_145" data-name="Path 145" d="M319.958,514.944l-10.242-15.931v15.745a.358.358,0,0,1-.348.349.362.362,0,0,1-.267-.1.335.335,0,0,1-.1-.244v-17a.346.346,0,0,1,.255-.348.358.358,0,0,1,.418.162L319.888,513.5l-.046-15.745a.334.334,0,0,1,.1-.244.361.361,0,0,1,.267-.1.356.356,0,0,1,.348.348l.07,17a.347.347,0,0,1-.255.349h-.116A.321.321,0,0,1,319.958,514.944Z" transform="translate(-237.088 -381.643)" fill="#fff"/>
      <path id="Path_146" data-name="Path 146" d="M387.392,514.487a8.849,8.849,0,0,1-2.81-1.9,9.086,9.086,0,0,1-1.893-2.822,8.855,8.855,0,0,1,0-6.886,9.126,9.126,0,0,1,1.893-2.81,8.846,8.846,0,0,1,2.81-1.9,8.887,8.887,0,0,1,6.9,0,8.964,8.964,0,0,1,4.726,4.714,8.854,8.854,0,0,1,0,6.886,8.932,8.932,0,0,1-4.726,4.726,8.885,8.885,0,0,1-6.9,0Zm.29-15.664a8.126,8.126,0,0,0-4.331,4.331,8.13,8.13,0,0,0,0,6.317,8.342,8.342,0,0,0,1.742,2.6,8.108,8.108,0,0,0,2.589,1.753,8.13,8.13,0,0,0,6.317,0,8.105,8.105,0,0,0,2.589-1.753,8.337,8.337,0,0,0,1.742-2.6,8.126,8.126,0,0,0,0-6.317A8.124,8.124,0,0,0,394,498.822a8.127,8.127,0,0,0-6.317,0Z" transform="translate(-293.097 -381.696)" fill="#fff"/>
      <path id="Path_147" data-name="Path 147" d="M480.213,514.93a.361.361,0,0,1-.267-.1.334.334,0,0,1-.1-.244V497.536a.329.329,0,0,1,.372-.371.334.334,0,0,1,.244.1.361.361,0,0,1,.1.267V514.21H488.6a.328.328,0,0,1,.372.371.334.334,0,0,1-.1.244.362.362,0,0,1-.267.1Z" transform="translate(-368.175 -381.466)" fill="#fff"/>
      <path id="Path_148" data-name="Path 148" d="M539.753,514.487a8.847,8.847,0,0,1-2.81-1.9,9.089,9.089,0,0,1-1.893-2.822,8.859,8.859,0,0,1,0-6.886,9.129,9.129,0,0,1,1.893-2.81,8.844,8.844,0,0,1,2.81-1.9,8.886,8.886,0,0,1,6.9,0,8.963,8.963,0,0,1,4.726,4.714,8.855,8.855,0,0,1,0,6.886,8.931,8.931,0,0,1-4.726,4.726,8.884,8.884,0,0,1-6.9,0Zm.29-15.664a8.127,8.127,0,0,0-4.331,4.331,8.129,8.129,0,0,0,0,6.317,8.347,8.347,0,0,0,1.742,2.6,8.1,8.1,0,0,0,2.589,1.753,8.129,8.129,0,0,0,6.317,0,8.106,8.106,0,0,0,2.589-1.753,8.337,8.337,0,0,0,1.742-2.6,8.127,8.127,0,0,0,0-6.317,8.125,8.125,0,0,0-4.331-4.331,8.126,8.126,0,0,0-6.317,0Z" transform="translate(-410.002 -381.696)" fill="#fff"/>
      <path id="Path_149" data-name="Path 149" d="M645.114,505.276a.362.362,0,0,1,.1.267v6.27a.329.329,0,0,1-.209.325.4.4,0,0,1-.139.325,8.788,8.788,0,0,1-5.55,1.951,8.552,8.552,0,0,1-3.426-.7,8.88,8.88,0,0,1-4.7-4.691,8.825,8.825,0,0,1,0-6.874,8.879,8.879,0,0,1,4.7-4.691,8.552,8.552,0,0,1,3.426-.7,8.977,8.977,0,0,1,3.042.523,8.274,8.274,0,0,1,2.647,1.544.467.467,0,0,1,.139.256.283.283,0,0,1-.093.255.373.373,0,0,1-.244.139.3.3,0,0,1-.267-.093,8.237,8.237,0,0,0-2.438-1.417,7.993,7.993,0,0,0-2.787-.488,7.833,7.833,0,0,0-3.147.639,8.186,8.186,0,0,0-4.32,4.32,8.073,8.073,0,0,0,0,6.294,8.184,8.184,0,0,0,4.32,4.319,7.832,7.832,0,0,0,3.147.639,8.233,8.233,0,0,0,2.706-.453,7.9,7.9,0,0,0,2.4-1.335l.07-.07v-5.945H641.41a.355.355,0,0,1-.244-.093.324.324,0,0,1-.1-.255.361.361,0,0,1,.1-.267.333.333,0,0,1,.244-.1h3.461A.333.333,0,0,1,645.114,505.276Z" transform="translate(-483.769 -381.159)" fill="#fff"/>
      <path id="Path_150" data-name="Path 150" d="M719.764,514.757V497.711a.335.335,0,0,1,.1-.244.363.363,0,0,1,.267-.1.357.357,0,0,1,.348.348v17.046a.362.362,0,0,1-.1.267.334.334,0,0,1-.244.1A.329.329,0,0,1,719.764,514.757Z" transform="translate(-552.264 -381.619)" fill="#fff"/>
      <path id="Path_151" data-name="Path 151" d="M759.294,514.2a.362.362,0,0,1,.1.267.357.357,0,0,1-.348.348H748.229a.361.361,0,0,1-.267-.1.334.334,0,0,1-.1-.244V497.236a.328.328,0,0,1,.372-.371h10.822a.334.334,0,0,1,.244.1.362.362,0,0,1,.1.267.358.358,0,0,1-.348.348H748.577v7.594h6.108a.329.329,0,0,1,.372.372q0,.348-.372.348h-6.108v8.2h10.474A.334.334,0,0,1,759.294,514.2Z" transform="translate(-573.819 -381.237)" fill="#fff"/>
      <path id="Path_152" data-name="Path 152" d="M818.625,514.43a5.248,5.248,0,0,1-1.869-1.567.33.33,0,0,1-.07-.267.374.374,0,0,1,.139-.244.329.329,0,0,1,.267-.07.374.374,0,0,1,.244.139,4.533,4.533,0,0,0,3.669,1.858,4.335,4.335,0,0,0,1.753-.36,4.576,4.576,0,0,0,2.415-2.427,5.117,5.117,0,0,0,.407-1.788,3.588,3.588,0,0,0-.093-.975,3.131,3.131,0,0,0-.255-.766,3.894,3.894,0,0,0-1.068-1.347,5.686,5.686,0,0,0-1.359-.8,7,7,0,0,0-1.417-.418q-.708-.128-1.266-.2c-.124-.015-.236-.027-.337-.035a.916.916,0,0,1-.267-.058,3.551,3.551,0,0,1-1.545-.6,3.67,3.67,0,0,1-.929-.976,3.743,3.743,0,0,1-.592-1.881,4.774,4.774,0,0,1,.29-1.637,4.4,4.4,0,0,1,.859-1.44,4.138,4.138,0,0,1,1.428-1.022,4.8,4.8,0,0,1,1.974-.383,5.178,5.178,0,0,1,2.032.406,5.311,5.311,0,0,1,1.707,1.15.362.362,0,1,1-.511.511,4.607,4.607,0,0,0-1.475-1,4.454,4.454,0,0,0-1.753-.349,4.044,4.044,0,0,0-1.707.337,3.49,3.49,0,0,0-1.2.871,3.625,3.625,0,0,0-.7,1.207,4.109,4.109,0,0,0-.232,1.347l.046.383a2.507,2.507,0,0,0,.29.848,3.5,3.5,0,0,0,.732.917,2.575,2.575,0,0,0,1.393.592,5.006,5.006,0,0,0,.58.093q.6.07,1.382.209a7.252,7.252,0,0,1,1.568.476,6.393,6.393,0,0,1,1.509.917,4.179,4.179,0,0,1,1.521,2.52,4.429,4.429,0,0,1,.1,1.127,5.685,5.685,0,0,1-.464,2.067,5.436,5.436,0,0,1-1.138,1.672,5.259,5.259,0,0,1-1.672,1.126,5.094,5.094,0,0,1-2.02.406A5.209,5.209,0,0,1,818.625,514.43Z" transform="translate(-626.452 -381.466)" fill="#fff"/>
      <g id="t2Zim8.tif" transform="translate(68.122)">
        <g id="Group_11" data-name="Group 11">
          <path id="Path_153" data-name="Path 153" d="M292.726.088a2.12,2.12,0,0,1,1.536.166q2.614.9,5.218,1.825c1.322.469,2.638.958,3.96,1.428,1.17.415,2.346.812,3.517,1.225,2.262.8,4.52,1.6,6.783,2.394,2.349.821,4.7,1.63,7.053,2.445q3.364,1.166,6.728,2.334c2.136.738,4.275,1.466,6.41,2.206,1.308.453,2.612.917,3.915,1.381.188.067.365.163.643.29a6.249,6.249,0,0,1-.548.515q-4.185,3.014-8.375,6.019c-1.5,1.079-2.981,2.175-4.475,3.259q-2.324,1.685-4.657,3.359a2.011,2.011,0,0,1-.292.138,2.649,2.649,0,0,1-.425-.306c-1.363-1.442-2.716-2.892-4.077-4.336q-2.35-2.494-4.707-4.981-1.285-1.358-2.572-2.714-2.548-2.687-5.095-5.374-2.259-2.388-4.511-4.783-1.376-1.461-2.753-2.922c-.793-.836-1.6-1.66-2.386-2.5C293.326.841,293.065.5,292.726.088Z" transform="translate(-292.726 0)" fill="#fff"/>
          <path id="Path_154" data-name="Path 154" d="M412.837,84.868a1.583,1.583,0,0,1,.259-.319q8.9-6.438,17.817-12.863a1.159,1.159,0,0,1,.3-.091c.066.3.145.56.181.829q.215,1.606.407,3.215c.155,1.3.29,2.606.452,3.907.1.844.25,1.683.364,2.527.16,1.186.307,2.373.461,3.56.122.936.252,1.87.369,2.807.034.269.032.543.05.886L417.423,97.7c-.858-2.193-1.557-4.332-2.315-6.449C414.357,89.153,413.612,87.048,412.837,84.868Z" transform="translate(-384.885 -54.934)" fill="#fff"/>
          <path id="Path_155" data-name="Path 155" d="M365.518,133.031c1.537,4.067,2.984,8.168,4.51,12.276-.591.794-1.163,1.573-1.745,2.345q-3.479,4.613-6.961,9.222-3.1,4.115-6.178,8.242-1.222,1.634-2.43,3.279c-.136.183-.233.418-.569.325-.3-.311-.171-.711-.146-1.089.02-.3.074-.594.087-.892a47.346,47.346,0,0,1,.394-5.093,3.192,3.192,0,0,0,.022-.622,11.412,11.412,0,0,1,1.742-6.246c.342-.6.644-1.22.957-1.835.585-1.15,1.163-2.3,1.745-3.453q1.768-3.491,3.536-6.981,1.935-3.83,3.867-7.662c.311-.614.647-1.214.972-1.821Z" transform="translate(-338.168 -102.069)" fill="#fff"/>
          <path id="Path_156" data-name="Path 156" d="M510.818,53.7l-4.336,2.916c-.263-.155-.524-.293-.767-.456-2.689-1.815-5.374-3.635-8.167-5.524.394-.289.675-.515.975-.711,1.677-1.1,3.354-2.2,5.042-3.285a5.2,5.2,0,0,1,2.8-.884,10.346,10.346,0,0,1,1.316.012,5.423,5.423,0,0,1,1.4.317,5.364,5.364,0,0,1,2.465,1.895C511.406,49.826,511.053,51.724,510.818,53.7Z" transform="translate(-449.883 -35.093)" fill="#fff"/>
          <path id="Path_157" data-name="Path 157" d="M427.617,15.952a1.353,1.353,0,0,1-.288-.031c-5.492-1.98-10.982-3.963-16.524-5.964-.02-.267-.053-.513-.054-.759-.01-1.711-.009-3.421-.024-5.132,0-.39-.076-.779-.075-1.168a5.223,5.223,0,0,1,.145-.821,2.669,2.669,0,0,1,.609.256c1.041.839,2.071,1.692,3.1,2.545.941.78,1.875,1.568,2.815,2.348q1.49,1.237,2.985,2.467c1.157.953,2.322,1.9,3.474,2.856,1.259,1.049,2.506,2.11,3.755,3.171C427.577,15.756,427.578,15.838,427.617,15.952Z" transform="translate(-383.209 -1.594)" fill="#e45f16"/>
          <path id="Path_158" data-name="Path 158" d="M495.873,70.231l8.562,5.783c-.6,1.341-1.427,2.559-2.114,3.851s-1.414,2.588-2.139,3.873-1.325,2.614-2.163,3.817l-.151-.028-2.151-17.183Z" transform="translate(-448.479 -53.887)" fill="#e45f16"/>
          <path id="Path_159" data-name="Path 159" d="M557.975,62.408l.62-4.443a16.71,16.71,0,0,1,2.851,2.542l-3.331,2.038Z" transform="translate(-496.247 -44.476)" fill="#fff"/>
        </g>
      </g>
      <path id="Path_160" data-name="Path 160" d="M22.316,341.854a6.68,6.68,0,0,0-2.955-2.31c-.182-.076-.37-.145-.561-.21a6.512,6.512,0,0,0,2.37-2.064,5.867,5.867,0,0,0,1-3.421,5.62,5.62,0,0,0-2.418-4.71q-2.418-1.808-7.254-1.809H0V352.4H13.218q5.014,0,7.594-1.809a5.8,5.8,0,0,0,2.579-5.033A6.267,6.267,0,0,0,22.316,341.854Zm-10.6-9.833a5.317,5.317,0,0,1,2.973.681,2.579,2.579,0,0,1,0,4.083,5.311,5.311,0,0,1-2.973.681H6.34v-5.445Zm4.137,14.991a5.724,5.724,0,0,1-3.134.7H6.34v-5.7h6.376a5.725,5.725,0,0,1,3.134.7,2.38,2.38,0,0,1,1.057,2.131A2.414,2.414,0,0,1,15.85,347.012Z" transform="translate(0 -251.154)" fill="#fff"/>
      <path id="Path_161" data-name="Path 161" d="M124.217,352.4V327.329h6.412v19.916h12.286V352.4Z" transform="translate(-95.31 -251.154)" fill="#fff"/>
      <path id="Path_162" data-name="Path 162" d="M233.183,352.869q-5.409,0-8.472-3.009t-3.063-8.561v-13.97h6.412V341.12q0,3.4,1.379,4.89a5.638,5.638,0,0,0,7.63,0q1.378-1.486,1.379-4.89V327.329h6.268V341.3q0,5.553-3.045,8.561T233.183,352.869Z" transform="translate(-170.068 -251.154)" fill="#fff"/>
      <path id="Path_163" data-name="Path 163" d="M356.207,347.353v-5.23h11.427v-4.872H356.207v-4.872h12.931v-5.051H349.867V352.4H369.6v-5.051Z" transform="translate(-268.448 -251.154)" fill="#fff"/>
      <path id="Path_164" data-name="Path 164" d="M481.777,341.854a6.678,6.678,0,0,0-2.955-2.31c-.182-.076-.37-.145-.561-.21a6.513,6.513,0,0,0,2.37-2.064,5.867,5.867,0,0,0,1-3.421,5.62,5.62,0,0,0-2.418-4.71q-2.418-1.808-7.254-1.809h-12.5V352.4h13.218q5.014,0,7.594-1.809a5.8,5.8,0,0,0,2.579-5.033A6.266,6.266,0,0,0,481.777,341.854Zm-10.6-9.833a5.317,5.317,0,0,1,2.973.681,2.579,2.579,0,0,1,0,4.083,5.311,5.311,0,0,1-2.973.681H465.8v-5.445Zm4.137,14.991a5.724,5.724,0,0,1-3.134.7H465.8v-5.7h6.376a5.725,5.725,0,0,1,3.134.7,2.38,2.38,0,0,1,1.057,2.131A2.415,2.415,0,0,1,475.312,347.012Z" transform="translate(-352.537 -251.154)" fill="#fff"/>
      <path id="Path_165" data-name="Path 165" d="M656.815,352.4h6.913l-5.507-7.98a8.417,8.417,0,0,0,3.7-3.053,8.666,8.666,0,0,0,1.343-4.872,8.755,8.755,0,0,0-1.343-4.889,8.643,8.643,0,0,0-3.833-3.17,14.291,14.291,0,0,0-5.857-1.11H641.09V352.4H647.5v-6.842h4.618Zm-1.289-18.859a3.706,3.706,0,0,1,1.218,2.955,3.76,3.76,0,0,1-1.218,2.973,5.385,5.385,0,0,1-3.654,1.075H647.5v-8.06h4.37A5.449,5.449,0,0,1,655.526,333.544Z" transform="translate(-491.899 -251.154)" fill="#fff"/>
      <path id="Path_166" data-name="Path 166" d="M760.842,352.4V327.329h11.606a16.1,16.1,0,0,1,7.254,1.558,11.877,11.877,0,0,1,4.89,4.352,13.388,13.388,0,0,1,0,13.254,11.878,11.878,0,0,1-4.89,4.352,16.1,16.1,0,0,1-7.254,1.558Zm6.412-5.194h4.907a8.873,8.873,0,0,0,4.083-.877,6.306,6.306,0,0,0,2.669-2.543,8.616,8.616,0,0,0,0-7.863,6.339,6.339,0,0,0-2.669-2.525,8.879,8.879,0,0,0-4.083-.878h-4.907Z" transform="translate(-583.782 -251.154)" fill="#fff"/>
      <path id="Path_167" data-name="Path 167" d="M589.961,348.743a4.872,4.872,0,0,1-6.085.057c-.07-.064-.134-.131-.2-.2v20.124h6.412V348.608C590.047,348.653,590.007,348.7,589.961,348.743Z" transform="translate(-447.847 -267.477)" fill="#fff"/>
      <path id="Path_168" data-name="Path 168" d="M585.57,319.931a3.67,3.67,0,0,1-2.6-.9,3.014,3.014,0,0,1-1.03-2.3,3.077,3.077,0,0,1,.986-2.341,3.624,3.624,0,0,1,2.579-.973,3.718,3.718,0,0,1,2.6.884,2.913,2.913,0,0,1,1.029,2.243,3.2,3.2,0,0,1-.965,2.42A3.61,3.61,0,0,1,585.57,319.931Z" transform="translate(-446.516 -240.475)" fill="#e45f16"/>
    </g>
  </g>
</svg>
