<svg version="1.1" id="Layer_1" xmlns="http://www.w3.org/2000/svg" xmlns:xlink="http://www.w3.org/1999/xlink" x="0px" y="0px"
	 height="60" viewBox="0 0 1080 1080" style="width:100%; height:100%" xml:space="preserve">
  <style type="text/css">
    .st0{fill:#E97724;}
    .st1{fill:#FFFFFF;}
    .st2{fill:#3D6895;}
    .st3{fill:#010101;}
    .st4{fill:#48698E;}
    .st5{fill:#D97D39;}
  </style>
  <g id="t2Zim8.tif_00000036218089604098333050000010174565552980721060_">
    <g>
      <path class="st1" d="M168.56,161.17c7.29-2.44,12.4,0.14,17.51,1.89c19.86,6.82,39.67,13.78,59.46,20.8
        c15.07,5.34,30.06,10.92,45.12,16.27c13.33,4.73,26.74,9.26,40.08,13.95c25.77,9.07,51.5,18.26,77.28,27.28
        c26.76,9.36,53.58,18.57,80.37,27.85c25.56,8.86,51.1,17.76,76.66,26.59c24.33,8.41,48.71,16.71,73.03,25.14
        c14.9,5.16,29.76,10.45,44.61,15.74c2.14,0.76,4.16,1.86,7.33,3.31c-2.58,2.45-4.23,4.41-6.25,5.86
        c-31.79,22.89-63.65,45.68-95.43,68.58c-17.06,12.29-33.97,24.79-50.99,37.13c-17.66,12.8-35.36,25.54-53.06,38.28
        c-0.84,0.6-1.89,0.9-3.33,1.57c-1.53-1.08-3.46-2.03-4.84-3.49c-15.53-16.43-30.95-32.96-46.46-49.41
        c-17.85-18.94-35.75-37.84-53.63-56.75c-9.76-10.32-19.53-20.62-29.3-30.92c-19.35-20.41-38.72-40.8-58.05-61.24
        c-17.16-18.14-34.27-36.33-51.4-54.5c-10.46-11.09-20.88-22.22-31.37-33.29c-9.03-9.52-18.21-18.91-27.18-28.49
        C175.39,169.75,172.42,165.81,168.56,161.17z"/>
      <path class="st1" d="M487.04,501.24c1-1.26,1.74-2.76,2.95-3.63c67.64-48.9,135.31-97.75,203.01-146.56
        c0.77-0.55,1.9-0.59,3.47-1.04c0.75,3.38,1.65,6.38,2.06,9.45c1.64,12.2,3.19,24.41,4.64,36.64c1.77,14.83,3.3,29.69,5.15,44.51
        c1.2,9.62,2.85,19.18,4.14,28.79c1.82,13.51,3.49,27.04,5.26,40.56c1.39,10.66,2.87,21.31,4.2,31.98
        c0.38,3.07,0.36,6.19,0.57,10.1c-60.87,31.72-121.55,63.33-183.19,95.45c-9.78-24.98-17.74-49.35-26.37-73.47
        C504.36,550.06,495.87,526.08,487.04,501.24z"/>
      <path class="st1" d="M480.18,512.96c17.51,46.34,34,93.06,51.39,139.87c-6.73,9.05-13.25,17.93-19.88,26.72
        c-26.42,35.04-52.92,70.02-79.31,105.08c-23.52,31.26-46.96,62.58-70.39,93.91c-9.28,12.41-18.48,24.89-27.68,37.36
        c-1.54,2.09-2.66,4.76-6.48,3.7c-3.42-3.55-1.95-8.1-1.67-12.41c0.23-3.39,0.84-6.76,0.99-10.16c0.88-19.39,1.53-38.8,4.49-58.03
        c0.36-2.32,0.36-4.73,0.25-7.09c-1.13-25.89,7.22-49.09,19.84-71.16c3.9-6.82,7.34-13.9,10.9-20.9
        c6.66-13.1,13.25-26.24,19.89-39.35c13.43-26.52,26.89-53.01,40.29-79.54c14.7-29.09,29.32-58.23,44.06-87.31
        c3.54-6.99,7.38-13.83,11.08-20.74C478.7,512.92,479.44,512.94,480.18,512.96z"/>
      <path class="st1" d="M862.85,372.15c-16.29,10.96-32.59,21.92-49.4,33.23c-3-1.77-5.97-3.33-8.74-5.2
        c-30.63-20.68-61.23-41.41-93.05-62.95c4.49-3.29,7.69-5.86,11.1-8.1c19.11-12.54,38.21-25.09,57.45-37.43
        c9.66-6.2,20.24-9.97,31.89-10.07c5-0.04,10.07-0.46,15,0.13c5.41,0.65,11,1.56,15.99,3.61c12.78,5.25,17.36,9.12,28.09,21.59
        C869.55,328.04,865.53,349.66,862.85,372.15z"/>
      <path class="st0" d="M674.55,323.77c-1.39-0.14-2.41-0.04-3.28-0.35c-62.57-22.56-125.13-45.15-188.28-67.95
        c-0.23-3.04-0.6-5.84-0.62-8.65c-0.12-19.49-0.11-38.98-0.27-58.47c-0.04-4.44-0.87-8.88-0.85-13.31
        c0.01-2.73,0.92-5.45,1.65-9.35c2.97,1.21,5.32,1.6,6.94,2.91c11.86,9.56,23.6,19.28,35.33,29c10.72,8.89,21.36,17.86,32.08,26.76
        c11.32,9.4,22.66,18.76,34.01,28.11c13.19,10.86,26.46,21.61,39.58,32.54c14.34,11.95,28.55,24.04,42.78,36.13
        C674.09,321.53,674.11,322.47,674.55,323.77z"/>
      <path class="st0" d="M708.57,346.39c32.27,21.8,64.54,43.59,97.56,65.9c-6.85,15.28-16.26,29.16-24.08,43.87
        c-7.88,14.84-16.12,29.49-24.37,44.13c-8.18,14.51-15.1,29.78-24.65,43.49c-0.57-0.11-1.15-0.21-1.72-0.32
        c-8.17-65.26-16.34-130.52-24.51-195.78C707.4,347.25,707.99,346.82,708.57,346.39z"/>
      <path class="st1" d="M871.89,364.49c2.34-16.78,4.69-33.57,7.07-50.62c4.98,2.12,26.61,21.61,32.49,28.96
        c-12.7,7.77-25.33,15.49-37.95,23.22C872.96,365.53,872.42,365.01,871.89,364.49z"/>
    </g>
  </g>
</svg>
