<svg xmlns="http://www.w3.org/2000/svg" width="180.564" height="133.58" viewBox="0 0 180.564 133.58">
  <g id="Artwork_5" data-name="Artwork 5" transform="translate(50.282 90.79)">
    <g id="Group_12" data-name="Group 12" transform="translate(-101.282 -66.79)">
      
      <g id="t2Zim8.tif" transform="translate(68.122)">
        <g id="Group_11" data-name="Group 11">
          <path id="Path_153" data-name="Path 153" d="M292.726.088a2.12,2.12,0,0,1,1.536.166q2.614.9,5.218,1.825c1.322.469,2.638.958,3.96,1.428,1.17.415,2.346.812,3.517,1.225,2.262.8,4.52,1.6,6.783,2.394,2.349.821,4.7,1.63,7.053,2.445q3.364,1.166,6.728,2.334c2.136.738,4.275,1.466,6.41,2.206,1.308.453,2.612.917,3.915,1.381.188.067.365.163.643.29a6.249,6.249,0,0,1-.548.515q-4.185,3.014-8.375,6.019c-1.5,1.079-2.981,2.175-4.475,3.259q-2.324,1.685-4.657,3.359a2.011,2.011,0,0,1-.292.138,2.649,2.649,0,0,1-.425-.306c-1.363-1.442-2.716-2.892-4.077-4.336q-2.35-2.494-4.707-4.981-1.285-1.358-2.572-2.714-2.548-2.687-5.095-5.374-2.259-2.388-4.511-4.783-1.376-1.461-2.753-2.922c-.793-.836-1.6-1.66-2.386-2.5C293.326.841,293.065.5,292.726.088Z" transform="translate(-292.726 0)" fill="#fff"/>
          <path id="Path_154" data-name="Path 154" d="M412.837,84.868a1.583,1.583,0,0,1,.259-.319q8.9-6.438,17.817-12.863a1.159,1.159,0,0,1,.3-.091c.066.3.145.56.181.829q.215,1.606.407,3.215c.155,1.3.29,2.606.452,3.907.1.844.25,1.683.364,2.527.16,1.186.307,2.373.461,3.56.122.936.252,1.87.369,2.807.034.269.032.543.05.886L417.423,97.7c-.858-2.193-1.557-4.332-2.315-6.449C414.357,89.153,413.612,87.048,412.837,84.868Z" transform="translate(-384.885 -54.934)" fill="#fff"/>
          <path id="Path_155" data-name="Path 155" d="M365.518,133.031c1.537,4.067,2.984,8.168,4.51,12.276-.591.794-1.163,1.573-1.745,2.345q-3.479,4.613-6.961,9.222-3.1,4.115-6.178,8.242-1.222,1.634-2.43,3.279c-.136.183-.233.418-.569.325-.3-.311-.171-.711-.146-1.089.02-.3.074-.594.087-.892a47.346,47.346,0,0,1,.394-5.093,3.192,3.192,0,0,0,.022-.622,11.412,11.412,0,0,1,1.742-6.246c.342-.6.644-1.22.957-1.835.585-1.15,1.163-2.3,1.745-3.453q1.768-3.491,3.536-6.981,1.935-3.83,3.867-7.662c.311-.614.647-1.214.972-1.821Z" transform="translate(-338.168 -102.069)" fill="#fff"/>
          <path id="Path_156" data-name="Path 156" d="M510.818,53.7l-4.336,2.916c-.263-.155-.524-.293-.767-.456-2.689-1.815-5.374-3.635-8.167-5.524.394-.289.675-.515.975-.711,1.677-1.1,3.354-2.2,5.042-3.285a5.2,5.2,0,0,1,2.8-.884,10.346,10.346,0,0,1,1.316.012,5.423,5.423,0,0,1,1.4.317,5.364,5.364,0,0,1,2.465,1.895C511.406,49.826,511.053,51.724,510.818,53.7Z" transform="translate(-449.883 -35.093)" fill="#fff"/>
          <path id="Path_157" data-name="Path 157" d="M427.617,15.952a1.353,1.353,0,0,1-.288-.031c-5.492-1.98-10.982-3.963-16.524-5.964-.02-.267-.053-.513-.054-.759-.01-1.711-.009-3.421-.024-5.132,0-.39-.076-.779-.075-1.168a5.223,5.223,0,0,1,.145-.821,2.669,2.669,0,0,1,.609.256c1.041.839,2.071,1.692,3.1,2.545.941.78,1.875,1.568,2.815,2.348q1.49,1.237,2.985,2.467c1.157.953,2.322,1.9,3.474,2.856,1.259,1.049,2.506,2.11,3.755,3.171C427.577,15.756,427.578,15.838,427.617,15.952Z" transform="translate(-383.209 -1.594)" fill="#e45f16"/>
          <path id="Path_158" data-name="Path 158" d="M495.873,70.231l8.562,5.783c-.6,1.341-1.427,2.559-2.114,3.851s-1.414,2.588-2.139,3.873-1.325,2.614-2.163,3.817l-.151-.028-2.151-17.183Z" transform="translate(-448.479 -53.887)" fill="#e45f16"/>
          <path id="Path_159" data-name="Path 159" d="M557.975,62.408l.62-4.443a16.71,16.71,0,0,1,2.851,2.542l-3.331,2.038Z" transform="translate(-496.247 -44.476)" fill="#fff"/>
        </g>
      </g>
      
    </g>
  </g>
</svg>
