<svg xmlns="http://www.w3.org/2000/svg" width="99.219" height="47.361" viewBox="0 0 99.219 47.361">
  <g id="Group_1715" data-name="Group 1715" transform="translate(-131.007 -1154.352)">
    <path id="Path_2918" data-name="Path 2918" d="M9.094,20.336a7.894,7.894,0,0,0,7.891-7.891V4.554H9.094a7.891,7.891,0,1,0,0,15.782Z" transform="translate(129.812 1181.378)" fill="#1e2b3b"/>
    <path id="Path_2919" data-name="Path 2919" d="M1.2,10.538A7.894,7.894,0,0,1,9.093,2.647h7.891v15.79H9.093A7.894,7.894,0,0,1,1.2,10.546Z" transform="translate(129.805 1167.495)" fill="#1e2b3b"/>
    <path id="Path_2920" data-name="Path 2920" d="M1.2,8.631A7.894,7.894,0,0,1,9.093.74h7.891V16.53H9.093A7.894,7.894,0,0,1,1.2,8.639Z" transform="translate(129.805 1153.612)" fill="#1e2b3b"/>
    <path id="Path_2921" data-name="Path 2921" d="M3.1.74h7.891a7.891,7.891,0,1,1,0,15.782H3.1Z" transform="translate(143.623 1153.612)" fill="#1e2b3b"/>
    <path id="Path_2922" data-name="Path 2922" d="M18.964,10.538a7.932,7.932,0,1,0-.083,0Z" transform="translate(143.623 1167.495)" fill="#1e2b3b"/>
    <path id="Path_2923" data-name="Path 2923" d="M6.058,2.32V18.863H8.186v-7.9H13.3V8.911H8.186V4.39h6.649V2.32ZM18.685,5.682a1.389,1.389,0,0,0,1.391-1.391,1.325,1.325,0,0,0-1.391-1.308,1.394,1.394,0,0,0-1.391,1.391,1.419,1.419,0,0,0,.414.994,1.357,1.357,0,0,0,.994.414ZM17.609,7.768v11.1h2.045V7.768H17.609Zm10.035-.331a5,5,0,0,0-4.8,5.233,5,5,0,0,0,4.8,5.216,4.223,4.223,0,0,0,3.138-1.317v1.474a3.478,3.478,0,0,1-.96,2.376,3.312,3.312,0,0,1-2.368.994,3.478,3.478,0,0,1-1.888-.629l-1.076,1.846a5.465,5.465,0,0,0,8.421-4.612V7.752H30.782v.994a4.223,4.223,0,0,0-3.138-1.317ZM24.978,12.67a2.917,2.917,0,0,1,4.438-2.732A2.932,2.932,0,0,1,30.79,12.67,2.917,2.917,0,0,1,26.352,15.4,2.932,2.932,0,0,1,24.978,12.67Z" transform="translate(165.156 1165.115)" fill="#1e2b3b"/>
    <path id="Path_2924" data-name="Path 2924" d="M14.13,5.108a2.318,2.318,0,0,0-2.31,2.31V14.44H9.692V3.345H11.82V4.28a3.373,3.373,0,0,1,2.749-1.341,3.694,3.694,0,0,1,3.3,1.88,4.18,4.18,0,0,1,3.312-1.88c2.426,0,3.933,1.954,3.941,4.372v7.063H22.99V7.336a2.308,2.308,0,1,0-4.562,0v7.021H16.382V7.344a2.318,2.318,0,0,0-2.31-2.31Zm22.356-.58a5.134,5.134,0,0,0-3.751-1.581,5.527,5.527,0,0,0-5.382,5.8,5.542,5.542,0,0,0,5.382,5.8,5.134,5.134,0,0,0,3.751-1.581v1.259h2.128V3.121H36.486ZM29.448,8.834a3.531,3.531,0,1,1,7.038,0,3.531,3.531,0,1,1-7.038,0Z" transform="translate(191.612 1169.613)" fill="#1e2b3b"/>
  </g>
</svg>


