<svg id="Group_701" data-name="Group 701" xmlns="http://www.w3.org/2000/svg" height="26.406"
  viewBox="0 0 35.299 37.723">
  <g id="Group_695" data-name="Group 695" transform="translate(12.806 10.163)">
    <g id="Group_693" data-name="Group 693">
      <path id="Path_1657" data-name="Path 1657"
        d="M-158.467,158.162a.581.581,0,0,1-.581-.581,15.474,15.474,0,0,1,4.213-10.728l-6.506-14.268-6.5,14.267a15.476,15.476,0,0,1,4.213,10.729.581.581,0,0,1-.581.581.581.581,0,0,1-.581-.581,14.305,14.305,0,0,0-4.134-10.159.581.581,0,0,1-.145-.677l7.2-15.8a.58.58,0,0,1,.529-.34h0a.581.581,0,0,1,.529.34l7.206,15.8a.581.581,0,0,1-.144.677,14.371,14.371,0,0,0-4.134,10.159A.581.581,0,0,1-158.467,158.162Z"
        transform="translate(169.118 -130.602)" fill="#E97724" />
    </g>
    <g id="Group_694" data-name="Group 694" transform="translate(7.311 0.116)">
      <path id="Path_1658" data-name="Path 1658"
        d="M-151.943,147.458a.465.465,0,0,1-.465-.465V131.332a.465.465,0,0,1,.465-.465.465.465,0,0,1,.465.465v15.661A.465.465,0,0,1-151.943,147.458Z"
        transform="translate(152.408 -130.867)" fill="#E97724" />
    </g>
    <path id="Path_1659" data-name="Path 1659"
      d="M-151.867,165.367A1.835,1.835,0,0,1-153.7,167.2a1.834,1.834,0,0,1-1.834-1.834,1.834,1.834,0,0,1,1.834-1.834A1.835,1.835,0,0,1-151.867,165.367Z"
      transform="translate(161.479 -149.125)" fill="#E97724" />
  </g>
  <g id="Group_697" data-name="Group 697">
    <g id="Group_696" data-name="Group 696" transform="translate(2.568 1.08)">
      <path id="Path_1660" data-name="Path 1660"
        d="M-192.054,127.627h-.005a.465.465,0,0,1-.46-.469A8.419,8.419,0,0,1-189.7,121.4c2.6-2.333,6.63-3.25,11.994-2.722,5.885.578,10.442-.381,13.18-2.774a7.777,7.777,0,0,0,2.73-5.61.457.457,0,0,1,.481-.448.465.465,0,0,1,.448.481,8.7,8.7,0,0,1-3.047,6.277c-2.936,2.566-7.736,3.6-13.883,3-5.081-.5-8.872.333-11.267,2.476a7.621,7.621,0,0,0-2.525,5.093A.466.466,0,0,1-192.054,127.627Z"
        transform="translate(192.519 -109.841)" fill="#E97724" />
    </g>
    <rect id="Rectangle_194" data-name="Rectangle 194" width="4.331" height="4.331" transform="translate(30.968)"
      fill="#E97724" />
    <rect id="Rectangle_195" data-name="Rectangle 195" width="6.066" height="6.068" transform="translate(0 15.368)"
      fill="#E97724" />
  </g>
  <g id="Group_700" data-name="Group 700" transform="translate(9.897 2.399)">
    <g id="Group_698" data-name="Group 698" transform="translate(0.748 0.987)">
      <path id="Path_1661" data-name="Path 1661"
        d="M-153.256,129.622a.1.1,0,0,1-.061-.019l-20.693-14.3a.107.107,0,0,1-.027-.149.107.107,0,0,1,.148-.027l20.693,14.3a.106.106,0,0,1,.027.148A.106.106,0,0,1-153.256,129.622Z"
        transform="translate(174.055 -115.112)" fill="#E97724" />
    </g>
    <g id="Group_699" data-name="Group 699">
      <path id="Path_1662" data-name="Path 1662"
        d="M-126.839,146.572a1.137,1.137,0,0,1-1.137,1.136,1.136,1.136,0,0,1-1.136-1.136,1.136,1.136,0,0,1,1.136-1.136A1.137,1.137,0,0,1-126.839,146.572Z"
        transform="translate(149.524 -131.182)" fill="#E97724" />
      <path id="Path_1663" data-name="Path 1663"
        d="M-173.494,113.993a1.137,1.137,0,0,1-1.137,1.136,1.135,1.135,0,0,1-1.135-1.136,1.136,1.136,0,0,1,1.135-1.137A1.137,1.137,0,0,1-173.494,113.993Z"
        transform="translate(175.766 -112.856)" fill="#E97724" />
    </g>
  </g>
</svg>