<svg xmlns="http://www.w3.org/2000/svg" height="57" viewBox="0 0 57 57" style="height: 100%; width: 100%">
  <path id="linkedin-icon" d="M35.525,7.025a28.5,28.5,0,1,0,28.5,28.5A28.5,28.5,0,0,0,35.525,7.025ZM27.921,49.3H21.664V29.087h6.257ZM24.763,26.44a3.73,3.73,0,1,1,3.7-3.73A3.715,3.715,0,0,1,24.763,26.44ZM51.371,49.3H45.144V38.692c0-2.91-1.106-4.535-3.407-4.535-2.5,0-3.813,1.692-3.813,4.535V49.3h-6V29.087h6V31.81a7.051,7.051,0,0,1,6.092-3.339c4.287,0,7.355,2.617,7.355,8.032Z" transform="translate(-7.025 -7.025)" fill="#1e2b3b"/>
</svg>
