<svg xmlns="http://www.w3.org/2000/svg" xmlns:xlink="http://www.w3.org/1999/xlink" height="59.5" viewBox="0 0 77.7 59.5" style="height: 100%; width: 100%">
  <defs>
    <clipPath id="clip-path">
      <rect id="Rectangle_645" data-name="Rectangle 645" height="59.5" fill="none" style="height: 100%; width: 100%" />
    </clipPath>
  </defs>
  <g id="Group_1558" data-name="Group 1558" transform="translate(0 0)">
    <g id="Group_1557" data-name="Group 1557" transform="translate(0 0)" clip-path="url(#clip-path)">
      <path id="Path_4246" data-name="Path 4246" d="M46.785,17.553q0-7.928,0-15.856c0-1.447.248-1.7,1.689-1.7Q64.439,0,80.4,0c1.4,0,1.632.232,1.632,1.635q.007,16.018,0,32.035c0,1.351-.225,1.577-1.571,1.578q-16.018.008-32.036,0c-1.409,0-1.64-.234-1.641-1.625q-.007-8.036,0-16.072m1.749,15.989H80.329V1.71H48.535Z" transform="translate(-23.854 0)" fill="#fff"/>
      <path id="Path_4247" data-name="Path 4247" d="M8.738,101.237l.149-.919c1.344-.341,1.474-.251,1.476,1.03q.005,3.877,0,7.755c0,1.257-.068,1.3-1.44,1.068l-.191-1.057a5.5,5.5,0,0,1-4.28,1.268A5.338,5.338,0,0,1,.8,107.95a5.148,5.148,0,0,1,.663-6.351c1.863-1.974,4.158-2.1,7.272-.362m-3.493,7.748a3.82,3.82,0,0,0,3.627-3.807,3.76,3.76,0,0,0-3.694-3.718A3.757,3.757,0,0,0,1.6,105.19a3.822,3.822,0,0,0,3.642,3.794" transform="translate(0 -50.996)" fill="#fff"/>
      <path id="Path_4248" data-name="Path 4248" d="M146.045,101.269c.067-.418.116-.725.164-1.023,1.394-.264,1.463-.215,1.464,1.109,0,2.585-.039,5.171.02,7.754.025,1.082-.413,1.326-1.425,1.066l-.252-1.087c-1.456,1.091-3.087,1.79-4.8,1.1a7.634,7.634,0,0,1-2.957-2.164,4.935,4.935,0,0,1,.546-6.488c1.928-2,4.45-2.123,7.242-.265m-3.459.155a3.75,3.75,0,0,0-3.674,3.74,3.636,3.636,0,1,0,7.268.076,3.764,3.764,0,0,0-3.594-3.816" transform="translate(-69.994 -50.961)" fill="#fff"/>
      <path id="Path_4249" data-name="Path 4249" d="M82.374,105.2a5.23,5.23,0,1,1,5.213,5.243,5.34,5.34,0,0,1-5.213-5.243m8.844-.017a3.786,3.786,0,0,0-3.652-3.769,3.766,3.766,0,0,0,0,7.526,3.754,3.754,0,0,0,3.653-3.757" transform="translate(-41.999 -50.948)" fill="#fff"/>
      <path id="Path_4250" data-name="Path 4250" d="M40.427,110.3l-1.946-.784a3.741,3.741,0,0,1-4.235.23c-1.592-.815-2.045-2.31-2.057-3.982-.011-1.615.006-3.231-.007-4.847,0-.573.11-.986.8-1.011.778-.028.738.491.738,1.011,0,1.652-.053,3.306.021,4.954.1,2.146,1.5,3.231,3.319,2.674a2.433,2.433,0,0,0,1.817-2.382c.027-1.759.019-3.519.005-5.278,0-.559.037-.981.775-.989s.775.429.774.981c-.009,3.008,0,6.016,0,9.422" transform="translate(-16.408 -50.933)" fill="#fff"/>
      <path id="Path_4251" data-name="Path 4251" d="M62.211,100.608c.957-.975,2.326-.913,3.724-.242,1.061.509,1.073.793.194,1.76a11.883,11.883,0,0,0-1.343-.557,2.1,2.1,0,0,0-2.929,2.112c-.058,1.829-.02,3.662-.015,5.493,0,.56.055,1.066-.792,1.065-.888,0-.745-.575-.746-1.1,0-2.693-.02-5.387.021-8.079,0-.33.3-.911.5-.928a3.984,3.984,0,0,1,1.389.472" transform="translate(-30.743 -50.919)" fill="#fff"/>
      <path id="Path_4252" data-name="Path 4252" d="M120.679,102.135a10.982,10.982,0,0,0-1.245-.55,2.122,2.122,0,0,0-3,2.144c-.05,1.758-.01,3.519-.014,5.278,0,1.3-.011,1.3-1.417,1.114a4.277,4.277,0,0,1-.113-.7c-.008-2.8-.024-5.6.019-8.4,0-.316.317-.855.543-.887.35-.049.75.249,1.32.478.922-.928,2.282-.937,3.688-.271,1.132.535,1.155.851.215,1.792" transform="translate(-58.575 -50.924)" fill="#fff"/>
      <path id="Path_4253" data-name="Path 4253" d="M70.151,31.09c-1.311,1.193-2.608,2.324-3.843,3.518a1.179,1.179,0,0,1-1.93.021c-.89-.889-1.811-1.747-2.734-2.6-4.289-3.97-4.432-10.653-1.472-15.24a11.983,11.983,0,0,1,21.859,8.824,15.627,15.627,0,0,1-2.327,4.92,45.352,45.352,0,0,1-3.675,4.362,1.029,1.029,0,0,1-1.732.053c-1.346-1.292-2.731-2.545-4.146-3.856m5.153,2.55c1.435-1.989,2.848-3.831,4.129-5.76a7.846,7.846,0,0,0,1.182-5.156c-.763-8.7-9.134-11.785-15.279-8.623-3.7,1.906-5.336,5.288-5.534,9.366-.214,4.413,2.372,7.245,5.591,9.765l3.56-3.274c-.846-.834-1.624-1.578-2.376-2.347a5.9,5.9,0,0,1-1.633-3.666,5.17,5.17,0,0,1,4.411-5.705c3.081-.426,5.55,1.288,5.985,4.212a5.941,5.941,0,0,1-1.606,4.856c-.765.9-1.582,1.75-2.4,2.647L75.3,33.641m-5.172-4.7a39.363,39.363,0,0,0,2.976-3.591c1.475-2.271.431-4.99-1.979-5.421a3.533,3.533,0,0,0-3.9,1.376,3.973,3.973,0,0,0,.048,4.543c.82,1.066,1.823,1.991,2.851,3.093" transform="translate(-29.652 -5.732)" fill="#fff"/>
    </g>
  </g>
</svg>
