<svg xmlns="http://www.w3.org/2000/svg" height="40.083" viewBox="0 0 82.619 40.083" style="height: 100%; width: 100%">
  <g id="Group_1684" data-name="Group 1684" transform="translate(11778 -11958)">
    <g id="Group_726" data-name="Group 726" transform="translate(-11778 11958)">
      <path id="Path_1458" data-name="Path 1458" d="M737.552-104.26c-10.221-.162-18.794-1.19-27.04-4.194a32.9,32.9,0,0,1-9.615-5.092,23.75,23.75,0,0,1-3.689-3.7,11.691,11.691,0,0,1,.63-15.07,27.172,27.172,0,0,1,9.811-6.784,62.108,62.108,0,0,1,20.3-4.858,102.322,102.322,0,0,1,11.787-.33c9.459.388,18.68,1.995,27.221,6.375a24.776,24.776,0,0,1,7.44,5.65,12.029,12.029,0,0,1-.126,15.975,27.381,27.381,0,0,1-9.251,6.461,60.292,60.292,0,0,1-18.083,4.814C743.328-104.584,739.684-104.424,737.552-104.26Zm-1.581-2.887a77.9,77.9,0,0,0,17.142-1.791c1.612-.351,3.2-.754,4.87-1.26a38.93,38.93,0,0,0,10.285-4.73,16.186,16.186,0,0,0,4.712-4.5c2.1-3.178,2.271-6.455.1-9.615a19.612,19.612,0,0,0-3.575-3.794,28.446,28.446,0,0,0-8.416-4.569,61.258,61.258,0,0,0-15.716-3.6,82.616,82.616,0,0,0-27.379,1.485,42.53,42.53,0,0,0-14.091,5.747,16.294,16.294,0,0,0-4.821,4.7,8.067,8.067,0,0,0,.131,9.615,16.422,16.422,0,0,0,2.3,2.619,28.242,28.242,0,0,0,9.791,5.63A71.982,71.982,0,0,0,735.972-107.147Z" transform="translate(-694.755 144.343)" fill="#fff"/>
      <path id="Path_1459" data-name="Path 1459" d="M856.367-112.243a4.4,4.4,0,0,1,1.084,3.409c-.049,1.819,0,3.639-.019,5.459-.03,3.492-1.875,5.626-5.325,6a37.516,37.516,0,0,1-4.042.024c-.46-1.78-.547-28.341-.121-30.784a11.981,11.981,0,0,1,7.359.917,3.643,3.643,0,0,1,2.142,3.522c-.016,2.475.114,4.956-.032,7.422A22.4,22.4,0,0,1,856.367-112.243ZM851.008-124.8c-.415,3.189-.285,9.224.205,10.63,2.419-.089,3.15-.779,3.18-3.056.021-1.595.03-3.19,0-4.784C854.348-124.344,853.588-124.981,851.008-124.8Zm-.076,24.214c2.731-.148,3.436-.818,3.465-3.1.022-1.669.043-3.339-.009-5.007-.069-2.21-1.132-2.932-3.456-2.39Z" transform="translate(-805.204 132.782)" fill="#fff"/>
      <path id="Path_1460" data-name="Path 1460" d="M776.611-93.26,773.048-94.5v-11.124l-2.963-.134c-.027,1.824-.062,3.539-.075,5.254-.013,1.731,0,3.463,0,5.465l-3.388-1.03v-23.844a19.993,19.993,0,0,1,6.493-1.8c2.03-.205,3.311,1.033,3.473,3.07.04.508.02,1.021.02,1.531q0,10.616.006,21.232C776.611-95.1,776.611-94.316,776.611-93.26Zm-7.09-24.225c-.009,2.809-.115,5.614.082,8.51,1.253.046,2.314.33,3.361-.281.026-.472.07-.905.071-1.338.008-1.894.054-3.791-.012-5.682C772.95-118.394,771.768-118.878,769.521-117.486Z" transform="translate(-746.663 128.011)" fill="#fff"/>
      <path id="Path_1461" data-name="Path 1461" d="M815.322-96.229a15.567,15.567,0,0,1-5.828.079c-2.513-.473-3.752-1.865-3.761-4.343-.031-8.233,0-16.466.011-24.7a5.052,5.052,0,0,1,.143-.7l2.987-.545v2.629q0,10.6,0,21.2c0,1.407-.019,2.831,1.669,3.32a2.034,2.034,0,0,0,1.955-2.061,13.54,13.54,0,0,0,.04-1.746q.006-10.492.008-20.984c0-.791,0-1.581,0-2.514h2.777Z" transform="translate(-774.906 131.518)" fill="#fff"/>
      <path id="Path_1462" data-name="Path 1462" d="M886.759-123.906a22.593,22.593,0,0,1,10.66,2.564l-1.474,2.365-5.235-1.4a33.388,33.388,0,0,0-.061,9.46h4.684c.043.909.079,1.662.126,2.64h-4.935c-.026,1.78-.057,3.356-.069,4.932-.011,1.52,0,3.04,0,4.7,2.142.1,3.764-.931,5.746-1.659l.987,2.405a21.458,21.458,0,0,1-10.426,2.692Z" transform="translate(-833.441 129.585)" fill="#fff"/>
      <path id="Path_1463" data-name="Path 1463" d="M727.435-99.27c2.72,3.357,4.871,6.9,4.347,11.765l-3.225-1.053a15.716,15.716,0,0,0-3.871-8.763l-2.067,5.536-2.66-2.048c1.043-3.358,1.877-6.79-.56-10.089,2.159-2.493,4.387-4.646,7.54-5.483a3.1,3.1,0,0,1,3.935,4.031,19.966,19.966,0,0,1-1.885,3.913A23,23,0,0,1,727.435-99.27Zm.065-7.347c-1.983.5-2.908,1.794-4.034,3.1l.78,2.2a8.393,8.393,0,0,0,3.5-3.97C727.862-105.6,727.619-106.037,727.5-106.617Z" transform="translate(-712.555 119.207)" fill="#fff"/>
      <path id="Path_1464" data-name="Path 1464" d="M924.1-110.328l1.417-2.233c3.347.921,5.454,3.208,7.329,6.481l1.135-2.194,2.15,1.71A9.273,9.273,0,0,0,936-96.869L934.082-95.1l-1.314-1.163c-.147.057-.321.069-.38.156a14.883,14.883,0,0,1-4.275,4.608c-.835.526-1.755.917-2.768,1.436l-1.015-2.3c.5-.369.939-.715,1.4-1.029a11.455,11.455,0,0,0,3.732-3.912,8,8,0,0,0-1.4-9.835A46.376,46.376,0,0,0,924.1-110.328Z" transform="translate(-860.413 121.387)" fill="#fff"/>
    </g>
  </g>
</svg>
