<svg width="1920" height="1256" xmlns="http://www.w3.org/2000/svg" preserveAspectRatio="xMidYMid meet" version="1.0">
 <metadata>Created by potrace 1.16, written by Peter Selinger 2001-2019</metadata>

 <g>
  <title>Layer 1</title>
  <g id="svg_4">
   <path stroke="#3d6895" fill="#3d6895" id="svg_2" d="m881,0.56327c-117.59998,2.18391 -238.29999,8.16944 -341,16.98596c-12.89996,1.05151 -27.79999,2.34568 -33,2.75011c-25,2.10302 -102.19998,10.43423 -136,14.64028c-87,10.75778 -207.09999,28.87614 -243.5,36.72203c-2.7,0.5662 -12.2,2.42657 -21,4.04428c-19.9,3.63985 -73.4,14.31673 -87.5,17.39039c-5.8,1.29417 -12.4,2.66922 -14.7,3.15453l-4.3,0.97063l0,459.34895l0,459.42987l960,0l960,0l0,-459.42987c0,-252.6864 -0.29993,-459.42983 -0.59998,-459.42983c-0.30005,0 -10.80005,-2.18391 -23.19995,-4.93401c-110.40002,-23.94212 -249,-46.26653 -377.20007,-60.90681c-90.29993,-10.27246 -199.69995,-19.41253 -288,-23.94212c-9.09998,-0.48531 -23,-1.21328 -31,-1.61771c-19.59998,-1.05151 -72,-3.07365 -108,-4.04428c-28.29993,-0.88974 -183,-1.61771 -211,-1.1324z"/>
   <ellipse stroke="#3d6895" ry="265.99962" rx="999.99856" id="svg_3" cy="977.99942" cx="952" fill="#3d6895"/>
  </g>
 </g>
</svg>