<svg xmlns="http://www.w3.org/2000/svg" height="193.545" viewBox="0 0 25.928 193.545" style="height: 100%; width: 100%">
  <g id="Group_724" data-name="Group 724" transform="translate(204.406 -55.005) rotate(92)">
    <path id="Path_1891" data-name="Path 1891" d="M66.06,186.055c1.529.021,3.059-.106,4.587-.173.622-.029,1.244-.075,1.865-.12l8.22-.579q4.914-.346,9.829-.736l14.038-1.11c1.073-.085,2.146-.143,3.218-.213q4.091-.275,8.179-.545l8.181-.543c1.067-.071,2.135-.163,3.2-.212q6.525-.294,13.052-.582,4.012-.177,8.025-.358c1.047-.047,2.1-.117,3.144-.139q6.308-.128,12.616-.269,6.225-.13,12.451-.264c1.1-.022,2.193-.012,3.287-.018q4.065-.02,8.129-.045,6.319-.034,12.638-.068c1.378-.009,2.757.013,4.133.019q4.326.021,8.654.043l.716.005q-9.739.187-19.481.386l-8.135.17c-1.17.024-2.341.031-3.51.073q-5.885.217-11.769.453l-13.6.52c-.762.03-1.524.091-2.285.142l-7.244.473q-7.346.479-14.694.959c-.725.048-1.449.12-2.173.191q-3.588.35-7.176.7-6.428.628-12.855,1.258c-1.181.116-2.362.28-3.541.422l-8.232.982c-3.487.416-6.976.818-10.462,1.25q-7.28.9-14.558,1.8-1.746.217-3.492.431c-2.086.259-4.166.632-6.248.957a.528.528,0,0,0-.408.578c0,.325.186.563.408.577q1.141.072,2.283.14a2.857,2.857,0,0,0-.149.9c0,1.1.68,2.186,1.493,2.116,5.95-.526,11.9-1.1,17.853-1.5l15.509-1.046,17.147-1.158,5.4-.365c.519-.034,1.039-.082,1.559-.1q13.812-.521,27.623-1.027l14.762-.548q2.668-.1,5.333-.163,14.127-.312,28.254-.626,6.052-.136,12.105-.275c3.445-.078,6.891-.112,10.335-.295l8.537-.458c1.42-.075,2.843-.124,4.261-.251q4.845-.433,9.69-.886l-.007.016a2.639,2.639,0,0,0-.136,1.469,1.967,1.967,0,0,0,.618,1.137.968.968,0,0,0,1.036.192q1.056-.593,2.1-1.216l-.044.026.155-.093.18-.107-.065.039,1.117-.668c.39-.23.78-.463,1.168-.7.423-.261.827-.579,1.234-.887a2.39,2.39,0,0,0,.742-1.834,2.824,2.824,0,0,0-.2-1.072,1.639,1.639,0,0,0-.9-.976c-.361-.089-.721-.157-1.083-.222a1.37,1.37,0,0,0-.243-.02c-.245,0-.5.049-.734.072-.549.055-1.093.17-1.642.227l-1.342.137q-1.807.187-3.613.371c-.311.033-.623.058-.934.088a1.9,1.9,0,0,0,.242-.627,2.335,2.335,0,0,0,.095-.588c.013-.145.027-.29.041-.434a2.283,2.283,0,0,0-.067-.541l.094-.059a1.972,1.972,0,0,0,.542-.77,2.926,2.926,0,0,0,0-2.163c-.078-.145-.157-.289-.236-.435a1.512,1.512,0,0,0-.668-.551,2.937,2.937,0,0,0-1.443-.312c-.4,0-.808.041-1.206.047-.579.007-1.157.016-1.737.024-.819.012-1.639.029-2.458.035q-3.247.024-6.494.047c-2.036.016-4.072.013-6.109.012-1.851,0-3.7-.005-5.552.006-7.378.046-14.755.062-22.133.169q-8.3.116-16.6.236-3.71.055-7.419.164-8.315.248-16.63.5l-4.743.143c-.917.029-1.834.1-2.751.145q-8.217.442-16.436.883l-5.017.271c-.938.049-1.875.138-2.813.208q-8.162.622-16.326,1.242-4.216.321-8.425.705-7.211.644-14.422,1.289c-4.165.37-8.332.691-12.5,1.037l-1.98.163c-1.066.089-2.135.149-3.2.216a28.238,28.238,0,0,1-2.848.062c-.1-.349-.335-.633-.609-.6-.612.069-1.224.163-1.834.257a.768.768,0,0,0-.639.687,1.04,1.04,0,0,0,.463,1.156c.265.09.529.183.8.27a4.358,4.358,0,0,0,.8.141A18.908,18.908,0,0,0,66.06,186.055Zm168.334-3.272,2.682,0a2.225,2.225,0,0,0,.361.743c-.346.034-.692.066-1.038.085l-1.955.1-8.537.455c-1.3.068-2.606.17-3.908.2q-3.053.066-6.107.137-6.977.156-13.956.313-13.545.31-27.091.607c-6.467.147-12.932.432-19.4.673q-14.611.552-29.224,1.1c-1.953.073-3.906.25-5.857.382q-8.293.564-16.587,1.127l-16.284,1.1-1.508.1q2.195-.251,4.39-.49,7.663-.829,15.327-1.66l5.353-.579c.92-.1,1.842-.162,2.763-.243l15.938-1.368c1.038-.091,2.078-.209,3.117-.266l4.49-.247,16.433-.9,3.615-.2c.317-.016.635-.018.952-.028l2.539-.072,16.467-.476c2.529-.073,5.058-.158,7.587-.188,8.162-.093,16.323-.213,24.485-.265C217.762,182.874,226.078,182.792,234.394,182.783Z" transform="translate(0 0)" fill="#e97724"/>
    <circle id="Ellipse_63" data-name="Ellipse 63" cx="0.568" cy="0.568" r="0.568" transform="translate(82.16 198.814)" fill="#e97724"/>
  </g>
</svg>
