<?xml version="1.0" standalone="no"?>
<!DOCTYPE svg PUBLIC "-//W3C//DTD SVG 20010904//EN"
 "http://www.w3.org/TR/2001/REC-SVG-20010904/DTD/svg10.dtd">
<svg version="1.0" xmlns="http://www.w3.org/2000/svg"
 width="1920.000000pt" height="1256.000000pt" viewBox="0 0 1920.000000 1256.000000"
 preserveAspectRatio="xMidYMid meet">
<metadata>
Created by potrace 1.16, written by Peter Selinger 2001-2019
</metadata>
<g transform="translate(0.000000,1256.000000) scale(0.100000,-0.100000)"
fill="#000000" stroke="none">
<path d="M8545 12550 c-2568 -73 -4926 -354 -7190 -855 -416 -92 -1109 -263
-1337 -331 -17 -5 -18 -284 -18 -5685 l0 -5679 9600 0 9600 0 0 5679 0 5679
-32 11 c-118 37 -696 181 -1168 290 -607 140 -1050 228 -1840 365 -604 105
-1493 229 -2156 301 -978 106 -1880 170 -3044 216 -340 13 -2036 20 -2415 9z"/>
</g>
</svg>
