<svg id="Component_56_1" data-name="Component 56 – 1" xmlns="http://www.w3.org/2000/svg" width="85.503" height="48.581" viewBox="0 0 85.503 48.581">
  <path id="Path_1694" data-name="Path 1694" d="M89.591,480.125c-6.935-2.471-6.935-2.471-14.282-18.477-.876,6.829-1.591,11.669-2.1,16.53-.545,5.211-1.038,10.436-1.3,15.667-.352,7.085-.358,14.188-.726,21.273-.146,2.8,1.077,7.11-3.624,7.027-4.162-.073-4.154-4.225-4.106-7.106.177-10.467.564-20.94,1.24-31.387.377-5.808,1.483-11.569,2.4-18.377-7.347,5.924-8.947,15.661-17.949,20.557.173-3.089-.225-5.246.474-6.954,5.167-12.62,11.7-24.474,20.609-34.9a14.465,14.465,0,0,1,2.644-2.573c3.713-2.577,7.663-1.72,8.9,2.55,3.255,11.222,6.036,22.582,8.934,33.906C90.819,478.3,90.211,478.916,89.591,480.125Z" transform="matrix(0.087, 0.996, -0.996, 0.087, 515.876, -87.303)" fill="#e97724"/>
</svg>
