<svg xmlns="http://www.w3.org/2000/svg" width="675.636" viewBox="0 0 675.636 23.517" style="width:100%; height:100%">
  <path id="Path_1680" data-name="Path 1680" d="M714.83,222.161c-2.425.082-4.858.147-7.278.255l-10.036.45c-5.54.25-11.052.669-16.452,1.264a146.819,146.819,0,0,0-16.639,2.807c-1.048.241-2.089.5-3.173.716l-3.5.688c-1.657.292-3.319.567-5.027.8-1.975.27-4,.459-6.045.6-1.781.08-3.552.122-5.343.126-1.693.006-3.382-.06-5.067-.149-2.3-.163-4.56-.378-6.8-.661-2.354-.3-4.651-.7-6.914-1.108-3.883-.748-7.616-1.6-11.254-2.558q-2.569-.675-5.082-1.386c-2.016-.578-4.006-1.159-6.093-1.688-1.6-.406-3.211-.8-4.944-1.091-1.129-.189-2.233-.331-3.413-.45-1.154-.117-2.387-.147-3.567-.174-.715.006-1.427.036-2.129.091-1.043.07-2.018.169-3.026.3-1.564.2-3.036.58-4.476.908q-4.388,1.008-8.768,2.021c-3.7.857-7.427,1.695-11.254,2.431-2.337.409-4.7.772-7.113,1.087-3.165.41-6.416.685-9.677.9-3.145.169-6.285.275-9.458.291-3.577.019-7.159-.151-10.7-.348-4.5-.281-8.927-.676-13.34-1.142-4.075-.432-8.073-.967-11.956-1.657q-5.8-1.111-11.337-2.452c-4.178-1.017-8.515-1.941-13.019-2.651-1.781-.28-3.653-.462-5.5-.627-2.142-.189-4.34-.268-6.522-.253s-4.416.212-6.535.436a58.637,58.637,0,0,0-6.28,1.083A131.018,131.018,0,0,0,433.624,225c-2.6.851-5.128,1.752-7.677,2.631-2.135.716-4.259,1.435-6.5,2.086-2.339.679-4.81,1.26-7.371,1.759-1.19.21-2.385.4-3.612.57-1.594.223-3.251.359-4.908.467q-.981.045-1.968.049c-.472,0-.942,0-1.412-.023-1.341-.125-2.617-.286-3.89-.5a127.474,127.474,0,0,1-12.918-3.51q-2.921-1.015-5.648-2.122-1.91-.774-3.814-1.552c-3.312-1.348-6.252-2.877-9.895-4.064a46.9,46.9,0,0,0-4.754-1.293c-.947-.2-1.955-.348-2.963-.477l-1-.091-2.094-.124c-.338-.008-.677-.018-1.015-.028q-.19,0-.379,0-.936,0-1.869.071c-1.225.064-2.372.193-3.554.345-2.306.3-4.512.716-6.714,1.137-1.8.343-3.562.714-5.34,1.077-1.25.256-2.524.5-3.734.789l-5.717,1.373c-.957.23-1.935.447-2.862.7q-2.58.715-5.166,1.427c-1.3.358-2.622.7-3.9,1.077l-9.594,2.813c-6.906,2.023-13.893,4.011-21.532,5.463-1.69.3-3.39.58-5.123.83-2.142.311-4.352.506-6.575.663-.942.048-1.879.083-2.834.108-1.392.034-2.784-.008-4.171-.07-2-.147-3.921-.363-5.818-.671-2.061-.427-3.981-.941-5.843-1.519-2.9-1.036-5.517-2.2-8.1-3.392-1.281-.59-2.577-1.173-3.867-1.759-1.549-.7-3.228-1.348-4.926-1.979a34.539,34.539,0,0,0-4.517-1.321c-.937-.206-1.937-.366-2.923-.52a29.309,29.309,0,0,0-3.067-.21q-1,.025-1.988.1a25.142,25.142,0,0,0-2.738.421,14.676,14.676,0,0,0-2.445.71c-.73.306-1.422.622-2.1.95-1.3.62-2.455,1.313-3.66,1.97-.952.517-1.895,1.039-2.847,1.56-1.1.6-2.261,1.193-3.387,1.79a55.923,55.923,0,0,1-7.475,3.209,64.83,64.83,0,0,1-6.676,1.725c-2.155.353-4.332.6-6.6.767-3.208.148-6.376.119-9.579-.04a137.892,137.892,0,0,1-14.664-1.878c-4.315-.83-8.437-1.8-12.494-2.855-2.089-.543-4.1-1.139-6.108-1.736-2.021-.6-4.042-1.2-6.04-1.815-2.018-.621-4.011-1.25-6.106-1.822q-3.213-.874-6.641-1.575a65.713,65.713,0,0,0-13.459-1.378c-1.079.008-2.193.076-3.256.156-1.137.085-2.236.186-3.352.321-.993.118-1.955.3-2.9.481-1.031.193-2.054.394-3.079.6-4.494.888-8.755,1.931-12.835,3.143a75.14,75.14,0,0,0-10.013,3.738c-1.4.647-2.721,1.308-3.951,2.018a4.859,4.859,0,0,0-1.359,1.079l-.364.464c-.147.332-.29.661-.434.993-.189.441-.028.868.722,1.2a5.609,5.609,0,0,0,2.733.316c.674-.083,1.346-.168,2.021-.253.965-.122,1.834-.312,2.728-.507,1.367-.3,1.735-1.13,1.005-1.678a3.5,3.5,0,0,0-1.67-.554,63.5,63.5,0,0,1,8.134-3.385,121.8,121.8,0,0,1,15.247-3.848q1.83-.333,3.681-.65c1.548-.261,3.135-.415,4.759-.526,1.44-.056,2.834-.067,4.279-.023.952.069,1.882.156,2.832.263,1.377.155,2.713.385,4.034.618,2.584.511,4.987,1.143,7.386,1.808,2.781.767,5.348,1.68,8.018,2.52,2.635.828,5.279,1.654,7.97,2.445,2.668.786,5.454,1.5,8.258,2.185a157.735,157.735,0,0,0,17.243,3.19,101.681,101.681,0,0,0,19.079.709,69.25,69.25,0,0,0,8.634-1.038,63.5,63.5,0,0,0,7.55-1.91,57.62,57.62,0,0,0,7.06-2.783c1.147-.544,2.208-1.111,3.269-1.685,1.546-.83,3.057-1.67,4.56-2.516a65,65,0,0,1,5.8-3.066c.159-.043.321-.083.488-.118.23-.035.462-.065.7-.091.076,0,.152,0,.23,0,.422.04.839.092,1.248.156,1.028.209,1.985.444,2.938.724,2.66.939,5.055,1.987,7.419,3.068,3.006,1.371,5.984,2.744,9.3,3.98,1.425.532,2.981.995,4.552,1.436a59.653,59.653,0,0,0,5.9,1.26,57.508,57.508,0,0,0,5.828.617c2.354.159,4.676.191,7.048.129,1.96-.051,3.928-.2,5.853-.359,2.342-.19,4.605-.507,6.843-.858,4.191-.656,8.225-1.5,12.118-2.438,5.709-1.373,11.082-2.985,16.478-4.576,2.577-.762,5.128-1.549,7.75-2.278l9.01-2.505c.346-.1.725-.175,1.081-.262q1.542-.371,3.079-.744l4.694-1.135c.308-.075.642-.135.962-.2q1.648-.343,3.3-.683c1.847-.38,3.688-.756,5.557-1.112,1.887-.323,3.8-.6,5.775-.8.4-.014.8-.019,1.2-.013q.5,0,1,.025c.841.076,1.617.17,2.412.292,1.369.305,2.642.659,3.888,1.052,3.771,1.382,7.093,2.991,10.693,4.459,2.253.921,4.507,1.822,6.9,2.673,2.165.769,4.426,1.485,6.74,2.164,2.46.721,5.085,1.329,7.7,1.935a43.9,43.9,0,0,0,7.679,1.062c1.21.061,2.339.074,3.557.051,1.528-.029,3.069-.16,4.565-.281a73.844,73.844,0,0,0,7.391-1.028c2.721-.5,5.274-1.1,7.77-1.778,3.458-.941,6.633-2.087,9.806-3.2l5.648-1.977,4.484-1.5a87.942,87.942,0,0,1,10.274-2.782c1.814-.3,3.648-.509,5.565-.653.922-.041,1.836-.066,2.771-.073.818-.008,1.639.029,2.453.073,2.928.221,5.744.562,8.505,1.039,2.385.459,4.739.952,7.043,1.486,1.435.332,2.837.693,4.256,1.038,1.387.337,2.819.641,4.246.947,2.741.591,5.517,1.141,8.354,1.641,2.968.523,6.07.9,9.157,1.264,6.469.755,13.042,1.265,19.691,1.6q5.043.252,10.115.187c3.337-.039,6.661-.227,9.96-.431a143.542,143.542,0,0,0,17.241-2.126c3.531-.656,6.937-1.408,10.359-2.167,4.092-.905,8.129-1.881,12.3-2.724.836-.125,1.662-.219,2.536-.3q.762-.027,1.518,0c1.215.1,2.364.242,3.519.429,3.728.806,7.113,1.871,10.549,2.888,3.579,1.06,7.328,2.032,11.173,2.9s7.851,1.589,11.916,2.213a112.179,112.179,0,0,0,14.272,1.145,102.623,102.623,0,0,0,12.726-.574c3.557-.365,6.964-.982,10.274-1.651,1.427-.289,2.852-.569,4.234-.9q1.345-.315,2.685-.632c1.341-.316,2.759-.587,4.166-.849a192.214,192.214,0,0,1,21.169-2.284c3.908-.218,7.844-.337,11.764-.5,3.4-.139,6.818-.209,10.223-.307,6.906-.2,13.848-.39,20.775-.38,2.655,0,4.865-.971,4.865-2.128s-2.21-2.149-4.865-2.129c-5.259.039-10.511.216-15.755.384Q718.636,222.033,714.83,222.161Zm-128.055,2.153.407-.023h0Z" transform="translate(-67.428 -218.776)" fill="#e97724"/>
</svg>
