<svg xmlns="http://www.w3.org/2000/svg" width="197.531" height="201.993" viewBox="0 0 197.531 201.993">
  <g id="t2Zim8.tif" transform="translate(98.765 100.997)">
    <g id="t2Zim8.tif-2" data-name="t2Zim8.tif" transform="translate(-98.765 -100.996)">
      <g id="Group_95" data-name="Group 95">
        <path id="Path_523" data-name="Path 523" d="M0,.266c1.938-.65,3.3.036,4.655.5Q12.574,3.49,20.464,6.3c4.007,1.421,7.992,2.9,12,4.327,3.544,1.259,7.109,2.461,10.657,3.71,6.852,2.411,13.693,4.855,20.549,7.253,7.116,2.489,14.246,4.937,21.369,7.406q10.193,3.533,20.385,7.07c6.47,2.235,12.951,4.443,19.419,6.684,3.962,1.372,7.912,2.778,11.862,4.184.569.2,1.106.5,1.95.879a19,19,0,0,1-1.661,1.559Q124.316,58.5,111.619,67.605c-4.536,3.268-9.032,6.591-13.557,9.873Q91.02,82.585,83.953,87.656a6.014,6.014,0,0,1-.885.418,8.024,8.024,0,0,1-1.286-.927c-4.13-4.368-8.23-8.763-12.352-13.138Q62.31,66.454,55.167,58.92q-3.892-4.114-7.79-8.222-7.718-8.141-15.436-16.283Q25.1,27.18,18.275,19.925c-2.78-2.95-5.551-5.909-8.34-8.851C7.533,8.541,5.094,6.045,2.707,3.5,1.816,2.548,1.028,1.5,0,.266Z" transform="translate(0 0)" fill="#3d6895"/>
        <path id="Path_524" data-name="Path 524" d="M318.481,230.052a4.825,4.825,0,0,1,.784-.965q26.976-19.5,53.979-38.971a3.485,3.485,0,0,1,.923-.276c.2.9.438,1.7.548,2.512q.652,4.866,1.235,9.741c.47,3.944.878,7.895,1.369,11.836.318,2.557.757,5.1,1.1,7.654.485,3.593.929,7.191,1.4,10.786.37,2.835.764,5.666,1.117,8.5.1.816.1,1.646.152,2.685l-48.71,25.379c-2.6-6.643-4.717-13.123-7.012-19.537C323.086,243.033,320.83,236.658,318.481,230.052Z" transform="translate(-233.798 -139.362)" fill="#3d6895"/>
        <path id="Path_525" data-name="Path 525" d="M198.141,352.744c4.656,12.322,9.04,24.745,13.664,37.192-1.79,2.407-3.523,4.766-5.285,7.1q-10.539,13.975-21.089,27.941-9.383,12.467-18.717,24.97c-2.469,3.3-4.912,6.618-7.361,9.934-.411.556-.706,1.266-1.722.985-.91-.944-.519-2.154-.443-3.3.06-.9.223-1.8.264-2.7a143.574,143.574,0,0,1,1.2-15.431,9.667,9.667,0,0,0,.067-1.886c-.3-6.884,1.919-13.054,5.277-18.923,1.037-1.812,1.952-3.7,2.9-5.558,1.771-3.483,3.523-6.976,5.288-10.462q5.355-10.575,10.713-21.149,5.864-11.6,11.714-23.215c.942-1.859,1.962-3.678,2.946-5.516Z" transform="translate(-115.282 -258.938)" fill="#3d6895"/>
        <path id="Path_526" data-name="Path 526" d="M583.3,145.392l-13.135,8.836c-.8-.471-1.588-.886-2.324-1.383-8.145-5.5-16.282-11.011-24.742-16.737,1.2-.876,2.045-1.559,2.953-2.155,5.082-3.333,10.161-6.671,15.276-9.954a15.771,15.771,0,0,1,8.48-2.678,31.259,31.259,0,0,1,3.988.036,16.408,16.408,0,0,1,4.252.961c3.4,1.4,4.617,2.425,7.469,5.74C585.086,133.663,584.017,139.412,583.3,145.392Z" transform="translate(-398.693 -89.027)" fill="#3d6895"/>
        <path id="Path_527" data-name="Path 527" d="M364.087,47.545a4.128,4.128,0,0,1-.872-.094c-16.638-6-33.273-12.006-50.062-18.069-.06-.809-.16-1.554-.164-2.3-.032-5.183-.028-10.365-.073-15.548-.01-1.181-.23-2.361-.227-3.54a15.674,15.674,0,0,1,.439-2.486,8.1,8.1,0,0,1,1.845.773c3.153,2.543,6.274,5.126,9.393,7.711,2.85,2.363,5.681,4.749,8.529,7.115q4.513,3.748,9.044,7.475c3.506,2.887,7.036,5.746,10.525,8.654,3.812,3.177,7.592,6.394,11.375,9.606C363.966,46.95,363.971,47.2,364.087,47.545Z" transform="translate(-229.546 -4.044)" fill="#e97724"/>
        <path id="Path_528" data-name="Path 528" d="M538.718,186.223l25.94,17.522c-1.822,4.062-4.324,7.754-6.4,11.666-2.1,3.945-4.286,7.842-6.479,11.734-2.176,3.859-4.015,7.918-6.553,11.563l-.458-.085-6.516-52.058Z" transform="translate(-395.129 -136.707)" fill="#e97724"/>
        <path id="Path_529" data-name="Path 529" d="M703.326,167.16l1.88-13.46c1.324.562,7.077,5.746,8.638,7.7l-10.091,6.174Z" transform="translate(-516.313 -112.831)" fill="#3d6895"/>
      </g>
    </g>
  </g>
</svg>
