<svg xmlns="http://www.w3.org/2000/svg" width="1162.464" height="46.304" viewBox="0 0 1162.464 46.304">
  <path id="Path_1262" data-name="Path 1262" d="M1181.314,225.441c-4.172.161-8.358.289-12.521.5q-8.632.441-17.268.886c-9.531.492-19.015,1.317-28.307,2.488a223.653,223.653,0,0,0-28.629,5.527c-1.8.475-3.594.99-5.459,1.411l-6.024,1.354c-2.851.575-5.711,1.117-8.649,1.574-3.4.531-6.884.9-10.4,1.178-3.064.157-6.111.239-9.192.248-2.912.011-5.82-.118-8.719-.294-3.964-.32-7.845-.744-11.7-1.3-4.051-.588-8-1.371-11.9-2.181-6.68-1.474-13.1-3.156-19.362-5.037q-4.42-1.329-8.745-2.73c-3.468-1.138-6.893-2.281-10.483-3.324-2.747-.8-5.524-1.578-8.506-2.148-1.943-.372-3.842-.651-5.872-.886-1.986-.231-4.107-.289-6.137-.342-1.23.011-2.456.072-3.664.178-1.8.137-3.473.333-5.207.592a72.967,72.967,0,0,0-7.7,1.787q-7.55,1.985-15.086,3.979c-6.359,1.687-12.778,3.337-19.363,4.787-4.02.805-8.088,1.519-12.239,2.14-5.446.808-11.039,1.35-16.651,1.774-5.411.333-10.813.542-16.272.572-6.154.037-12.317-.3-18.415-.686-7.736-.553-15.36-1.33-22.953-2.249-7.01-.851-13.891-1.9-20.571-3.263q-9.975-2.188-19.506-4.828c-7.189-2-14.651-3.822-22.4-5.22-3.064-.551-6.285-.91-9.466-1.234a104.389,104.389,0,0,0-11.222-.5,101.642,101.642,0,0,0-11.244.858,89.382,89.382,0,0,0-10.8,2.133c-8.393,2.077-15.733,5.046-23.192,7.839-4.477,1.676-8.823,3.45-13.208,5.181-3.673,1.411-7.328,2.825-11.192,4.108a130.083,130.083,0,0,1-12.682,3.463c-2.047.414-4.1.788-6.215,1.123-2.743.44-5.594.707-8.445.919q-1.689.088-3.386.1c-.813.007-1.621-.009-2.43-.046-2.308-.246-4.5-.564-6.693-.98a197.881,197.881,0,0,1-22.227-6.911c-3.351-1.332-6.589-2.717-9.718-4.177q-3.286-1.525-6.563-3.056c-5.7-2.653-10.757-5.664-17.024-8a72.81,72.81,0,0,0-8.18-2.547c-1.63-.4-3.364-.686-5.1-.938-.578-.059-1.147-.118-1.717-.178-1.2-.083-2.395-.161-3.6-.244-.582-.015-1.165-.035-1.747-.054q-.326-.007-.652-.007-1.61,0-3.216.139c-2.108.126-4.081.381-6.115.679-3.968.581-7.762,1.411-11.552,2.238-3.09.675-6.128,1.406-9.188,2.12-2.151.505-4.342.982-6.424,1.554q-4.922,1.355-9.836,2.7c-1.647.453-3.329.879-4.924,1.38q-4.44,1.407-8.888,2.81c-2.234.705-4.511,1.384-6.706,2.12q-8.26,2.769-16.507,5.538c-11.883,3.983-23.9,7.9-37.047,10.755-2.908.59-5.833,1.143-8.814,1.635-3.686.612-7.489,1-11.313,1.306-1.621.094-3.234.163-4.877.213-2.395.068-4.79-.015-7.176-.137a100.639,100.639,0,0,1-10.009-1.321,95.6,95.6,0,0,1-10.053-2.991c-5-2.04-9.492-4.338-13.938-6.678-2.2-1.162-4.433-2.31-6.654-3.463-2.664-1.384-5.555-2.653-8.475-3.9a53.866,53.866,0,0,0-7.771-2.6c-1.612-.4-3.334-.721-5.029-1.023a44.153,44.153,0,0,0-5.276-.414q-1.721.049-3.42.192a38.219,38.219,0,0,0-4.711.829,22.883,22.883,0,0,0-4.207,1.4c-1.256.6-2.447,1.226-3.62,1.87-2.238,1.221-4.225,2.586-6.3,3.879-1.638,1.019-3.26,2.046-4.9,3.071-1.9,1.191-3.89,2.349-5.828,3.524a90.272,90.272,0,0,1-12.861,6.319,100.348,100.348,0,0,1-11.487,3.4,112.734,112.734,0,0,1-11.357,1.511,149.722,149.722,0,0,1-16.481-.078,208.929,208.929,0,0,1-25.23-3.7c-7.423-1.635-14.516-3.55-21.5-5.62-3.594-1.069-7.058-2.242-10.509-3.417-3.477-1.184-6.954-2.364-10.392-3.574-3.473-1.223-6.9-2.462-10.5-3.587-3.686-1.147-7.489-2.19-11.426-3.1a99.359,99.359,0,0,0-23.157-2.712c-1.856.015-3.773.15-5.6.307-1.956.168-3.846.366-5.767.631-1.708.233-3.364.6-4.99.947-1.773.381-3.534.775-5.3,1.173a217.49,217.49,0,0,0-22.083,6.189,119.506,119.506,0,0,0-17.229,7.36c-2.412,1.273-4.681,2.575-6.8,3.973a8.671,8.671,0,0,0-2.338,2.124l-.626.914c-.252.653-.5,1.3-.748,1.955-.326.868-.048,1.709,1.243,2.355a8.528,8.528,0,0,0,4.7.623c1.16-.163,2.317-.331,3.477-.5a45.714,45.714,0,0,0,4.694-1c2.351-.588,2.986-2.225,1.73-3.3a5.536,5.536,0,0,0-2.873-1.091,102.149,102.149,0,0,1,13.995-6.665,188.311,188.311,0,0,1,26.234-7.577c2.1-.438,4.207-.869,6.332-1.28a73.8,73.8,0,0,1,8.188-1.036c2.477-.111,4.876-.133,7.363-.046,1.639.135,3.238.307,4.872.518,2.369.3,4.668.758,6.941,1.217,4.446,1.006,8.58,2.251,12.708,3.559,4.785,1.511,9.2,3.309,13.8,4.961,4.533,1.63,9.084,3.256,13.712,4.815,4.59,1.548,9.384,2.952,14.208,4.3a240.868,240.868,0,0,0,29.667,6.28,153.076,153.076,0,0,0,32.827,1.4,104.833,104.833,0,0,0,14.855-2.044,98.192,98.192,0,0,0,12.991-3.761,92.127,92.127,0,0,0,12.148-5.479c1.973-1.071,3.8-2.188,5.624-3.317,2.66-1.635,5.259-3.289,7.845-4.954a107.818,107.818,0,0,1,9.983-6.036c.274-.085.552-.163.839-.233.4-.07.8-.128,1.2-.178.13,0,.261,0,.4,0,.726.078,1.443.181,2.147.307,1.769.411,3.416.875,5.055,1.426a141.09,141.09,0,0,1,12.765,6.04c5.172,2.7,10.3,5.4,15.994,7.836,2.451,1.047,5.129,1.959,7.832,2.828a91.526,91.526,0,0,0,10.148,2.482,86.931,86.931,0,0,0,10.027,1.215,112.571,112.571,0,0,0,12.126.255c3.373-.1,6.758-.4,10.07-.707,4.029-.374,7.923-1,11.774-1.689,7.21-1.291,14.151-2.958,20.849-4.8,9.823-2.7,19.067-5.877,28.351-9.01,4.433-1.5,8.823-3.05,13.334-4.486l15.5-4.933c.6-.187,1.247-.344,1.86-.516q2.653-.731,5.3-1.465,4.036-1.117,8.075-2.236c.53-.148,1.1-.266,1.656-.394,1.891-.451,3.786-.895,5.676-1.345,3.177-.749,6.345-1.489,9.562-2.19,3.247-.636,6.532-1.178,9.936-1.572.687-.028,1.373-.037,2.064-.026q.861.01,1.721.05c1.447.15,2.782.335,4.151.575,2.356.6,4.546,1.3,6.689,2.072,6.489,2.721,12.2,5.888,18.4,8.779,3.877,1.813,7.754,3.587,11.874,5.263,3.725,1.515,7.615,2.923,11.6,4.26,4.233,1.419,8.749,2.616,13.247,3.809a66.627,66.627,0,0,0,13.213,2.092c2.082.12,4.025.146,6.12.1,2.629-.057,5.281-.316,7.854-.553a112.036,112.036,0,0,0,12.717-2.024c4.681-.982,9.075-2.159,13.369-3.5,5.95-1.852,11.413-4.11,16.872-6.3q4.863-1.949,9.718-3.892,3.859-1.476,7.715-2.954a136.488,136.488,0,0,1,17.676-5.477,94.927,94.927,0,0,1,9.575-1.286c1.586-.081,3.16-.131,4.768-.144,1.408-.015,2.821.057,4.22.144a134.888,134.888,0,0,1,14.634,2.046c4.1.9,8.154,1.874,12.117,2.926,2.469.653,4.881,1.365,7.323,2.044,2.386.664,4.85,1.263,7.306,1.865,4.716,1.165,9.492,2.246,14.373,3.23,5.107,1.03,10.444,1.781,15.755,2.488,11.131,1.487,22.44,2.49,33.879,3.145q8.677.5,17.4.368c5.741-.076,11.461-.446,17.137-.849a217.389,217.389,0,0,0,29.663-4.186c6.076-1.291,11.935-2.773,17.824-4.266,7.041-1.783,13.986-3.7,21.157-5.364,1.439-.246,2.86-.431,4.364-.592.874-.035,1.743-.037,2.612-.007,2.09.2,4.068.477,6.054.845,6.415,1.587,12.239,3.683,18.15,5.686,6.159,2.088,12.609,4,19.224,5.7,6.6,1.7,13.508,3.128,20.5,4.358a169.2,169.2,0,0,0,24.556,2.255,154.486,154.486,0,0,0,21.9-1.13,161.827,161.827,0,0,0,17.676-3.25c2.456-.568,4.907-1.121,7.284-1.765q2.314-.62,4.62-1.245c2.308-.623,4.746-1.156,7.167-1.672a290.621,290.621,0,0,1,36.422-4.5c6.724-.429,13.5-.664,20.24-.982,5.85-.274,11.731-.411,17.589-.605,11.883-.392,23.826-.768,35.743-.749,4.568.007,8.371-1.911,8.371-4.19,0-2.257-3.8-4.232-8.371-4.192-9.049.076-18.085.424-27.107.755Q1187.862,225.189,1181.314,225.441ZM960.99,229.679l.7-.046h0Z" transform="translate(-67.428 -218.776)" fill="#3d6895"/>
</svg>
