<svg xmlns="http://www.w3.org/2000/svg" height="27.05" viewBox="0 0 22.051 38.639">
  <g id="Group_1645" data-name="Group 1645" transform="translate(-1047.474 -2086.361)">
    <g id="g2343" transform="translate(1047.474 2086.361)">
      <path id="path2337"
        d="M797.862,3771.634a.47.47,0,0,0-.47.47v37.7a.47.47,0,0,0,.47.47h21.111a.47.47,0,0,0,.47-.47v-37.7a.47.47,0,0,0-.47-.47Zm.47.941H818.5v36.758H798.333Z"
        transform="translate(-797.393 -3771.634)" fill="#3d6895" fill-rule="evenodd" />
      <path id="path2339" d="M804.333,3817.811V3789.16h18.1v28.651Z" transform="translate(-802.355 -3784.166)"
        fill="none" stroke="#476791" stroke-linejoin="round" stroke-width="1" fill-rule="evenodd" />
      <path id="path2341" d="M797.857,3906.72h0l.008.009-.008-.009Z" transform="translate(-797.724 -3868.225)"
        fill-rule="evenodd" opacity="0.1" />
    </g>
    <g id="g2368" transform="translate(1052.346 2099.505)">
      <path id="path2364"
        d="M37.265,5309.412v1.195a5.1,5.1,0,0,0-1.318.546l-.845-.845-1.813,1.813.845.845a5.13,5.13,0,0,0-.547,1.317H32.394v2.564h1.193a5.137,5.137,0,0,0,.543,1.322l-.841.84,1.813,1.814.842-.842a5.138,5.138,0,0,0,1.321.546v1.191H39.83v-1.192a5.155,5.155,0,0,0,1.318-.548l.845.845,1.813-1.814-.845-.844a5.131,5.131,0,0,0,.545-1.318h1.2v-2.564H43.512a5.128,5.128,0,0,0-.55-1.319l.843-.843-1.813-1.813-.842.842a5.117,5.117,0,0,0-1.32-.544v-1.194Z"
        transform="translate(-32.394 -5309.412)" fill="none" stroke="#476791" stroke-width="1" />
      <path id="path2366" d="M50.079,5324.573a2.59,2.59,0,1,1-.073-.613" transform="translate(-41.335 -5318.399)"
        fill="none" stroke="#476791" stroke-width="1" />
    </g>
  </g>
</svg>