<svg id="Ionic_Logo" xmlns="http://www.w3.org/2000/svg" width="236.463" height="79.822" viewBox="0 0 236.463 79.822">
  <path id="Path_2914" data-name="Path 2914" d="M92.438,222.5a18.188,18.188,0,1,0,18.188,18.188A18.188,18.188,0,0,0,92.438,222.5Z" transform="translate(-52.525 -200.761)" fill="#fff" opacity="0.6"/>
  <ellipse id="Ellipse_87" data-name="Ellipse 87" cx="8.285" cy="8.285" rx="8.285" ry="8.285" transform="translate(57.743 6.781)" fill="#fff" opacity="0.6"/>
  <path id="Path_2915" data-name="Path 2915" d="M110.465,205.855l-.347-.76-.543.63a12.487,12.487,0,0,1-5,3.442l-.543.2.217.543a32.625,32.625,0,1,1-16.13-16.945l.51.244.223-.543a12.487,12.487,0,0,1,3.681-4.827l.652-.543-.744-.385a39.46,39.46,0,0,0-18.3-4.447,39.911,39.911,0,1,0,36.316,23.346Z" transform="translate(-34.236 -182.46)" fill="#fff" opacity="0.6"/>
  <rect id="Rectangle_407" data-name="Rectangle 407" width="8.415" height="34.747" transform="translate(100.357 22.554)" fill="#fff" opacity="0.6"/>
  <rect id="Rectangle_408" data-name="Rectangle 408" width="8.415" height="34.747" transform="translate(191.173 22.554)" fill="#fff" opacity="0.6"/>
  <path id="Path_2916" data-name="Path 2916" d="M334.494,222.5a18.349,18.349,0,0,0-11.537,4.55h0l-.543-3.735h-7v34.747h8.415V237.023c0-4.1,5.6-7.5,9.7-7.5s7.177,3.92,7.177,8.589v19.953h8.415V238.94C349.093,229.83,345.162,222.5,334.494,222.5Z" transform="translate(-162.753 -200.761)" fill="#fff" opacity="0.6"/>
  <path id="Path_2917" data-name="Path 2917" d="M427.077,251.748c-6.325,0-10.506-4.952-10.506-11.059s4.181-11.059,10.506-11.059c5.4,0,8.687,5.228,8.687,5.228l6.1-4.077a18.619,18.619,0,0,0-6.58-6.027,15.539,15.539,0,0,0-7.954-2.253c-10.527,0-18.568,7.905-18.617,18.188.049,10.283,8.09,18.188,18.617,18.188a15.538,15.538,0,0,0,7.921-2.253,18.57,18.57,0,0,0,6.58-6.027l-6.1-4.077S432.474,251.748,427.077,251.748Z" transform="translate(-205.398 -200.761)" fill="#fff" opacity="0.6"/>
  <path id="path3000" d="M259.674,222.5a18.188,18.188,0,1,0,18.172,18.253C277.846,228.7,268.393,222.5,259.674,222.5Zm.1,7.145c5.217,0,10.158,4.235,10.158,11.059,0,6.678-4.919,11.032-10.18,11.032-5.782,0-10.316-4.647-10.316-11.087,0-6.3,4.5-11.005,10.364-11.005Z" transform="translate(-128.956 -200.759)" fill="#fff" opacity="0.6"/>
</svg>
