<svg xmlns="http://www.w3.org/2000/svg" height="21.75" viewBox="0 0 262.71 21.75" style="width:100%; height:100%">
  <path id="Path_1680" data-name="Path 1680" d="M319.159,221.907c-.943.076-1.889.136-2.83.236l-3.9.416a43.631,43.631,0,0,0-6.4,1.169,28.877,28.877,0,0,0-6.47,2.6c-.408.223-.812.465-1.234.663l-1.361.636c-.644.27-1.291.525-1.955.739a15.758,15.758,0,0,1-2.35.553,20.743,20.743,0,0,1-2.077.117,14.812,14.812,0,0,1-1.97-.138,21.6,21.6,0,0,1-2.645-.611,25.085,25.085,0,0,1-2.688-1.025,38.679,38.679,0,0,1-4.376-2.366c-.666-.416-1.326-.842-1.976-1.282-.784-.535-1.558-1.072-2.369-1.561a13.148,13.148,0,0,0-1.922-1.009,9.583,9.583,0,0,0-1.327-.416,7.714,7.714,0,0,0-1.387-.161,5.109,5.109,0,0,0-.828.084,8.288,8.288,0,0,0-1.177.278,10.055,10.055,0,0,0-1.74.839q-1.706.932-3.409,1.869c-1.437.792-2.888,1.568-4.376,2.248-.909.378-1.828.714-2.766,1.005a26.981,26.981,0,0,1-3.763.833,31.83,31.83,0,0,1-3.677.269,29.114,29.114,0,0,1-4.162-.322c-1.748-.26-3.471-.625-5.187-1.056a32.041,32.041,0,0,1-4.649-1.533q-2.254-1.028-4.408-2.268a33.962,33.962,0,0,0-5.062-2.452,14.965,14.965,0,0,0-2.139-.58,10.294,10.294,0,0,0-5.077.169,11.616,11.616,0,0,0-2.442,1,34.55,34.55,0,0,0-5.241,3.682c-1.012.787-1.994,1.621-2.985,2.434-.83.663-1.656,1.327-2.529,1.929a19.329,19.329,0,0,1-2.866,1.627c-.463.194-.927.37-1.4.528a11.61,11.61,0,0,1-1.908.432c-.254.028-.51.042-.765.045a4.921,4.921,0,0,1-.549-.021,9.933,9.933,0,0,1-1.513-.46,31.677,31.677,0,0,1-5.023-3.246c-.757-.626-1.489-1.276-2.2-1.962q-.743-.716-1.483-1.436a49.24,49.24,0,0,0-3.847-3.759,11.664,11.664,0,0,0-1.849-1.2,7.019,7.019,0,0,0-1.152-.441l-.388-.084-.814-.115c-.132-.007-.263-.016-.395-.026q-.074,0-.147,0a4.151,4.151,0,0,0-.727.065,8.147,8.147,0,0,0-1.382.319,21.631,21.631,0,0,0-2.611,1.051c-.7.317-1.385.661-2.076,1-.486.237-.981.461-1.452.73l-2.223,1.27c-.372.213-.752.413-1.113.648q-1,.661-2.009,1.32c-.5.331-1.02.65-1.516,1l-3.73,2.6a53.254,53.254,0,0,1-8.372,5.052c-.657.277-1.318.537-1.992.768a15.861,15.861,0,0,1-2.557.614c-.366.044-.731.077-1.1.1a9.883,9.883,0,0,1-1.622-.064,11.913,11.913,0,0,1-2.262-.621,14.9,14.9,0,0,1-2.272-1.4,35.073,35.073,0,0,1-3.15-3.137c-.5-.546-1-1.085-1.5-1.627-.6-.65-1.255-1.246-1.915-1.83a9.053,9.053,0,0,0-1.756-1.222,9.853,9.853,0,0,0-1.136-.481,4.962,4.962,0,0,0-1.192-.194,6.786,6.786,0,0,0-.773.09,4.806,4.806,0,0,0-1.065.39,3.832,3.832,0,0,0-.951.656c-.284.283-.553.576-.818.878-.506.574-.955,1.215-1.423,1.822-.37.479-.737.961-1.107,1.443-.429.559-.879,1.1-1.317,1.655a20.76,20.76,0,0,1-2.906,2.968,15.586,15.586,0,0,1-2.6,1.6,13.358,13.358,0,0,1-2.567.71,16.323,16.323,0,0,1-3.725-.037,25.206,25.206,0,0,1-5.7-1.737,44.826,44.826,0,0,1-4.858-2.64c-.812-.5-1.6-1.053-2.375-1.605s-1.572-1.11-2.348-1.679-1.56-1.156-2.374-1.685a23.624,23.624,0,0,0-2.582-1.457,11.661,11.661,0,0,0-5.233-1.274,8.126,8.126,0,0,0-1.266.144,12.789,12.789,0,0,0-1.3.3,8.563,8.563,0,0,0-1.128.445c-.4.179-.8.364-1.2.551a32.769,32.769,0,0,0-4.991,2.907,24.22,24.22,0,0,0-3.894,3.457,21.991,21.991,0,0,0-1.536,1.866,3.732,3.732,0,0,0-.528,1l-.141.429c-.057.307-.113.611-.169.918a1.215,1.215,0,0,0,.281,1.106,1.067,1.067,0,0,0,1.063.292c.262-.077.524-.155.786-.234a6.092,6.092,0,0,0,1.061-.469,1.167,1.167,0,0,0,.391-1.552,1.043,1.043,0,0,0-.649-.512,22.808,22.808,0,0,1,3.163-3.131,28.891,28.891,0,0,1,5.929-3.559c.474-.206.951-.408,1.431-.6a8.683,8.683,0,0,1,1.851-.487,9.937,9.937,0,0,1,1.664-.021c.37.063.732.144,1.1.243a12.3,12.3,0,0,1,1.569.572,23.194,23.194,0,0,1,2.872,1.672c1.081.71,2.079,1.554,3.118,2.33s2.053,1.53,3.1,2.262,2.121,1.387,3.211,2.02a32.06,32.06,0,0,0,6.7,2.95,16.953,16.953,0,0,0,7.419.655,12.518,12.518,0,0,0,3.357-.96,15.082,15.082,0,0,0,2.936-1.767,19.576,19.576,0,0,0,2.745-2.574c.446-.5.858-1.028,1.271-1.558.6-.768,1.188-1.545,1.773-2.327a30.45,30.45,0,0,1,2.256-2.835,2.088,2.088,0,0,1,.19-.109,2.8,2.8,0,0,1,.272-.084c.029,0,.059,0,.089,0a3.723,3.723,0,0,1,.485.144,8.2,8.2,0,0,1,1.142.67,31.284,31.284,0,0,1,2.885,2.837,51.555,51.555,0,0,0,3.615,3.681,16.136,16.136,0,0,0,1.77,1.328,12.9,12.9,0,0,0,2.293,1.166,10.168,10.168,0,0,0,2.266.571,12.3,12.3,0,0,0,2.74.12,17.809,17.809,0,0,0,2.276-.332,16.762,16.762,0,0,0,2.661-.793,32.148,32.148,0,0,0,4.712-2.255c2.22-1.27,4.309-2.761,6.407-4.232,1-.7,1.994-1.433,3.013-2.107l3.5-2.317c.135-.088.282-.162.42-.242q.6-.344,1.2-.688l1.825-1.05c.12-.07.249-.125.374-.185.427-.212.856-.42,1.283-.632.718-.352,1.434-.7,2.161-1.029a15.69,15.69,0,0,1,2.245-.738,3.942,3.942,0,0,1,.467-.012c.13,0,.259.011.389.024a7.037,7.037,0,0,1,.938.27,11.382,11.382,0,0,1,1.512.973c1.466,1.278,2.758,2.766,4.158,4.124.876.852,1.752,1.685,2.683,2.472.842.712,1.721,1.373,2.621,2a33.261,33.261,0,0,0,2.994,1.789,8.011,8.011,0,0,0,4.369,1.03,12.512,12.512,0,0,0,1.775-.26,13.742,13.742,0,0,0,2.874-.951,20.8,20.8,0,0,0,3.021-1.644,40.375,40.375,0,0,0,3.813-2.958l2.2-1.828,1.743-1.388a21.813,21.813,0,0,1,3.995-2.573,11.266,11.266,0,0,1,2.164-.6c.359-.038.714-.061,1.078-.067a6.346,6.346,0,0,1,.954.067,16.125,16.125,0,0,1,3.307.961c.927.424,1.843.88,2.738,1.374.558.307,1.1.641,1.655.96s1.1.593,1.651.876c1.066.547,2.145,1.055,3.248,1.517a29.623,29.623,0,0,0,3.561,1.169,51.166,51.166,0,0,0,7.656,1.478,26.884,26.884,0,0,0,3.933.173,32.818,32.818,0,0,0,3.873-.4,26.062,26.062,0,0,0,6.7-1.966c1.373-.606,2.7-1.3,4.028-2,1.591-.837,3.161-1.739,4.781-2.519a8.268,8.268,0,0,1,.986-.278,3.794,3.794,0,0,1,.59,0,8.25,8.25,0,0,1,1.368.4,35.41,35.41,0,0,1,4.1,2.671,41.751,41.751,0,0,0,4.344,2.679,36.1,36.1,0,0,0,4.633,2.047,19.251,19.251,0,0,0,5.55,1.059,17.089,17.089,0,0,0,4.948-.531,20.579,20.579,0,0,0,3.995-1.527c.555-.267,1.109-.527,1.646-.829q.523-.291,1.044-.585c.522-.292,1.073-.543,1.62-.785a34.094,34.094,0,0,1,8.231-2.112c1.52-.2,3.05-.312,4.574-.461,1.322-.129,2.651-.193,3.975-.284,2.685-.184,5.385-.361,8.078-.352a1.97,1.97,0,0,0,0-3.938c-2.045.036-4.087.2-6.126.355Q320.639,221.788,319.159,221.907ZM269.368,223.9l.158-.021h0Z" transform="translate(-67.428 -218.776)" fill="#3d6895"/>
</svg>
