<svg xmlns="http://www.w3.org/2000/svg" height="29.89" viewBox="0 0 47.351 42.693">
  <g id="Group_1647" data-name="Group 1647" transform="translate(-1035.355 -2405.307)">
    <path id="Path_1664" data-name="Path 1664" d="M744,158l6.455,6.455L744,170.911"
      transform="translate(331.19 2258.95)" fill="none" stroke="#476791" stroke-width="1.5" />
    <g id="Group_704" data-name="Group 704" transform="translate(1035.355 2405.307)">
      <path id="Path_1665" data-name="Path 1665"
        d="M425.705,76.671q-.214-.107-.433-.21a13.094,13.094,0,0,0,2.241-7.448C427.513,62.389,422.842,57,417.1,57s-10.414,5.389-10.414,12.013a13.09,13.09,0,0,0,2.241,7.449c-.226.1-.376.179-.442.213a17.231,17.231,0,0,0-10.045,15.6v4.163a3.254,3.254,0,0,0,3.25,3.25h30.819a3.254,3.254,0,0,0,3.25-3.25V92.28A17.231,17.231,0,0,0,425.705,76.671Z"
        transform="translate(-398.44 -57)" fill="#476791" />
      <g id="Group_703" data-name="Group 703" transform="translate(1.126 1.642)">
        <path id="Path_1666" data-name="Path 1666"
          d="M433.858,236.448c-.056.069-.11.139-.167.206a10.174,10.174,0,0,1-15.9,0c-.057-.067-.111-.137-.168-.206a16.086,16.086,0,0,0-9.415,14.594v4.163a2.125,2.125,0,0,0,2.125,2.125h30.819a2.125,2.125,0,0,0,2.125-2.125v-4.163A16.086,16.086,0,0,0,433.858,236.448Z"
          transform="translate(-408.205 -217.404)" fill="#fff" />
        <path id="Path_1667" data-name="Path 1667"
          d="M488.805,88.024a8.366,8.366,0,0,0,6.167-2.84,11.508,11.508,0,0,0,2.9-7.79c0-5.87-4.06-10.629-9.068-10.629s-9.068,4.759-9.068,10.629a11.507,11.507,0,0,0,2.9,7.79A8.366,8.366,0,0,0,488.805,88.024Z"
          transform="translate(-471.271 -66.765)" fill="#fff" />
      </g>
    </g>
  </g>
</svg>