<svg xmlns="http://www.w3.org/2000/svg" width="1150.173" height="42.367" viewBox="0 0 1150.173 42.367">
  <path id="Path_1680" data-name="Path 1680" d="M1233.737,224.874c-4.369.147-8.751.265-13.111.46q-9.038.4-18.08.811c-9.98.45-19.91,1.2-29.639,2.277a264.5,264.5,0,0,0-29.976,5.057c-1.888.434-3.763.906-5.716,1.291l-6.307,1.239c-2.985.526-5.98,1.022-9.056,1.44-3.559.486-7.208.827-10.89,1.077-3.208.143-6.4.219-9.625.227-3.049.01-6.093-.108-9.129-.269-4.15-.293-8.214-.681-12.255-1.191-4.241-.538-8.378-1.255-12.456-2-6.995-1.348-13.721-2.888-20.274-4.609q-4.628-1.216-9.156-2.5c-3.631-1.042-7.218-2.087-10.976-3.041-2.876-.731-5.784-1.444-8.906-1.966-2.034-.341-4.023-.6-6.148-.811-2.08-.211-4.3-.265-6.426-.313-1.288.01-2.571.066-3.836.163-1.88.125-3.636.3-5.452.542-2.817.366-5.47,1.046-8.064,1.635q-7.9,1.816-15.8,3.641c-6.658,1.544-13.379,3.053-20.274,4.38-4.209.737-8.469,1.39-12.815,1.958-5.7.739-11.559,1.235-17.434,1.623-5.666.3-11.322.5-17.038.524-6.444.034-12.9-.273-19.282-.627-8.1-.506-16.083-1.217-24.033-2.057-7.34-.779-14.544-1.743-21.539-2.986q-10.444-2-20.424-4.418c-7.527-1.832-15.341-3.5-23.455-4.776-3.208-.5-6.58-.833-9.912-1.129-3.859-.341-7.818-.482-11.75-.456s-7.955.382-11.773.785a105.648,105.648,0,0,0-11.313,1.952c-8.788,1.9-16.474,4.617-24.283,7.172-4.687,1.534-9.238,3.157-13.83,4.74-3.845,1.291-7.673,2.585-11.718,3.758-4.214,1.223-8.665,2.27-13.279,3.169-2.143.378-4.3.721-6.508,1.028-2.872.4-5.857.647-8.842.84q-1.768.081-3.545.088c-.851.006-1.7-.008-2.544-.042-2.417-.225-4.715-.516-7.008-.9a229.649,229.649,0,0,1-23.273-6.324q-5.263-1.828-10.176-3.822-3.44-1.4-6.872-2.8c-5.966-2.428-11.263-5.182-17.826-7.321a84.5,84.5,0,0,0-8.565-2.33c-1.707-.364-3.522-.627-5.338-.858-.605-.054-1.2-.108-1.8-.163-1.256-.076-2.508-.147-3.773-.223-.61-.014-1.22-.032-1.829-.05q-.341-.006-.683-.006-1.686,0-3.368.127c-2.207.116-4.273.349-6.4.621-4.155.532-8.128,1.291-12.1,2.047-3.236.617-6.417,1.287-9.62,1.94-2.253.462-4.546.9-6.726,1.422q-5.154,1.24-10.3,2.474c-1.725.414-3.486.8-5.156,1.263q-4.649,1.288-9.306,2.571c-2.339.645-4.724,1.267-7.022,1.94q-8.649,2.533-17.284,5.067c-12.442,3.645-25.029,7.226-38.791,9.841-3.044.54-6.107,1.046-9.229,1.5-3.859.56-7.841.912-11.846,1.2-1.7.086-3.386.149-5.106.2-2.507.062-5.015-.014-7.513-.125-3.6-.265-7.063-.653-10.48-1.209-3.714-.769-7.172-1.695-10.526-2.737-5.233-1.866-9.939-3.969-14.594-6.11-2.307-1.064-4.642-2.113-6.967-3.169-2.79-1.267-5.816-2.428-8.874-3.565a62.226,62.226,0,0,0-8.137-2.38c-1.688-.37-3.49-.659-5.265-.936a52.8,52.8,0,0,0-5.525-.378q-1.8.045-3.581.175a45.29,45.29,0,0,0-4.933.759,26.438,26.438,0,0,0-4.405,1.279c-1.315.552-2.562,1.121-3.791,1.711-2.344,1.117-4.423,2.366-6.594,3.549-1.716.932-3.413,1.872-5.129,2.81-1.989,1.089-4.073,2.149-6.1,3.225a100.747,100.747,0,0,1-13.466,5.782,116.794,116.794,0,0,1-12.028,3.107c-3.882.635-7.8,1.081-11.891,1.382-5.779.267-11.486.215-17.257-.072A248.415,248.415,0,0,1,234,250.689c-7.773-1.5-15.2-3.248-22.508-5.143-3.763-.978-7.391-2.051-11-3.127-3.641-1.084-7.281-2.163-10.881-3.27-3.636-1.119-7.227-2.253-11-3.282q-5.789-1.574-11.964-2.838a118.383,118.383,0,0,0-24.247-2.482c-1.943.014-3.95.137-5.866.281-2.048.153-4.027.335-6.039.578-1.788.213-3.522.548-5.224.866-1.857.349-3.7.709-5.547,1.074-8.1,1.6-15.773,3.479-23.123,5.662a135.363,135.363,0,0,0-18.039,6.734c-2.526,1.165-4.9,2.356-7.117,3.635A8.754,8.754,0,0,0,69,251.32l-.655.836c-.264.6-.523,1.191-.783,1.789-.341.795-.05,1.563,1.3,2.155a10.106,10.106,0,0,0,4.924.57c1.215-.149,2.426-.3,3.641-.456,1.738-.219,3.3-.562,4.915-.914,2.462-.538,3.126-2.035,1.811-3.023a6.305,6.305,0,0,0-3.008-1,114.4,114.4,0,0,1,14.654-6.1,219.422,219.422,0,0,1,27.469-6.933q3.3-.6,6.631-1.171c2.79-.47,5.648-.747,8.574-.948,2.594-.1,5.106-.121,7.709-.042,1.716.124,3.39.281,5.1.474,2.48.279,4.888.693,7.268,1.113,4.655.92,8.983,2.059,13.307,3.256,5.01,1.382,9.634,3.027,14.444,4.539,4.746,1.492,9.511,2.98,14.358,4.406,4.806,1.416,9.825,2.7,14.877,3.936a284.161,284.161,0,0,0,31.064,5.746,183.179,183.179,0,0,0,34.372,1.277,124.752,124.752,0,0,0,15.555-1.87,114.4,114.4,0,0,0,13.6-3.442,103.8,103.8,0,0,0,12.719-5.013c2.066-.98,3.977-2,5.889-3.035,2.785-1.5,5.506-3.009,8.214-4.533a117.1,117.1,0,0,1,10.453-5.523c.287-.078.578-.149.878-.213.414-.064.833-.118,1.26-.163.137,0,.273,0,.414,0,.76.072,1.511.165,2.248.281,1.852.376,3.577.8,5.293,1.3,4.792,1.691,9.106,3.579,13.366,5.527,5.415,2.47,10.781,4.943,16.747,7.17,2.567.958,5.37,1.793,8.2,2.587a107.464,107.464,0,0,0,10.626,2.271,103.609,103.609,0,0,0,10.5,1.111c4.241.287,8.424.345,12.7.233,3.531-.092,7.076-.364,10.544-.647,4.219-.343,8.3-.914,12.328-1.546,7.55-1.181,14.817-2.707,21.83-4.392,10.285-2.474,19.964-5.378,29.685-8.244,4.642-1.372,9.238-2.79,13.962-4.1l16.233-4.513c.623-.171,1.306-.315,1.948-.472q2.778-.669,5.547-1.34,4.226-1.022,8.455-2.045c.555-.135,1.156-.243,1.734-.36q2.969-.618,5.943-1.231c3.327-.685,6.644-1.362,10.012-2,3.4-.582,6.84-1.077,10.4-1.438.719-.026,1.438-.034,2.162-.024q.9.009,1.8.046c1.515.137,2.912.307,4.346.526,2.467.55,4.76,1.187,7,1.9,6.794,2.49,12.779,5.387,19.264,8.032,4.059,1.659,8.119,3.282,12.433,4.816,3.9,1.386,7.973,2.675,12.142,3.9,4.432,1.3,9.161,2.394,13.871,3.485a79.092,79.092,0,0,0,13.834,1.914c2.18.109,4.214.133,6.407.092,2.753-.052,5.529-.289,8.223-.506a133.031,133.031,0,0,0,13.316-1.852c4.9-.9,9.5-1.976,14-3.2,6.23-1.695,11.95-3.76,17.666-5.762l10.176-3.561q4.041-1.35,8.078-2.7a158.428,158.428,0,0,1,18.508-5.011c3.267-.542,6.571-.916,10.025-1.177,1.661-.074,3.308-.119,4.992-.131,1.474-.014,2.953.052,4.419.131,5.274.4,10.349,1.012,15.323,1.872,4.3.827,8.537,1.715,12.688,2.677,2.585.6,5.111,1.249,7.668,1.87,2.5.607,5.079,1.155,7.65,1.707,4.938,1.066,9.939,2.055,15.049,2.956,5.347.942,10.936,1.629,16.5,2.276,11.655,1.36,23.5,2.278,35.474,2.878q9.086.454,18.221.337c6.012-.07,12-.408,17.944-.777a258.6,258.6,0,0,0,31.059-3.83c6.362-1.181,12.5-2.537,18.663-3.9,7.372-1.631,14.644-3.388,22.153-4.907,1.506-.225,2.995-.394,4.569-.542q1.372-.048,2.735-.006c2.189.183,4.26.436,6.339.773,6.717,1.452,12.815,3.37,19,5.2,6.448,1.91,13.2,3.661,20.128,5.218,6.908,1.553,14.144,2.862,21.466,3.987a202.091,202.091,0,0,0,25.712,2.063,184.877,184.877,0,0,0,22.927-1.034c6.407-.657,12.547-1.769,18.508-2.974,2.571-.52,5.138-1.026,7.627-1.615q2.423-.568,4.837-1.139c2.417-.57,4.97-1.058,7.5-1.53a346.282,346.282,0,0,1,38.136-4.115c7.04-.392,14.13-.607,21.193-.9,6.125-.251,12.283-.376,18.417-.554,12.442-.358,24.948-.7,37.426-.685,4.783.006,8.765-1.749,8.765-3.834,0-2.065-3.982-3.872-8.765-3.836-9.475.07-18.936.388-28.383.691Q1240.593,224.643,1233.737,224.874Zm-230.693,3.878.733-.042h0Z" transform="translate(-67.428 -218.776)" fill="#3d6895"/>
</svg>
