<svg id="Wordpress-Logo" xmlns="http://www.w3.org/2000/svg" width="60" height="60" viewBox="0 0 97.709 97.706">
  <path id="Path_2905" data-name="Path 2905" d="M8.708,56.928a41.916,41.916,0,0,0,23.62,37.718L12.336,39.872A41.75,41.75,0,0,0,8.708,56.928Z" transform="translate(-1.764 -8.076)" fill="#fff" opacity="0.6"/>
  <path id="Path_2906" data-name="Path 2906" d="M80.66,48.5A22.065,22.065,0,0,0,77.2,36.942c-2.124-3.452-4.116-6.376-4.116-9.828a7.257,7.257,0,0,1,7.038-7.439c.186,0,.362.023.543.033A41.9,41.9,0,0,0,17.352,27.6c.983.03,1.91.05,2.7.05,4.384,0,11.169-.532,11.169-.532a1.732,1.732,0,0,1,.269,3.452s-2.27.267-4.8.4L41.952,76.363l9.172-27.506-6.53-17.89c-2.257-.132-4.395-.4-4.395-.4-2.258-.132-1.994-3.585.265-3.452,0,0,6.921.532,11.039.532,4.383,0,11.169-.532,11.169-.532a1.732,1.732,0,0,1,.269,3.452s-2.275.267-4.8.4L73.289,76.017l4.18-13.969c1.812-5.8,3.191-9.96,3.191-13.548Z" transform="translate(-3.515 -1.764)" fill="#fff" opacity="0.6"/>
  <path id="Path_2907" data-name="Path 2907" d="M58.99,65.857,46.416,102.4a41.929,41.929,0,0,0,25.756-.668,3.68,3.68,0,0,1-.3-.577Z" transform="translate(-9.401 -13.339)" fill="#fff" opacity="0.6"/>
  <path id="Path_2908" data-name="Path 2908" d="M103.387,36.046a32.156,32.156,0,0,1,.282,4.309,39.533,39.533,0,0,1-3.187,15.011l-12.8,37.012a41.916,41.916,0,0,0,15.706-56.333Z" transform="translate(-17.76 -7.301)" fill="#fff" opacity="0.6"/>
  <path id="Path_2909" data-name="Path 2909" d="M48.854,0A48.853,48.853,0,1,0,97.709,48.852,48.908,48.908,0,0,0,48.854,0Zm0,95.467A46.613,46.613,0,1,1,95.465,48.852,46.668,46.668,0,0,1,48.854,95.467Z" transform="translate(0 0)" fill="#fff" opacity="0.6"/>
</svg>
