<svg id="Component_229_1" data-name="Component 229 – 1" xmlns="http://www.w3.org/2000/svg" xmlns:xlink="http://www.w3.org/1999/xlink" height="164.343" viewBox="0 0 269.631 164.343" style="width:100%; height:100%">
  <defs>
    <clipPath id="clip-path">
      <rect id="Rectangle_867" data-name="Rectangle 867" width="269.631" height="164.343" fill="none"/>
    </clipPath>
    <clipPath id="clip-path-4">
      <rect id="Rectangle_859" data-name="Rectangle 859" width="105.385" height="101.694" fill="none"/>
    </clipPath>
    <clipPath id="clip-path-5">
      <path id="Path_4473" data-name="Path 4473" d="M57.3,33.812l-4.566,8.449c4.274-7.964,13.211-13.209,24.38-13.209,17.485,0,33.9,13.015,36.715,29.139A24.714,24.714,0,0,1,111.4,74.023l4.566-8.451a24.723,24.723,0,0,0,2.428-15.832C115.674,33.715,99.258,20.7,81.679,20.6h-.1c-11.075,0-20.009,5.246-24.283,13.211" transform="translate(-52.733 -20.601)" fill="none"/>
    </clipPath>
    <clipPath id="clip-path-7">
      <rect id="Rectangle_860" data-name="Rectangle 860" width="164.246" height="157.738" fill="none"/>
    </clipPath>
    <clipPath id="clip-path-8">
      <path id="Path_4477" data-name="Path 4477" d="M45.946,30.739a39.125,39.125,0,0,0-3.885,25.642c4.467,26.031,31.082,47.109,59.54,47.205,18.066,0,32.539-8.449,39.533-21.368l4.564-8.449c-6.994,12.917-21.465,21.465-39.531,21.368-28.459-.1-55.073-21.175-59.54-47.205A39.211,39.211,0,0,1,50.512,22.29Z" transform="translate(-41.409 -22.29)" fill="none"/>
    </clipPath>
    <clipPath id="clip-path-9">
      <rect id="Rectangle_862" data-name="Rectangle 862" width="125.685" height="120.538" fill="none"/>
    </clipPath>
    <clipPath id="clip-path-10">
      <path id="Path_4480" data-name="Path 4480" d="M53.767,31.082l-3.012,5.635C56.1,26.712,67.267,20.2,81.255,20.2c21.95,0,42.543,16.317,45.941,36.423a30.23,30.23,0,0,1-3.01,19.814l3.01-5.633a30.22,30.22,0,0,0,3.012-19.814c-3.4-20.106-23.895-36.425-45.844-36.425h-.1c-13.986,0-25.058,6.509-30.5,16.512" transform="translate(-50.755 -14.57)" fill="none"/>
    </clipPath>
    <clipPath id="clip-path-11">
      <rect id="Rectangle_864" data-name="Rectangle 864" width="137.633" height="131.902" fill="none"/>
    </clipPath>
    <clipPath id="clip-path-12">
      <path id="Path_4484" data-name="Path 4484" d="M50.855,27.392a33.394,33.394,0,0,0-3.3,21.759C51.34,71.3,73.972,89.263,98.157,89.263c15.347,0,27.681-7.187,33.606-18.163l3.012-5.633c-5.925,10.976-18.262,18.26-33.606,18.163-24.187,0-46.817-17.968-50.606-40.115a33.291,33.291,0,0,1,3.3-21.757Z" transform="translate(-47.014 -21.759)" fill="none"/>
    </clipPath>
  </defs>
  <g id="Group_1746" data-name="Group 1746" clip-path="url(#clip-path)">
    <g id="Group_1745" data-name="Group 1745" transform="translate(0 0)">
      <g id="Group_1744" data-name="Group 1744" clip-path="url(#clip-path)">
        <g id="Group_1743" data-name="Group 1743" transform="translate(0 0)" opacity="0.43">
          <g id="Group_1742" data-name="Group 1742" transform="translate(0 0)">
            <g id="Group_1741" data-name="Group 1741" clip-path="url(#clip-path)">
              <g id="Group_1722" data-name="Group 1722" transform="translate(86.737 17.289)" opacity="0.85">
                <g id="Group_1721" data-name="Group 1721">
                  <g id="Group_1720" data-name="Group 1720" clip-path="url(#clip-path-4)">
                    <path id="Path_4470" data-name="Path 4470" d="M57.3,33.812l-4.566,8.449c4.274-7.964,13.211-13.209,24.38-13.209,17.485,0,33.9,13.015,36.715,29.139A24.712,24.712,0,0,1,111.4,74.023l4.566-8.449a24.731,24.731,0,0,0,2.428-15.834C115.674,33.715,99.258,20.7,81.679,20.6h-.1C70.51,20.6,61.573,25.847,57.3,33.812" transform="translate(-33.308 3.584)" fill="#1e2b3b"/>
                    <path id="Path_4471" data-name="Path 4471" d="M57.3,33.812l-4.566,8.449c4.274-7.964,13.211-13.209,24.38-13.209,17.485,0,33.9,13.015,36.715,29.139A24.712,24.712,0,0,1,111.4,74.023l4.566-8.449a24.731,24.731,0,0,0,2.428-15.834C115.674,33.715,99.258,20.7,81.679,20.6h-.1C70.51,20.6,61.573,25.847,57.3,33.812" transform="translate(-33.308 3.584)" fill="#1e2b3b"/>
                    <g id="Group_1719" data-name="Group 1719" transform="translate(19.425 24.185)">
                      <g id="Group_1718" data-name="Group 1718" clip-path="url(#clip-path-5)">
                        <g id="Group_1717" data-name="Group 1717" transform="translate(-19.425 -24.185)" opacity="0.9">
                          <g id="Group_1716" data-name="Group 1716" transform="translate(0 0)">
                            <g id="Group_1715" data-name="Group 1715" clip-path="url(#clip-path-4)">
                              <path id="Path_4472" data-name="Path 4472" d="M72.9,8.588,148.47,41.127l-29.723,69.155L43.084,77.842Z" transform="translate(-43.085 -8.588)" fill="#1e2b3b"/>
                            </g>
                          </g>
                        </g>
                      </g>
                    </g>
                  </g>
                </g>
              </g>
              <g id="Group_1727" data-name="Group 1727" transform="translate(52.838 6.605)" opacity="0.85">
                <g id="Group_1726" data-name="Group 1726">
                  <g id="Group_1725" data-name="Group 1725" clip-path="url(#clip-path-7)">
                    <path id="Path_4474" data-name="Path 4474" d="M45.946,30.739a39.125,39.125,0,0,0-3.885,25.642c4.467,26.031,31.082,47.109,59.54,47.205,18.066,0,32.539-8.451,39.531-21.368l4.566-8.451c-6.994,12.919-21.465,21.467-39.531,21.368-28.459-.1-55.073-21.173-59.54-47.2A39.209,39.209,0,0,1,50.512,22.29Z" transform="translate(-10.883 15.979)" fill="#1e2b3b"/>
                    <path id="Path_4475" data-name="Path 4475" d="M45.946,30.739a39.125,39.125,0,0,0-3.885,25.642c4.467,26.031,31.082,47.109,59.54,47.205,18.066,0,32.539-8.451,39.531-21.368l4.566-8.451c-6.994,12.919-21.465,21.467-39.531,21.368-28.459-.1-55.073-21.173-59.54-47.2A39.209,39.209,0,0,1,50.512,22.29Z" transform="translate(-10.883 15.979)" fill="#1e2b3b"/>
                    <g id="Group_1724" data-name="Group 1724" transform="translate(30.527 38.269)">
                      <g id="Group_1723" data-name="Group 1723" clip-path="url(#clip-path-8)">
                        <path id="Path_4476" data-name="Path 4476" d="M72.189,3.281l118.3,50.9L144.648,161.019l-118.4-50.9Z" transform="translate(-56.773 -41.55)" fill="#1e2b3b"/>
                      </g>
                    </g>
                  </g>
                </g>
              </g>
              <g id="Group_1732" data-name="Group 1732" transform="translate(79.743)" opacity="0.85">
                <g id="Group_1731" data-name="Group 1731">
                  <g id="Group_1730" data-name="Group 1730" clip-path="url(#clip-path-9)">
                    <path id="Path_4478" data-name="Path 4478" d="M53.767,31.082l-3.012,5.633c5.343-10,16.512-16.512,30.5-16.512,21.95,0,42.543,16.319,45.941,36.425a30.207,30.207,0,0,1-3.01,19.814l3.01-5.633a30.222,30.222,0,0,0,3.012-19.814c-3.4-20.106-23.895-36.425-45.844-36.425h-.1c-13.986,0-25.058,6.509-30.5,16.512" transform="translate(-28.319 14.762)" fill="#1e2b3b"/>
                    <path id="Path_4479" data-name="Path 4479" d="M53.767,31.082l-3.012,5.633c5.343-10,16.512-16.512,30.5-16.512,21.95,0,42.543,16.319,45.941,36.425a30.207,30.207,0,0,1-3.01,19.814l3.01-5.633a30.222,30.222,0,0,0,3.012-19.814c-3.4-20.106-23.895-36.425-45.844-36.425h-.1c-13.986,0-25.058,6.509-30.5,16.512" transform="translate(-28.319 14.762)" fill="#1e2b3b"/>
                    <g id="Group_1729" data-name="Group 1729" transform="translate(22.436 29.332)">
                      <g id="Group_1728" data-name="Group 1728" clip-path="url(#clip-path-10)">
                        <rect id="Rectangle_861" data-name="Rectangle 861" width="88.804" height="98.638" transform="translate(-22.438 52.256) rotate(-66.742)" fill="#1e2b3b"/>
                      </g>
                    </g>
                  </g>
                </g>
              </g>
              <g id="Group_1740" data-name="Group 1740" transform="translate(69.253 11.655)" opacity="0.85">
                <g id="Group_1739" data-name="Group 1739">
                  <g id="Group_1738" data-name="Group 1738" clip-path="url(#clip-path-11)">
                    <path id="Path_4481" data-name="Path 4481" d="M50.855,27.392a33.377,33.377,0,0,0-3.3,21.757c3.787,22.145,26.419,40.115,50.6,40.115,15.347,0,27.681-7.187,33.606-18.163l3.012-5.633c-5.925,10.974-18.26,18.26-33.606,18.163-24.187,0-46.817-17.97-50.606-40.115a33.287,33.287,0,0,1,3.3-21.757Z" transform="translate(-21.618 10.391)" fill="#1e2b3b"/>
                    <path id="Path_4482" data-name="Path 4482" d="M50.855,27.392a33.377,33.377,0,0,0-3.3,21.757c3.787,22.145,26.419,40.115,50.6,40.115,15.347,0,27.681-7.187,33.606-18.163l3.012-5.633c-5.925,10.974-18.26,18.26-33.606,18.163-24.187,0-46.817-17.97-50.606-40.115a33.287,33.287,0,0,1,3.3-21.757Z" transform="translate(-21.618 10.391)" fill="#1e2b3b"/>
                    <g id="Group_1737" data-name="Group 1737" transform="translate(25.395 32.15)">
                      <g id="Group_1736" data-name="Group 1736" clip-path="url(#clip-path-12)">
                        <g id="Group_1735" data-name="Group 1735" transform="translate(-25.395 -32.15)" opacity="0.9">
                          <g id="Group_1734" data-name="Group 1734">
                            <g id="Group_1733" data-name="Group 1733" clip-path="url(#clip-path-11)">
                              <path id="Path_4483" data-name="Path 4483" d="M72.765,5.79l99.267,42.736-38.269,89.166L34.4,95.051Z" transform="translate(-34.399 -5.79)" fill="#1e2b3b"/>
                            </g>
                          </g>
                        </g>
                      </g>
                    </g>
                  </g>
                </g>
              </g>
              <path id="Path_4485" data-name="Path 4485" d="M15.93,47.046H6.994L5.536,50.932,5.148,52l-.1.972a4.831,4.831,0,0,0,.2.874c.1.389.485.582.874.777l1.359.389.292.193v.1c0,.193-.2.29-.485.29H5.051l-1.262-.1-2.623.1a2.186,2.186,0,0,1-.97-.1L0,55.2a1.416,1.416,0,0,1,.292-.389H.777a3.371,3.371,0,0,0,1.943-.97,8.724,8.724,0,0,0,1.749-3.108l7.868-18.648c.193-.389.389-.68.582-.68.292,0,.485.292.777.777l7.771,19.524a5.064,5.064,0,0,0,1.844,2.621c.389.1.68.292,1.069.389.292.1.68.292,1.166.485v.2c-.292.1-.389.193-.485.193h-.68l-4.274-.1H18.066l-.97.1H15.443a.524.524,0,0,1-.389-.29c0-.2.2-.292.584-.487h.292a2.593,2.593,0,0,0,1.651-.389,1.385,1.385,0,0,0,.485-1.067l-.193-.777-.389-1.262ZM7.382,45.977h8.159l-3.982-10.2Z" transform="translate(0 31.822)" fill="#1e2b3b"/>
              <path id="Path_4486" data-name="Path 4486" d="M17.869,49.312v-13.4a1.985,1.985,0,0,0-.777-.777,10.125,10.125,0,0,0-1.262-.389.727.727,0,0,1-.485-.1c-.1-.1-.2-.2-.292-.292l.292-.193h4.661a.933.933,0,0,1,.68.193l.292.485,5.828,13.6,5.925-13.792c.1-.292.389-.389.678-.485h2.43l1.456-.1c.68,0,1.069.1,1.069.389a.3.3,0,0,1-.193.1,6.109,6.109,0,0,1-.972.29,2.749,2.749,0,0,0-1.069.487,1.982,1.982,0,0,0-.485.874l-.1,1.359V49.6c0,1.359.292,2.136.874,2.233l1.554.389.1.2c0,.193-.1.389-.29.389H34.09l-3.4.1h-.584a.337.337,0,0,1-.193-.1v-.2c0-.193.1-.29.389-.389a3.035,3.035,0,0,0,1.844-.678,2.934,2.934,0,0,0,.485-1.943V36.878l-6.6,15.445a1.068,1.068,0,0,1-.389.485l-.2-.1-.1-.2L18.743,36.782V49.6a4.772,4.772,0,0,0,.1,1.262,2.586,2.586,0,0,0,.584.97,3.615,3.615,0,0,0,1.069.487,1.847,1.847,0,0,1,.777.193l.1.2-.1.29c-.1-.1-.389-.1-.777-.1H19.52l-.68-.1-1.164.1H16.412l-.97-.1-.2-.1.2-.292,1.069-.292a1.419,1.419,0,0,0,.874-.582,2.929,2.929,0,0,0,.389-.972Z" transform="translate(15.252 34.511)" fill="#1e2b3b"/>
              <path id="Path_4487" data-name="Path 4487" d="M33.358,37.169v-.874a1.839,1.839,0,0,0-.2-.777,1.449,1.449,0,0,0-1.359-.678c-.68-.1-1.069-.2-1.069-.389s.193-.2.68-.2h3.5l3.495-.1H38.8a10.6,10.6,0,0,1,3.3.389,4.788,4.788,0,0,1,2.619,1.844,4.493,4.493,0,0,1,.489,2.041,3.981,3.981,0,0,1-.68,2.428,4.1,4.1,0,0,1-1.747,1.262,13.954,13.954,0,0,1-2.138.68,14.858,14.858,0,0,1,2.816.582,5.1,5.1,0,0,1,2.428,1.458,4.581,4.581,0,0,1,1.166,3.108,4.343,4.343,0,0,1-.389,1.943,4.91,4.91,0,0,1-3.01,2.428,14.261,14.261,0,0,1-4.471.582H37.143l-2.523-.1H30.832l-.193-.1-.1-.1.2-.2.389-.1a2,2,0,0,0,1.651-.584,3,3,0,0,0,.485-1.844V37.169Zm4.371,5.538a5.545,5.545,0,0,0,3.2-.777A3.694,3.694,0,0,0,42.1,38.822c0-2.623-1.361-3.982-4.177-3.982h-.487a1.642,1.642,0,0,0-.872.193c-.2.1-.292.389-.292.874V41.93a.927.927,0,0,0,.193.678l.487.1Zm-1.458,6.9v.1a2.556,2.556,0,0,0,.777,1.943,3.6,3.6,0,0,0,2.233.584,4.653,4.653,0,0,0,3.207-1.166,4.571,4.571,0,0,0,1.166-3.3A4.142,4.142,0,0,0,42,44.163a8.514,8.514,0,0,0-1.653-.68,8.385,8.385,0,0,0-2.331-.193h-.876a1.4,1.4,0,0,0-.676.193.926.926,0,0,0-.2.68Z" transform="translate(30.943 34.61)" fill="#1e2b3b"/>
              <path id="Path_4488" data-name="Path 4488" d="M48.381,48.048v.389a5.491,5.491,0,0,0,.389,2.428,2.389,2.389,0,0,0,1.846,1.166l1.067.1h1.166a8.527,8.527,0,0,0,2.331-.29,4.09,4.09,0,0,0,1.749-1.069,3.87,3.87,0,0,0,.582-1.262c.2-.584.389-.972.485-.972a.728.728,0,0,1,.2.389l.1.874-.1,2.623a.727.727,0,0,1-.1.485c-.1.1-.292.1-.584.1H56.442l-6.118-.1H44.788l-.68.1H42.942l-.193-.292.193-.292.68-.1a1.243,1.243,0,0,0,.777-.2,1.469,1.469,0,0,0,.874-.97,4.146,4.146,0,0,1,.1-.485v-13.5a6.8,6.8,0,0,0-.193-1.554,1.181,1.181,0,0,0-.972-.777l-1.456-.193-.2-.2.292-.29h.582l2.138.1h1.747l5.828-.1h1.651l1.361.1c.193.1.389.193.389.485v.2l.193,1.359.1,1.361v.29c-.1.1-.193.2-.29.2l-.1-.1a.338.338,0,0,0-.1-.2,1.8,1.8,0,0,1-.193-.68,3.826,3.826,0,0,0-.487-1.262,3.129,3.129,0,0,0-1.651-.97,9.193,9.193,0,0,0-2.428-.292H49.547a1.181,1.181,0,0,0-.874.292c-.2.193-.2.485-.2.874v6.9a12.459,12.459,0,0,0,2.138-.193,2.279,2.279,0,0,0,1.359-.68,2.744,2.744,0,0,0,.777-1.067l.389-1.653.2-.1a.257.257,0,0,1,.29.292V39.7l-.1,2.816v.193l.1,1.554.1,1.458V46.3c0,.1-.1.1-.1.193h-.1l-.193-.193-.389-1.264a2.23,2.23,0,0,0-.68-.97,2.331,2.331,0,0,0-1.069-.584c-.485-.1-.777-.193-.874-.193H48.673v4.759Z" transform="translate(43.114 34.61)" fill="#1e2b3b"/>
              <path id="Path_4489" data-name="Path 4489" d="M59.668,49.65v.2a2.437,2.437,0,0,0,.584,1.943l2.041.582a.1.1,0,0,1,.1.1v.1c0,.193-.1.193-.2.29h-.584l-3.3-.1-3.306.1h-.483c-.2,0-.292-.1-.391-.29,0-.2.1-.292.391-.292a3.414,3.414,0,0,0,1.846-.584,2.807,2.807,0,0,0,.485-1.844V37.023a3.129,3.129,0,0,0-.292-1.554A1.57,1.57,0,0,0,55.2,34.79a1.415,1.415,0,0,1-.678-.1c-.2-.1-.292-.193-.391-.193l.2-.1.584-.2h4.856l2.428-.1a10.785,10.785,0,0,1,3.5.389,3.994,3.994,0,0,1,2.718,2.039,5.267,5.267,0,0,1,.584,2.428,4.974,4.974,0,0,1-.777,2.72,4.576,4.576,0,0,1-1.943,1.554,12.086,12.086,0,0,1-1.361.389c-.29.1-.676.1-1.065.193l6.021,7.09A4.22,4.22,0,0,0,72,52.37c.2,0,.292.1.487.2l.193.193v.1l-.1.1c-.1.1-.2.1-.389.1h-.483l-1.266-.1H68.7c-.292,0-.584,0-.678-.1s-.292-.193-.389-.29l-6.023-7.578a5.955,5.955,0,0,0-.584-.389,1.542,1.542,0,0,0-.775-.29c-.389,0-.485.193-.485.582V49.65Zm0-6.8a1.413,1.413,0,0,0,.2.68c.1.1.292.1.584.193h.775a5.188,5.188,0,0,0,3.5-.97,4.07,4.07,0,0,0,1.264-3.4c0-3.108-1.556-4.564-4.568-4.564h-.389a2.871,2.871,0,0,0-.968.193,1.009,1.009,0,0,0-.391.777Z" transform="translate(54.846 34.56)" fill="#1e2b3b"/>
              <path id="Path_4490" data-name="Path 4490" d="M89.154,54.671c0,.292-.1.389-.389.389s-.389-.1-.389-.389c-.1-.582-.389-.874-.777-.874h-.292a3.425,3.425,0,0,0-.874.389l-.874.582a12.3,12.3,0,0,1-5.633,1.262,13.307,13.307,0,0,1-8.548-2.816,10.009,10.009,0,0,1-2.72-3.4,10.347,10.347,0,0,1-.874-4.371V44.279A13.265,13.265,0,0,1,70.6,36.023a11.254,11.254,0,0,1,7.382-4.371,2.594,2.594,0,0,0,1.067-.2h1.166a13.075,13.075,0,0,1,4.469.777l2.331.972c.193,0,.389-.2.582-.584l.292-.68.193-.1c.2.1.292.2.292.292l.1.485.2,5.148v.485c0,.389-.1.487-.389.487-.1,0-.389-.487-.68-1.361l-.389-1.069a6.988,6.988,0,0,0-2.72-3.106,7.749,7.749,0,0,0-9.81,1.359c-1.844,1.943-2.816,4.759-2.816,8.256v1.262a15.436,15.436,0,0,0,.874,5.343,9.056,9.056,0,0,0,2.915,3.982,7.379,7.379,0,0,0,4.663,1.651,7.828,7.828,0,0,0,2.913-.582,6.989,6.989,0,0,0,2.428-1.554c.292-.292.485-.487.584-.584a8.977,8.977,0,0,0,.485-.777L87.5,49.62l.777-2.428.1-.193h.1c.1.1.2.1.292.193l.1.2v7.284Z" transform="translate(68.68 31.872)" fill="#1e2b3b"/>
              <path id="Path_4491" data-name="Path 4491" d="M87.751,49.313v.1c0,1.166.292,1.943.97,2.138l1.653.389.193.1.1.193v.2l-.1.1h-.68l-3.594-.1-3.5.1h-.678l-.2-.1-.1-.1a.338.338,0,0,1,.1-.2,1.66,1.66,0,0,1,.485-.193,2.1,2.1,0,0,0,2.43-2.43V36.879c0-.97-.1-1.552-.389-1.844-.2-.292-.876-.485-1.846-.584a.448.448,0,0,1-.485-.29.35.35,0,0,1,.29-.1l.584-.29,3.5.1h3.885v.193c-.1.1-.2.2-.2.292H89.79a2.135,2.135,0,0,0-1.651.584,3,3,0,0,0-.485,1.844v12.53Z" transform="translate(82.906 34.219)" fill="#1e2b3b"/>
              <path id="Path_4492" data-name="Path 4492" d="M95.66,49.36v.2a2.437,2.437,0,0,0,.582,1.943l2.041.582a.1.1,0,0,1,.1.1v.1c0,.193-.1.193-.2.292H97.6l-3.3-.1-3.3.1h-.485c-.2,0-.292-.1-.389-.292,0-.2.1-.292.389-.292a3.42,3.42,0,0,0,1.846-.582,2.817,2.817,0,0,0,.485-1.846V36.637a3.129,3.129,0,0,0-.292-1.554,1.566,1.566,0,0,0-1.359-.678,1.419,1.419,0,0,1-.68-.1c-.2-.1-.292-.193-.389-.193l.193-.1.584-.2h4.856l2.428-.1a10.777,10.777,0,0,1,3.5.389,3.989,3.989,0,0,1,2.72,2.039,5.267,5.267,0,0,1,.584,2.428,4.974,4.974,0,0,1-.777,2.72,4.588,4.588,0,0,1-1.943,1.554,12.34,12.34,0,0,1-1.361.389c-.29.1-.678.1-1.067.193l6.021,7.09A4.226,4.226,0,0,0,108,51.984c.2,0,.292.1.487.2l.193.193v.1l-.1.1c-.1.1-.2.1-.389.1h-.485l-1.264-.1h-1.747c-.292,0-.584,0-.68-.1s-.292-.193-.389-.29L97.6,44.6a5.956,5.956,0,0,0-.584-.389,1.548,1.548,0,0,0-.775-.29c-.389,0-.487.193-.487.582V49.36Zm0-6.9a1.413,1.413,0,0,0,.193.68c.1.1.292.1.584.193h.777a5.191,5.191,0,0,0,3.5-.97,4.075,4.075,0,0,0,1.262-3.4c0-3.108-1.554-4.564-4.566-4.564h-.485a2.873,2.873,0,0,0-.97.193,1.008,1.008,0,0,0-.389.777v7.09Z" transform="translate(91.313 34.169)" fill="#1e2b3b"/>
              <path id="Path_4493" data-name="Path 4493" d="M118.942,51.888a.291.291,0,1,1-.582,0c-.1-.485-.292-.68-.68-.68h-.2c-.193,0-.389.2-.678.292l-.68.485a10.09,10.09,0,0,1-4.467,1.069,10.793,10.793,0,0,1-6.8-2.235,7.2,7.2,0,0,1-2.136-2.72,7.752,7.752,0,0,1-.68-3.495v-.876a10.354,10.354,0,0,1,2.235-6.507,8.74,8.74,0,0,1,5.828-3.5,2.166,2.166,0,0,0,.874-.1h.97a11.146,11.146,0,0,1,3.594.582l1.846.777c.2,0,.292-.193.485-.485l.2-.485.193-.1c.1.1.2.2.292.2l.1.389.1,4.079v.389c0,.292-.1.389-.292.389-.1,0-.292-.389-.485-1.069l-.292-.874a5.733,5.733,0,0,0-2.138-2.428,5.413,5.413,0,0,0-3.205-.97,6.314,6.314,0,0,0-4.564,1.943,9.357,9.357,0,0,0-2.235,6.6v.972a11.937,11.937,0,0,0,.68,4.274,7.4,7.4,0,0,0,2.233,3.205,5.682,5.682,0,0,0,3.692,1.262,6.711,6.711,0,0,0,2.331-.485,5.2,5.2,0,0,0,1.943-1.262c.193-.2.389-.389.485-.487a5.736,5.736,0,0,1,.389-.582l.68-1.458.678-1.943.1-.1h.1a.337.337,0,0,1,.193.1l.1.2v5.633Z" transform="translate(103.387 34.072)" fill="#1e2b3b"/>
              <path id="Path_4494" data-name="Path 4494" d="M119.832,48.243v.389a4.01,4.01,0,0,0,.292,1.554,2.071,2.071,0,0,0,.97,1.069,8.51,8.51,0,0,0,3.012.485,17.579,17.579,0,0,0,2.525-.2,5.287,5.287,0,0,0,1.651-.678,3.089,3.089,0,0,0,1.069-1.166l.292-.876a2.711,2.711,0,0,1,.389-1.067l.292-.2c.1.1.193.1.193.2s.1.1.1.292l-.1,3.787c0,.485-.193.68-.485.68H127.8l-1.262-.2h-9.226l-2.041.1h-.582c-.292,0-.389-.1-.389-.292,0-.1,0-.1.1-.2a.1.1,0,0,1,.1-.1l.777-.193.777-.1a1.6,1.6,0,0,0,.972-.97c.1-.292.1-.584.193-.777V36.587c0-.874-.1-1.359-.389-1.651a2.217,2.217,0,0,0-1.359-.582c-.68-.1-.972-.2-.972-.389l.1-.1h.678l3.5.1.2-.1h3.3l.292.1v.1c-.1.1-.2.2-.2.292h-.389a2,2,0,0,0-1.651.582,3,3,0,0,0-.485,1.846V48.243Z" transform="translate(115.804 34.316)" fill="#1e2b3b"/>
              <path id="Path_4495" data-name="Path 4495" d="M131.9,47.662v.389a5.491,5.491,0,0,0,.389,2.428,2.389,2.389,0,0,0,1.846,1.166l1.067.1h1.166a8.527,8.527,0,0,0,2.331-.29,4.09,4.09,0,0,0,1.749-1.069,3.871,3.871,0,0,0,.582-1.262c.2-.584.389-.972.485-.972a.728.728,0,0,1,.2.389l.1.874-.1,2.623a.727.727,0,0,1-.1.485c-.1.1-.292.1-.584.1h-1.069l-6.118-.1H128.4l-.68.1h-1.166l-.193-.292.193-.292.68-.1a1.243,1.243,0,0,0,.777-.2,1.468,1.468,0,0,0,.874-.97,4.072,4.072,0,0,1,.1-.485v-13.5a6.789,6.789,0,0,0-.2-1.554,1.181,1.181,0,0,0-.97-.777l-1.458-.193-.2-.2.292-.29h.584l2.136.1h1.749l5.826-.1H138.4l1.361.1c.193.1.389.193.389.485v.2l-.1,1.359.1,1.361v.29c-.1.1-.2.2-.292.2l-.1-.1a.338.338,0,0,0-.1-.2,1.768,1.768,0,0,1-.2-.68,3.827,3.827,0,0,0-.485-1.262,3.137,3.137,0,0,0-1.651-.97,9.2,9.2,0,0,0-2.428-.292h-2.041a1.184,1.184,0,0,0-.874.292c-.193.193-.193.485-.193.874v6.7a12.191,12.191,0,0,0,2.136-.2,2.277,2.277,0,0,0,1.361-.678,2.77,2.77,0,0,0,.777-1.069l.389-1.651.193-.1a.257.257,0,0,1,.292.29v.389l-.1,2.816v.584l.1,1.554.1,1.458v.582c0,.1-.1.1-.1.2h-.1l-.2-.2-.389-1.262a2.22,2.22,0,0,0-.68-.972,2.31,2.31,0,0,0-1.067-.582c-.487-.1-.777-.2-.876-.2h-1.651v4.566Z" transform="translate(127.829 34.219)" fill="#1e2b3b"/>
            </g>
          </g>
        </g>
      </g>
    </g>
  </g>
</svg>
