<svg id="Component_230_1" data-name="Component 230 – 1" xmlns="http://www.w3.org/2000/svg" xmlns:xlink="http://www.w3.org/1999/xlink" width="215.937" height="45.571" viewBox="0 0 215.937 45.571">
  <defs>
    <clipPath id="clip-path">
      <rect id="Rectangle_873" data-name="Rectangle 873" width="215.937" height="45.571" fill="none"/>
    </clipPath>
    <clipPath id="clip-path-2">
      <rect id="Rectangle_872" data-name="Rectangle 872" width="215.937" height="45.572" fill="none"/>
    </clipPath>
    <clipPath id="clip-path-4">
      <rect id="Rectangle_870" data-name="Rectangle 870" width="109.959" height="45.571" fill="none"/>
    </clipPath>
  </defs>
  <g id="Group_1756" data-name="Group 1756" clip-path="url(#clip-path)">
    <g id="Group_1755" data-name="Group 1755" transform="translate(0 0)" opacity="0.43">
      <g id="Group_1754" data-name="Group 1754" clip-path="url(#clip-path-2)">
        <g id="Group_1753" data-name="Group 1753" transform="translate(0 0)">
          <g id="Group_1752" data-name="Group 1752" transform="translate(0 0)">
            <g id="Group_1751" data-name="Group 1751" clip-path="url(#clip-path)">
              <path id="Path_4496" data-name="Path 4496" d="M0,28.112a18.927,18.927,0,0,1,1.984-8.87A14.425,14.425,0,0,1,7.6,13.335a15.871,15.871,0,0,1,8.139-2.114,14.843,14.843,0,0,1,8.079,2.173,12.593,12.593,0,0,1,4.949,5.552V11.705H32.98V44.637H28.763v-7.3a13.3,13.3,0,0,1-5.009,5.61,14.591,14.591,0,0,1-8.079,2.174A15.347,15.347,0,0,1,7.6,43.007a14.947,14.947,0,0,1-5.611-5.965A19.278,19.278,0,0,1,0,28.112Zm28.763.059a14.467,14.467,0,0,0-1.629-6.993,11.591,11.591,0,0,0-4.465-4.641,11.928,11.928,0,0,0-6.155-1.63,12.681,12.681,0,0,0-6.272,1.571,11.3,11.3,0,0,0-4.406,4.583,14.793,14.793,0,0,0-1.571,7.051,15.331,15.331,0,0,0,1.571,7.123,11.678,11.678,0,0,0,4.406,4.641,12.479,12.479,0,0,0,6.272,1.571,11.757,11.757,0,0,0,6.155-1.629,11.594,11.594,0,0,0,4.465-4.643,14.5,14.5,0,0,0,1.629-6.993Zm25.2,16.951a15.5,15.5,0,0,1-9.285-2.6,9.686,9.686,0,0,1-3.981-7.181H45.04a6.331,6.331,0,0,0,2.6,4.524,10.579,10.579,0,0,0,6.272,1.689,8.036,8.036,0,0,0,5.363-1.629,5.033,5.033,0,0,0,1.984-4.04,3.771,3.771,0,0,0-1.087-2.776A7.3,7.3,0,0,0,57.4,31.42a35.165,35.165,0,0,0-4.465-1.382,45.173,45.173,0,0,1-5.965-1.926,10.485,10.485,0,0,1-3.922-2.835,7.86,7.86,0,0,1-1.571-5.126,7.574,7.574,0,0,1,1.453-4.465,9.929,9.929,0,0,1,4.1-3.261,14.463,14.463,0,0,1,6.035-1.2,12.947,12.947,0,0,1,8.564,2.716,9.615,9.615,0,0,1,3.5,7.359H60.9a6.27,6.27,0,0,0-2.291-4.641,8.292,8.292,0,0,0-5.67-1.808,8.364,8.364,0,0,0-5.185,1.512,4.726,4.726,0,0,0-.85,6.946,8.788,8.788,0,0,0,2.953,1.925c1.17.436,2.741.945,4.7,1.512a43.442,43.442,0,0,1,5.669,1.866,9.8,9.8,0,0,1,3.615,2.657,7.163,7.163,0,0,1,1.571,4.643,8.185,8.185,0,0,1-1.453,4.761,9.979,9.979,0,0,1-4.04,3.26,14.021,14.021,0,0,1-5.977,1.205Zm37.2-.484L77.583,29.86V44.637H73.365V.011h4.217V26.423L90.847,11.705h5.906L81.126,28.112,96.872,44.637H91.154Z" transform="translate(0 0)" fill="#1e2b3b"/>
              <g id="Group_1750" data-name="Group 1750" transform="translate(105.978)" opacity="0.9">
                <g id="Group_1749" data-name="Group 1749">
                  <g id="Group_1748" data-name="Group 1748" clip-path="url(#clip-path-4)">
                    <rect id="Rectangle_868" data-name="Rectangle 868" width="10.324" height="44.638" transform="translate(58.423 0.001)" fill="#1e2b3b"/>
                    <rect id="Rectangle_869" data-name="Rectangle 869" width="10.312" height="44.638" transform="translate(0 0.001)" fill="#1e2b3b"/>
                    <path id="Path_4497" data-name="Path 4497" d="M144.3,29.047a7.386,7.386,0,0,1-1.748,5.244,6.227,6.227,0,0,1-4.761,1.867,6.119,6.119,0,0,1-4.713-1.867,7.438,7.438,0,0,1-1.749-5.244V10.761H121.08V30.428a16.882,16.882,0,0,0,1.63,7.655,11.782,11.782,0,0,0,4.582,5.009,13.418,13.418,0,0,0,6.816,1.689,13.037,13.037,0,0,0,5.917-1.322,11.446,11.446,0,0,0,4.276-3.626v4.595h10.312V10.761H144.3Z" transform="translate(-103.598 0.212)" fill="#1e2b3b"/>
                    <path id="Path_4498" data-name="Path 4498" d="M207.99,39.314a17.259,17.259,0,0,0,4.489-11.587c0-9.757-8.186-17.647-18.25-17.647a18.519,18.519,0,0,0-10.851,3.489l-.025.018A17.423,17.423,0,0,0,176,27.726c0,9.757,8.162,17.647,18.226,17.647a18.6,18.6,0,0,0,8.008-1.8,24.394,24.394,0,0,0,9.048.31,4.421,4.421,0,0,1-3.3-4.574m-13.738-4.087a7.246,7.246,0,0,1-7.418-7.5,7.246,7.246,0,0,1,7.418-7.5,7.352,7.352,0,0,1,7.418,7.5,7.36,7.36,0,0,1-7.418,7.5" transform="translate(-102.518 0.198)" fill="#1e2b3b"/>
                    <path id="Path_4499" data-name="Path 4499" d="M210.628,43.244v-.012l-.023,0,.023.009" transform="translate(-101.838 0.85)" fill="#1e2b3b"/>
                  </g>
                </g>
              </g>
            </g>
          </g>
        </g>
      </g>
    </g>
  </g>
</svg>
