<svg id="Component_7_1" data-name="Component 7 – 1" xmlns="http://www.w3.org/2000/svg"  height="42.992" viewBox="0 0 245.105 42.992" style="width:100%; height:100%">
  <g id="Group_107" data-name="Group 107" opacity="0.433">
    <path id="Path_626" data-name="Path 626" d="M179.461,29.934h15.666l.072.078c.041.034.058.061.076.061.281,0,.563,0,.838,0l.106.106c.159.111.375-.06.522.1s.31.045.463.076c.109.022.154.175.295.141a.28.28,0,0,1,.3.13c.165-.058.217.155.361.151a.4.4,0,0,1,.319.091.888.888,0,0,0,.345.175c.121.032.184.149.29.152.171,0,.219.156.331.227a2.61,2.61,0,0,0,.29.15c.059.027.123.045.187.068a3.544,3.544,0,0,0,.623.533,3.183,3.183,0,0,1,.566.5,1.33,1.33,0,0,1,.421.457,1.444,1.444,0,0,0,.333.425c.129.155.153.384.347.492a9.9,9.9,0,0,0,.464.935,1.784,1.784,0,0,0,.192.41c.115.126.08.255.092.385l.145.156v.415l.129.129v.563l.149.149c0,.982,0,1.988,0,2.994,0,.167-.2.245-.15.436a.3.3,0,0,1-.128.366c.089.246-.208.4-.155.644.01.047-.068.109-.093.169-.092.222-.21.43-.317.644a1.611,1.611,0,0,1-.436.662c-.161.115-.131.332-.293.449a3.551,3.551,0,0,0-.4.393c-.116.116-.227.239-.351.347s-.212.319-.439.3c-.116.116-.229.236-.35.348s-.343.095-.4.3a4.544,4.544,0,0,1,.414.192c.23.134.5.16.73.28a1.427,1.427,0,0,1,.394.231,1.959,1.959,0,0,0,.394.247,1.5,1.5,0,0,0,.389.259c.139.045.217.266.358.325a2.576,2.576,0,0,1,.734.609,1.3,1.3,0,0,1,.362.412,1.441,1.441,0,0,0,.34.422c.117.137.143.317.286.453a1.525,1.525,0,0,1,.3.571c.069.183.243.323.217.547-.006.053.057.114.088.172.062.116.113.237.176.352s.013.272.013.4l.111.11c.1.161-.058.365.1.525s.057.353.072.531,0,.369,0,.524l.134.134v1.271l-.132.147v.974l-.1.106a.409.409,0,0,0-.044.12c-.005.164,0,.328,0,.483-.051.059-.145.13-.133.16.092.235-.159.367-.156.579,0,.176-.161.3-.213.472-.019.062-.042.124-.062.185-.006.018-.228.527-.237.536-.094.1-.219.177-.2.34-.106.068-.106.19-.157.287a.679.679,0,0,1-.245.248c-.173.106-.13.333-.293.449a3.461,3.461,0,0,0-.4.393c-.133.133-.261.271-.4.4s-.258.335-.47.395c-.2.056-.267.25-.417.354-.019.013-.031.04-.051.048a4.954,4.954,0,0,0-.479.2c-.134.075-.2.235-.391.258-.138.016-.253.177-.394.229s-.238.167-.35.164a.938.938,0,0,0-.435.154c-.08.036-.157.078-.277.139h-.368l-.155.142h-.244l-.185.129-.422.024-.126.127h-.706l-.134.134h-1.253l-.17.145H179.6l-.193-.183q0-16.079,0-32.163C179.413,29.968,179.444,29.951,179.461,29.934Zm21.8,22.47v-.7l-.143-.153c.108-.232-.166-.366-.143-.579a.277.277,0,0,0-.065-.181c-.155-.191-.152-.466-.347-.632.05-.27-.349-.31-.3-.58l-.549-.548-.1-.1a2.038,2.038,0,0,1-.294-.3c-.077-.119-.23-.052-.293-.148-.084-.128-.264-.06-.347-.195a.41.41,0,0,0-.337-.2c-.114-.218-.425-.017-.532-.249l-.306-.023-.126-.126h-.421l-.156-.145h-.839l-.12-.12H183.54l-.2.193V58.531a.189.189,0,0,0,0,.07c.009.02.033.033.063.06h13.142l.129-.128c.146,0,.309,0,.471,0s.246-.191.437-.152c.085.018.19-.1.293-.124a.56.56,0,0,0,.317-.1,2.876,2.876,0,0,1,.345-.184c.126-.08.285-.106.419-.176s.181-.193.315-.26a3.875,3.875,0,0,0,1.125-1.1c.063-.21.362-.254.3-.512.168-.076.139-.272.238-.4s.017-.358.186-.483a.627.627,0,0,1,.11-.381c.076-.117.024-.314.033-.476a.641.641,0,0,1,.032-.127l.108-.108c0-.436,0-.881,0-1.326a.44.44,0,0,0-.04-.124Zm-6.421-8.523a2.02,2.02,0,0,1,.4.005c.166.033.24-.164.364-.138.208.044.316-.181.507-.149.1-.25.414-.039.531-.249a.688.688,0,0,0,.393-.246c.112-.1.283-.114.393-.247.1-.117.184-.281.385-.253.115-.117.3-.219.327-.354.035-.162.142-.228.221-.334s.2-.166.233-.329c.023-.117.169-.211.268-.325.018-.115-.043-.261.1-.368.089-.069.034-.214.145-.3.051-.038.019-.173.046-.257a3.023,3.023,0,0,0,.133-.3,1.729,1.729,0,0,0,.005-.351c0-.094,0-.188,0-.281a1.033,1.033,0,0,1,.02-.132l.106-.106v-.733l-.12-.12V37.49l-.131-.145c-.022-.121,0-.27-.07-.332-.13-.123-.034-.28-.1-.386a5.394,5.394,0,0,0-.555-.9c.014-.143-.112-.194-.188-.274a7.7,7.7,0,0,1-.541-.553c-.189-.245-.5-.316-.7-.539a.82.82,0,0,0-.287-.152,3.072,3.072,0,0,1-.581-.3c-.128-.092-.338.048-.433-.149a.077.077,0,0,0-.058-.025c-.138,0-.275,0-.389,0l-.149-.148h-.564l-.117-.117H183.391c-.024.034-.048.053-.048.071q0,5.172,0,10.344a.171.171,0,0,0,.006.068c.009.02.032.034.052.055h11.314Z" transform="translate(-118.571 -19.783)" fill="#1e2b3b"/>
    <path id="Path_627" data-name="Path 627" d="M525.284,56.977h.359l.156-.145h.416l.159-.145h.7l.12-.12h3.116l.165.129h.83l.131.131h.411l.162.145h.412l.156.143c.134.01.262-.02.388.1a.688.688,0,0,0,.413.174.833.833,0,0,1,.365.153c.295.14.583.3.885.416.142.057.2.193.317.257.1.052.223.041.289.153.076.129.228.133.337.2s.186.232.306.286a3.149,3.149,0,0,1,.835.706c.255.244.495.5.751.744.135.127.144.324.293.447a.687.687,0,0,1,.271.38c.037.153.247.241.293.442.028.119.183.2.245.32.231.444.421.91.692,1.333-.064.262.248.442.144.7l.156.167v.276l.145.156v.414l.121.12c.01.141-.03.334.047.447a.6.6,0,0,1,.11.381c0,.161,0,.321,0,.456l.124.123v3.281a.374.374,0,0,1-.073.046.284.284,0,0,1-.07,0H521.471a.656.656,0,0,0-.1.02,3.146,3.146,0,0,0-.026.606l.143.153v.419l.1.1c.1.125-.05.339.15.431a1.029,1.029,0,0,0,.165.5c.095.11.106.287.188.411.134.2.176.463.351.627s.173.43.393.546c.227.5.706.785,1.048,1.187.09.106.256.069.345.2a2.349,2.349,0,0,0,.3.3c.179-.042.226.137.341.2.326.176.653.352.993.5.137.059.245.2.434.155.13-.03.2.186.364.136s.243.2.437.146a.3.3,0,0,1,.371.114l.6.035.126.126c1,0,2.008,0,3.017-.005.079,0,.157-.074.277-.134H532l.157-.145h.267c.06-.05.107-.116.167-.133.086-.025.234.021.266-.025.119-.17.309-.071.439-.146.283-.166.576-.309.871-.452.081-.039.2-.053.237-.1.231-.26.6-.343.8-.638.03-.044.119-.047.216-.083l1.018-1.017c.018-.105,0-.245.205-.217.129.123.311.222.373.439a.5.5,0,0,0,.112.164c.264.314.648.526.8.938l.913.912.011.253a.831.831,0,0,1-.08.113q-.372.375-.748.748a4.434,4.434,0,0,0-.444.452c-.119.159-.305.186-.445.3-.159.123-.267.293-.486.363-.154.048-.25.241-.443.292-.124.033-.177.189-.32.248a7.466,7.466,0,0,0-1.047.538c-.112.068-.27-.036-.385.1-.083.1-.246.079-.346.193-.041.046-.179.008-.266.008l-.161.146h-.413l-.105.105c-.179.1-.428-.077-.573.15l-.6.037-.119.118h-.976l-.161.145h-2.252l-.127-.119c-.314-.06-.665.011-1.018-.032l-.112-.112c-.228-.045-.484.008-.72-.027-.065-.049-.114-.114-.174-.126-.173-.036-.356.049-.522-.117-.1-.1-.325.024-.423-.158-.245.077-.4-.207-.642-.153-.022.005-.062.01-.068,0-.1-.167-.337-.129-.45-.28-.206.086-.341-.09-.5-.148s-.3-.242-.455-.249c-.25-.012-.3-.261-.51-.319a1.113,1.113,0,0,1-.517-.289,3.906,3.906,0,0,0-.383-.257c-.127-.1-.215-.27-.355-.338-.475-.232-.745-.684-1.138-1-.346-.279-.488-.726-.846-.991.029-.2-.19-.254-.24-.393a1.346,1.346,0,0,0-.254-.391,2.1,2.1,0,0,1-.212-.4c-.066-.137-.123-.278-.194-.413a2.714,2.714,0,0,1-.224-.4,2.084,2.084,0,0,0-.233-.466c-.1-.156.024-.378-.185-.5-.04-.022-.006-.176-.006-.264l-.149-.159v-.275l-.145-.159v-.553l-.121-.12v-.536l-.159-.2V68.875l-.132-.131v-.707l.132-.147V66.351l.138-.148c.024-.157-.006-.365.009-.569l.1-.1c.071-.13.023-.272.041-.437l.155-.21c.053-.086-.115-.3.053-.447.145-.128-.013-.381.2-.481.023-.153-.029-.332.15-.431-.056-.162.149-.218.147-.363s.193-.2.14-.365c-.045-.137.131-.19.133-.294a.337.337,0,0,1,.182-.276c.112-.078.069-.22.149-.292.124-.11.1-.29.24-.4a1.654,1.654,0,0,0,.257-.382,5.549,5.549,0,0,1,.351-.487c.137-.161.3-.3.447-.451q.574-.573,1.148-1.145a1.324,1.324,0,0,1,.434-.313c.16-.066.254-.314.413-.359.18-.052.245-.211.385-.269.323-.135.622-.314.94-.454a1.376,1.376,0,0,0,.4-.206c.125-.12.271-.028.388-.094.134-.076.257-.173.393-.243.056-.029.139,0,.2-.022A2.427,2.427,0,0,0,525.284,56.977Zm9.3,5.533c-.107-.106-.232-.248-.375-.37s-.26-.307-.472-.389c-.161-.062-.262-.267-.419-.351a1.723,1.723,0,0,1-.44-.3c-.039-.04-.144-.017-.183-.057a1.972,1.972,0,0,0-.46-.258c-.129-.078-.323-.089-.405-.194-.14-.178-.371,0-.5-.187-.089-.131-.32.037-.434-.148-.029-.048-.169-.033-.259-.037-.115-.006-.23,0-.329,0l-.141-.141c-.888,0-1.8,0-2.715,0-.044,0-.11,0-.127.025-.15.224-.4.04-.576.147l-.091.091c-.167.02-.356-.007-.472.072-.1.068-.232.04-.3.137-.1.149-.265.047-.382.1-.139.065-.253.2-.395.234a1.018,1.018,0,0,0-.39.256c-.123.091-.3.105-.39.251s-.284.1-.4.245c-.174.219-.395.4-.591.6a1.576,1.576,0,0,0-.5.638,2.234,2.234,0,0,0-.6.88c-.092.172-.167.353-.251.53a1.516,1.516,0,0,0-.213.471c-.016.208-.238.346-.161.577.012.036-.077.1-.129.171v.4l-.146.158c0,.183,0,.37,0,.558,0,.017.03.034.068.073H535.21c.329,0,.658,0,.987,0,.037,0,.074-.045.11-.069V66.2l-.145-.157v-.408l-.129-.148c-.009-.158.03-.327-.035-.429a4.713,4.713,0,0,1-.3-.721c-.109-.256-.251-.506-.37-.762-.085-.183-.32-.269-.313-.5-.116-.116-.238-.227-.346-.351A.731.731,0,0,1,534.586,62.51Z" transform="translate(-341.854 -37.384)" fill="#1e2b3b"/>
    <path id="Path_628" data-name="Path 628" d="M677.68,48.741l-.128-.125c-.038-.364,0-.759-.021-1.151l-.1-.1c-.011-.042-.024-.084-.033-.127-.039-.2.092-.424-.117-.586a1.146,1.146,0,0,0-.157-.5c-.086-.144-.228-.3-.15-.5-.127-.079-.1-.265-.2-.336-.215-.156-.218-.458-.444-.6-.148-.412-.533-.624-.8-.937-.014-.017-.036-.043-.052-.041-.228.027-.279-.217-.447-.286-.2-.083-.393-.185-.589-.279l-.294-.141a1.205,1.205,0,0,0-.3-.135c-.114-.019-.229,0-.31-.112-.02-.027-.081-.029-.124-.035-.154-.02-.334.064-.446-.117-.138-.008-.275-.02-.413-.024-.161,0-.322,0-.458,0l-.133-.133h-1.415l-.147.129h-.689l-.109.1a.386.386,0,0,1-.119.046c-.164.005-.329,0-.493,0l-.128.128c-.052.05-.155-.014-.237.017s-.145.106-.226.134a3.219,3.219,0,0,0-.587.286,2.4,2.4,0,0,0-.522.277c-.041.04-.157.018-.181.059-.128.213-.392.217-.55.391-.3.33-.627.635-.943.951-.05.05-.1.1-.149.15-.029.033-.072.073-.071.11,0,.2-.225.24-.268.383a.56.56,0,0,1-.159.288c.063.164-.127.223-.151.363a.83.83,0,0,1-.206.4c-.117.124,0,.3-.1.382-.183.155-.085.347-.112.531l-.136.153v.692l-.145.156V62.266a24.835,24.835,0,0,1-3.769.039c-.079-.963-.106-26.433-.034-32.308a.286.286,0,0,1,.051-.048.137.137,0,0,1,.064-.015q1.763,0,3.527,0a.5.5,0,0,1,.126.034c.012.019.034.037.034.056q.009,6.265.017,12.53c0,.017.031.033.073.076.091-.1.183-.207.274-.311s.084-.242.195-.345c.379-.352.728-.735,1.107-1.086.162-.151.4-.208.539-.4.125-.17.339-.2.522-.269s.211-.327.447-.283c.095-.26.417-.032.533-.246.2-.016.336-.239.562-.177.129-.159.325-.126.492-.175.04-.012.068-.063.106-.1h.414l.158-.145h.558l.149-.138h3.387l.128.128h.705l.135.134c.147.013.344-.026.453.054.131.095.273.056.378.115a.657.657,0,0,0,.442.13c.086.154.278.125.4.234s.348,0,.494.18c.085.1.3.087.408.182.153.138.361.209.485.351s.333.144.455.287c.106.125.248.222.342.354s.26.069.35.193a1.674,1.674,0,0,0,.3.3c.128.106.1.294.244.4a1.044,1.044,0,0,1,.388.4,1.512,1.512,0,0,0,.262.386,2.688,2.688,0,0,1,.182.348c.095.168.163.353.261.525s.154.363.263.522c.079.115.027.224.057.342l.136.145v.276l.145.157v.414l.129.129V46.2l.15.15v.986l.132.132V62.124l-.186.2H677.74c-.026-.025-.05-.038-.058-.058a.2.2,0,0,1,0-.07Z" transform="translate(-436.377 -19.783)" fill="#1e2b3b"/>
    <path id="Path_629" data-name="Path 629" d="M416.7,37.366c1.428,0,2.838,0,4.248,0,.018,0,.036.025.069.05-.089.118-.223.224-.256.355-.046.182-.262.232-.28.375-.024.195-.215.251-.255.39-.049.168-.179.258-.252.391-.087.159-.2.294-.3.443a4.541,4.541,0,0,0-.3.439c-.069.152-.185.254-.257.387-.086.161-.217.291-.3.442a4.182,4.182,0,0,1-.478.787c.017.143-.1.214-.186.271-.12.078-.061.215-.145.3a.984.984,0,0,0-.266.384c-.055.154-.235.253-.294.442-.044.139-.268.192-.239.393-.2.127-.229.393-.4.535s-.2.4-.387.554c-.107.087-.114.286-.257.38-.12.078-.058.271-.2.338-.165.079-.131.28-.247.392-.1.092-.24.163-.2.338-.205.126-.247.372-.4.542a5.215,5.215,0,0,0-.351.487.456.456,0,0,0-.092.172c-.02.136-.169.2-.173.357,0,.085-.2.154-.224.253a.66.66,0,0,1-.211.337c-.137.121-.11.344-.3.446-.138.076-.1.291-.25.388s-.149.315-.262.451c.12.212.173.468.392.613.163.108.143.339.3.438s.137.327.292.45a.8.8,0,0,1,.3.365c.056.16.273.261.343.421a2.014,2.014,0,0,0,.459.585c-.032.265.323.317.32.575,0,.051.076.113.131.153.246.181.319.491.542.7s.3.51.554.683c.01.269.295.373.365.626.056.2.382.267.384.543.116.116.232.233.349.349.1.1.079.247.194.346.132.114.288.212.317.432.019.138.247.184.272.38a.433.433,0,0,0,.217.255c.185.1.169.316.294.447a1.345,1.345,0,0,1,.366.483c.057.16.25.272.383.4-.061.256.306.281.282.517l.418.461c-.015.257.228.33.352.487.1.123.1.3.243.4a.972.972,0,0,1,.31.432c.063.136.257.2.241.394.361.262.48.726.837.966-.008.073-.013.117-.018.162-.017.016-.033.047-.05.047-1.41,0-2.82,0-4.268,0-.058-.063-.134-.152-.215-.236a1.435,1.435,0,0,1-.449-.59c-.22-.116-.2-.408-.4-.539-.18-.118-.212-.349-.355-.483s-.157-.321-.29-.45c-.114-.109-.273-.192-.307-.364-.041-.207-.246-.269-.343-.422-.058-.092-.094-.2-.153-.288s-.177-.168-.2-.268a.559.559,0,0,0-.145-.223c-.111-.139-.281-.219-.312-.437-.02-.138-.264-.181-.265-.383,0-.053-.08-.1-.121-.158-.109-.141-.318-.213-.3-.44-.116-.116-.242-.225-.346-.351a2.088,2.088,0,0,1-.154-.287c-.057-.1-.2-.13-.2-.269a.207.207,0,0,0-.046-.12,4.128,4.128,0,0,0-.3-.3c-.106-.094-.058-.27-.2-.342-.179-.091-.14-.323-.294-.446a.82.82,0,0,1-.3-.364c-.057-.16-.229-.28-.351-.417-.016-.018-.049-.035-.048-.05.021-.227-.223-.285-.284-.447-.032-.085-.036-.178-.118-.233-.277-.184-.334-.545-.6-.74.036-.141-.071-.208-.151-.29a1.3,1.3,0,0,1-.314-.434c-.062-.16-.25-.272-.382-.405.037-.265-.324-.315-.311-.58,0-.068-.112-.141-.151-.188h-4.551a.3.3,0,0,0-.052.054.133.133,0,0,0-.014.064q0,5.6,0,11.211l-.2.206h-3.558c-.025-.028-.055-.045-.055-.062q0-16.129,0-32.257a24.762,24.762,0,0,1,3.77-.039.2.2,0,0,1,.039.054.238.238,0,0,1,0,.07V47.438a.343.343,0,0,0,.059.057.139.139,0,0,0,.065.013h4.586a1.446,1.446,0,0,0,.459-.575c.054-.117.053-.273.195-.342s.1-.264.2-.334c.207-.135.218-.391.389-.551s.208-.4.394-.537c-.022-.26.309-.313.326-.575.008-.129.264-.188.239-.389.157-.083.112-.291.244-.393a.646.646,0,0,0,.21-.336c.046-.141.241-.188.266-.386.014-.112.24-.2.253-.31.019-.171.13-.24.223-.333s.059-.267.2-.345c.189-.108.183-.352.343-.5a1.582,1.582,0,0,0,.243-.457,1.027,1.027,0,0,1,.164-.214.422.422,0,0,0,.125-.233.37.37,0,0,1,.175-.2c.136-.082.054-.273.2-.346s.158-.265.25-.389c.079-.107.2-.164.226-.332s.3-.219.273-.448c.236-.19.29-.5.464-.718a3.882,3.882,0,0,1,.519-.71C416.7,37.525,416.688,37.435,416.7,37.366Z" transform="translate(-265.387 -19.748)" fill="#1e2b3b"/>
    <path id="Path_630" data-name="Path 630" d="M264.686,61l-.136-.135c-.02-.308.007-.656-.014-1l-.116-.116v-1.3a.618.618,0,0,1,.338-.212.7.7,0,0,0,.385-.242c.112-.134.274-.148.4-.239.176-.126.4-.175.576-.306.133-.1.341.05.434-.146.182-.007.291-.215.491-.178.169.032.251-.153.435-.159a4.808,4.808,0,0,0,.56-.165c.038-.007.067-.063.1-.1h.278l.157-.145h.415l.128-.128h.565l.15-.149h.846l.129-.128h4.263l.121.12h.695l.16.145h.415l.108.1c.145.08.311.018.459.043.059.049.128.141.162.13.211-.07.334.12.508.15.11.019.154.171.295.142a.316.316,0,0,1,.252.072c.16.111.389.142.516.267.153.15.366.182.5.336.166.19.43.241.6.444a8.209,8.209,0,0,0,.593.6,4.39,4.39,0,0,1,.539.554,1.86,1.86,0,0,0,.309.433c0,.236.238.318.32.5a2.781,2.781,0,0,0,.233.466c.106.151-.051.4.189.487-.037.192.226.288.153.509-.025.074.1.188.124.291a1.449,1.449,0,0,1,.005.319l.147.147v.563l.13.13v.976l.145.158v15.22l-.214.188h-3.268a1.1,1.1,0,0,1-.043-.492c-.008-.188,0-.375,0-.563V77.6c0-.188.009-.376,0-.563-.01-.157.066-.326-.07-.486-.072.088-.143.171-.209.257-.011.015.009.055,0,.068-.256.271-.508.546-.776.8-.112.107-.18.27-.372.294a.413.413,0,0,0-.212.16,1.4,1.4,0,0,1-.493.346c-.14.068-.3.1-.391.249-.077.123-.241.089-.348.191a.677.677,0,0,1-.417.165c-.211.005-.347.256-.578.149l-.153.143h-.276l-.157.145h-.409l-.157.136h-.667l-.167.129h-3.116l-.137-.137h-.847l-.129-.128h-.416l-.156-.145h-.417l-.152-.141a.625.625,0,0,1-.215,0,1.366,1.366,0,0,1-.4-.21c-.145-.13-.387.02-.487-.193-.179.046-.25-.2-.429-.157-.134-.195-.365-.256-.545-.388a.43.43,0,0,0-.163-.046c-.247-.172-.379-.431-.644-.557a1.194,1.194,0,0,1-.563-.569c-.126-.259-.384-.4-.5-.558-.155-.32-.279-.574-.4-.828a1.97,1.97,0,0,0-.231-.465.806.806,0,0,1-.134-.591l-.137-.156v-.41l-.145-.155V71.561l.124-.124v-.548c.072-.09.159-.153.15-.195-.054-.244.155-.412.165-.647.008-.176.209-.336.255-.521s.27-.239.3-.443.309-.272.3-.507q.349-.348.7-.7c.066-.066.134-.181.2-.182.2,0,.251-.219.39-.255a1.187,1.187,0,0,0,.39-.256,2.977,2.977,0,0,1,.408-.2,1.894,1.894,0,0,0,.406-.205c.107-.09.217-.053.323-.082a1.207,1.207,0,0,0,.226-.135,1.164,1.164,0,0,1,.295-.137,1.819,1.819,0,0,1,.361-.005l.157-.137h.41l.156-.145h.559l.156-.145h.839l.128-.128H279c.041-.04.063-.054.072-.074a.164.164,0,0,0,.007-.067q0-.669,0-1.339l-.142-.153v-.7l-.1-.1c-.074-.13-.024-.271-.039-.407l-.061-.116a1.327,1.327,0,0,0-.154-.286c-.073-.082-.043-.174-.073-.254a1.37,1.37,0,0,0-.23-.464,3.565,3.565,0,0,1-.246-.394,3.211,3.211,0,0,0-.345-.352l-.776-.775a3.341,3.341,0,0,1-.614-.3c-.2-.091-.4-.18-.585-.288-.241.068-.4-.246-.649-.139l-.153-.143h-.561l-.1-.1a.445.445,0,0,0-.124-.038c-1.057,0-2.113,0-3.161,0l-.134.134h-.564l-.125.124a.2.2,0,0,1-.061.023,1.6,1.6,0,0,0-.49.012c-.145.051-.268.165-.439.13-.13.231-.46.047-.588.282-.249-.1-.4.2-.649.15-.063-.012-.142.1-.223.129-.355.115-.65.354-1,.469-.1.137-.289.1-.4.242-.089.115-.282.148-.375.261-.124.152-.334.134-.452.289a4.474,4.474,0,0,1-.409.416h-.312c-.022-.022-.053-.039-.054-.056C264.685,61.653,264.686,61.324,264.686,61ZM266.8,73.818c0,.091-.039.233.007.27.153.123.128.34.275.455-.039.244.318.271.287.517,0,.031.051.07.079.106.271.349.709.5.995.832.01.012.049-.007.068,0,.173.092.346.187.518.28.239-.063.4.221.648.149.037-.011.1.081.162.131h.409l.157.145h.7l.148.135h1.97l.168-.145h.689l.126-.126c.168-.053.408.088.555-.131a.93.93,0,0,0,.615-.213.89.89,0,0,1,.389-.085c.136-.114.223-.3.44-.3.07-.141.236-.11.344-.194.157-.124.224-.376.486-.353a5.736,5.736,0,0,1,.452-.444c.185-.148.18-.42.394-.544s.224-.445.447-.59c.093-.061.02-.232.152-.287,0-.232.233-.321.317-.48a1.333,1.333,0,0,1,.285-.686q0-1.749,0-3.51c0-.018-.027-.035-.053-.066h-7.65l-.126.125h-.988l-.143.142c-.143,0-.307.012-.467,0s-.208.206-.364.142c-.192-.078-.252.217-.436.143-.1.165-.271.148-.435.146-.174.25-.494.312-.691.544s-.429.433-.645.647c-.087.177-.16.363-.232.54a2.685,2.685,0,0,0-.18.557,3.59,3.59,0,0,0-.008.6l-.124.124v.6l.12.12v.556Z" transform="translate(-173.808 -37.109)" fill="#1e2b3b"/>
    <path id="Path_631" data-name="Path 631" d="M350.774,62.686l.124.124v.412l.146.159v.556l.14.151V79.864a.31.31,0,0,1-.053.051.128.128,0,0,1-.063.016H347.6l-.22-.207v-.67q0-6.551,0-13.1c0-.312.092-.643-.133-.932-.034-.044,0-.137-.005-.208-.007-.113-.019-.227-.03-.34-.2-.092-.026-.337-.155-.424-.193-.129.01-.385-.195-.489-.034-.174-.158-.307-.208-.478a2.445,2.445,0,0,0-.257-.456.5.5,0,0,1-.033-.125,2.331,2.331,0,0,1-.6-.739c-.06-.171-.284-.12-.39-.249-.089-.109-.183-.258-.3-.288a1.057,1.057,0,0,1-.437-.312c-.188.076-.245-.224-.432-.15-.086-.143-.225-.13-.367-.141s-.209-.138-.365-.148c-.216-.012-.4-.231-.628-.1l-.19-.162h-.83l-.159-.146c-.394,0-.794-.007-1.193.006-.078,0-.154.081-.253.138H339.4l-.1.1c-.16.111-.386-.069-.52.1-.121.154-.32-.01-.439.144s-.38-.014-.478.2c-.184-.066-.246.222-.432.15-.094.177-.324.138-.448.292a1.62,1.62,0,0,1-.383.256c-.147.1-.211.321-.441.3-.133.133-.274.258-.4.4s-.335.248-.381.476c-.037.179-.269.224-.293.446-.018.161-.3.218-.276.445-.16.137-.182.347-.276.52-.083.155-.172.307-.277.494v.375l-.145.156v.417l-.145.156v14.08l-.206.206h-3.537l-.188-.206V57.018c.035-.024.053-.047.072-.047,1.268,0,2.537,0,3.793,0,.029.029.051.043.061.063a.151.151,0,0,1,.01.066q0,1.514,0,3.029c0,.018.026.036.054.072.114-.095.112-.26.229-.357a.774.774,0,0,0,.294-.368,2.972,2.972,0,0,1,.83-.813,1.141,1.141,0,0,0,.17-.1,2.952,2.952,0,0,1,.406-.388c.153-.094.3-.194.443-.3a1.532,1.532,0,0,1,.472-.219,2.46,2.46,0,0,0,.454-.262,4.3,4.3,0,0,0,.466-.232c.114-.081.225-.027.343-.057l.145-.136h.276l.157-.145h.415l.13-.129h.564l.135-.135h3.413l.12.12h.692l.164.145h.411l.156.145h.42l.113.113c.067.062.17,0,.252.031s.145.109.226.134a4.542,4.542,0,0,1,.709.331,3.848,3.848,0,0,1,.693.374c.048.038.136.028.181.067.124.107.235.23.352.346.224-.014.306.183.439.3s.234.231.351.347l.449.448a2.426,2.426,0,0,0,.3.294c.128.089.054.273.2.346s.154.267.25.389c.081.1.243.159.213.335.113.087.1.256.193.338.111.1.048.28.193.348a1.868,1.868,0,0,0,.29.727C350.8,62.341,350.762,62.508,350.774,62.686Z" transform="translate(-218.117 -37.38)" fill="#1e2b3b"/>
    <path id="Path_632" data-name="Path 632" d="M479.548,29.931v3.61a.322.322,0,0,1-.068.051.242.242,0,0,1-.07,0h-10.5a.341.341,0,0,0-.057.059.14.14,0,0,0-.013.065q0,14.193,0,28.4l-.2.206h-3.7c-.026-.03-.052-.045-.055-.064a1.016,1.016,0,0,1,0-.14V33.805l-.212-.212q-5.278,0-10.572,0c-.018,0-.036-.026-.068-.051V29.988c.023-.023.038-.052.057-.054a.926.926,0,0,1,.141,0Z" transform="translate(-300.067 -19.78)" fill="#1e2b3b"/>
    <path id="Path_633" data-name="Path 633" d="M602.941,76.414h.421l.125.124h.565l.141.141h3.7l.125-.125h.706l.149-.149h.565l.128-.128h.417l.156-.145h.276l.152-.14h.36c.137-.11.336-.113.455-.259a.848.848,0,0,0,.558-.178c.149-.095.369-.072.438-.282l.222.221v.555l.145.157v.7l.124.119v.567l.149.149v.681c.071.1.113.152.148.209.01.017,0,.046,0,.132l-.231.184c-.132.008-.259-.02-.383.1a.641.641,0,0,1-.415.166c-.16,0-.235.141-.365.149s-.28,0-.366.143h-.279l-.158.145h-.416l-.1.1c-.131.068-.272.022-.437.039l-.181.136h-.4l-.134.134h-.688l-.169.145h-.972l-.158.145h-2.964l-.073-.079c-.039-.033-.057-.059-.074-.059-.328,0-.657,0-.979,0l-.131-.131h-.564c-.058-.058-.088-.115-.125-.12-.136-.019-.275-.014-.411-.033-.11-.015-.154-.157-.3-.144s-.333.052-.439-.126c-.246.086-.4-.214-.643-.15a2.912,2.912,0,0,1-.518-.282c-.444,0-.747-.355-1.148-.465-.1-.136-.289-.1-.4-.242a.714.714,0,0,0-.385-.245c-.177-.038-.255-.2-.392-.251-.293-.117-.442-.407-.693-.544a3.5,3.5,0,0,1-.732-.611c-.22-.211-.421-.446-.654-.641-.15-.125-.145-.325-.29-.451-.115-.1-.282-.177-.295-.368s-.315-.218-.282-.447a2.632,2.632,0,0,1-.55-.9c-.148-.312-.326-.613-.452-.94-.056-.147-.157-.27-.127-.439l-.144-.156V72.26l-.139-.154v-.385l-.138-.185v-.4l-.15-.15v-.7l-.13-.13V66.626l.134-.146v-.7l.094-.082c.089-.162.027-.328.055-.485l.1-.1c.065-.129.011-.271.035-.4s.18-.2.141-.365.206-.245.142-.435c-.049-.146.192-.2.138-.363.121-.083.127-.23.189-.345.125-.23.255-.457.373-.691.068-.135.084-.313.183-.412.149-.149.2-.356.348-.491s.152-.325.291-.448.326-.241.389-.4c.136-.345.438-.526.663-.781a1,1,0,0,1,.364-.308c.2-.067.281-.232.422-.344a.979.979,0,0,1,.389-.26c.117-.028.221-.174.3-.289.088-.131.28-.058.343-.2.089-.194.311-.17.449-.29a2.066,2.066,0,0,1,.414-.183c.156-.081.3-.181.451-.273.187.073.244-.226.432-.15.1-.243.414-.039.532-.249.2-.013.336-.245.564-.172.158-.188.374-.136.585-.141l.155-.138h.411l.15-.138c.156-.022.364.005.569-.008l.1-.1c.018-.013.036-.036.055-.036.234,0,.467,0,.689,0l.126-.126h4.1l.165.13h.69l.131.131h.553l.161.145h.413l.158.145h.41c.059.05.128.142.162.131.211-.069.342.164.507.137.195-.032.266.185.437.153.2-.037.333.118.483.193.132.066.307.079.406.225.026.038.122.027.19.04v.453l-.131.147V59.71l-.145.156v.982l-.127.127-.024.446c-.072.1-.112.007-.148-.032-.08-.087-.221-.026-.3-.141-.036-.051-.167-.037-.256-.049-.136-.017-.2-.2-.358-.157-.1-.189-.322-.057-.424-.157a.462.462,0,0,0-.383-.107.271.271,0,0,1-.249-.083c-.089-.114-.219-.035-.338-.065l-.145-.135h-.562l-.125-.124h-.565l-.15-.149H607.18l-.136-.136H604.76l-.12.12h-.832l-.165.145h-.552l-.156.145h-.279l-.126.126c-.083.007-.236-.027-.3.033a.486.486,0,0,1-.378.125c-.114,0-.162.131-.293.151a1.511,1.511,0,0,0-.4.213,2.17,2.17,0,0,1-.413.192c-.153.042-.2.217-.32.248-.17.042-.258.191-.393.248a1.9,1.9,0,0,0-.585.459c-.3.3-.582.618-.906.887-.156.13-.146.34-.294.445s-.172.261-.242.4a1.5,1.5,0,0,1-.3.441c-.095.088-.064.264-.2.338a1.047,1.047,0,0,1-.2.621c-.029.058-.085.125-.075.177.065.308-.249.545-.153.86.011.038-.075.106-.128.176v.68l-.145.16v1.685l.094.1c.015.017.043.034.043.052,0,.281,0,.562,0,.834l.141.157a2.686,2.686,0,0,0,0,.359c.018.129.187.2.138.365-.042.138.134.181.138.294a.526.526,0,0,0,.122.378c.061.069.047.217.162.267v.293c.112.141.3.227.3.443.141.07.091.253.2.339.22.173.276.46.492.647.355.307.665.664,1.007.986.13.122.211.313.422.339.192.023.219.313.448.281l.307.28c.164-.06.218.147.364.146s.2.182.359.16c.047-.006.122.123.156.111.213-.079.328.162.509.145.213-.02.347.25.58.142Z" transform="translate(-391.904 -37.383)" fill="#1e2b3b"/>
    <path id="Path_634" data-name="Path 634" d="M74,30.366c-.1.169-.311.184-.433.306a1.394,1.394,0,0,1-.4.241,3.84,3.84,0,0,0-.524.26,4.186,4.186,0,0,1-.5.34c-.116.06-.268.06-.344.191-.2-.025-.252.2-.392.245s-.229.161-.351.169c-.15.009-.2.2-.364.15a1.941,1.941,0,0,1-.547.385.461.461,0,0,1-.175.037c-.031-.031-.062-.047-.062-.064q0-10.069,0-20.166c-.077-.024-.181-.026-.233-.079a1.344,1.344,0,0,0-.684-.4c-.1-.171-.327-.132-.45-.288a1.13,1.13,0,0,0-.384-.252c-.154-.079-.327-.122-.478-.206-.134-.075-.2-.234-.391-.258a.674.674,0,0,1-.385-.242c-.112-.134-.276-.144-.4-.238a1.121,1.121,0,0,0-.408-.2c-.135-.03-.173-.148-.27-.2a2.607,2.607,0,0,0-.291-.149,4.524,4.524,0,0,1-.524-.261c-.15-.088-.281-.21-.443-.3a2.335,2.335,0,0,1-.634-.342,1.224,1.224,0,0,0-.579-.306,2.6,2.6,0,0,0-.965-.564c-.331-.383-.882-.413-1.236-.767a1.756,1.756,0,0,0-.4-.219c-.191-.107-.424-.145-.568-.333a.148.148,0,0,0-.05-.049,2.817,2.817,0,0,1-.477-.206,5.273,5.273,0,0,0-.438-.3,4.951,4.951,0,0,1-.747-.424,2.007,2.007,0,0,0-.757-.374c-.34-.408-.94-.419-1.276-.834-.182.058-.247-.214-.43-.153-.141-.108-.229-.271-.44-.307-.14-.024-.253-.188-.4-.229a.527.527,0,0,1-.333-.211c-.074-.122-.208-.073-.3-.144-.19-.15-.453-.177-.628-.352a1.246,1.246,0,0,0-.579-.307c-.2-.264-.527-.32-.784-.49a1.721,1.721,0,0,1-.16-.135c.123-.095.189-.208.352-.235.115-.02.207-.174.309-.268.161.055.219-.131.363-.152a1.175,1.175,0,0,0,.4-.207c.112-.07.161-.241.339-.2.2-.179.489-.209.682-.394s.454-.2.624-.357a3.554,3.554,0,0,1,.742-.436c.2-.113.253-.123.427-.007.111.075.278.052.343.194.078.169.28.127.4.243.09.089.24.089.342.2a1.082,1.082,0,0,0,.386.25,1.8,1.8,0,0,1,.683.4c.054.058.158.067.236.1a3.426,3.426,0,0,1,.524.259,3.167,3.167,0,0,0,.5.338,2.49,2.49,0,0,0,.415.188c.175.044.218.234.375.289a1.423,1.423,0,0,1,.418.177,1.789,1.789,0,0,0,.444.3,2.225,2.225,0,0,1,.466.233,4.988,4.988,0,0,0,.674.419,1.528,1.528,0,0,1,.618.386c.021.027.09.013.123.037a8.571,8.571,0,0,1,.8.457c.211.191.522.232.732.448a1.672,1.672,0,0,0,.4.221c.192.107.426.142.567.333.063.085.183.057.236.105.217.2.532.216.743.436s.514.239.734.444a2.485,2.485,0,0,0,.458.24c.17.1.382.141.506.316.026.037.075.1.1.091.185-.05.25.214.432.158.07.14.253.094.339.2a1.28,1.28,0,0,0,.387.256c.265.157.591.221.786.489a1.617,1.617,0,0,1,.731.448c.188-.077.245.223.432.149.21.125.4.293.609.406a1.765,1.765,0,0,0,.653.293,1.6,1.6,0,0,0,.732.447c.016.017.037.032.045.052a.206.206,0,0,1,0,.07Z" transform="translate(-34.625 0)" fill="#1e2b3b"/>
    <path id="Path_635" data-name="Path 635" d="M0,32.694a1.364,1.364,0,0,1,.707-.5c.13-.038.171-.15.269-.205a2.5,2.5,0,0,1,.291-.149,4.294,4.294,0,0,0,.524-.262c.15-.087.282-.208.443-.3a2.433,2.433,0,0,0,.635-.341,1.574,1.574,0,0,1,.575-.314c.12-.048.206-.181.3-.269h.286c.023.044.06.082.06.121q0,4.576,0,9.153V50.582c.143.065.3.128.452.206a1.476,1.476,0,0,1,.445.275c.129.149.352.116.451.286a2.391,2.391,0,0,1,.689.387,2.519,2.519,0,0,0,.709.327c.145.034.2.232.376.284a.744.744,0,0,1,.454.255c.1.154.27.155.4.237.24.153.538.216.725.457.257.063.455.261.719.308a2.949,2.949,0,0,0,.963.569c.12.056.2.216.316.257a.57.57,0,0,1,.287.16c.179-.045.231.126.342.2a3.192,3.192,0,0,0,.4.223,1.554,1.554,0,0,1,.622.374c.024.029.079.032.118.051a4.375,4.375,0,0,1,.7.357,2.433,2.433,0,0,0,.632.355c.12.044.2.233.313.258s.19.114.291.155c.121.049.278.061.359.147.347.367.885.413,1.241.764a1.948,1.948,0,0,0,.4.218c.189.111.424.145.567.334.014.019.031.044.05.048.379.086.629.4.97.552.118.054.268.058.344.191.2-.025.253.194.392.244s.23.16.35.168c.15.009.2.2.364.151a3.118,3.118,0,0,0,.963.568c.139.066.242.226.383.265s.2.215.361.153l.345.351c-.084.208-.347.183-.474.344-.166-.059-.217.157-.361.15s-.174.141-.271.2a4.26,4.26,0,0,1-.4.222,1.708,1.708,0,0,0-.624.372c-.053.058-.165.057-.235.106-.2.139-.457.169-.632.346a1.586,1.586,0,0,1-.575.314c-.12.049-.206.181-.324.29a5.127,5.127,0,0,1-.641-.3c-.186-.12-.425-.162-.557-.367-.019-.03-.078-.033-.118-.05a5.656,5.656,0,0,1-.678-.411,2.943,2.943,0,0,0-.649-.3c-.119-.034-.2-.232-.312-.256s-.19-.116-.291-.155a2.135,2.135,0,0,1-.362-.146c-.115-.072-.2-.227-.315-.26s-.206-.143-.289-.145c-.177,0-.223-.158-.341-.212-.158-.072-.317-.151-.465-.235-.17-.1-.382-.141-.506-.317-.026-.037-.075-.1-.1-.09-.183.044-.253-.165-.43-.175a.618.618,0,0,1-.383-.24c-.111-.14-.28-.134-.4-.236a1.069,1.069,0,0,0-.41-.194c-.175-.044-.217-.234-.375-.289A1.421,1.421,0,0,1,9.64,58.5a1.789,1.789,0,0,0-.444-.3,2.208,2.208,0,0,1-.466-.233,5.021,5.021,0,0,0-.674-.419,1.528,1.528,0,0,1-.618-.386c-.021-.027-.09-.013-.123-.038a8.446,8.446,0,0,1-.8-.457c-.211-.191-.522-.231-.732-.448a1.665,1.665,0,0,0-.4-.221c-.192-.106-.423-.145-.568-.332-.028-.035-.073-.09-.1-.086-.178.028-.251-.2-.429-.164-.07-.141-.257-.086-.339-.2a1.041,1.041,0,0,0-.388-.254,2.881,2.881,0,0,1-.632-.345,1.406,1.406,0,0,0-.578-.31c-.341-.407-.94-.419-1.277-.833a.336.336,0,0,1-.291-.149C.593,53.4.536,53.1.349,53.177L0,52.83Z" transform="translate(0 -20.067)" fill="#1e2b3b"/>
    <path id="Path_636" data-name="Path 636" d="M29.5,56.616c-.109-.109-.214-.2-.306-.309-.072-.082-.065-.2-.142-.3-.1-.13-.116-.333-.216-.468a3.067,3.067,0,0,1-.3-.441,1.564,1.564,0,0,0-.278-.456,2.142,2.142,0,0,1-.242-.454,2.2,2.2,0,0,0-.311-.511,1.76,1.76,0,0,1-.244-.425c.011-.171.156-.118.195-.163.125-.146.334-.125.459-.278a1.169,1.169,0,0,1,.384-.252c.155-.079.365-.095.471-.211.223-.243.565-.275.787-.492a3.215,3.215,0,0,1,.808-.439,3.659,3.659,0,0,0,.316-.255c.091-.061.2-.064.3-.14.131-.1.333-.115.469-.216a2.979,2.979,0,0,1,.441-.3,1.6,1.6,0,0,0,.456-.278A2.223,2.223,0,0,1,33,49.991c.17-.1.382-.142.506-.317.026-.037.074-.1.1-.09.182.041.253-.164.43-.175a.621.621,0,0,0,.383-.24c.111-.141.281-.134.4-.236a3.153,3.153,0,0,1,.407-.2c.134-.08.246-.2.381-.275a3.107,3.107,0,0,0,.414-.183,1.731,1.731,0,0,1,.444-.3,2.185,2.185,0,0,0,.466-.233,4.933,4.933,0,0,1,.674-.419,1.535,1.535,0,0,0,.618-.387c.021-.027.091-.013.123-.037a8.1,8.1,0,0,0,.8-.458c.21-.191.521-.232.731-.448a1.71,1.71,0,0,1,.4-.22,3.678,3.678,0,0,0,.574-.325,1.8,1.8,0,0,1,.689-.364c.207-.049.244-.268.442-.3a.838.838,0,0,0,.409-.193,2.931,2.931,0,0,1,.624-.372c.17-.1.381-.143.5-.318.026-.037.075-.1.1-.09.184.045.25-.212.431-.159.07-.141.254-.092.339-.2a1.3,1.3,0,0,1,.386-.257c.224-.139.5-.181.686-.39s.5-.188.685-.4c.022-.024.088-.009.135-.013.167.178.178.44.343.629.06.07.056.219.161.279.136.079.128.231.2.343.057.093.078.221.156.284a1.871,1.871,0,0,1,.357.56,4.465,4.465,0,0,0,.328.572,3.471,3.471,0,0,1,.348.649,1.064,1.064,0,0,1-.54.422,2.082,2.082,0,0,0-.52.263,5.645,5.645,0,0,1-.506.329c-.139.1-.336.113-.472.213a3.255,3.255,0,0,1-.441.3,1.5,1.5,0,0,0-.457.278,2.052,2.052,0,0,1-.455.242,1.438,1.438,0,0,0-.508.314.476.476,0,0,1-.169.1,2.894,2.894,0,0,0-.406.208c-.126.092-.289.1-.4.238a.678.678,0,0,1-.385.242c-.195.023-.253.2-.392.255a4.393,4.393,0,0,0-.7.34,4.892,4.892,0,0,1-.615.4,1.724,1.724,0,0,0-.673.416c-.262.049-.456.25-.72.31-.144.033-.2.231-.375.284a.744.744,0,0,0-.453.256c-.1.155-.271.155-.4.237-.242.152-.537.217-.726.457-.257.061-.461.241-.716.316-.12.035-.2.232-.313.257s-.191.113-.291.155c-.12.051-.277.062-.358.148-.269.285-.668.351-.954.609a2.641,2.641,0,0,1-.459.239c-.171.1-.384.14-.5.317-.059.086-.184.064-.234.107-.237.209-.6.211-.788.49-.273.083-.49.28-.77.357-.143.04-.191.238-.378.28a.872.872,0,0,0-.446.267c-.115.136-.275.155-.406.23a2.248,2.248,0,0,0-.725.459c-.261.051-.457.249-.719.311C29.682,56.379,29.6,56.525,29.5,56.616Z" transform="translate(-18.148 -28.017)" fill="#1e2b3b"/>
    <path id="Path_637" data-name="Path 637" d="M29.48,38.794a3.411,3.411,0,0,1-.283-.288c-.066-.084-.033-.227-.152-.288.034-.265-.335-.315-.308-.576-.176-.2-.211-.487-.393-.68a2.71,2.71,0,0,1-.351-.63,1.294,1.294,0,0,0-.244-.252c.064-.164-.137-.219-.149-.363a.777.777,0,0,0-.132-.266c0-.215.195-.094.257-.19.091-.14.288-.1.4-.243a.63.63,0,0,1,.383-.241c.173-.017.249-.211.425-.175.34-.408.94-.419,1.276-.834.182.058.247-.213.43-.153.141-.107.227-.272.439-.307.14-.022.259-.218.393-.223.262-.011.315-.352.58-.315.221-.228.591-.22.782-.495.265-.1.488-.282.769-.358.145-.039.2-.233.375-.286a.742.742,0,0,0,.454-.254c.1-.154.27-.155.4-.237.241-.153.539-.215.725-.456.256-.064.456-.259.718-.309.236-.323.674-.343.941-.631a1.509,1.509,0,0,1,.4-.215c.232-.126.509-.183.632-.412a.256.256,0,0,1,.314.158,2.172,2.172,0,0,0,.3.442c.1.135.111.338.215.469s.118.346.289.45c.049.03.072.108.1.168a6.8,6.8,0,0,0,.413.676,2.819,2.819,0,0,1,.3.648c.031.115.174.2.266.3-.109.091-.177.206-.346.218-.089.006-.154.181-.254.228-.119.056-.232.121-.349.177a1.649,1.649,0,0,0-.621.375c-.024.029-.079.032-.118.052a4.127,4.127,0,0,0-.695.357,2.447,2.447,0,0,1-.631.356c-.12.045-.2.234-.313.258s-.191.113-.291.155c-.12.051-.278.062-.358.148-.346.368-.886.409-1.241.762a1.767,1.767,0,0,1-.4.219c-.191.107-.424.144-.567.332a.15.15,0,0,1-.05.049,2.911,2.911,0,0,0-.477.206c-.147.1-.246.269-.444.292-.068.144-.247.081-.347.193-.082.094-.263.066-.334.2s-.23.129-.345.192c-.17.094-.355.171-.521.267-.15.087-.284.205-.443.294a2.569,2.569,0,0,0-.636.34,1.421,1.421,0,0,1-.575.313c-.1.034-.162.167-.257.232A2.216,2.216,0,0,1,29.48,38.794Z" transform="translate(-18.153 -19.237)" fill="#1e2b3b"/>
    <path id="Path_638" data-name="Path 638" d="M50.736,75.21c.106-.079.162-.239.336-.211.09-.149.3-.1.394-.238s.276-.149.389-.252.274-.054.344-.2c.188.007.27-.15.392-.247.1-.081.264-.065.341-.195.178.038.228-.133.339-.2.129-.081.268-.147.4-.219.193-.1.424-.143.569-.33.028-.036.074-.093.1-.088.18.034.255-.162.428-.176a.627.627,0,0,0,.384-.241c.11-.142.277-.141.4-.235.192-.14.455-.169.625-.357s.431-.155.573-.307c.226-.239.552-.288.79-.49.27-.009.39-.271.624-.366a3.057,3.057,0,0,0,.748-.418,2.01,2.01,0,0,1,.757-.374c.239-.319.661-.359.945-.624a2.821,2.821,0,0,1,.691-.361c.115-.057.232-.11.344-.163.176.266.216.575.465.76.028.021.019.087.043.12.184.248.234.567.453.8s.235.581.5.776c.068.255.251.458.316.715.016.06.085.106.144.175l-.352.329c-.185-.07-.244.224-.432.15-.074.17-.307.1-.39.249s-.263.163-.394.243a3.9,3.9,0,0,0-.516.268,5.649,5.649,0,0,1-.507.329c-.138.1-.336.113-.472.213a3.159,3.159,0,0,1-.441.3,1.525,1.525,0,0,0-.457.278,2.084,2.084,0,0,1-.455.242c-.17.1-.382.141-.506.316-.026.037-.063.086-.1.092a1.935,1.935,0,0,0-.652.3c-.209.118-.4.274-.609.408-.188-.077-.245.223-.432.149a2.252,2.252,0,0,1-.312.271,3.805,3.805,0,0,0-.414.184,1.784,1.784,0,0,1-.444.3,2.224,2.224,0,0,0-.466.233,4.992,4.992,0,0,1-.674.419,2.055,2.055,0,0,0-.623.38c-.1.1-.282.108-.411.186a2.311,2.311,0,0,0-.312.27c-.186-.071-.242.217-.434.157-.031-.01-.095.082-.143.127-.088-.107-.238-.171-.206-.344-.161-.081-.1-.3-.248-.389s-.153-.268-.247-.393c-.172-.229-.237-.513-.437-.74-.166-.189-.215-.473-.408-.673-.166-.173-.172-.447-.347-.632C50.7,75.436,50.736,75.3,50.736,75.21Z" transform="translate(-33.521 -45.548)" fill="#1e2b3b"/>
  </g>
</svg>
