<svg id="Component_224_1" data-name="Component 224 – 1" xmlns="http://www.w3.org/2000/svg" xmlns:xlink="http://www.w3.org/1999/xlink"  height="95.003" viewBox="0 0 184.76 95.003" style="width:100%; height:100%">
  <defs>
    <clipPath id="clipPath">
      <rect id="Rectangle_669" data-name="Rectangle 669" width="184.76" height="95.003" fill="none"/>
    </clipPath>
  </defs>
  <g id="Group_1681" data-name="Group 1681" clipPath="url(#clipPath)">
    <g id="Group_1680" data-name="Group 1680" transform="translate(0 0.001)" opacity="0.43">
      <g id="Group_1679" data-name="Group 1679" clipPath="url(#clipPath)">
        <g id="Group_1678" data-name="Group 1678" transform="translate(0 -0.001)">
          <g id="Group_1677" data-name="Group 1677" transform="translate(0 0)">
            <g id="Group_1676" data-name="Group 1676" clipPath="url(#clipPath)">
              <path id="Path_4278" data-name="Path 4278" d="M44.741,34.437a12.027,12.027,0,0,1,1.709.536A9.663,9.663,0,0,1,52.168,42.1c1.155,5.349.044,10.006-4.436,13.449a13.2,13.2,0,0,1-7.926,2.727c-4.817.077-9.64.147-14.454.034-3.743-.089-7.112-2.306-7.394-6.737a18.461,18.461,0,0,0-.591-3.618,4.184,4.184,0,0,0-4.134-3.031,33.152,33.152,0,0,1-3.418.022V36.835a25.53,25.53,0,0,1,5.218.524c1.844.562,2.447,2.356,2.682,4.18.173,1.338.268,2.693.54,4.011a5.512,5.512,0,0,0,5.151,4.514c4.712.163,9.43.254,14.144.181,3.21-.048,5.055-1.636,5.742-4.329a5.473,5.473,0,0,0-4.418-6.895,33.917,33.917,0,0,0-4.224-.23c-3.1-.04-6.2.022-9.293-.046-4.78-.107-7.022-3.261-7.122-7.467-.06-2.505-1.215-4.5-3.255-5.075a8.36,8.36,0,0,0-2.173-.171c-2.614-.018-5.228-.006-7.912-.006V18.506c.4-.028.774-.075,1.145-.077,2.324-.006,4.651.079,6.971-.022,3.285-.143,5,1.927,5.262,5.375a12.5,12.5,0,0,0,1.332,4.956c1.026,1.87,3.106,2.465,5.165,2.507,3.827.077,7.658,0,11.488.006,1.941,0,3.646-.516,4.448-2.435a5.826,5.826,0,0,0-.639-6.028A3.92,3.92,0,0,0,36.74,21.45c-3.787-.046-7.574,0-11.359-.042-3.843-.046-7.221-2.487-7.431-6.784a18.2,18.2,0,0,0-.558-3.493A4.7,4.7,0,0,0,12.81,7.887c-3.787-.018-7.574,0-11.361,0H0V.012H1.417C5.161.012,8.906.053,12.649,0c3.313-.046,4.714,2.038,5.089,4.752.256,1.864.135,3.8,1.165,5.54a5.349,5.349,0,0,0,4.525,2.882c4.512.167,9.031.155,13.547.228a15.216,15.216,0,0,1,9.295,2.89,9.948,9.948,0,0,1,3.922,7.06c.333,2.83.036,5.687-1.852,7.989a26.171,26.171,0,0,1-3.6,3.1" transform="translate(0 0)" fill="#1e2b3b"/>
              <path id="Path_4279" data-name="Path 4279" d="M73.454,32.206H50.513a6.427,6.427,0,0,0,4.067,4.918c4.484,1.907,8.178.21,11.6-2.684l4.948,4.855a11.8,11.8,0,0,1-4.343,3.761,18.671,18.671,0,0,1-10.7,2.376,15.479,15.479,0,0,1-13.5-9.775c-2.229-5.893-1.544-11.419,2.314-16.407a14.668,14.668,0,0,1,9.629-5.53,17.778,17.778,0,0,1,9.631,1,13.813,13.813,0,0,1,8.868,10.6,47.825,47.825,0,0,1,.419,6.88m-8.692-5.643a5.884,5.884,0,0,0-5.994-5.6c-4.98-.032-7.7,1.818-8.273,5.6Z" transform="translate(41.963 13.67)" fill="#1e2b3b"/>
              <path id="Path_4280" data-name="Path 4280" d="M91.239,32.2H68.65a6.919,6.919,0,0,0,4.537,5.165c4.337,1.546,7.953-.139,11.131-2.813L89.312,39.4a15.072,15.072,0,0,1-7.634,5.125,17.56,17.56,0,0,1-11,.2C64.932,42.855,61.218,38.954,60,33.053c-1.6-7.777,1.641-14.988,9.039-18.249a16.945,16.945,0,0,1,11.816-.566,13.953,13.953,0,0,1,9.908,9.317,13.8,13.8,0,0,1,.472,8.644M68.783,26.569H82.863c.1-2.82-2.144-5.236-5.377-5.583-5.25-.564-8.005,1.63-8.7,5.583" transform="translate(60.521 13.652)" fill="#1e2b3b"/>
              <path id="Path_4281" data-name="Path 4281" d="M90.537,36.225h14.487v7.935H77.8V37.645c4.918-5.3,9.692-10.452,14.678-15.831H78.7V13.866H105v6.49c-4.795,5.091-9.64,10.232-14.484,15.375l-.53.466.554.028" transform="translate(78.996 14.079)" fill="#1e2b3b"/>
              <path id="Path_4282" data-name="Path 4282" d="M38.357,19.434a10.532,10.532,0,0,1,3.636-4.561c3.073-2.046,6.268-1.6,9.631-.516-.665,2.769-1.3,5.417-1.933,8.037a26.727,26.727,0,0,0-3.612-.883c-3.061-.322-5.448,1.322-6.709,4.295a20.757,20.757,0,0,0-1.352,8.269V44.582H29.495V14.317h8.422v5.091c-.018.276-.038.55-.056.826l.171.056c.107-.286.216-.57.324-.857" transform="translate(29.949 13.649)" fill="#1e2b3b"/>
              <path id="Path_4283" data-name="Path 4283" d="M69.56,56.029H67V53.006c-2.725,2.959-5.756,4.319-9.434,3.277a8.941,8.941,0,0,1-5.375-4.265,9.839,9.839,0,0,1,2.348-12.532,9.347,9.347,0,0,1,12.4,1.431V38.37h2.62Zm-2.59-8.94c.568-3.863-3.384-7.128-7.028-7a7.07,7.07,0,0,0-6.657,7.13c.006,3.6,3.422,7.207,6.885,7.046,3.315-.155,7.177-2.487,6.8-7.173" transform="translate(51.687 38.349)" fill="#1e2b3b"/>
              <path id="Path_4284" data-name="Path 4284" d="M85.25,48.393c.78,4.011,3.636,6.06,6.969,5.893a7.159,7.159,0,0,0,5.687-3.17l2.031.832a8.332,8.332,0,0,1-5.871,4.418,8.941,8.941,0,0,1-11.02-6.949C81.927,43.975,84.472,38.8,90.1,37.9c6.04-.963,10.591,2.42,10.595,8.934V48.2H85.464c-.073.067-.143.131-.214.2m.47-2.376,12.395,0,.2-.2c-.381-3.688-2.983-5.921-7.191-5.687a6.1,6.1,0,0,0-5.645,5.687l.24.2" transform="translate(84.061 38.319)" fill="#1e2b3b"/>
              <path id="Path_4285" data-name="Path 4285" d="M49.647,55.845H47.384V53.264c-.621.572-1.038,1-1.5,1.374a7.082,7.082,0,0,1-7.411,1.282,6.835,6.835,0,0,1-4.549-6.752c-.071-3.69-.016-7.384-.016-11.175H36.42c0,.433,0,.885,0,1.338.014,3.352-.04,6.7.069,10.051a4.921,4.921,0,0,0,5.343,4.67c3.229-.488,5.389-2.106,5.518-5.855.1-2.963.024-5.929.026-8.894V37.971h2.475V55.636l-.2.21" transform="translate(34.414 38.555)" fill="#1e2b3b"/>
              <path id="Path_4286" data-name="Path 4286" d="M65.726,56.059H63.293V38.2h2.382v2.817c2.293-3.1,5.137-3.716,8.432-2.973,2.759.621,4.188,2.525,4.791,5.093a17.945,17.945,0,0,1,.31,3.815c.04,3,.014,6,.014,9.073H76.792V54.679c0-2.92.014-5.843,0-8.763C76.772,43.3,75.3,40.948,73.412,40.4a5.908,5.908,0,0,0-6.9,2.491,5.622,5.622,0,0,0-.717,2.372c-.093,3.09-.058,6.183-.071,9.277,0,.464,0,.929,0,1.518" transform="translate(64.266 38.341)" fill="#1e2b3b"/>
              <path id="Path_4287" data-name="Path 4287" d="M17.2,56.059H14.991V38.181h2.443v2.856c2.269-3.152,5.139-3.73,8.432-2.985,2.691.609,4.1,2.483,4.718,4.994a15.268,15.268,0,0,1,.337,3.42c.042,3.166.014,6.334.014,9.571H28.518c0-.693.012-1.364,0-2.036-.064-3.21.008-6.435-.256-9.631-.2-2.424-1.874-3.857-4.277-4.23-2.078-.324-4.734.784-5.591,2.568a9.122,9.122,0,0,0-.907,3.485c-.135,3.215-.073,6.439-.087,9.658-.067.071-.135.139-.2.21" transform="translate(15.222 38.341)" fill="#1e2b3b"/>
              <path id="Path_4288" data-name="Path 4288" d="M24.873,51.491h2.6c1.689,2.606,3.6,3.394,6.131,2.558,1.981-.653,2.34-1.314,2.154-4-1.155-1.772-3.182-1.667-4.913-2.2-1.584-.494-3.2-.947-4.14-2.487a4.986,4.986,0,0,1,3.944-7.533,11.306,11.306,0,0,1,3.908.339,4.133,4.133,0,0,1,3.09,4.406h-2.07c-.992-2.09-2.052-2.817-3.938-2.693-1.806.121-2.578.814-3.293,2.953.365,1.919,1.868,2.5,3.468,2.94,1.05.29,2.134.474,3.166.816a4.665,4.665,0,0,1,3.43,4.115,4.9,4.9,0,0,1-3.146,5.178,7.435,7.435,0,0,1-8.039-.889c-.961-.764-1.455-2.114-2.356-3.493" transform="translate(25.255 38.355)" fill="#1e2b3b"/>
              <path id="Path_4289" data-name="Path 4289" d="M89.368,40.237,88.1,41.688c-4.621-2.185-8.543-1.961-10.442.629-2.622,3.579-2.37,6.61-.012,9.386,2.443,2.874,5.97,3.68,10.426.734.421.538.848,1.084,1.264,1.616a9.407,9.407,0,0,1-13.191-.3,9.65,9.65,0,0,1,.286-13.63c3.666-3.495,10.581-2.765,12.937.119" transform="translate(74.595 38.356)" fill="#1e2b3b"/>
              <path id="Path_4290" data-name="Path 4290" d="M44.93,38.355h2.293v3c.095.093.189.185.284.28,1.673-3.853,4.581-4.47,8.211-3.436-.135.707-.266,1.389-.413,2.158a7.277,7.277,0,0,1-1.1-.008c-3.394-.566-5.764,1.167-6.461,4.607-.647,3.194-.373,6.413-.453,9.625-.01.459,0,.921,0,1.451H44.93Z" transform="translate(45.621 38.339)" fill="#1e2b3b"/>
              <rect id="Rectangle_666" data-name="Rectangle 666" width="2.362" height="17.657" transform="translate(21.619 76.732)" fill="#1e2b3b"/>
              <path id="Path_4291" data-name="Path 4291" d="M12.15,37.49c-.885-.546-2.078-.891-1.772-2.191a1.822,1.822,0,0,1,2.07-1.5,1.718,1.718,0,0,1,1.739,1.55c.2,1.411-.891,1.753-2.038,2.138" transform="translate(10.488 34.311)" fill="#1e2b3b"/>
              <path id="Path_4292" data-name="Path 4292" d="M34.142,16.428c-.109.286-.218.57-.324.857l-.171-.056c.018-.276.038-.55.056-.826l.439.026" transform="translate(34.163 16.654)" fill="#1e2b3b"/>
              <path id="Path_4293" data-name="Path 4293" d="M84.4,25.209l-.554-.028.53-.466.024.494" transform="translate(85.134 25.095)" fill="#1e2b3b"/>
              <path id="Path_4294" data-name="Path 4294" d="M84.011,43.126l.212-.2-.212.2" transform="translate(85.303 43.588)" fill="#1e2b3b"/>
              <path id="Path_4295" data-name="Path 4295" d="M16.086,46.946c.067-.071.135-.139.2-.21-.067.071-.135.139-.2.21" transform="translate(16.333 47.455)" fill="#1e2b3b"/>
              <path id="Path_4296" data-name="Path 4296" d="M41.71,46.946l.2-.21-.2.21" transform="translate(42.351 47.455)" fill="#1e2b3b"/>
              <path id="Path_4297" data-name="Path 4297" d="M84.125,41.745l.24.2-.24-.2" transform="translate(85.419 42.387)" fill="#1e2b3b"/>
              <path id="Path_4298" data-name="Path 4298" d="M90.393,41.946l.2-.2-.2.2" transform="translate(91.783 42.388)" fill="#1e2b3b"/>
            </g>
          </g>
        </g>
      </g>
    </g>
  </g>
</svg>
