<svg id="Component_226_1" data-name="Component 226 – 1" xmlns="http://www.w3.org/2000/svg" xmlns:xlink="http://www.w3.org/1999/xlink" height="95.303" viewBox="0 0 330.583 95.303" style="width:100%; height:100%">
  <defs>
    <clipPath id="clip-path">
      <rect id="Rectangle_851" data-name="Rectangle 851" width="330.583" height="95.303" fill="none"/>
    </clipPath>
    <clipPath id="clip-path-4">
      <path id="Path_4320" data-name="Path 4320" d="M27.388,44.668A13.464,13.464,0,1,1,40.852,58.132,13.465,13.465,0,0,1,27.388,44.668m-13.029-.8c0,.266-.012.529-.012.8A26.508,26.508,0,1,0,27.39,21.846C27.39,10.467,12.58,6.405,12.177,6.3c3.046,14.219,2.231,34.016,2.182,37.57" transform="translate(-12.177 -6.303)" fill="none"/>
    </clipPath>
    <clipPath id="clip-path-5">
      <path id="Path_4366" data-name="Path 4366" d="M87.663,13.194a26.659,26.659,0,1,0,20.564,43.628s-6.656-9.307-15.54-5.378a12.407,12.407,0,0,1-5.024,1.039,12.63,12.63,0,0,1,0-25.259H93.5c12.532,0,16.868-13.986,17.211-14.937a228.99,228.99,0,0,1-23.051.905" transform="translate(-61.006 -12.287)" fill="none"/>
    </clipPath>
    <clipPath id="clip-path-6">
      <path id="Path_4423" data-name="Path 4423" d="M76.624,12.438a73.993,73.993,0,0,1-14.874,1.2c-1.754,0-3.169-.035-4.106-.055l-.76-.015h-.466a15.925,15.925,0,0,0,0,31.851h7.734a5.493,5.493,0,1,1,0,10.986H51.74c-7.285.157-9.71,9.046-9.809,9.436l-.713,2.707,2.735-.585a74.113,74.113,0,0,1,14.874-1.2c1.756,0,3.169.035,4.108.055l.758.018h.464a15.925,15.925,0,1,0,0-31.849H56.415a5.493,5.493,0,1,1-.429-10.978c.142,0,.286,0,.429,0H68.827c7.285-.155,9.711-9.046,9.81-9.434l.714-2.707Z" transform="translate(-40.494 -11.868)" fill="none"/>
    </clipPath>
    <clipPath id="clip-path-7">
      <path id="Path_4425" data-name="Path 4425" d="M59.209,53.5A15.948,15.948,0,0,0,73.048,40.9c-1.262-9.394-15.6-8.71-15.6-8.71a5.493,5.493,0,1,1,0,10.986H50.806c0,3.457-.015,7.386-.012,10.322Z" transform="translate(-50.794 -32.174)" fill="none"/>
    </clipPath>
    <clipPath id="clip-path-8">
      <rect id="Rectangle_844" data-name="Rectangle 844" width="22.26" height="21.429" fill="none"/>
    </clipPath>
  </defs>
  <g id="Group_1699" data-name="Group 1699" clip-path="url(#clip-path)">
    <g id="Group_1698" data-name="Group 1698" transform="translate(0 0)">
      <g id="Group_1697" data-name="Group 1697" opacity="0.43" clip-path="url(#clip-path)">
        <g id="Group_1696" data-name="Group 1696" transform="translate(0 0)">
          <g id="Group_1695" data-name="Group 1695" transform="translate(0 0)">
            <g id="Group_1694" data-name="Group 1694" clip-path="url(#clip-path)">
              <path id="Path_4299" data-name="Path 4299" d="M27.388,44.666A13.464,13.464,0,1,1,40.852,58.132,13.463,13.463,0,0,1,27.388,44.666m-13.029-.794c0,.264-.013.529-.013.794A26.507,26.507,0,1,0,27.39,21.844C27.39,10.465,12.578,6.405,12.177,6.3c3.044,14.219,2.23,34.016,2.182,37.57" transform="translate(7.934 4.107)" fill="#1e2b3b"/>
              <g id="Group_1684" data-name="Group 1684" transform="translate(20.111 10.41)">
                <g id="Group_1683" data-name="Group 1683" clip-path="url(#clip-path-4)">
                  <path id="Path_4300" data-name="Path 4300" d="M57.945,29.734l-.479.479.479.481Z" transform="translate(17.333 8.964)" fill="#1e2b3b"/>
                  <path id="Path_4301" data-name="Path 4301" d="M60.6,30.5l-.479-.479-6.734,6.743,6.734,6.745.479-.479Z" transform="translate(14.676 9.153)" fill="#1e2b3b"/>
                  <rect id="Rectangle_670" data-name="Rectangle 670" width="9.539" height="9.539" transform="matrix(0.707, -0.707, 0.707, 0.707, 61.307, 52.668)" fill="#1e2b3b"/>
                  <rect id="Rectangle_671" data-name="Rectangle 671" width="9.539" height="9.539" transform="translate(54.562 59.41) rotate(-45)" fill="#1e2b3b"/>
                  <rect id="Rectangle_672" data-name="Rectangle 672" width="9.537" height="9.537" transform="translate(47.82 66.153) rotate(-45)" fill="#1e2b3b"/>
                  <rect id="Rectangle_673" data-name="Rectangle 673" width="9.538" height="9.538" transform="matrix(0.707, -0.707, 0.707, 0.707, 41.075, 72.9)" fill="#1e2b3b"/>
                  <path id="Path_4302" data-name="Path 4302" d="M57.945,21.572l-.479.479.479.481Z" transform="translate(17.333 3.646)" fill="#1e2b3b"/>
                  <path id="Path_4303" data-name="Path 4303" d="M60.6,22.336l-.479-.479L53.388,28.6l6.734,6.743.479-.479Z" transform="translate(14.676 3.832)" fill="#1e2b3b"/>
                  <rect id="Rectangle_674" data-name="Rectangle 674" width="9.536" height="9.536" transform="matrix(0.707, -0.707, 0.707, 0.707, 61.309, 39.178)" fill="#1e2b3b"/>
                  <rect id="Rectangle_675" data-name="Rectangle 675" width="9.539" height="9.539" transform="translate(54.564 45.921) rotate(-45)" fill="#1e2b3b"/>
                  <rect id="Rectangle_676" data-name="Rectangle 676" width="9.537" height="9.537" transform="translate(47.818 52.665) rotate(-45)" fill="#1e2b3b"/>
                  <rect id="Rectangle_677" data-name="Rectangle 677" width="9.539" height="9.539" transform="translate(41.075 59.41) rotate(-45)" fill="#1e2b3b"/>
                  <rect id="Rectangle_678" data-name="Rectangle 678" width="9.539" height="9.539" transform="translate(34.33 66.155) rotate(-45)" fill="#1e2b3b"/>
                  <rect id="Rectangle_679" data-name="Rectangle 679" width="9.537" height="9.537" transform="translate(27.586 72.9) rotate(-45)" fill="#1e2b3b"/>
                  <path id="Path_4304" data-name="Path 4304" d="M60.6,14.169l-.479-.479-6.734,6.747,6.734,6.732.479-.481Z" transform="translate(14.676 -1.49)" fill="#1e2b3b"/>
                  <rect id="Rectangle_680" data-name="Rectangle 680" width="9.536" height="9.536" transform="matrix(0.707, -0.707, 0.707, 0.707, 61.309, 25.689)" fill="#1e2b3b"/>
                  <rect id="Rectangle_681" data-name="Rectangle 681" width="9.538" height="9.538" transform="translate(54.562 32.433) rotate(-45.007)" fill="#1e2b3b"/>
                  <rect id="Rectangle_682" data-name="Rectangle 682" width="9.537" height="9.537" transform="translate(47.818 39.176) rotate(-45)" fill="#1e2b3b"/>
                  <rect id="Rectangle_683" data-name="Rectangle 683" width="9.537" height="9.537" transform="translate(41.075 45.921) rotate(-45)" fill="#1e2b3b"/>
                  <rect id="Rectangle_684" data-name="Rectangle 684" width="9.538" height="9.538" transform="matrix(0.707, -0.707, 0.707, 0.707, 34.33, 52.665)" fill="#1e2b3b"/>
                  <rect id="Rectangle_685" data-name="Rectangle 685" width="9.537" height="9.537" transform="translate(27.586 59.41) rotate(-45)" fill="#1e2b3b"/>
                  <rect id="Rectangle_686" data-name="Rectangle 686" width="9.537" height="9.537" transform="translate(20.843 66.155) rotate(-45)" fill="#1e2b3b"/>
                  <rect id="Rectangle_687" data-name="Rectangle 687" width="9.538" height="9.538" transform="matrix(0.707, -0.707, 0.707, 0.707, 14.098, 72.9)" fill="#1e2b3b"/>
                  <rect id="Rectangle_688" data-name="Rectangle 688" width="9.538" height="9.538" transform="matrix(0.707, -0.707, 0.707, 0.707, 61.307, 12.201)" fill="#1e2b3b"/>
                  <rect id="Rectangle_689" data-name="Rectangle 689" width="9.539" height="9.539" transform="translate(54.564 18.944) rotate(-45)" fill="#1e2b3b"/>
                  <rect id="Rectangle_690" data-name="Rectangle 690" width="9.537" height="9.537" transform="translate(47.818 25.687) rotate(-45)" fill="#1e2b3b"/>
                  <rect id="Rectangle_691" data-name="Rectangle 691" width="9.538" height="9.538" transform="translate(41.075 32.433) rotate(-45.007)" fill="#1e2b3b"/>
                  <rect id="Rectangle_692" data-name="Rectangle 692" width="9.538" height="9.538" transform="matrix(0.707, -0.707, 0.707, 0.707, 34.33, 39.176)" fill="#1e2b3b"/>
                  <rect id="Rectangle_693" data-name="Rectangle 693" width="9.537" height="9.537" transform="translate(27.586 45.921) rotate(-45)" fill="#1e2b3b"/>
                  <rect id="Rectangle_694" data-name="Rectangle 694" width="9.538" height="9.538" transform="matrix(0.707, -0.707, 0.707, 0.707, 20.841, 52.665)" fill="#1e2b3b"/>
                  <rect id="Rectangle_695" data-name="Rectangle 695" width="9.539" height="9.539" transform="translate(14.098 59.41) rotate(-45)" fill="#1e2b3b"/>
                  <rect id="Rectangle_696" data-name="Rectangle 696" width="9.537" height="9.537" transform="translate(7.353 66.155) rotate(-45)" fill="#1e2b3b"/>
                  <rect id="Rectangle_697" data-name="Rectangle 697" width="9.537" height="9.537" transform="translate(0.609 72.9) rotate(-45)" fill="#1e2b3b"/>
                  <rect id="Rectangle_698" data-name="Rectangle 698" width="9.539" height="9.539" transform="translate(54.564 5.455) rotate(-45)" fill="#1e2b3b"/>
                  <rect id="Rectangle_699" data-name="Rectangle 699" width="9.537" height="9.537" transform="translate(47.818 12.199) rotate(-45)" fill="#1e2b3b"/>
                  <rect id="Rectangle_700" data-name="Rectangle 700" width="9.539" height="9.539" transform="translate(41.075 18.944) rotate(-45)" fill="#1e2b3b"/>
                  <rect id="Rectangle_701" data-name="Rectangle 701" width="9.539" height="9.539" transform="translate(34.33 25.689) rotate(-45)" fill="#1e2b3b"/>
                  <rect id="Rectangle_702" data-name="Rectangle 702" width="9.537" height="9.537" transform="translate(27.586 32.431) rotate(-45)" fill="#1e2b3b"/>
                  <rect id="Rectangle_703" data-name="Rectangle 703" width="9.539" height="9.539" transform="translate(20.841 39.176) rotate(-45)" fill="#1e2b3b"/>
                  <rect id="Rectangle_704" data-name="Rectangle 704" width="9.537" height="9.537" transform="translate(14.098 45.921) rotate(-45)" fill="#1e2b3b"/>
                  <rect id="Rectangle_705" data-name="Rectangle 705" width="9.538" height="9.538" transform="matrix(0.707, -0.707, 0.707, 0.707, 7.353, 52.665)" fill="#1e2b3b"/>
                  <rect id="Rectangle_706" data-name="Rectangle 706" width="9.539" height="9.539" transform="translate(0.609 59.41) rotate(-45)" fill="#1e2b3b"/>
                  <rect id="Rectangle_707" data-name="Rectangle 707" width="9.537" height="9.537" transform="translate(-6.136 66.155) rotate(-45)" fill="#1e2b3b"/>
                  <rect id="Rectangle_708" data-name="Rectangle 708" width="9.537" height="9.537" transform="translate(47.818 -1.29) rotate(-45)" fill="#1e2b3b"/>
                  <rect id="Rectangle_709" data-name="Rectangle 709" width="9.539" height="9.539" transform="translate(41.075 5.455) rotate(-45)" fill="#1e2b3b"/>
                  <rect id="Rectangle_710" data-name="Rectangle 710" width="9.539" height="9.539" transform="translate(34.33 12.199) rotate(-45)" fill="#1e2b3b"/>
                  <rect id="Rectangle_711" data-name="Rectangle 711" width="9.537" height="9.537" transform="translate(27.586 18.942) rotate(-45)" fill="#1e2b3b"/>
                  <rect id="Rectangle_712" data-name="Rectangle 712" width="9.539" height="9.539" transform="translate(20.841 25.689) rotate(-45)" fill="#1e2b3b"/>
                  <rect id="Rectangle_713" data-name="Rectangle 713" width="9.538" height="9.538" transform="translate(14.098 32.433) rotate(-45.007)" fill="#1e2b3b"/>
                  <rect id="Rectangle_714" data-name="Rectangle 714" width="9.538" height="9.538" transform="matrix(0.707, -0.707, 0.707, 0.707, 7.353, 39.176)" fill="#1e2b3b"/>
                  <path id="Path_4305" data-name="Path 4305" d="M18.686,30.024l-5.212,5.209V38.3l5.211,5.211,6.743-6.743Z" transform="translate(-11.332 9.154)" fill="#1e2b3b"/>
                  <path id="Path_4306" data-name="Path 4306" d="M16.738,35.036v3.222H10.447L8.462,40.246l6.745,6.745,6.743-6.745Z" transform="translate(-14.598 12.419)" fill="#1e2b3b"/>
                  <rect id="Rectangle_715" data-name="Rectangle 715" width="9.539" height="9.539" transform="translate(-12.881 59.41) rotate(-45)" fill="#1e2b3b"/>
                  <rect id="Rectangle_716" data-name="Rectangle 716" width="9.539" height="9.539" transform="translate(34.33 -1.29) rotate(-45)" fill="#1e2b3b"/>
                  <rect id="Rectangle_717" data-name="Rectangle 717" width="9.537" height="9.537" transform="translate(-12.881 72.9) rotate(-45)" fill="#1e2b3b"/>
                  <rect id="Rectangle_718" data-name="Rectangle 718" width="9.537" height="9.537" transform="translate(27.586 5.455) rotate(-45)" fill="#1e2b3b"/>
                  <rect id="Rectangle_719" data-name="Rectangle 719" width="9.539" height="9.539" transform="translate(20.841 12.199) rotate(-45)" fill="#1e2b3b"/>
                  <rect id="Rectangle_720" data-name="Rectangle 720" width="9.539" height="9.539" transform="translate(14.098 18.944) rotate(-45)" fill="#1e2b3b"/>
                  <rect id="Rectangle_721" data-name="Rectangle 721" width="9.539" height="9.539" transform="translate(7.353 25.689) rotate(-45)" fill="#1e2b3b"/>
                  <path id="Path_4307" data-name="Path 4307" d="M18.645,21.857l-5.11,5.11v3.267l5.11,5.113L25.39,28.6Z" transform="translate(-11.292 3.832)" fill="#1e2b3b"/>
                  <path id="Path_4308" data-name="Path 4308" d="M13.575,26.93v1.3h-.1V37.25l5.211-5.211Z" transform="translate(-11.332 7.138)" fill="#1e2b3b"/>
                  <rect id="Rectangle_722" data-name="Rectangle 722" width="9.539" height="9.539" transform="translate(20.841 -1.29) rotate(-45)" fill="#1e2b3b"/>
                  <rect id="Rectangle_723" data-name="Rectangle 723" width="9.539" height="9.539" transform="translate(14.098 5.455) rotate(-45)" fill="#1e2b3b"/>
                  <rect id="Rectangle_724" data-name="Rectangle 724" width="9.539" height="9.539" transform="translate(7.353 12.199) rotate(-45)" fill="#1e2b3b"/>
                  <path id="Path_4309" data-name="Path 4309" d="M18.645,13.689l-5.11,5.11v3.27l5.11,5.107,6.745-6.743Z" transform="translate(-11.292 -1.49)" fill="#1e2b3b"/>
                  <path id="Path_4310" data-name="Path 4310" d="M13.535,18.763V28.981l5.11-5.108Z" transform="translate(-11.292 1.816)" fill="#1e2b3b"/>
                  <rect id="Rectangle_725" data-name="Rectangle 725" width="9.539" height="9.539" transform="translate(7.353 -1.29) rotate(-45)" fill="#1e2b3b"/>
                  <path id="Path_4311" data-name="Path 4311" d="M18.645,5.523l-5.11,5.11V13.9l5.11,5.11,6.745-6.743Z" transform="translate(-11.292 -6.811)" fill="#1e2b3b"/>
                  <path id="Path_4312" data-name="Path 4312" d="M13.535,10.6v10.22l5.11-5.11Z" transform="translate(-11.292 -3.506)" fill="#1e2b3b"/>
                  <path id="Path_4313" data-name="Path 4313" d="M13.535,2.428v10.22l5.11-5.11Z" transform="translate(-11.292 -8.828)" fill="#1e2b3b"/>
                  <path id="Path_4314" data-name="Path 4314" d="M57.955,46.033l-.507.505.507.507Z" transform="translate(17.321 19.585)" fill="#1e2b3b"/>
                  <path id="Path_4315" data-name="Path 4315" d="M60.616,46.847l-.507-.507-6.745,6.745,6.747,6.745.507-.507Z" transform="translate(14.66 19.785)" fill="#1e2b3b"/>
                  <path id="Path_4316" data-name="Path 4316" d="M57.955,37.867l-.507.509.507.507Z" transform="translate(17.321 14.264)" fill="#1e2b3b"/>
                  <path id="Path_4317" data-name="Path 4317" d="M60.617,38.682l-.507-.509-6.747,6.745,6.747,6.743.507-.507Z" transform="translate(14.659 14.463)" fill="#1e2b3b"/>
                  <rect id="Rectangle_726" data-name="Rectangle 726" width="9.539" height="9.539" transform="translate(61.28 66.125) rotate(-45)" fill="#1e2b3b"/>
                  <rect id="Rectangle_727" data-name="Rectangle 727" width="9.539" height="9.539" transform="translate(54.537 72.872) rotate(-45)" fill="#1e2b3b"/>
                  <path id="Path_4318" data-name="Path 4318" d="M57.945,13.4l-.479.479.479.481Z" transform="translate(17.333 -1.677)" fill="#1e2b3b"/>
                  <path id="Path_4319" data-name="Path 4319" d="M60.6,6l-.479-.479-6.734,6.743,6.734,6.745.479-.479Z" transform="translate(14.676 -6.811)" fill="#1e2b3b"/>
                  <rect id="Rectangle_728" data-name="Rectangle 728" width="9.539" height="9.539" transform="translate(61.309 -1.29) rotate(-45)" fill="#1e2b3b"/>
                </g>
              </g>
              <path id="Path_4321" data-name="Path 4321" d="M87.662,13.194a26.659,26.659,0,1,0,20.564,43.628s-6.656-9.307-15.54-5.378a12.4,12.4,0,0,1-5.024,1.039,12.63,12.63,0,1,1,0-25.259H93.5c12.532,0,16.868-13.986,17.211-14.937a228.971,228.971,0,0,1-23.051.905" transform="translate(39.752 8.006)" fill="#1e2b3b"/>
              <g id="Group_1686" data-name="Group 1686" transform="translate(100.757 20.293)">
                <g id="Group_1685" data-name="Group 1685" clip-path="url(#clip-path-5)">
                  <path id="Path_4322" data-name="Path 4322" d="M106.13,32.515l-.479.479.479.482Z" transform="translate(-31.916 0.893)" fill="#1e2b3b"/>
                  <path id="Path_4323" data-name="Path 4323" d="M108.8,33.288l-.479-.482-6.775,6.778,6.775,6.775.479-.482Z" transform="translate(-34.588 1.083)" fill="#1e2b3b"/>
                  <rect id="Rectangle_729" data-name="Rectangle 729" width="9.577" height="9.577" transform="translate(60.186 47.44) rotate(-45)" fill="#1e2b3b"/>
                  <rect id="Rectangle_730" data-name="Rectangle 730" width="9.577" height="9.577" transform="translate(53.414 54.212) rotate(-45)" fill="#1e2b3b"/>
                  <rect id="Rectangle_731" data-name="Rectangle 731" width="9.577" height="9.577" transform="translate(46.64 60.984) rotate(-45)" fill="#1e2b3b"/>
                  <path id="Path_4324" data-name="Path 4324" d="M106.13,24.313l-.479.479.479.482Z" transform="translate(-31.916 -4.451)" fill="#1e2b3b"/>
                  <path id="Path_4325" data-name="Path 4325" d="M108.8,25.085l-.479-.479-6.775,6.772,6.775,6.775.479-.482Z" transform="translate(-34.588 -4.26)" fill="#1e2b3b"/>
                  <rect id="Rectangle_732" data-name="Rectangle 732" width="9.579" height="9.579" transform="translate(60.186 33.892) rotate(-45)" fill="#1e2b3b"/>
                  <rect id="Rectangle_733" data-name="Rectangle 733" width="9.579" height="9.579" transform="translate(53.412 40.666) rotate(-45)" fill="#1e2b3b"/>
                  <rect id="Rectangle_734" data-name="Rectangle 734" width="9.577" height="9.577" transform="translate(46.64 47.44) rotate(-45)" fill="#1e2b3b"/>
                  <rect id="Rectangle_735" data-name="Rectangle 735" width="9.577" height="9.577" transform="translate(39.868 54.212) rotate(-45)" fill="#1e2b3b"/>
                  <rect id="Rectangle_736" data-name="Rectangle 736" width="9.577" height="9.577" transform="translate(33.094 60.984) rotate(-45)" fill="#1e2b3b"/>
                  <path id="Path_4326" data-name="Path 4326" d="M108.8,16.883l-.479-.482-6.775,6.775,6.775,6.775.479-.482Z" transform="translate(-34.588 -9.606)" fill="#1e2b3b"/>
                  <rect id="Rectangle_737" data-name="Rectangle 737" width="9.577" height="9.577" transform="translate(60.186 20.343) rotate(-45)" fill="#1e2b3b"/>
                  <rect id="Rectangle_738" data-name="Rectangle 738" width="9.577" height="9.577" transform="translate(53.414 27.116) rotate(-45)" fill="#1e2b3b"/>
                  <rect id="Rectangle_739" data-name="Rectangle 739" width="9.579" height="9.579" transform="translate(46.64 33.892) rotate(-45)" fill="#1e2b3b"/>
                  <rect id="Rectangle_740" data-name="Rectangle 740" width="9.579" height="9.579" transform="translate(39.866 40.666) rotate(-45)" fill="#1e2b3b"/>
                  <rect id="Rectangle_741" data-name="Rectangle 741" width="9.577" height="9.577" transform="translate(33.094 47.438) rotate(-45)" fill="#1e2b3b"/>
                  <rect id="Rectangle_742" data-name="Rectangle 742" width="9.578" height="9.578" transform="translate(26.322 54.212) rotate(-45.007)" fill="#1e2b3b"/>
                  <rect id="Rectangle_743" data-name="Rectangle 743" width="9.578" height="9.578" transform="translate(19.55 60.986) rotate(-45.007)" fill="#1e2b3b"/>
                  <rect id="Rectangle_744" data-name="Rectangle 744" width="9.577" height="9.577" transform="translate(60.186 6.797) rotate(-45)" fill="#1e2b3b"/>
                  <rect id="Rectangle_745" data-name="Rectangle 745" width="9.577" height="9.577" transform="translate(53.414 13.569) rotate(-45)" fill="#1e2b3b"/>
                  <rect id="Rectangle_746" data-name="Rectangle 746" width="9.577" height="9.577" transform="translate(46.64 20.343) rotate(-45)" fill="#1e2b3b"/>
                  <rect id="Rectangle_747" data-name="Rectangle 747" width="9.577" height="9.577" transform="translate(39.868 27.116) rotate(-45)" fill="#1e2b3b"/>
                  <rect id="Rectangle_748" data-name="Rectangle 748" width="9.579" height="9.579" transform="translate(33.094 33.892) rotate(-45)" fill="#1e2b3b"/>
                  <rect id="Rectangle_749" data-name="Rectangle 749" width="9.58" height="9.58" transform="matrix(0.707, -0.707, 0.707, 0.707, 26.32, 40.666)" fill="#1e2b3b"/>
                  <rect id="Rectangle_750" data-name="Rectangle 750" width="9.579" height="9.579" transform="translate(19.55 47.44) rotate(-45)" fill="#1e2b3b"/>
                  <rect id="Rectangle_751" data-name="Rectangle 751" width="9.577" height="9.577" transform="translate(12.778 54.212) rotate(-45)" fill="#1e2b3b"/>
                  <rect id="Rectangle_752" data-name="Rectangle 752" width="9.578" height="9.578" transform="translate(6.004 60.986) rotate(-45.007)" fill="#1e2b3b"/>
                  <path id="Path_4327" data-name="Path 4327" d="M99.884,8.2l-6.175,6.175v1.194l6.175,6.175,6.775-6.775Z" transform="translate(-39.697 -14.949)" fill="#1e2b3b"/>
                  <path id="Path_4328" data-name="Path 4328" d="M96.614,12.664v.225H95.192l-5.941,5.951,6.773,6.773,6.773-6.773Z" transform="translate(-42.602 -12.041)" fill="#1e2b3b"/>
                  <rect id="Rectangle_753" data-name="Rectangle 753" width="9.577" height="9.577" transform="translate(39.868 13.569) rotate(-45)" fill="#1e2b3b"/>
                  <rect id="Rectangle_754" data-name="Rectangle 754" width="9.577" height="9.577" transform="translate(33.094 20.343) rotate(-45)" fill="#1e2b3b"/>
                  <rect id="Rectangle_755" data-name="Rectangle 755" width="9.577" height="9.577" transform="translate(26.322 27.116) rotate(-45)" fill="#1e2b3b"/>
                  <rect id="Rectangle_756" data-name="Rectangle 756" width="9.58" height="9.58" transform="matrix(0.707, -0.707, 0.707, 0.707, 19.548, 33.894)" fill="#1e2b3b"/>
                  <rect id="Rectangle_757" data-name="Rectangle 757" width="9.579" height="9.579" transform="translate(12.776 40.666) rotate(-45)" fill="#1e2b3b"/>
                  <rect id="Rectangle_758" data-name="Rectangle 758" width="9.579" height="9.579" transform="translate(6.004 47.44) rotate(-45)" fill="#1e2b3b"/>
                  <rect id="Rectangle_759" data-name="Rectangle 759" width="9.578" height="9.578" transform="matrix(0.707, -0.707, 0.707, 0.707, -0.768, 54.212)" fill="#1e2b3b"/>
                  <rect id="Rectangle_760" data-name="Rectangle 760" width="9.577" height="9.577" transform="translate(-7.543 60.984) rotate(-45)" fill="#1e2b3b"/>
                  <path id="Path_4329" data-name="Path 4329" d="M98.221,12.223H95.979v4.826l6.175-6.177L95.393,4.1,90.207,9.285h8.012Z" transform="translate(-41.979 -17.621)" fill="#1e2b3b"/>
                  <path id="Path_4330" data-name="Path 4330" d="M85.645,12.8l5.949,5.949L97.544,12.8Z" transform="translate(-44.952 -11.953)" fill="#1e2b3b"/>
                  <path id="Path_4331" data-name="Path 4331" d="M86.993,12.8l-5.949,5.949,6.773,6.773,6.775-6.773L88.643,12.8Z" transform="translate(-47.949 -11.953)" fill="#1e2b3b"/>
                  <rect id="Rectangle_761" data-name="Rectangle 761" width="9.578" height="9.578" transform="matrix(0.707, -0.707, 0.707, 0.707, 26.322, 13.571)" fill="#1e2b3b"/>
                  <rect id="Rectangle_762" data-name="Rectangle 762" width="9.578" height="9.578" transform="translate(19.55 20.343) rotate(-45.007)" fill="#1e2b3b"/>
                  <rect id="Rectangle_763" data-name="Rectangle 763" width="9.577" height="9.577" transform="translate(12.778 27.116) rotate(-45)" fill="#1e2b3b"/>
                  <rect id="Rectangle_764" data-name="Rectangle 764" width="9.58" height="9.58" transform="matrix(0.707, -0.707, 0.707, 0.707, 6.004, 33.892)" fill="#1e2b3b"/>
                  <rect id="Rectangle_765" data-name="Rectangle 765" width="9.579" height="9.579" transform="translate(-0.771 40.666) rotate(-45)" fill="#1e2b3b"/>
                  <rect id="Rectangle_766" data-name="Rectangle 766" width="9.576" height="9.579" transform="translate(-7.543 47.438) rotate(-45)" fill="#1e2b3b"/>
                  <rect id="Rectangle_767" data-name="Rectangle 767" width="9.577" height="9.577" transform="translate(-14.315 54.212) rotate(-45)" fill="#1e2b3b"/>
                  <path id="Path_4332" data-name="Path 4332" d="M93.509,11.956,98.69,6.775,91.918,0,85.143,6.775l5.194,5.181Z" transform="translate(-45.278 -20.293)" fill="#1e2b3b"/>
                  <path id="Path_4333" data-name="Path 4333" d="M92.374,9.284,87.193,4.1,82.007,9.284Z" transform="translate(-47.322 -17.622)" fill="#1e2b3b"/>
                  <path id="Path_4334" data-name="Path 4334" d="M77.443,12.8l5.947,5.949L89.331,12.8Z" transform="translate(-50.296 -11.953)" fill="#1e2b3b"/>
                  <rect id="Rectangle_768" data-name="Rectangle 768" width="9.577" height="9.577" transform="translate(-21.089 60.986) rotate(-45)" fill="#1e2b3b"/>
                  <path id="Path_4335" data-name="Path 4335" d="M78.792,12.8l-5.949,5.949,6.773,6.773,6.773-6.773L80.439,12.8Z" transform="translate(-53.293 -11.953)" fill="#1e2b3b"/>
                  <path id="Path_4336" data-name="Path 4336" d="M48.426,41.011l-.479.479V54.075l.479.481L55.2,47.781Z" transform="translate(-69.515 6.429)" fill="#1e2b3b"/>
                  <rect id="Rectangle_769" data-name="Rectangle 769" width="9.577" height="9.577" transform="translate(12.778 13.569) rotate(-45)" fill="#1e2b3b"/>
                  <rect id="Rectangle_770" data-name="Rectangle 770" width="9.578" height="9.578" transform="translate(6.004 20.343) rotate(-45.007)" fill="#1e2b3b"/>
                  <rect id="Rectangle_771" data-name="Rectangle 771" width="9.577" height="9.577" transform="translate(-0.771 27.116) rotate(-45)" fill="#1e2b3b"/>
                  <rect id="Rectangle_772" data-name="Rectangle 772" width="9.579" height="9.579" transform="translate(-7.543 33.892) rotate(-45)" fill="#1e2b3b"/>
                  <rect id="Rectangle_773" data-name="Rectangle 773" width="9.579" height="9.579" transform="translate(-14.317 40.664) rotate(-45)" fill="#1e2b3b"/>
                  <rect id="Rectangle_774" data-name="Rectangle 774" width="9.579" height="9.576" transform="translate(-21.089 47.44) rotate(-45)" fill="#1e2b3b"/>
                  <path id="Path_4337" data-name="Path 4337" d="M85.308,11.956l5.181-5.181L83.718,0,76.94,6.771l5.181,5.183Z" transform="translate(-50.624 -20.293)" fill="#1e2b3b"/>
                  <path id="Path_4338" data-name="Path 4338" d="M84.171,9.284,78.99,4.1,73.807,9.284Z" transform="translate(-52.665 -17.622)" fill="#1e2b3b"/>
                  <path id="Path_4339" data-name="Path 4339" d="M78.042,15.265v-5.07L76.866,9.017h-2.7l-5.422,5.424,6.772,6.773,5.949-5.949Z" transform="translate(-55.965 -14.418)" fill="#1e2b3b"/>
                  <rect id="Rectangle_775" data-name="Rectangle 775" width="9.578" height="9.578" transform="matrix(0.707, -0.707, 0.707, 0.707, 6.004, 6.797)" fill="#1e2b3b"/>
                  <rect id="Rectangle_776" data-name="Rectangle 776" width="9.577" height="9.577" transform="translate(-0.771 13.569) rotate(-45)" fill="#1e2b3b"/>
                  <rect id="Rectangle_777" data-name="Rectangle 777" width="9.577" height="9.577" transform="translate(-7.543 20.343) rotate(-45)" fill="#1e2b3b"/>
                  <rect id="Rectangle_778" data-name="Rectangle 778" width="9.577" height="9.577" transform="translate(-14.315 27.116) rotate(-45)" fill="#1e2b3b"/>
                  <rect id="Rectangle_779" data-name="Rectangle 779" width="9.581" height="9.581" transform="matrix(0.707, -0.707, 0.707, 0.707, -21.089, 33.892)" fill="#1e2b3b"/>
                  <path id="Path_4340" data-name="Path 4340" d="M48.426,32.806l-.479.482V45.875l.479.481L55.2,39.583Z" transform="translate(-69.515 1.083)" fill="#1e2b3b"/>
                  <path id="Path_4341" data-name="Path 4341" d="M77.105,11.956l5.181-5.181L75.515,0,68.74,6.775l5.184,5.181Z" transform="translate(-55.967 -20.293)" fill="#1e2b3b"/>
                  <path id="Path_4342" data-name="Path 4342" d="M65.459,9.018l5.424,5.424,5.432-5.424Z" transform="translate(-58.105 -14.417)" fill="#1e2b3b"/>
                  <path id="Path_4343" data-name="Path 4343" d="M75.976,9.284,70.788,4.1,65.6,9.284Z" transform="translate(-58.01 -17.622)" fill="#1e2b3b"/>
                  <path id="Path_4344" data-name="Path 4344" d="M65.963,9.018l-5.424,5.424,6.772,6.772,6.775-6.772L68.662,9.018Z" transform="translate(-61.31 -14.417)" fill="#1e2b3b"/>
                  <rect id="Rectangle_780" data-name="Rectangle 780" width="9.577" height="9.577" transform="translate(-7.543 6.797) rotate(-45)" fill="#1e2b3b"/>
                  <rect id="Rectangle_781" data-name="Rectangle 781" width="9.577" height="9.577" transform="translate(-14.315 13.569) rotate(-45)" fill="#1e2b3b"/>
                  <rect id="Rectangle_782" data-name="Rectangle 782" width="9.577" height="9.577" transform="translate(-21.089 20.343) rotate(-45)" fill="#1e2b3b"/>
                  <path id="Path_4345" data-name="Path 4345" d="M48.426,24.6l-.479.482v12.58l.479.482L55.2,31.376Z" transform="translate(-69.515 -4.261)" fill="#1e2b3b"/>
                  <path id="Path_4346" data-name="Path 4346" d="M47.945,32.515v.963L48.424,33Z" transform="translate(-69.516 0.893)" fill="#1e2b3b"/>
                  <path id="Path_4347" data-name="Path 4347" d="M68.906,11.956l5.181-5.181L67.315,0,60.54,6.775l5.184,5.181Z" transform="translate(-61.309 -20.293)" fill="#1e2b3b"/>
                  <path id="Path_4348" data-name="Path 4348" d="M67.767,9.284,62.575,4.1,57.4,9.284Z" transform="translate(-63.354 -17.622)" fill="#1e2b3b"/>
                  <path id="Path_4349" data-name="Path 4349" d="M57.257,9.018l5.424,5.424L68.1,9.018Z" transform="translate(-63.449 -14.417)" fill="#1e2b3b"/>
                  <path id="Path_4350" data-name="Path 4350" d="M57.762,9.018l-5.424,5.424,6.775,6.772,6.772-6.772L60.461,9.018Z" transform="translate(-66.654 -14.417)" fill="#1e2b3b"/>
                  <rect id="Rectangle_783" data-name="Rectangle 783" width="9.577" height="9.577" transform="translate(-21.089 6.797) rotate(-45)" fill="#1e2b3b"/>
                  <path id="Path_4351" data-name="Path 4351" d="M48.426,16.4l-.479.482V29.467l.479.481L55.2,23.174Z" transform="translate(-69.515 -9.605)" fill="#1e2b3b"/>
                  <path id="Path_4352" data-name="Path 4352" d="M47.945,24.314v.963l.479-.481Z" transform="translate(-69.516 -4.45)" fill="#1e2b3b"/>
                  <path id="Path_4353" data-name="Path 4353" d="M60.7,11.955l5.181-5.181L59.11,0l-6.77,6.77,5.181,5.184Z" transform="translate(-66.652 -20.293)" fill="#1e2b3b"/>
                  <path id="Path_4354" data-name="Path 4354" d="M59.565,9.284,54.384,4.1,49.2,9.284Z" transform="translate(-68.698 -17.622)" fill="#1e2b3b"/>
                  <path id="Path_4355" data-name="Path 4355" d="M49.055,9.018l5.424,5.424L59.9,9.018Z" transform="translate(-68.793 -14.417)" fill="#1e2b3b"/>
                  <path id="Path_4356" data-name="Path 4356" d="M47.945,9.019V20.732l.482.482L55.2,14.441,49.775,9.017Z" transform="translate(-69.516 -14.417)" fill="#1e2b3b"/>
                  <path id="Path_4357" data-name="Path 4357" d="M47.945,16.111v.966l.482-.482Z" transform="translate(-69.516 -9.795)" fill="#1e2b3b"/>
                  <path id="Path_4358" data-name="Path 4358" d="M50.019,11.956,55.2,6.771,48.429,0l-.482.482V11.956Z" transform="translate(-69.516 -20.293)" fill="#1e2b3b"/>
                  <path id="Path_4359" data-name="Path 4359" d="M47.945,40.719v.961l.479-.479Z" transform="translate(-69.516 6.239)" fill="#1e2b3b"/>
                  <path id="Path_4360" data-name="Path 4360" d="M106.142,40.685l-.509.509.509.51Z" transform="translate(-31.927 6.217)" fill="#1e2b3b"/>
                  <path id="Path_4361" data-name="Path 4361" d="M108.815,41.5,108.306,41l-6.775,6.773,6.775,6.775.509-.509Z" transform="translate(-34.6 6.419)" fill="#1e2b3b"/>
                  <rect id="Rectangle_784" data-name="Rectangle 784" width="9.577" height="9.577" transform="translate(60.159 60.957) rotate(-45)" fill="#1e2b3b"/>
                  <path id="Path_4362" data-name="Path 4362" d="M106.13,16.111l-.479.479.479.482Z" transform="translate(-31.916 -9.795)" fill="#1e2b3b"/>
                  <path id="Path_4363" data-name="Path 4363" d="M106.13,7.909l-.479.479.479.482Z" transform="translate(-31.916 -15.14)" fill="#1e2b3b"/>
                  <path id="Path_4364" data-name="Path 4364" d="M108.8,8.683l-.479-.479-6.775,6.772,6.775,6.772.479-.479Z" transform="translate(-34.588 -14.948)" fill="#1e2b3b"/>
                  <path id="Path_4365" data-name="Path 4365" d="M108.8.481,108.324,0l-6.775,6.772,6.775,6.775.479-.482Z" transform="translate(-34.588 -20.292)" fill="#1e2b3b"/>
                  <rect id="Rectangle_785" data-name="Rectangle 785" width="9.577" height="9.577" transform="translate(60.186 -6.749) rotate(-45)" fill="#1e2b3b"/>
                  <rect id="Rectangle_786" data-name="Rectangle 786" width="9.577" height="9.577" transform="translate(53.414 -13.521) rotate(-45)" fill="#1e2b3b"/>
                </g>
              </g>
              <path id="Path_4367" data-name="Path 4367" d="M76.624,12.438a74.235,74.235,0,0,1-14.874,1.2c-1.754,0-3.169-.035-4.106-.056l-.76-.013H56.42a15.925,15.925,0,1,0,0,31.851h7.733a5.492,5.492,0,1,1,0,10.985H51.741c-7.287.159-9.711,9.047-9.81,9.436l-.713,2.709,2.735-.585a73.993,73.993,0,0,1,14.874-1.2c1.756,0,3.169.033,4.108.055l.758.017h.466a15.925,15.925,0,0,0,0-31.849H56.415a5.492,5.492,0,0,1-.429-10.976c.142-.007.286-.007.429,0H68.827c7.285-.155,9.711-9.046,9.81-9.434l.714-2.707Z" transform="translate(26.386 7.733)" fill="#1e2b3b"/>
              <g id="Group_1688" data-name="Group 1688" transform="translate(66.88 19.601)">
                <g id="Group_1687" data-name="Group 1687" clip-path="url(#clip-path-6)">
                  <path id="Path_4368" data-name="Path 4368" d="M65.335,2.346l.444.444L59.54,9.022,53.308,2.791l.444-.444Z" transform="translate(-32.144 -18.072)" fill="#1e2b3b"/>
                  <path id="Path_4369" data-name="Path 4369" d="M56.679,12.231h1.936L62,8.845l-6.231-6.23-6.231,6.23,6.231,6.231.912-.91Z" transform="translate(-34.602 -17.897)" fill="#1e2b3b"/>
                  <rect id="Rectangle_787" data-name="Rectangle 787" width="8.81" height="8.81" transform="translate(8.703 -2.821) rotate(-45)" fill="#1e2b3b"/>
                  <rect id="Rectangle_788" data-name="Rectangle 788" width="8.81" height="8.81" transform="translate(2.472 3.41) rotate(-45)" fill="#1e2b3b"/>
                  <rect id="Rectangle_789" data-name="Rectangle 789" width="8.81" height="8.81" transform="translate(-3.758 9.639) rotate(-45)" fill="#1e2b3b"/>
                  <path id="Path_4370" data-name="Path 4370" d="M37.953,18.144l.439-.439,6.231,6.231-6.231,6.231-.439-.441Z" transform="translate(-42.15 -8.065)" fill="#1e2b3b"/>
                  <path id="Path_4371" data-name="Path 4371" d="M37.953,24.984l.439.439-.439.439Z" transform="translate(-42.15 -3.322)" fill="#1e2b3b"/>
                  <path id="Path_4372" data-name="Path 4372" d="M72.872,2.346l.444.444-6.23,6.231L60.853,2.791l.444-.444Z" transform="translate(-27.228 -18.072)" fill="#1e2b3b"/>
                  <path id="Path_4373" data-name="Path 4373" d="M66.159,12.231l3.386-3.386-6.231-6.23-6.231,6.23,3.384,3.386Z" transform="translate(-29.686 -17.897)" fill="#1e2b3b"/>
                  <path id="Path_4374" data-name="Path 4374" d="M61.8,9.772,58.416,6.386,55.032,9.772Z" transform="translate(-31.021 -15.44)" fill="#1e2b3b"/>
                  <path id="Path_4375" data-name="Path 4375" d="M56.035,12.887l1.728,1.728,1.728-1.728Z" transform="translate(-30.367 -11.204)" fill="#1e2b3b"/>
                  <path id="Path_4376" data-name="Path 4376" d="M57.238,14.666V11.629l-1.473-1.473-6.231,6.231,6.231,6.231L62,16.387,60.271,14.66Z" transform="translate(-34.604 -12.984)" fill="#1e2b3b"/>
                  <rect id="Rectangle_790" data-name="Rectangle 790" width="8.81" height="8.81" transform="translate(8.703 9.639) rotate(-45)" fill="#1e2b3b"/>
                  <rect id="Rectangle_791" data-name="Rectangle 791" width="8.81" height="8.81" transform="translate(2.472 15.871) rotate(-45)" fill="#1e2b3b"/>
                  <rect id="Rectangle_792" data-name="Rectangle 792" width="8.81" height="8.81" transform="translate(-3.758 22.102) rotate(-45)" fill="#1e2b3b"/>
                  <path id="Path_4377" data-name="Path 4377" d="M37.953,25.694l.439-.439,6.231,6.231-6.231,6.223-.439-.438Z" transform="translate(-42.15 -3.146)" fill="#1e2b3b"/>
                  <path id="Path_4378" data-name="Path 4378" d="M37.953,32.53l.439.439-.439.439Z" transform="translate(-42.15 1.595)" fill="#1e2b3b"/>
                  <path id="Path_4379" data-name="Path 4379" d="M80.416,2.346l.444.444-6.23,6.231L68.4,2.791l.444-.444Z" transform="translate(-22.312 -18.072)" fill="#1e2b3b"/>
                  <path id="Path_4380" data-name="Path 4380" d="M73.7,12.231l3.386-3.386-6.231-6.23-6.223,6.23,3.384,3.386Z" transform="translate(-24.766 -17.897)" fill="#1e2b3b"/>
                  <path id="Path_4381" data-name="Path 4381" d="M69.345,9.772,65.96,6.386,62.577,9.772Z" transform="translate(-26.105 -15.44)" fill="#1e2b3b"/>
                  <path id="Path_4382" data-name="Path 4382" d="M66.84,10.217v4.418H63.581l1.728,1.728,6.134-6.146Z" transform="translate(-25.451 -12.944)" fill="#1e2b3b"/>
                  <path id="Path_4383" data-name="Path 4383" d="M58.808,12.887l-1.728,1.728,6.231,6.231,6.231-6.231-1.728-1.728Z" transform="translate(-29.686 -11.204)" fill="#1e2b3b"/>
                  <rect id="Rectangle_793" data-name="Rectangle 793" width="8.811" height="8.811" transform="matrix(0.707, -0.707, 0.707, 0.707, 21.164, 9.639)" fill="#1e2b3b"/>
                  <rect id="Rectangle_794" data-name="Rectangle 794" width="8.811" height="8.811" transform="translate(14.932 15.871) rotate(-45)" fill="#1e2b3b"/>
                  <rect id="Rectangle_795" data-name="Rectangle 795" width="8.81" height="8.81" transform="translate(8.703 22.102) rotate(-45)" fill="#1e2b3b"/>
                  <rect id="Rectangle_796" data-name="Rectangle 796" width="8.81" height="8.81" transform="translate(2.472 28.331) rotate(-45)" fill="#1e2b3b"/>
                  <rect id="Rectangle_797" data-name="Rectangle 797" width="8.81" height="8.81" transform="translate(-3.758 34.563) rotate(-45)" fill="#1e2b3b"/>
                  <path id="Path_4384" data-name="Path 4384" d="M37.953,33.235l.439-.439,6.231,6.231-6.231,6.228-.439-.438Z" transform="translate(-42.15 1.768)" fill="#1e2b3b"/>
                  <path id="Path_4385" data-name="Path 4385" d="M81.247,12.231l3.386-3.386L78.4,2.616l-6.23,6.23,3.384,3.386Z" transform="translate(-19.853 -17.897)" fill="#1e2b3b"/>
                  <path id="Path_4386" data-name="Path 4386" d="M76.891,9.772,73.508,6.386,70.121,9.772Z" transform="translate(-21.189 -15.44)" fill="#1e2b3b"/>
                  <path id="Path_4387" data-name="Path 4387" d="M68.456,10.217l6.137,6.137,6.139-6.137Z" transform="translate(-22.274 -12.944)" fill="#1e2b3b"/>
                  <path id="Path_4388" data-name="Path 4388" d="M70.761,10.217l-6.131,6.137,6.231,6.231,6.231-6.231-6.151-6.137Z" transform="translate(-24.767 -12.944)" fill="#1e2b3b"/>
                  <rect id="Rectangle_798" data-name="Rectangle 798" width="8.81" height="8.81" transform="translate(33.626 9.639) rotate(-45)" fill="#1e2b3b"/>
                  <rect id="Rectangle_799" data-name="Rectangle 799" width="8.81" height="8.81" transform="translate(27.395 15.871) rotate(-45)" fill="#1e2b3b"/>
                  <rect id="Rectangle_800" data-name="Rectangle 800" width="8.811" height="8.811" transform="matrix(0.707, -0.707, 0.707, 0.707, 21.164, 22.1)" fill="#1e2b3b"/>
                  <rect id="Rectangle_801" data-name="Rectangle 801" width="8.811" height="8.811" transform="translate(14.932 28.331) rotate(-45)" fill="#1e2b3b"/>
                  <rect id="Rectangle_802" data-name="Rectangle 802" width="8.81" height="8.81" transform="translate(8.703 34.563) rotate(-45)" fill="#1e2b3b"/>
                  <rect id="Rectangle_803" data-name="Rectangle 803" width="8.81" height="8.81" transform="translate(2.472 40.794) rotate(-45)" fill="#1e2b3b"/>
                  <rect id="Rectangle_804" data-name="Rectangle 804" width="8.811" height="8.811" transform="translate(-3.76 47.023) rotate(-45)" fill="#1e2b3b"/>
                  <path id="Path_4389" data-name="Path 4389" d="M84.437,9.772,81.051,6.386,77.667,9.772Z" transform="translate(-16.273 -15.44)" fill="#1e2b3b"/>
                  <path id="Path_4390" data-name="Path 4390" d="M76,10.217l6.137,6.137,6.147-6.137Z" transform="translate(-17.358 -12.944)" fill="#1e2b3b"/>
                  <path id="Path_4391" data-name="Path 4391" d="M78.309,10.218l-6.137,6.137,6.23,6.228,6.231-6.231L78.5,10.216Z" transform="translate(-19.853 -12.944)" fill="#1e2b3b"/>
                  <rect id="Rectangle_805" data-name="Rectangle 805" width="8.81" height="8.81" transform="translate(46.087 9.639) rotate(-45)" fill="#1e2b3b"/>
                  <rect id="Rectangle_806" data-name="Rectangle 806" width="8.81" height="8.81" transform="translate(39.856 15.871) rotate(-45)" fill="#1e2b3b"/>
                  <rect id="Rectangle_807" data-name="Rectangle 807" width="8.81" height="8.81" transform="translate(33.626 22.102) rotate(-45)" fill="#1e2b3b"/>
                  <rect id="Rectangle_808" data-name="Rectangle 808" width="8.81" height="8.81" transform="translate(27.395 28.331) rotate(-45)" fill="#1e2b3b"/>
                  <rect id="Rectangle_809" data-name="Rectangle 809" width="8.811" height="8.811" transform="matrix(0.707, -0.707, 0.707, 0.707, 21.164, 34.561)" fill="#1e2b3b"/>
                  <rect id="Rectangle_810" data-name="Rectangle 810" width="8.811" height="8.811" transform="translate(14.932 40.794) rotate(-45)" fill="#1e2b3b"/>
                  <rect id="Rectangle_811" data-name="Rectangle 811" width="8.811" height="8.811" transform="translate(8.703 47.023) rotate(-45)" fill="#1e2b3b"/>
                  <path id="Path_4392" data-name="Path 4392" d="M52.848,48.18l1.605-1.605-6.231-6.231L41.99,46.568l1.6,1.605Z" transform="translate(-39.519 6.686)" fill="#1e2b3b"/>
                  <path id="Path_4393" data-name="Path 4393" d="M85.858,10.217l-6.142,6.137,6.231,6.231,6.222-6.231-6.134-6.137Z" transform="translate(-14.938 -12.944)" fill="#1e2b3b"/>
                  <rect id="Rectangle_812" data-name="Rectangle 812" width="8.81" height="8.81" transform="translate(58.548 9.639) rotate(-45)" fill="#1e2b3b"/>
                  <rect id="Rectangle_813" data-name="Rectangle 813" width="8.81" height="8.81" transform="translate(52.319 15.871) rotate(-45)" fill="#1e2b3b"/>
                  <rect id="Rectangle_814" data-name="Rectangle 814" width="8.81" height="8.81" transform="translate(46.087 22.102) rotate(-45)" fill="#1e2b3b"/>
                  <rect id="Rectangle_815" data-name="Rectangle 815" width="8.81" height="8.81" transform="translate(39.856 28.331) rotate(-45)" fill="#1e2b3b"/>
                  <rect id="Rectangle_816" data-name="Rectangle 816" width="8.81" height="8.81" transform="translate(33.626 34.563) rotate(-45)" fill="#1e2b3b"/>
                  <rect id="Rectangle_817" data-name="Rectangle 817" width="8.81" height="8.81" transform="translate(27.395 40.794) rotate(-45)" fill="#1e2b3b"/>
                  <rect id="Rectangle_818" data-name="Rectangle 818" width="8.813" height="8.812" transform="translate(21.164 47.023) rotate(-44.985)" fill="#1e2b3b"/>
                  <path id="Path_4394" data-name="Path 4394" d="M60.394,48.18,62,46.575l-6.231-6.231-6.231,6.231,1.605,1.605Z" transform="translate(-34.602 6.686)" fill="#1e2b3b"/>
                  <path id="Path_4395" data-name="Path 4395" d="M51.774,45.717l-1.605-1.605-1.605,1.605Z" transform="translate(-35.236 9.141)" fill="#1e2b3b"/>
                  <rect id="Rectangle_819" data-name="Rectangle 819" width="8.81" height="8.81" transform="translate(71.011 9.639) rotate(-45)" fill="#1e2b3b"/>
                  <path id="Path_4396" data-name="Path 4396" d="M38.373,48.179h4.648l1.6-1.6-6.231-6.231-.439.441V52.368l.421.421Z" transform="translate(-42.15 6.687)" fill="#1e2b3b"/>
                  <rect id="Rectangle_820" data-name="Rectangle 820" width="8.81" height="8.81" transform="translate(64.779 15.871) rotate(-45)" fill="#1e2b3b"/>
                  <path id="Path_4397" data-name="Path 4397" d="M44.23,45.716l-1.6-1.6-1.609,1.6Z" transform="translate(-40.153 9.142)" fill="#1e2b3b"/>
                  <rect id="Rectangle_821" data-name="Rectangle 821" width="8.81" height="8.81" transform="translate(58.548 22.102) rotate(-45)" fill="#1e2b3b"/>
                  <rect id="Rectangle_822" data-name="Rectangle 822" width="8.81" height="8.81" transform="translate(52.319 28.331) rotate(-45)" fill="#1e2b3b"/>
                  <rect id="Rectangle_823" data-name="Rectangle 823" width="8.81" height="8.81" transform="translate(46.087 34.563) rotate(-45)" fill="#1e2b3b"/>
                  <rect id="Rectangle_824" data-name="Rectangle 824" width="8.81" height="8.81" transform="translate(39.856 40.794) rotate(-45)" fill="#1e2b3b"/>
                  <rect id="Rectangle_825" data-name="Rectangle 825" width="8.813" height="8.813" transform="translate(33.624 47.023) rotate(-45)" fill="#1e2b3b"/>
                  <path id="Path_4398" data-name="Path 4398" d="M66.261,48.177V49.86l3.282-3.282-6.231-6.231L57.08,46.579l1.605,1.605Z" transform="translate(-29.687 6.689)" fill="#1e2b3b"/>
                  <path id="Path_4399" data-name="Path 4399" d="M59.319,45.717l-1.605-1.605-1.6,1.605Z" transform="translate(-30.319 9.141)" fill="#1e2b3b"/>
                  <path id="Path_4400" data-name="Path 4400" d="M93.942,29.721l-.446.446-6.231-6.231L93.5,17.7l.446.446Z" transform="translate(-10.019 -8.065)" fill="#1e2b3b"/>
                  <rect id="Rectangle_826" data-name="Rectangle 826" width="8.81" height="8.81" transform="translate(71.011 22.102) rotate(-45)" fill="#1e2b3b"/>
                  <rect id="Rectangle_827" data-name="Rectangle 827" width="8.81" height="8.81" transform="translate(64.779 28.331) rotate(-45)" fill="#1e2b3b"/>
                  <rect id="Rectangle_828" data-name="Rectangle 828" width="8.81" height="8.81" transform="translate(58.548 34.563) rotate(-45)" fill="#1e2b3b"/>
                  <rect id="Rectangle_829" data-name="Rectangle 829" width="8.81" height="8.81" transform="translate(52.319 40.794) rotate(-45)" fill="#1e2b3b"/>
                  <rect id="Rectangle_830" data-name="Rectangle 830" width="8.813" height="8.813" transform="translate(46.087 47.023) rotate(-45)" fill="#1e2b3b"/>
                  <rect id="Rectangle_831" data-name="Rectangle 831" width="8.81" height="8.81" transform="translate(39.856 53.255) rotate(-45)" fill="#1e2b3b"/>
                  <path id="Path_4401" data-name="Path 4401" d="M65.92,44.113l-3.282,3.282v5.891l3.282,3.282,6.231-6.236Z" transform="translate(-26.065 9.142)" fill="#1e2b3b"/>
                  <path id="Path_4402" data-name="Path 4402" d="M91.479,25.873l-.446-.446.446-.448Z" transform="translate(-7.563 -3.325)" fill="#1e2b3b"/>
                  <path id="Path_4403" data-name="Path 4403" d="M93.942,37.267l-.446.446-6.231-6.231L93.5,25.25l.446.446Z" transform="translate(-10.019 -3.148)" fill="#1e2b3b"/>
                  <rect id="Rectangle_832" data-name="Rectangle 832" width="8.81" height="8.81" transform="translate(71.011 34.563) rotate(-45)" fill="#1e2b3b"/>
                  <rect id="Rectangle_833" data-name="Rectangle 833" width="8.81" height="8.81" transform="translate(64.779 40.794) rotate(-45)" fill="#1e2b3b"/>
                  <rect id="Rectangle_834" data-name="Rectangle 834" width="8.813" height="8.813" transform="translate(58.548 47.023) rotate(-45)" fill="#1e2b3b"/>
                  <rect id="Rectangle_835" data-name="Rectangle 835" width="8.81" height="8.81" transform="translate(52.316 53.255) rotate(-45)" fill="#1e2b3b"/>
                  <rect id="Rectangle_836" data-name="Rectangle 836" width="8.81" height="8.81" transform="translate(46.087 59.484) rotate(-45)" fill="#1e2b3b"/>
                  <path id="Path_4404" data-name="Path 4404" d="M91.479,33.418l-.446-.448.446-.446Z" transform="translate(-7.563 1.591)" fill="#1e2b3b"/>
                  <path id="Path_4405" data-name="Path 4405" d="M93.942,44.812l-.446.446-6.231-6.231L93.5,32.795l.446.448Z" transform="translate(-10.019 1.768)" fill="#1e2b3b"/>
                  <rect id="Rectangle_837" data-name="Rectangle 837" width="8.813" height="8.813" transform="translate(71.009 47.023) rotate(-45)" fill="#1e2b3b"/>
                  <rect id="Rectangle_838" data-name="Rectangle 838" width="8.81" height="8.81" transform="translate(64.779 53.255) rotate(-45)" fill="#1e2b3b"/>
                  <rect id="Rectangle_839" data-name="Rectangle 839" width="8.81" height="8.81" transform="translate(58.548 59.484) rotate(-45)" fill="#1e2b3b"/>
                  <path id="Path_4406" data-name="Path 4406" d="M91.479,40.963l-.446-.448.446-.449Z" transform="translate(-7.563 6.506)" fill="#1e2b3b"/>
                  <path id="Path_4407" data-name="Path 4407" d="M93.942,52.355,93.5,52.8l-6.231-6.231L93.5,40.339l.446.449Z" transform="translate(-10.019 6.684)" fill="#1e2b3b"/>
                  <rect id="Rectangle_840" data-name="Rectangle 840" width="8.81" height="8.81" transform="translate(71.009 59.484) rotate(-45)" fill="#1e2b3b"/>
                  <path id="Path_4408" data-name="Path 4408" d="M37.953,40.075l.439.438-.439.439Z" transform="translate(-42.15 6.511)" fill="#1e2b3b"/>
                  <path id="Path_4409" data-name="Path 4409" d="M50.227,2.346l.469.467L44.464,9.047l-6.231-6.23.469-.469Z" transform="translate(-41.967 -18.072)" fill="#1e2b3b"/>
                  <path id="Path_4410" data-name="Path 4410" d="M37.953,3.1l.466-.466,6.23,6.231-6.23,6.227-.466-.464Z" transform="translate(-42.15 -17.884)" fill="#1e2b3b"/>
                  <path id="Path_4411" data-name="Path 4411" d="M37.953,9.895l.466.466-.466.462Z" transform="translate(-42.15 -13.154)" fill="#1e2b3b"/>
                  <path id="Path_4412" data-name="Path 4412" d="M57.771,2.346l.469.469L52.008,9.047l-6.23-6.231.469-.467Z" transform="translate(-37.051 -18.072)" fill="#1e2b3b"/>
                  <rect id="Rectangle_841" data-name="Rectangle 841" width="8.81" height="8.81" transform="translate(2.499 -9.025) rotate(-45)" fill="#1e2b3b"/>
                  <rect id="Rectangle_842" data-name="Rectangle 842" width="8.81" height="8.81" transform="translate(-3.732 -2.796) rotate(-45)" fill="#1e2b3b"/>
                  <path id="Path_4413" data-name="Path 4413" d="M37.953,10.64l.466-.464,6.23,6.23-6.23,6.23-.466-.462Z" transform="translate(-42.15 -12.971)" fill="#1e2b3b"/>
                  <path id="Path_4414" data-name="Path 4414" d="M37.953,17.439l.466.466-.466.464Z" transform="translate(-42.15 -8.238)" fill="#1e2b3b"/>
                  <path id="Path_4415" data-name="Path 4415" d="M87.962,2.346l.441.444-6.23,6.231-6.23-6.231.444-.444Z" transform="translate(-17.395 -18.072)" fill="#1e2b3b"/>
                  <path id="Path_4416" data-name="Path 4416" d="M95.507,2.346l.444.444L89.72,9.022,83.488,2.791l.444-.444Z" transform="translate(-12.479 -18.072)" fill="#1e2b3b"/>
                  <path id="Path_4417" data-name="Path 4417" d="M88.8,12.231l3.366-3.386-6.223-6.23-6.228,6.23L83.1,12.231Z" transform="translate(-14.937 -17.897)" fill="#1e2b3b"/>
                  <path id="Path_4418" data-name="Path 4418" d="M93.945,12.231V3.061L93.5,2.616l-6.238,6.23,3.386,3.386Z" transform="translate(-10.021 -17.897)" fill="#1e2b3b"/>
                  <path id="Path_4419" data-name="Path 4419" d="M91.981,9.772,88.594,6.386,85.211,9.772Z" transform="translate(-11.356 -15.44)" fill="#1e2b3b"/>
                  <path id="Path_4420" data-name="Path 4420" d="M83.541,10.217l6.137,6.137,6.139-6.137Z" transform="translate(-12.445 -12.944)" fill="#1e2b3b"/>
                  <path id="Path_4421" data-name="Path 4421" d="M93.4,10.218,87.26,16.355l6.231,6.231.446-.446V10.569l-.352-.353Z" transform="translate(-10.022 -12.944)" fill="#1e2b3b"/>
                  <path id="Path_4422" data-name="Path 4422" d="M91.479,18.327l-.446-.446.446-.448Z" transform="translate(-7.563 -8.242)" fill="#1e2b3b"/>
                </g>
              </g>
              <path id="Path_4424" data-name="Path 4424" d="M59.209,53.5A15.946,15.946,0,0,0,73.048,40.9c-1.262-9.393-15.6-8.709-15.6-8.709a5.492,5.492,0,1,1,0,10.985H50.806c0,3.457-.013,7.388-.012,10.324Z" transform="translate(33.097 20.965)" fill="#1e2b3b"/>
              <g id="Group_1690" data-name="Group 1690" transform="translate(83.89 53.139)">
                <g id="Group_1689" data-name="Group 1689" clip-path="url(#clip-path-7)">
                  <rect id="Rectangle_843" data-name="Rectangle 843" width="29.952" height="30.056" transform="translate(-9.229 16.307) rotate(-61.476)" fill="#1e2b3b"/>
                </g>
              </g>
              <g id="Group_1693" data-name="Group 1693" transform="translate(67.207 21.302)" opacity="0.8">
                <g id="Group_1692" data-name="Group 1692">
                  <g id="Group_1691" data-name="Group 1691" clip-path="url(#clip-path-8)">
                    <path id="Path_4426" data-name="Path 4426" d="M40.695,25.606c1.273,9.4,15.6,8.709,15.6,8.709a5.492,5.492,0,1,1,0-10.985h6.644c0-3.47.017-7.419.015-10.359H61.625c-1.757,0-3.171-.035-4.106-.056-.322,0-.58-.013-.763-.017s-.309,0-.464,0a15.954,15.954,0,0,0-15.6,12.709" transform="translate(-40.692 -12.898)" fill="#1e2b3b"/>
                  </g>
                </g>
              </g>
              <rect id="Rectangle_845" data-name="Rectangle 845" width="1.739" height="56.516" transform="translate(167.12 20.075)" fill="#1e2b3b"/>
              <path id="Path_4427" data-name="Path 4427" d="M110.136,26.681V12.856h6.121a5.374,5.374,0,0,1,3.323.7,3.991,3.991,0,0,1,.785,2.958,2.707,2.707,0,0,1-1.774,2.907v.03a2.894,2.894,0,0,1,2.2,3.25,4.386,4.386,0,0,1-.862,3.088,4.116,4.116,0,0,1-3.014.89Zm1.559-7.746h4.1a4.408,4.408,0,0,0,2.524-.464,2.739,2.739,0,0,0,.562-2.076,2.39,2.39,0,0,0-.491-1.808,3.769,3.769,0,0,0-2.164-.42H111.7Zm0,6.43h4.719a3.959,3.959,0,0,0,2.335-.462,2.526,2.526,0,0,0,.553-1.951c0-1.235-.187-1.992-.555-2.274a6.413,6.413,0,0,0-3.031-.421H111.7Z" transform="translate(71.764 8.354)" fill="#1e2b3b"/>
              <path id="Path_4428" data-name="Path 4428" d="M128.547,12.842h1.559v9.677a4.29,4.29,0,0,1-1.052,3.462,7.971,7.971,0,0,1-4.439.824,8.132,8.132,0,0,1-4.311-.794,3.456,3.456,0,0,1-1.14-3.022V12.842h1.559v9.677q0,1.967.631,2.469a6.06,6.06,0,0,0,3.138.5A7.017,7.017,0,0,0,127.877,25q.669-.491.669-2.477Z" transform="translate(77.629 8.368)" fill="#1e2b3b"/>
              <path id="Path_4429" data-name="Path 4429" d="M138.385,16.663h-1.546q0-1.672-.56-2.122a4.791,4.791,0,0,0-2.623-.451,7.28,7.28,0,0,0-3.156.421c-.474.286-.707.928-.707,1.919,0,1.115.183,1.792.555,2.036a9.163,9.163,0,0,0,3.31.494,8.394,8.394,0,0,1,4.106.821q.879.679.875,3.037,0,2.554-1.007,3.3a8.473,8.473,0,0,1-4.449.75,7.107,7.107,0,0,1-3.977-.755,3.689,3.689,0,0,1-.988-3.042l-.012-.616h1.551V22.8c0,1.237.19,2,.566,2.314a5.682,5.682,0,0,0,2.907.448,7.081,7.081,0,0,0,3.3-.448c.421-.3.616-1.1.616-2.406a2.453,2.453,0,0,0-.421-1.683,2.851,2.851,0,0,0-1.759-.5l-1.619-.079-1.541-.083a3.3,3.3,0,0,1-3.525-3.065,3.237,3.237,0,0,1,.012-.58,3.838,3.838,0,0,1,1.022-3.156,7.226,7.226,0,0,1,4.081-.789,7.321,7.321,0,0,1,4.041.735,3.93,3.93,0,0,1,.94,3.155" transform="translate(83.524 8.294)" fill="#1e2b3b"/>
              <rect id="Rectangle_846" data-name="Rectangle 846" width="1.559" height="13.824" transform="translate(226.11 21.213)" fill="#1e2b3b"/>
              <path id="Path_4430" data-name="Path 4430" d="M152.519,12.842V26.666h-2.562l-5.786-9.406-.941-1.549-.464-.77-.466-.768h-.04v.515l.01.527V26.668h-1.557V12.842h2.548l5.049,8.243,1.318,2.167.659,1.072.647,1.083h.04v-.515l-.01-.525V12.842Z" transform="translate(91.688 8.368)" fill="#1e2b3b"/>
              <path id="Path_4431" data-name="Path 4431" d="M151.941,14.159v4.709h7.013v1.316h-7.019v5.165h7.323v1.318h-8.882V12.843h8.882v1.315Z" transform="translate(97.984 8.368)" fill="#1e2b3b"/>
              <path id="Path_4432" data-name="Path 4432" d="M167.993,16.66h-1.548q0-1.672-.558-2.122a4.791,4.791,0,0,0-2.623-.451,7.279,7.279,0,0,0-3.156.421c-.474.286-.709.928-.709,1.919q0,1.672.555,2.036a9.171,9.171,0,0,0,3.311.494,8.394,8.394,0,0,1,4.106.821q.877.679.875,3.037,0,2.554-1.007,3.3a8.479,8.479,0,0,1-4.451.75,7.1,7.1,0,0,1-3.977-.755,3.693,3.693,0,0,1-.986-3.042l-.012-.616h1.551V22.8q0,1.856.566,2.314a5.665,5.665,0,0,0,2.907.448,7.078,7.078,0,0,0,3.3-.448q.617-.453.616-2.406a2.436,2.436,0,0,0-.421-1.683,2.842,2.842,0,0,0-1.756-.5l-1.62-.079-1.541-.083a3.3,3.3,0,0,1-3.533-3.055,3.423,3.423,0,0,1,.01-.581,3.838,3.838,0,0,1,1.022-3.156A7.226,7.226,0,0,1,163,12.774a7.316,7.316,0,0,1,4.04.735,3.933,3.933,0,0,1,.941,3.156" transform="translate(102.817 8.297)" fill="#1e2b3b"/>
              <path id="Path_4433" data-name="Path 4433" d="M176.275,16.66h-1.548q0-1.672-.558-2.122a4.791,4.791,0,0,0-2.623-.451,7.28,7.28,0,0,0-3.156.421c-.474.286-.709.928-.709,1.919q0,1.672.555,2.036a9.171,9.171,0,0,0,3.311.494,8.394,8.394,0,0,1,4.106.821q.877.679.875,3.037,0,2.554-1.007,3.3a8.49,8.49,0,0,1-4.449.75,7.106,7.106,0,0,1-3.977-.755,3.693,3.693,0,0,1-.986-3.042l-.01-.616h1.549V22.8q0,1.856.566,2.314a5.668,5.668,0,0,0,2.908.448,7.074,7.074,0,0,0,3.3-.448q.619-.453.616-2.406a2.443,2.443,0,0,0-.42-1.683,2.849,2.849,0,0,0-1.757-.5l-1.62-.079-1.539-.083a3.3,3.3,0,0,1-3.536-3.054,3.439,3.439,0,0,1,.01-.583,3.838,3.838,0,0,1,1.022-3.156,7.226,7.226,0,0,1,4.081-.789,7.316,7.316,0,0,1,4.04.735,3.933,3.933,0,0,1,.941,3.156" transform="translate(108.214 8.297)" fill="#1e2b3b"/>
              <path id="Path_4434" data-name="Path 4434" d="M119.9,29.117h-1.548q0-1.672-.558-2.122a4.806,4.806,0,0,0-2.623-.451,7.23,7.23,0,0,0-3.156.421q-.709.434-.709,1.919,0,1.672.555,2.036a9.173,9.173,0,0,0,3.311.5,8.415,8.415,0,0,1,4.106.819q.877.679.875,3.037,0,2.554-1.007,3.3a8.479,8.479,0,0,1-4.451.75,7.12,7.12,0,0,1-3.977-.753,3.7,3.7,0,0,1-.986-3.044l-.012-.616h1.551v.344q0,1.856.566,2.314a5.663,5.663,0,0,0,2.907.449,7.079,7.079,0,0,0,3.3-.449q.617-.453.616-2.406a2.436,2.436,0,0,0-.421-1.683,2.83,2.83,0,0,0-1.756-.5l-1.62-.081-1.541-.083a3.3,3.3,0,0,1-3.523-3.065,3.378,3.378,0,0,1,.01-.578,3.838,3.838,0,0,1,1.022-3.156,7.228,7.228,0,0,1,4.081-.789,7.316,7.316,0,0,1,4.04.735,3.94,3.94,0,0,1,.943,3.156" transform="translate(71.48 16.41)" fill="#1e2b3b"/>
              <path id="Path_4435" data-name="Path 4435" d="M127.724,34.578h1.548V35.1q0,2.827-.961,3.529a10.013,10.013,0,0,1-4.838.707q-3.473,0-4.418-1.242a11.3,11.3,0,0,1-.943-5.838,27.757,27.757,0,0,1,.21-4.52,2.885,2.885,0,0,1,1.217-1.657,9.8,9.8,0,0,1,5.074-.841,5.551,5.551,0,0,1,3.559.818,4.209,4.209,0,0,1,.918,3.171v.375H127.54l-.01-.421a2.943,2.943,0,0,0-.542-2.145,4.084,4.084,0,0,0-2.444-.477,8.63,8.63,0,0,0-4.081.555q-.741.557-.738,3.09a24.529,24.529,0,0,0,.494,6.824q.5,1,3.394,1a8.05,8.05,0,0,0,3.437-.436q.686-.436.684-2.187Z" transform="translate(76.92 16.415)" fill="#1e2b3b"/>
              <rect id="Rectangle_847" data-name="Rectangle 847" width="1.559" height="13.824" transform="translate(210.031 41.778)" fill="#1e2b3b"/>
              <path id="Path_4436" data-name="Path 4436" d="M132.2,26.613v4.709h7.018v1.316H132.2V37.8h7.323V39.12h-8.882V25.3h8.882v1.315Z" transform="translate(85.126 16.483)" fill="#1e2b3b"/>
              <path id="Path_4437" data-name="Path 4437" d="M150.3,25.3V39.12h-2.557l-5.794-9.407-.94-1.549-.466-.77-.464-.768h-.04v.515l.01.527V39.12h-1.562V25.3h2.552l5.049,8.243,1.316,2.167.659,1.072.647,1.083h.041v-.515l-.012-.525V25.3Z" transform="translate(90.239 16.483)" fill="#1e2b3b"/>
              <path id="Path_4438" data-name="Path 4438" d="M157.8,34.578h1.548V35.1q0,2.827-.961,3.529a10.013,10.013,0,0,1-4.838.707q-3.473,0-4.418-1.242a11.3,11.3,0,0,1-.943-5.838,27.755,27.755,0,0,1,.21-4.52,2.885,2.885,0,0,1,1.217-1.657,9.8,9.8,0,0,1,5.074-.841,5.551,5.551,0,0,1,3.559.818,4.209,4.209,0,0,1,.918,3.171v.375h-1.549l-.01-.421a2.943,2.943,0,0,0-.542-2.145,4.084,4.084,0,0,0-2.444-.477,8.628,8.628,0,0,0-4.081.555q-.741.557-.738,3.09a24.529,24.529,0,0,0,.494,6.824q.5,1,3.394,1a8.05,8.05,0,0,0,3.437-.436q.686-.436.684-2.187Z" transform="translate(96.515 16.415)" fill="#1e2b3b"/>
              <path id="Path_4439" data-name="Path 4439" d="M158.468,26.613v4.709h7.018v1.316h-7.018V37.8h7.323V39.12h-8.882V25.3h8.882v1.315Z" transform="translate(102.241 16.483)" fill="#1e2b3b"/>
              <path id="Path_4440" data-name="Path 4440" d="M119.441,47.027h1.548v.525q0,2.827-.961,3.529a10.014,10.014,0,0,1-4.838.7q-3.473,0-4.418-1.239a11.3,11.3,0,0,1-.943-5.838,27.757,27.757,0,0,1,.21-4.52,2.885,2.885,0,0,1,1.217-1.657,9.8,9.8,0,0,1,5.074-.841,5.558,5.558,0,0,1,3.561.818,4.215,4.215,0,0,1,.917,3.171v.375h-1.549l-.01-.421a2.944,2.944,0,0,0-.542-2.149,4.107,4.107,0,0,0-2.444-.474,8.621,8.621,0,0,0-4.079.555q-.743.557-.74,3.088a24.6,24.6,0,0,0,.494,6.824q.5,1,3.394,1a8.05,8.05,0,0,0,3.437-.436c.457-.291.687-1.019.684-2.187Z" transform="translate(71.523 24.526)" fill="#1e2b3b"/>
              <path id="Path_4441" data-name="Path 4441" d="M124.3,37.68q3.919,0,4.9,1.145a10.23,10.23,0,0,1,.984,5.721,11.753,11.753,0,0,1-.941,6.086q-.944,1.154-4.945,1.153t-4.935-1.145a11.021,11.021,0,0,1-.958-5.913v-.973l.021-1.306a4.649,4.649,0,0,1,1.242-3.761A7.648,7.648,0,0,1,124.3,37.68m0,1.316q-3.283,0-3.842.728a12.005,12.005,0,0,0-.555,5,12.055,12.055,0,0,0,.555,5.013q.56.731,3.842.728t3.848-.728a12.056,12.056,0,0,0,.555-5.013v-.907l-.01-1.306q0-2.292-.768-2.908a6.693,6.693,0,0,0-3.625-.616" transform="translate(77.105 24.527)" fill="#1e2b3b"/>
              <path id="Path_4442" data-name="Path 4442" d="M127.842,51.583V37.759h6.585a4.447,4.447,0,0,1,3.138.882,4.157,4.157,0,0,1,.912,3.055,5.208,5.208,0,0,1-.494,2.671,2.635,2.635,0,0,1-1.894.978v.031q2.2.161,2.2,2.672v3.534h-1.559V48.4q0-2.42-2.1-2.421H129.4v5.6Zm1.559-6.915h4.506a3.954,3.954,0,0,0,2.431-.54,2.57,2.57,0,0,0,.647-2.041,4.133,4.133,0,0,0-.477-2.443,2.728,2.728,0,0,0-2.064-.568H129.4Z" transform="translate(83.301 24.589)" fill="#1e2b3b"/>
              <path id="Path_4443" data-name="Path 4443" d="M136.922,51.585V37.761h6.331a4.363,4.363,0,0,1,3.189.9,4.987,4.987,0,0,1,.841,3.366,4.5,4.5,0,0,1-.885,3.232,4.818,4.818,0,0,1-3.326.86h-4.6v5.449Zm1.561-6.763h3.7a5.868,5.868,0,0,0,2.973-.477q.654-.473.654-2.187a4.577,4.577,0,0,0-.441-2.537q-.443-.53-2.091-.53l-.6-.01h-4.193Z" transform="translate(89.217 24.586)" fill="#1e2b3b"/>
              <path id="Path_4444" data-name="Path 4444" d="M151,37.68q3.919,0,4.9,1.145a10.243,10.243,0,0,1,.983,5.721,11.716,11.716,0,0,1-.941,6.086Q155,51.786,151,51.785t-4.938-1.145a11.037,11.037,0,0,1-.958-5.913v-.973l.021-1.306a4.649,4.649,0,0,1,1.242-3.761A7.66,7.66,0,0,1,151,37.68M151,39q-3.283,0-3.84.728a11.979,11.979,0,0,0-.555,5,12.026,12.026,0,0,0,.555,5.013q.557.731,3.84.728t3.848-.728a12.025,12.025,0,0,0,.555-5.013V42.514q0-2.292-.768-2.908A6.7,6.7,0,0,0,151,38.99" transform="translate(94.503 24.527)" fill="#1e2b3b"/>
              <path id="Path_4445" data-name="Path 4445" d="M154.544,51.583V37.759h6.583a4.447,4.447,0,0,1,3.138.882,4.15,4.15,0,0,1,.912,3.055,5.174,5.174,0,0,1-.494,2.671,2.629,2.629,0,0,1-1.894.978v.031q2.2.161,2.2,2.672v3.534h-1.559V48.4q0-2.42-2.1-2.421H156.1v5.6Zm1.559-6.915h4.506a3.956,3.956,0,0,0,2.431-.54,2.582,2.582,0,0,0,.647-2.041,4.147,4.147,0,0,0-.479-2.443,2.722,2.722,0,0,0-2.063-.568H156.1Z" transform="translate(100.7 24.589)" fill="#1e2b3b"/>
              <path id="Path_4446" data-name="Path 4446" d="M172.6,48.647h-7l-1.064,2.927h-1.658l5.062-13.824h2.188L175.3,51.574h-1.63Zm-.456-1.176-3.067-8.446-3.029,8.446Z" transform="translate(106.134 24.598)" fill="#1e2b3b"/>
              <path id="Path_4447" data-name="Path 4447" d="M177.832,39.2V51.575h-1.561V39.2h-4.507v-1.45H182.3V39.2Z" transform="translate(111.92 24.596)" fill="#1e2b3b"/>
              <rect id="Rectangle_848" data-name="Rectangle 848" width="1.559" height="13.824" transform="translate(297.678 62.347)" fill="#1e2b3b"/>
              <path id="Path_4448" data-name="Path 4448" d="M189.465,37.68q3.919,0,4.9,1.145a10.257,10.257,0,0,1,.981,5.721,11.716,11.716,0,0,1-.941,6.086q-.941,1.154-4.942,1.153t-4.938-1.145a11.037,11.037,0,0,1-.958-5.913v-.973l.021-1.306a4.649,4.649,0,0,1,1.242-3.761,7.66,7.66,0,0,1,4.628-1.007m0,1.316q-3.283,0-3.84.728a11.978,11.978,0,0,0-.555,5,12.024,12.024,0,0,0,.555,5.013q.557.731,3.84.728t3.848-.728a12.025,12.025,0,0,0,.555-5.013V42.514q0-2.292-.768-2.908a6.7,6.7,0,0,0-3.627-.616" transform="translate(119.566 24.527)" fill="#1e2b3b"/>
              <path id="Path_4449" data-name="Path 4449" d="M204.821,37.75V51.574h-2.562l-5.794-9.407-.941-1.549-.464-.77-.466-.768h-.04v.515l.01.527V51.574h-1.559V37.75h2.553l5.049,8.243,1.316,2.167.659,1.072.647,1.083h.04V49.8l-.01-.525V37.75Z" transform="translate(125.761 24.598)" fill="#1e2b3b"/>
            </g>
          </g>
        </g>
      </g>
    </g>
  </g>
</svg>
