<svg id="Component_221_1" data-name="Component 221 – 1" xmlns="http://www.w3.org/2000/svg" xmlns:xlink="http://www.w3.org/1999/xlink"  height="49.254" viewBox="0 0 186.766 49.254" style="width:100%; height:100%">
  <defs>
    <clipPath id="clip-path">
      <rect id="Rectangle_881" data-name="Rectangle 881" width="186.766" height="49.254" fill="none"/>
    </clipPath>
  </defs>
  <g id="Group_1777" data-name="Group 1777" opacity="0.43" clip-path="url(#clip-path)">
    <path id="Path_4507" data-name="Path 4507" d="M30.711,23.827a10.941,10.941,0,0,0,7.155-10.558C37.867,5.625,32.447,0,22.861,0H0V49.252H24.182c9.237,0,15.212-5.765,15.212-13.754a11.635,11.635,0,0,0-8.682-11.671M9.447,8.059H21.332c4.657,0,7.088,2.36,7.088,6.114s-2.641,6.181-7.017,6.181H9.447Zm12.927,33.2H9.447V28.275H22.513c4.793,0,7.295,2.708,7.295,6.6,0,3.96-2.779,6.39-7.433,6.39" transform="translate(0 0)" fill="#1e2b3b"/>
    <path id="Path_4508" data-name="Path 4508" d="M116.69,32.58,96.2,0H84.253V49.254h9.587V14.312l22.367,34.942h10.07V0H116.69Z" transform="translate(10.504 0)" fill="#1e2b3b"/>
    <path id="Path_4509" data-name="Path 4509" d="M59.817,36.612,47.065.032,40.358,10.506,54.675,49.254h9.868L82.811,0H72.67Z" transform="translate(5.032 -0.001)" fill="#1e2b3b"/>
    <path id="Path_4510" data-name="Path 4510" d="M170.66,0H159.074L138.791,24.35V0h-9.6V49.254h9.6V24.9l20.283,24.35H170.66L149.923,24.627Z" transform="translate(16.107 -0.001)" fill="#1e2b3b"/>
  </g>
</svg>
