<svg id="Component_219_1" data-name="Component 219 – 1" xmlns="http://www.w3.org/2000/svg" width="252.827" height="41.756" viewBox="0 0 252.827 41.756">
  <path id="Path_1482" data-name="Path 1482" d="M836.015,105.23a31.465,31.465,0,0,1-4.821-1.928c-5.12-3.071-6.976-7.88-6.678-13.623.278-5.361,2.677-9.547,7.554-11.956,4.126-2.038,8.255-1.945,12.1.911.4.3.829.574,1.6,1.106v-5.1c0-2.826-.027-5.652.016-8.478a24.424,24.424,0,0,1,.328-2.691h6.424a10.044,10.044,0,0,1,.485,2.161q.046,18.326.015,36.652c0,.59-.1,1.179-.165,1.9h-6.294l-.516-2.232-6.832,3.278Zm-4.552-14.716c-.024,4.641,2.875,7.864,7.085,7.876a7.272,7.272,0,0,0,7.132-7.42c.076-4.489-2.938-7.82-7.132-7.88A7.157,7.157,0,0,0,831.463,90.514Z" transform="translate(-724.514 -63.474)" fill="#979da4"/>
  <path id="Path_1483" data-name="Path 1483" d="M735.139,110.242a41.8,41.8,0,0,1-5.08-1.918,14.269,14.269,0,0,1-7.245-14.658,14.253,14.253,0,0,1,27.941-1.383,14.269,14.269,0,0,1-10.485,17.456c-.5.127-.974.333-1.46.5Zm1.813-6.875a7.3,7.3,0,0,0,7.222-7.551c-.07-4.461-3.191-7.693-7.372-7.634a7.194,7.194,0,0,0-7.064,7.429C729.75,100.141,732.766,103.385,736.952,103.367Z" transform="translate(-696.137 -68.486)" fill="#979da4"/>
  <path id="Path_1484" data-name="Path 1484" d="M923.328,110.215a45.155,45.155,0,0,1-5.123-1.757c-5.835-2.785-8.731-9.4-7.253-16.278A13.9,13.9,0,0,1,924.34,81.362a13.341,13.341,0,0,1,13.108,14.964,11.146,11.146,0,0,1-.712,1.987H918.3c-.038,5.618,6.852,7.436,14.092,3.677l3.4,3.208a13.192,13.192,0,0,1-6.656,4.258c-.865.251-1.729.506-2.594.76Zm-5.411-16.658h12.906c-.5-3.749-2.75-5.877-6.165-5.949C921.018,87.532,918.607,89.607,917.917,93.557Z" transform="translate(-748.506 -68.459)" fill="#979da4"/>
  <path id="Path_1485" data-name="Path 1485" d="M964.758,110.236a39.906,39.906,0,0,1-4.716-1.617A14.241,14.241,0,0,1,952.5,92.884a13.941,13.941,0,0,1,24.775-6l-4.368,4.248c-2.45-2.06-4.987-3.558-8.209-2.774a6.635,6.635,0,0,0-3.92,2.6,8.275,8.275,0,0,0,.628,10.344c2.85,2.889,6.579,2.7,11.675-.792l4.323,4.1a12.93,12.93,0,0,1-6.874,4.805c-.855.268-1.708.544-2.562.817Z" transform="translate(-760.111 -68.481)" fill="#979da4"/>
  <path id="Path_1486" data-name="Path 1486" d="M685.888,93.265c.284-.766.6-1.523.845-2.3,3.21-9.958,16.39-12.823,23.4-5.079a11.32,11.32,0,0,1,.754,1.091l-4.3,4.077c-2.375-1.94-4.962-3.609-8.109-2.641a8.739,8.739,0,0,0-3.9,2.566c-2.338,2.758-2.017,7.516.39,10.147,2.79,3.05,6.143,2.921,11.881-.552.789.731,1.6,1.528,2.456,2.262.578.493,1.232.9,2,1.452A12.719,12.719,0,0,1,704.3,109.4c-.928.3-1.871.561-2.807.84h-3.212a5.773,5.773,0,0,0-1-.426c-5.771-1.264-9.339-4.808-10.882-10.466-.139-.507-.334-1-.5-1.5Z" transform="translate(-685.888 -68.486)" fill="#979da4"/>
  <path id="Path_1487" data-name="Path 1487" d="M1002.936,106.851a4.668,4.668,0,0,0-.814-.38c-4.984-1.262-7.067-3.827-7.128-8.91-.043-3.513-.009-7.026-.009-10.539V84.585l-4.574-.272V78.852l4.5-.263V72.4l7.222-3.107V78.7h6.635V84.32h-6.444c-.053,1.135-.122,1.953-.125,2.771-.009,3.207-.082,6.417.031,9.621.111,3.146,1.693,4.052,4.565,2.774.757-.338,1.49-.729,2.505-1.228l3.591,4.5a10.567,10.567,0,0,1-5.286,3.343l-2.371.753Z" transform="translate(-770.757 -65.096)" fill="#979da4"/>
  <path id="Path_1488" data-name="Path 1488" d="M874.2,63.474c.428.283.86.558,1.282.85a3.906,3.906,0,0,1,1.586,4.576,3.982,3.982,0,0,1-3.79,2.753,4.008,4.008,0,0,1-2.2-7.335c.421-.291.855-.563,1.282-.845Z" transform="translate(-737 -63.474)" fill="#979da4"/>
  <path id="Path_1489" data-name="Path 1489" d="M1033.258,114.247c-.229.28-.475.549-.684.843a3.968,3.968,0,0,1-4.511,1.792,4.285,4.285,0,0,1-2.938-3.927,4.162,4.162,0,0,1,2.831-3.75,3.968,3.968,0,0,1,4.694,1.82c.206.307.405.618.608.927Z" transform="translate(-780.431 -76.162)" fill="#979da4"/>
  <path id="Path_1490" data-name="Path 1490" d="M771.89,63.474c.534.283,1.094.527,1.6.855a4.055,4.055,0,0,1,1.569,4.635,4,4,0,0,1-3.621,2.688,4,4,0,0,1-2.46-7.279c.488-.337,1.024-.6,1.539-.9Z" transform="translate(-708.569 -63.474)" fill="#979da4"/>
  <path id="Path_1492" data-name="Path 1492" d="M892.755,109.2H885.7V82.269h6.622l.578,3.072c4.323-4.428,7.653-5.054,11.063-2.1-.314.858-.62,1.783-.992,2.68-.344.83-.759,1.629-1.176,2.514-.774-.1-1.436-.208-2.1-.283-4.035-.45-6.681,1.754-6.772,5.814-.1,4.272-.027,8.547-.045,12.821C892.877,107.534,892.805,108.278,892.755,109.2Z" transform="translate(-741.575 -68.478)" fill="#979da4"/>
  <path id="Path_1493" data-name="Path 1493" d="M877,109.531h-6.977V82.605H877Z" transform="translate(-737.205 -68.806)" fill="#979da4"/>
  <path id="Path_1494" data-name="Path 1494" d="M790.7,109.208h-6.842V82.255h6.712l.34,3.769a4.216,4.216,0,0,0,.855-.593c2.86-3.457,6.441-4.849,10.81-3.573a9.1,9.1,0,0,1,6.789,8.643c.391,6.147.1,12.338.1,18.664H802.5c-.067-.757-.194-1.549-.2-2.344-.021-3.824-.007-7.647-.012-11.47,0-.687.005-1.378-.056-2.062-.189-2.1-.93-3.912-3.055-4.717a5.639,5.639,0,0,0-6.167,1.21,6.559,6.559,0,0,0-2.2,5.1c.03,3.976.014,7.952,0,11.929C790.807,107.555,790.744,108.3,790.7,109.208Z" transform="translate(-713.192 -68.468)" fill="#979da4"/>
  <path id="Path_1495" data-name="Path 1495" d="M775.18,109.552h-7.1V82.627h6.8c.612,2.106.217,4.375.283,6.6.067,2.285.015,4.573.015,6.86v13.468Z" transform="translate(-708.794 -68.812)" fill="#979da4"/>
</svg>
