<svg xmlns="http://www.w3.org/2000/svg" xmlns:xlink="http://www.w3.org/1999/xlink" height="60.641" viewBox="0 0 310.438 60.641" style="width:100%; height:100%">
  <defs>
    <clipPath id="clip-path">
      <rect id="Rectangle_888" data-name="Rectangle 888" width="310.438" height="60.641" fill="none"/>
    </clipPath>
  </defs>
  <g id="Component_233_1" data-name="Component 233 – 1" opacity="0.998">
    <g id="Group_1799" data-name="Group 1799" opacity="0.42" clip-path="url(#clip-path)">
      <path id="Path_4567" data-name="Path 4567" d="M68.264,47.266a12.062,12.062,0,0,1-6.551-1.816A12.58,12.58,0,0,1,57.227,40.3a19.187,19.187,0,0,1-1.593-8.2,18.187,18.187,0,0,1,1.712-8.256,12.085,12.085,0,0,1,11.213-7.026,9.5,9.5,0,0,1,8.97,5.563V4.578h8.086v42.1H78.355L78,41a10.1,10.1,0,0,1-3.837,4.626,10.818,10.818,0,0,1-5.9,1.64m2.36-6.149a6.063,6.063,0,0,0,5.016-2.4,11.124,11.124,0,0,0,1.889-6.909,9.941,9.941,0,0,0-1.889-6.5,5.9,5.9,0,0,0-4.9-2.342,6.31,6.31,0,0,0-5.194,2.342Q63.72,27.591,63.72,32.04t1.829,6.792a6.144,6.144,0,0,0,5.076,2.284" transform="translate(16.676 1.372)" fill="#1e2b3b"/>
      <path id="Path_4568" data-name="Path 4568" d="M99.073,13.994a16.5,16.5,0,0,1,7.848,1.814,12.859,12.859,0,0,1,5.312,5.212,16.222,16.222,0,0,1,1.948,8.2,16.227,16.227,0,0,1-1.948,8.2,12.864,12.864,0,0,1-5.312,5.211,18,18,0,0,1-15.756,0,13.324,13.324,0,0,1-5.312-5.211,16.632,16.632,0,0,1-1.889-8.2,16.627,16.627,0,0,1,1.889-8.2,13.319,13.319,0,0,1,5.312-5.212,16.62,16.62,0,0,1,7.908-1.814m0,5.972a6.311,6.311,0,0,0-5.2,2.342q-1.827,2.283-1.827,6.909t1.827,6.968a6.375,6.375,0,0,0,5.2,2.284,6.136,6.136,0,0,0,5.074-2.284q1.889-2.342,1.889-6.968t-1.889-6.909a6.078,6.078,0,0,0-5.074-2.342" transform="translate(25.169 4.194)" fill="#1e2b3b"/>
      <path id="Path_4569" data-name="Path 4569" d="M126.194,13.994q5.9,0,9.148,2.518a11.818,11.818,0,0,1,4.366,6.091L132.154,25.3q-1.181-5.328-5.844-5.329a6.377,6.377,0,0,0-5.252,2.342q-1.829,2.343-1.829,6.968,0,4.685,1.889,6.969a6.627,6.627,0,0,0,5.252,2.225q5.135,0,6.137-5.212l7.318,2.342a10.966,10.966,0,0,1-4.484,6.383,14.929,14.929,0,0,1-8.911,2.459,17.247,17.247,0,0,1-8.086-1.816,12.849,12.849,0,0,1-5.312-5.211,16.644,16.644,0,0,1-1.887-8.2,16.646,16.646,0,0,1,1.887-8.2,13.332,13.332,0,0,1,5.312-5.211,16.5,16.5,0,0,1,7.849-1.816" transform="translate(33.316 4.194)" fill="#1e2b3b"/>
      <path id="Path_4570" data-name="Path 4570" d="M158.64,16.51v5.972H149.2v13.76a4.062,4.062,0,0,0,1.062,3.1,4.538,4.538,0,0,0,3.009.937,7.242,7.242,0,0,0,2.6-.409,7.471,7.471,0,0,0,2.007-1.23l1.3,5.328a11.428,11.428,0,0,1-3.6,1.757,14.792,14.792,0,0,1-4.426.643,12.345,12.345,0,0,1-7.259-1.99q-2.772-2.051-2.774-6.852V22.483h-5.429V16.51h5.429V9.776L149.2,7.551V16.51Z" transform="translate(40.671 2.263)" fill="#1e2b3b"/>
      <path id="Path_4571" data-name="Path 4571" d="M171.392,13.994a16.508,16.508,0,0,1,7.85,1.814,12.844,12.844,0,0,1,5.312,5.212,16.235,16.235,0,0,1,1.946,8.2,16.24,16.24,0,0,1-1.946,8.2,12.849,12.849,0,0,1-5.312,5.211,18,18,0,0,1-15.757,0,13.321,13.321,0,0,1-5.311-5.211,16.632,16.632,0,0,1-1.89-8.2,16.627,16.627,0,0,1,1.89-8.2,13.316,13.316,0,0,1,5.311-5.212,16.622,16.622,0,0,1,7.906-1.814m0,5.972a6.3,6.3,0,0,0-5.191,2.342q-1.829,2.283-1.83,6.909t1.83,6.968a6.367,6.367,0,0,0,5.191,2.284,6.139,6.139,0,0,0,5.076-2.284q1.887-2.342,1.889-6.968t-1.889-6.909a6.08,6.08,0,0,0-5.076-2.342" transform="translate(46.847 4.194)" fill="#1e2b3b"/>
      <path id="Path_4572" data-name="Path 4572" d="M184.735,43.857V14.579h7.023l.532,5.738a9.829,9.829,0,0,1,3.365-4.626,9.478,9.478,0,0,1,5.784-1.7,6.481,6.481,0,0,1,3.187.643l-.945,6.734a9.865,9.865,0,0,0-1.475-.292,10.919,10.919,0,0,0-2.185-.175,7.33,7.33,0,0,0-3.482.877,6.7,6.7,0,0,0-2.654,2.577,8.031,8.031,0,0,0-1.062,4.332V43.857Z" transform="translate(55.375 4.194)" fill="#1e2b3b"/>
      <path id="Path_4573" data-name="Path 4573" d="M211.887,4.578V37.662a4.455,4.455,0,0,0,.707,2.87,2.974,2.974,0,0,0,2.362.82,9.436,9.436,0,0,0,1.651-.118,11.291,11.291,0,0,0,1.652-.468l-.707,5.27a8.021,8.021,0,0,1-2.538.877,12.642,12.642,0,0,1-2.95.352q-4.307,0-6.314-2.05Q203.8,43.108,203.8,38.54V4.578Z" transform="translate(61.089 1.372)" fill="#1e2b3b"/>
      <path id="Path_4574" data-name="Path 4574" d="M246.234,14.444l-11.92,31.093a23.69,23.69,0,0,1-3.188,6.325,9.681,9.681,0,0,1-4.012,3.4,12.532,12.532,0,0,1-5.372,1.054,16.258,16.258,0,0,1-4.249-.526,11.62,11.62,0,0,1-3.3-1.465l1.712-5.8a8.1,8.1,0,0,0,5.194,1.639,5.564,5.564,0,0,0,2.891-.7,5.442,5.442,0,0,0,2.007-2.811l1-2.518-3.245-7.613-9.029-22.075h8.971L229.3,32.01l1.534,5.857,1.83-6.208,5.371-17.215Z" transform="translate(64.203 4.329)" fill="#1e2b3b"/>
      <path id="Path_4575" data-name="Path 4575" d="M26,22.159H37.508v8.714H48.193a28.5,28.5,0,0,0,.152-2.941A28.1,28.1,0,0,0,25.984.443Z" transform="translate(7.789 0.132)" fill="#1e2b3b"/>
      <path id="Path_4576" data-name="Path 4576" d="M21.969,22.361V10.845h8.789V.147C29.8.052,28.833,0,27.848,0A28.042,28.042,0,0,0,.444,22.361Z" transform="translate(0.133 -0.001)" fill="#1e2b3b"/>
      <path id="Path_4577" data-name="Path 4577" d="M28.138,25.806V37.383h-8.8V48.115a28.443,28.443,0,0,0,3.049.168,27.79,27.79,0,0,0,17.631-6.326,28.356,28.356,0,0,0,9.749-16.151Z" transform="translate(5.795 7.735)" fill="#1e2b3b"/>
      <path id="Path_4578" data-name="Path 4578" d="M22.247,27.969h-11.4V19.244H.151A28.9,28.9,0,0,0,0,22.188,28.13,28.13,0,0,0,22.247,49.674Z" transform="translate(0 5.768)" fill="#1e2b3b"/>
    </g>
  </g>
</svg>
