<svg xmlns="http://www.w3.org/2000/svg" width="238.162" height="53.649" viewBox="0 0 238.162 53.649">
  <g id="Group_115" data-name="Group 115" opacity="0.42">
    <path id="Path_701" data-name="Path 701" d="M0,53.649c0-.22.008-.439.008-.659q0-26.14,0-52.28V.027C.182.018.324,0,.465,0Q15.419,0,30.374.008c.8,0,1.6.122,2.4.194a24.516,24.516,0,0,1,6.1,1.427,26.287,26.287,0,0,1,4.782,2.3A28.625,28.625,0,0,1,48.171,7.4,26.3,26.3,0,0,1,53.4,14.2,25.544,25.544,0,0,1,55.8,20.348,21.259,21.259,0,0,1,56.421,24c.06.872.183,1.744.181,2.617,0,.982-.118,1.964-.179,2.946a21.644,21.644,0,0,1-.679,3.924,25.182,25.182,0,0,1-1.437,4.126,26.509,26.509,0,0,1-2.5,4.432,30.406,30.406,0,0,1-2,2.541,26.288,26.288,0,0,1-5.893,4.977,25.254,25.254,0,0,1-8.377,3.426c-.981.2-1.971.362-2.96.522-.288.047-.587.021-.879.043a1.333,1.333,0,0,0-.292.091H21.484c0-.2.014-.4.014-.6q0-4.781,0-9.563c0-.191-.069-.4.079-.587h.608c2.552,0,5.1-.013,7.654.006a14.582,14.582,0,0,0,3-.271,15.742,15.742,0,0,0,4.5-1.661A16.359,16.359,0,0,0,44.518,33.1a16.4,16.4,0,0,0,1.3-6.109c.013-.508-.066-1.018-.085-1.528a12.089,12.089,0,0,0-.4-2.477,16.162,16.162,0,0,0-1.644-4.1,17.185,17.185,0,0,0-2.421-3.242,18.2,18.2,0,0,0-1.72-1.529,14.514,14.514,0,0,0-2.728-1.727,14.311,14.311,0,0,0-3.068-1.15,13.565,13.565,0,0,0-3.184-.478q-9.719-.016-19.438-.011a3.339,3.339,0,0,0-.351.04v6.5q0,2.94,0,5.881,0,2.9,0,5.805,0,12.036,0,24.072c0,.2.014.4.022.6Z" transform="translate(0 0)" fill="#1e2b3b"/>
    <path id="Path_702" data-name="Path 702" d="M73.431,73.251c-.007.142-.016.23-.016.318q.006,5.167.014,10.334c0,.014.017.03.028.043s.026.026.054.054h.535c2.277,0,4.553.006,6.83,0a11.642,11.642,0,0,0,1.473-.1,5.331,5.331,0,0,0,1.857-9.943,5.738,5.738,0,0,0-2.893-.7H73.431Z" transform="translate(-51.918 -51.807)" fill="#1e2b3b"/>
    <path id="Path_703" data-name="Path 703" d="M725.6,100.894c.267-.639.528-1.28.8-1.916q1.153-2.689,2.314-5.374c.405-.937.8-1.88,1.235-2.8a1.229,1.229,0,0,0,.034-1.091c-1.082-2.627-2.139-5.265-3.207-7.9q-1.654-4.077-3.314-8.151-1.383-3.391-2.778-6.779c.405-.088,6.964-.116,7.886-.032.046.113.1.242.15.374.606,1.717,1.218,3.431,1.813,5.151q1.671,4.824,3.327,9.653c.017.05.045.1.1.212.34-.651.516-1.31.773-1.934.263-.639.48-1.3.726-1.944s.493-1.293.756-1.933.555-1.27.824-1.908.524-1.281.79-1.921.536-1.277.8-1.916.532-1.278.8-1.918l.8-1.928h7.589c-.342.8-.673,1.583-1.009,2.363q-.972,2.26-1.95,4.519c-.529,1.221-1.065,2.439-1.592,3.662-.613,1.423-1.216,2.85-1.829,4.273-.512,1.189-1.033,2.373-1.546,3.561-.665,1.54-1.325,3.082-1.991,4.621-.608,1.405-1.226,2.806-1.833,4.213-.643,1.489-1.276,2.982-1.916,4.472-.267.62-.547,1.234-.81,1.856a4,4,0,0,0-.144.515Z" transform="translate(-509.658 -47.245)" fill="#1e2b3b"/>
    <path id="Path_704" data-name="Path 704" d="M233.007,67.571V33.416c.124-.007.229-.018.333-.018l14.322.006a19.5,19.5,0,0,1,6.116,1.3,15.023,15.023,0,0,1,3.829,2.216,15.31,15.31,0,0,1,3.126,3.365,17.261,17.261,0,0,1,2.448,5.923,21.275,21.275,0,0,1,.387,5.989,17.08,17.08,0,0,1-1.577,6.2,16.88,16.88,0,0,1-1.97,3.211,14.353,14.353,0,0,1-2.809,2.68,16.616,16.616,0,0,1-5.884,2.7,20.46,20.46,0,0,1-2.2.377,30.089,30.089,0,0,1-4.324.208q-5.563-.008-11.127,0Zm7.262-7.116h.6c1.761,0,3.523,0,5.284,0a16.955,16.955,0,0,0,1.7-.08,10.817,10.817,0,0,0,2.806-.66A8.263,8.263,0,0,0,254.48,56.8a10.3,10.3,0,0,0,1.845-5.35,12.278,12.278,0,0,0-.113-2.951A10.928,10.928,0,0,0,255,44.9a8.443,8.443,0,0,0-1.969-2.407,9.662,9.662,0,0,0-6.07-2.153c-2.108-.061-4.219-.018-6.329-.018a2.681,2.681,0,0,0-.365.049Z" transform="translate(-164.779 -23.621)" fill="#1e2b3b"/>
    <path id="Path_705" data-name="Path 705" d="M530.63,33.406c.12-.009.192-.019.264-.019q7.188,0,14.377,0a12.174,12.174,0,0,1,3.13.458,11.722,11.722,0,0,1,3.59,1.585,11.475,11.475,0,0,1,4.3,5.34,13.218,13.218,0,0,1,.823,3.1,11.585,11.585,0,0,1,.111,2.348,12.911,12.911,0,0,1-1.686,5.766,11.165,11.165,0,0,1-4.1,4.1,12.5,12.5,0,0,1-4.369,1.5,14.46,14.46,0,0,1-2.343.2q-3.085-.007-6.17,0h-.595V62.67c0,1.607,0,3.214,0,4.8-.464.109-6.639.13-7.329.037ZM538,40.414c-.088.919-.057,10.132.033,10.565.1,0,.205.015.312.015q3.219,0,6.439,0a5.266,5.266,0,0,0,1.872-.343,4.825,4.825,0,0,0,2.953-2.97A5.218,5.218,0,0,0,549.9,44.9a5.679,5.679,0,0,0-.595-1.86,5,5,0,0,0-4.515-2.616c-2.091-.028-4.183-.006-6.274-.006Z" transform="translate(-375.254 -23.613)" fill="#1e2b3b"/>
    <path id="Path_706" data-name="Path 706" d="M642.631,67.506c.323-.687-.017-1.427.292-2.068h6.5c.091.656.072,23.883-.016,24.286-.4.092-5.874.107-6.458.01l-.2-2.225c-.312.265-.591.5-.865.735a9.111,9.111,0,0,1-3.063,1.664,10.748,10.748,0,0,1-4.374.54,14.267,14.267,0,0,1-4.05-.848,10.909,10.909,0,0,1-3.642-2.286,11.782,11.782,0,0,1-3.38-6.432,16.611,16.611,0,0,1-.293-4.465,13.808,13.808,0,0,1,1.174-4.852,10.959,10.959,0,0,1,6.026-5.758,14.576,14.576,0,0,1,3-.809,13.374,13.374,0,0,1,3.562-.108,9.694,9.694,0,0,1,5.209,2.092C642.241,67.132,642.408,67.3,642.631,67.506Zm-6.361,3.556c-.47.053-.945.083-1.41.164a5.611,5.611,0,0,0-4.2,3.092,7.22,7.22,0,0,0-.637,4.513,6.1,6.1,0,0,0,2.035,3.771,5.461,5.461,0,0,0,2.454,1.27,7.437,7.437,0,0,0,2.709.147,5.744,5.744,0,0,0,4.136-2.48,7.253,7.253,0,0,0,.121-7.741,5.607,5.607,0,0,0-2.045-1.939A6.282,6.282,0,0,0,636.27,71.061Z" transform="translate(-440.609 -45.845)" fill="#1e2b3b"/>
    <path id="Path_707" data-name="Path 707" d="M460.659,79.748H442.748c-.164.231-.041.391.025.553a5.11,5.11,0,0,0,3.15,2.866,8.483,8.483,0,0,0,3.013.46,10.292,10.292,0,0,0,4.093-.86,4.888,4.888,0,0,0,1.8-1.226,3.774,3.774,0,0,1,.3-.273l4.469,4.363a10.676,10.676,0,0,1-2.74,2.256,15.93,15.93,0,0,1-5.391,1.877,16.4,16.4,0,0,1-4.049.177,13.6,13.6,0,0,1-7.107-2.415,11.042,11.042,0,0,1-3.215-3.613,13.544,13.544,0,0,1-1.448-4.212,14.484,14.484,0,0,1-.138-1.523,11.739,11.739,0,0,1-.083-1.361,14.049,14.049,0,0,1,1.523-6.2,11.3,11.3,0,0,1,4.743-4.729,13.794,13.794,0,0,1,4.184-1.392c.5-.087,1.017-.092,1.526-.138.253-.023.506-.057.759-.079a2.605,2.605,0,0,1,.385-.007q.683.043,1.364.1a14.4,14.4,0,0,1,3.781.814,10.183,10.183,0,0,1,3.2,1.867,10.68,10.68,0,0,1,3.3,5.372,15.107,15.107,0,0,1,.509,2.561,27.091,27.091,0,0,1,.114,2.844C460.813,78.438,460.718,79.051,460.659,79.748ZM453.906,73.9a.893.893,0,0,0,0-.253,4.348,4.348,0,0,0-1.414-2.042,5.671,5.671,0,0,0-3.05-1.082,8.194,8.194,0,0,0-2.831.2,5.6,5.6,0,0,0-3.7,2.944.749.749,0,0,0-.024.236Z" transform="translate(-307.925 -45.454)" fill="#1e2b3b"/>
    <path id="Path_708" data-name="Path 708" d="M370.353,91.124h-6.182c-.1-.794-.194-1.6-.3-2.453a2.7,2.7,0,0,0-.364.221,10.553,10.553,0,0,1-4.532,2.332,11.255,11.255,0,0,1-3.486.255,9.618,9.618,0,0,1-4.8-1.666,9.385,9.385,0,0,1-2.858-3.271,12.892,12.892,0,0,1-1.445-4.44,16.722,16.722,0,0,1-.2-2.337q0-6.321,0-12.641v-.266c.4-.1,5.9-.135,6.8-.04.007.187.02.383.02.578,0,4.049-.016,8.1.011,12.146a6.173,6.173,0,0,0,1.088,3.716,4.429,4.429,0,0,0,2.741,1.774,6.1,6.1,0,0,0,2.557-.012,4.753,4.753,0,0,0,1.857-.905,6.014,6.014,0,0,0,2.237-4.948q0-5.853,0-11.707v-.6a67.4,67.4,0,0,1,6.817-.069c.013.013.026.025.037.04s.029.029.029.044q.007,11.982.011,23.963A2.753,2.753,0,0,1,370.353,91.124Z" transform="translate(-244.816 -47.206)" fill="#1e2b3b"/>
    <path id="Path_709" data-name="Path 709" d="M73.431,73.251h7.883a5.738,5.738,0,0,1,2.893.7A5.322,5.322,0,0,1,82.349,83.9a11.642,11.642,0,0,1-1.473.1c-2.277.01-4.553,0-6.83,0h-.535c-.028-.028-.042-.04-.054-.054s-.028-.029-.028-.043q-.008-5.167-.014-10.334C73.415,73.48,73.423,73.392,73.431,73.251Z" transform="translate(-51.918 -51.807)" fill="#1e2b3b"/>
  </g>
</svg>
