<svg id="Component_216_2" data-name="Component 216 – 2" xmlns="http://www.w3.org/2000/svg" width="260.999" height="63.019" viewBox="0 0 260.999 63.019">
  <path id="Path_1450" data-name="Path 1450" d="M747.369,256.728a39.205,39.205,0,0,1-4.155,6.507,23.245,23.245,0,0,1-11.571,7.461,31.477,31.477,0,0,1-7.882,1.027c-7.456.132-14.915.046-22.588.046-.063-.645-.178-1.273-.179-1.9-.013-7.543-.039-15.087,0-22.631a24.14,24.14,0,0,1,19.16-23.16,10.693,10.693,0,0,1,2-.058,6.4,6.4,0,0,1-.06,1.5,23.158,23.158,0,0,0-1.057,9.817,28.583,28.583,0,0,0,2.208,7.976,23.05,23.05,0,0,0,9.261,10.048,20.751,20.751,0,0,0,11.85,3.388c.917-.04,1.838,0,2.757,0A1.555,1.555,0,0,0,747.369,256.728Z" transform="translate(-700.974 -208.911)" fill="#979da4"/>
  <path id="Path_1451" data-name="Path 1451" d="M744.984,208.628c-.175-1.657,1.016-2.792,1.794-3.947a23.681,23.681,0,0,1,13.988-9.944,22.324,22.324,0,0,1,9.527-.347,24.072,24.072,0,0,1,10.158,4.076,22.513,22.513,0,0,1,9.39,13.488c.526,2.25,1.208,4.477.945,6.8-.64,5.638-2.193,10.886-6.3,15.145-2.246,2.332-4.547,4.54-7.531,5.835a21.72,21.72,0,0,1-7.752,2.124,1.557,1.557,0,0,1-.256.02,22.367,22.367,0,0,0,1.176-14.673A22.963,22.963,0,0,0,758.2,211.649,26.573,26.573,0,0,0,744.984,208.628Z" transform="translate(-722.812 -194.037)" fill="#aeb4ba"/>
  <path id="Path_1452" data-name="Path 1452" d="M742.75,223.006a26.574,26.574,0,0,1,13.22,3.022,22.963,22.963,0,0,1,11.923,15.552,22.367,22.367,0,0,1-1.176,14.673c-.919,0-1.84-.042-2.757,0a20.75,20.75,0,0,1-11.85-3.388,23.051,23.051,0,0,1-9.261-10.048,28.585,28.585,0,0,1-2.208-7.976,23.159,23.159,0,0,1,1.057-9.817,6.4,6.4,0,0,0,.06-1.5Z" transform="translate(-720.579 -208.416)" fill="#8b9095"/>
  <path id="Path_1453" data-name="Path 1453" d="M918.67,234.157h7.763c3.995,11.862,7.566,23.9,11.561,35.548,1.758.656,2.121-.372,2.443-1.335.9-2.687,1.737-5.393,2.626-8.083,2.874-8.7,5.759-17.392,8.661-26.151h7.5c-.273.976-.465,1.84-.755,2.67q-5.965,17.121-11.96,34.232c-1.7,4.852-6.1,7.084-10.47,5.327a7.78,7.78,0,0,1-4.6-4.993c-2.154-6.31-4.364-12.6-6.554-18.9q-2.873-8.263-5.745-16.527C918.955,235.414,918.851,234.854,918.67,234.157Z" transform="translate(-809.039 -213.942)" fill="#979da4"/>
  <path id="Path_1454" data-name="Path 1454" d="M1187,286.108h-6.368c-.2-.529-.422-1.113-.662-1.743a2.756,2.756,0,0,0-.7.184,15.5,15.5,0,0,1-13.956,1.242,16.256,16.256,0,0,1-8.276-23.443,15.648,15.648,0,0,1,12.125-7.936,15.978,15.978,0,0,1,17.985,15.049c.211,5.274.051,10.562.047,15.844A3.866,3.866,0,0,1,1187,286.108Zm-16.11-5.6c5.936.291,10.037-4.735,10.213-9.565.228-6.27-5.332-10.332-9.739-10.38a10.061,10.061,0,0,0-10.344,10.025A9.818,9.818,0,0,0,1170.892,280.509Z" transform="translate(-926.262 -223.952)" fill="#979da4"/>
  <path id="Path_1455" data-name="Path 1455" d="M883.966,273.367c-7.248.085-14.329,0-21.633.051a5.817,5.817,0,0,0,1.9,4.263c2.04,2.126,4.692,2.8,7.507,2.885,2.756.084,5.517.018,8.247.018a13.328,13.328,0,0,1,0,5.955c-4.833-.208-9.767.526-14.558-1.036-5.191-1.693-8.933-4.982-10.193-10.413-1.837-7.922,1.2-15.814,8.214-18.766,5.36-2.257,10.595-2,15.394,1.568,3.316,2.464,4.544,6.091,5.081,9.966A42.27,42.27,0,0,1,883.966,273.367Zm-6.91-4.906c-.355-4.982-2.779-7.7-7.091-7.778-3.344-.063-7.254,1.874-7.817,7.778Z" transform="translate(-777.29 -224.234)" fill="#979da4"/>
  <path id="Path_1456" data-name="Path 1456" d="M1030.771,256.7h6.854c.051.718.126,1.283.127,1.848.008,5.2-.007,10.4.008,15.593.021,7.266-4.926,13.384-13.488,13.9a15.593,15.593,0,0,1-10.867-2.969,12.592,12.592,0,0,1-5.077-9.919c-.195-5.862-.055-11.735-.045-17.6a3.69,3.69,0,0,1,.251-.847h6.542c.052.548.149,1.1.15,1.662q.018,7.671,0,15.342a8.616,8.616,0,0,0,1.49,5.208,7.782,7.782,0,0,0,8.7,2.838,7.321,7.321,0,0,0,5.335-7.089c.077-5.112.021-10.228.021-15.341Z" transform="translate(-853.495 -225.141)" fill="#979da4"/>
  <path id="Path_1457" data-name="Path 1457" d="M1090.81,286.427h-6.751a16.312,16.312,0,0,1-.163-1.634c-.013-5.279.132-10.563-.042-15.838-.225-6.831,4.194-12.681,12.137-13.817a15.462,15.462,0,0,1,12.69,3.34,11.642,11.642,0,0,1,4.371,8.709c.172,6.355.049,12.718.049,19.209h-6.749c-.046-.525-.15-1.158-.151-1.79q-.021-8.046-.007-16.09a7.686,7.686,0,0,0-7.746-7.547,7.412,7.412,0,0,0-7.609,7.37c-.114,4.774-.028,9.553-.029,14.329Z" transform="translate(-891.033 -224.266)" fill="#979da4"/>
</svg>
