<svg xmlns="http://www.w3.org/2000/svg" width="347.164" height="79.848" viewBox="0 0 347.164 79.848">
  <g id="Group_116" data-name="Group 116" opacity="0.42">
    <path id="Path_710" data-name="Path 710" d="M2.118,29.481c2.552-2.739,4.723-5.1,6.957-7.407.2-.207.8-.028,1.334-.028V17.4c1.186-2,2.253-3.808,3.34-5.609a3.933,3.933,0,0,1,.9-1.223,26.584,26.584,0,0,0,3.512-2.342c.976-.972,1.4-2.484,2.364-3.481a12.7,12.7,0,0,1,7.39-3.9C29.229.657,30.538-.481,31.8.233a7.657,7.657,0,0,0,3.376.585c.908.5,1.6.924,2.315,1.28a14.9,14.9,0,0,1,7.839,9.3,8.435,8.435,0,0,1,.055,1.91c0,2.87,0,5.74,0,8.718h8.185c.316.5.614.916.843,1.367.087.17,0,.422.015.636.214,4.2.136,8.441.744,12.583.431,2.934.1,5.907.663,8.729.524,2.629.045,5.281.629,7.773.59,2.518.11,5.052.632,7.456a47.76,47.76,0,0,1,.587,8.112,4.611,4.611,0,0,0,.544,1.467l-9.737,9.7H.181c0-4.058-.489-8.276.144-12.319a60.191,60.191,0,0,0,.423-11.01c-.095-3.606.754-7.1.731-10.67-.024-3.645-.051-7.291.024-10.934.02-.987.49-1.958.592-2.953A19.411,19.411,0,0,0,2.118,29.481ZM21.129,6.7c5.012-.394,9.467-.01,13.155,3.311,3.542,3.19,5.55,7.06,5.3,11.88H44.1c0-2.191-.134-4.237.033-6.258.222-2.69-.843-4.983-1.995-7.23a11.535,11.535,0,0,0-9.475-6.255,11.572,11.572,0,0,0-11.1,4.517l-.126-.126-.528.448.2.2C21.261,7.015,21.411,6.839,21.129,6.7ZM37.59,29.88H11.89c-.255,2.389.141,4.71-.245,7.073l-1.186-.32V29.916H3.41c0,2.933-.192,5.734.054,8.5s-.82,5.368-.709,8.1c.381,9.356-1.123,18.67-.652,28.031a6.712,6.712,0,0,1-.258,1.495c-.119.639-.239,1.278-.352,1.878h46.48c0-2.121.017-4.142,0-6.163a56.031,56.031,0,0,0-.522-5.857,87.646,87.646,0,0,1-.111-10.919c.035-3.573-.984-7.058-.689-10.669.4-4.833-.231-9.64-.847-14.54-1.04,0-2.1-.015-3.164,0-1.027.019-2.053.072-3.185.114v7.254L37.59,35.9Zm10.339-.391c.375,4.092-.339,8.276.587,12.494.561,2.555-.008,5.338.135,8.007.144,2.7-.214,5.363.48,8.121.634,2.519.135,5.321.135,8,0,1.82-.11,3.649.032,5.459.134,1.712.531,3.4.8,5.019l6.38-6.355c-.218-1.841-.5-4.09-.748-6.344-.215-1.946.2-3.881-.548-5.875-.529-1.409-.019-3.18-.126-4.779-.1-1.525-.444-3.032-.612-4.555-.227-2.051.511-4.2-.655-6.157a65.776,65.776,0,0,0-.585-9.376c-.214-2.644-.011-5.316-1.084-7.829ZM37.47,22.046a10.17,10.17,0,0,0-1.177-7.281,13.749,13.749,0,0,0-5.155-5.01c-2.865-1.8-5.882-.991-8.845-1.211a4.071,4.071,0,0,0-3.356,1.588c-.208,1.151-.537,2.431-.647,3.728a38.8,38.8,0,0,0-.019,4.167,19.631,19.631,0,0,0,.145,4.019ZM11.917,23.383v5.1c4.4,0,8.68,0,12.964,0,4.256,0,8.511.007,12.647-.005V23.383Zm27.766,0v5.042h6.731c1.547-1.54,3.06-3.048,4.573-4.556.072-.071.2-.161.188-.223-.015-.086-.136-.153-.246-.263ZM16.259,21.992c.326-3.763-.453-7.3.639-10.879-3.88,3.383-5.266,6.509-4.872,10.879ZM4.74,28.367h5.628v-5c-.355-.017-.66-.121-.758-.022C8,24.977,6.414,26.632,4.74,28.367Z" transform="translate(0 0)" fill="#1e2b3b"/>
    <path id="Path_711" data-name="Path 711" d="M279.525,96.354c0-.649,0-1.077,0-1.507.075-.076.152-.217.228-.217,2.658-.012,5.316-.01,8.043-.01.065.31.125.6.234,1.124,4.043-2.258,7.913-2.512,11.181,1.373,1.62-1.927,4.06-2.221,6.12-3.231.119-.059,4.422,1.182,4.626,1.279a3.941,3.941,0,0,1,2.11,2.52,7.49,7.49,0,0,1,.38,2.087c.036,3.955.017,7.91.017,12.091h3.056c.09.423.228.673.155.807a9.187,9.187,0,0,1-.781,1.063H304.776c-.023-.519-.049-1.1-.078-1.765l2.323-.121c.1-.1.246-.179.247-.255.017-4.711.039-9.423-.009-14.133,0-.312-.548-.618-.834-.92-3.814-.128-3.814-.128-6.155,2.091v13.192l2.374.134v1.663c.068-.086,0,.065-.059.065-3.208.012-6.416.01-9.94.01l-1.25-1.738h3.631c0-4.274.078-8.327-.055-12.372a10.236,10.236,0,0,0-1.134-3.038h-3.124L288,98.453v13.4h2.434v1.854h-10.1l-1.221-1.611,3.51-.292V96.529Z" transform="translate(-171.488 -57.683)" fill="#1e2b3b"/>
    <path id="Path_712" data-name="Path 712" d="M866.476,107.208a7.2,7.2,0,0,0,.919,2.159,2.678,2.678,0,0,1,.468,2.969c-.728,1.675-1.366,3.565-3.391,4.348-1.908.737-3.72,1.785-5.9,1.353a7.218,7.218,0,0,0-1.289-.012c-2.186-.025-4.405.261-6.89-1.081l-2.363-2.353c-.6-2.415,1.008-3.822,2.7-5.459l-2.107-2.414a5.249,5.249,0,0,1,2.294-5.448l-2.348-4.8c.83-1.908.578-4.255,2.5-5.732,1.738-1.335,3.956-1.362,5.825-2.308,1.093,1.114,2.6.362,3.846.84a25.525,25.525,0,0,0,2.759.693,7.577,7.577,0,0,1-.7-1.495,4.88,4.88,0,0,1-.022-1.145l1.737-2.312,2.722,1.05v3.6l-3,1.595a41.767,41.767,0,0,1,1.735,4.121c.48,1.562-1.389,4.926-3.143,5.916a7.544,7.544,0,0,1-4.949,1.29c-1.627-.256-3.414.7-4.9-.941l-1.916,2.294c.391.346.845,1.091,1.388,1.163a35.156,35.156,0,0,0,4.189.063,24.779,24.779,0,0,1,5.893.531C863.954,106.047,865.063,106.946,866.476,107.208ZM854.471,116.1c1.384,0,3-.089,4.6.022a5.33,5.33,0,0,0,5-2.4,5.042,5.042,0,0,0-.022-1.337,18.2,18.2,0,0,0-.816-1.947c-2.975-1.476-6.169-.459-9.136-.784-1.277,1.184-2.393,2.274-2.288,4.143Zm.64-15.549h4.369l1.39-2.338c-.287-2.266.78-5.023-1.591-7.15h-3.971c-2.349,2.142-1.332,4.886-1.576,7.176Z" transform="translate(-520.948 -52.232)" fill="#1e2b3b"/>
    <path id="Path_713" data-name="Path 713" d="M513.508,79.648l-1.451-1.431c-2.467-.358-4.619.1-6.186,2.255V93.43l2.476.28V95.37H498.273l-1.079-1.66h3.145c.508-2.775.642-17.876.261-27.669h-3.007l-.149-1.947H505.8V77.551c1.843-.169,3.047-1.81,4.776-1.329,2.144-1.539,3.924.111,5.493.982a5.42,5.42,0,0,1,2.76,5.23c-.153,3.626-.04,7.264-.04,11.122h3.047c.095.422.236.669.164.8a9.162,9.162,0,0,1-.773,1.068H511.19l-1.163-1.672,3.481-.262Z" transform="translate(-305.474 -39.379)" fill="#1e2b3b"/>
    <path id="Path_714" data-name="Path 714" d="M621.244,96.894H618.91L617.857,95.1h8.488l.24.916c.151.01.342.082.449.017a6.588,6.588,0,0,1,3.423-1.109c1.327-.017,2.464-.625,4.025-.108a10.151,10.151,0,0,1,4.211,2.306c1.22,1.2,2.228,2.458,2.02,4.3,1.606,2.5.479,5.086-.195,7.421a7.619,7.619,0,0,1-4.945,4.761,10.466,10.466,0,0,1-8.944-.618v9.62h2.942c.082.383.145.675.2.95-.208.138-.374.344-.541.345-3.421.019-6.841.014-10.334.014l-.217-1.146,2.561-.234Zm5.26,2.1v11.031c1.556,2.116,3.692,2.62,6.186,2.266l2.008-2c1.383-3.369.653-6.648.851-9.619l-1.712-3.323-4.241-.6Z" transform="translate(-379.609 -58.129)" fill="#1e2b3b"/>
    <path id="Path_715" data-name="Path 715" d="M683.891,96.563V94.617h8.128l.372,1.06a1.4,1.4,0,0,0,.44-.165c1.572-1.36,3.764-.656,5.447-1.634,1.7.834,3.758.88,5.268,2.024a7.2,7.2,0,0,1,2.854,5.207,35.82,35.82,0,0,1,.01,5.134,7.13,7.13,0,0,1-3.1,5.65c-3.472,2.457-7.1,2.552-10.977.7v9.5l3,.171c.049.334.091.625.156,1.068H683.925c-.03-.291-.061-.581-.1-.959,1-.509,2.506.4,3.182-1.431V96.563Zm8.443,1.9v11.875l3.042,1.55a5.112,5.112,0,0,0,3.6-.679c1.077-.812,1.315-2.161,1.773-3.413a11.447,11.447,0,0,0,.522-2.662c.277-2.205-.429-4.3-.755-6.442l-2.132-2.234h-3.289Z" transform="translate(-420.139 -57.678)" fill="#1e2b3b"/>
    <path id="Path_716" data-name="Path 716" d="M458.606,87.421a26.625,26.625,0,0,1,.722,2.981,21.472,21.472,0,0,1,.026,2.789,3.684,3.684,0,0,0-.634.8c-1.461,3.87-4.561,5.152-8.386,5.364a11.317,11.317,0,0,1-7.34-1.782c-.365-.251-.986-.132-1.614-.2v1.858l-1.954.139V91.169c1.224-.432,1.96-.107,2.531,1.254a8.185,8.185,0,0,0,4.751,4.439c2.563,1.075,4.869.464,7.2-.2,1.286-.367,1.836-2.907,1.3-4.341-.79-2.121-2.641-3.04-4.477-3.876-2.719-1.237-5.645-1.96-8.087-3.861-4.067-3.167-4.88-9.623.5-12.526,3.214-1.734,6.507-2.329,10.022-1.016,1.209.452,2.422,1.2,3.68.027.168-.158.613-.022,1.07-.022v7h-1.7c-.558-2.842-2.311-5.037-5.083-5.6-2.49-.509-5.335-.6-7.224,2.205V77.86a18.206,18.206,0,0,0,6.678,4.274C453.568,83.258,456.6,84.785,458.606,87.421Z" transform="translate(-269.939 -43.208)" fill="#1e2b3b"/>
    <path id="Path_717" data-name="Path 717" d="M158.084,100.5l-1.249-1.781,4.159-.223V73.511h-3.563l-.224-.945c.2-.145.366-.362.528-.362,7.513-.017,15.026-.014,22.652-.014v8.574l-1.858-1a5.761,5.761,0,0,0-2.566-5.83l-9.569-.628V84.989c2.25-.134,4.637.637,6.974-.572v-3.1h1.755c-.05-.047.095.025.1.1.011,3.29.01,6.58.01,9.917-1.116.5-1.56-.276-1.8-1.081a6.587,6.587,0,0,1-.033-1.821l-2.267-1.358h-4.759V98.531h5.6c.045,1.938.045,1.958-1.153,1.961C166.62,100.5,162.427,100.5,158.084,100.5Z" transform="translate(-96.359 -44.352)" fill="#1e2b3b"/>
    <path id="Path_718" data-name="Path 718" d="M783.514,96.449H780.5V94.673h8.231c.034.486.069.993.1,1.5.152.035.4.145.442.091,1.492-1.857,3.857-1.6,5.786-2.387,2.324.907,5.02,1.264,6.015,4.117.1.276.406.477.629.727v13.04l3.345.24-.821,1.735H793.39v-1.822h3.091V97.924l-2-1.394h-2.663l-2.95,2.029v13.3h3.41l-.957,1.869H781.2l-1.165-1.672,3.48-.265Z" transform="translate(-479.25 -57.678)" fill="#1e2b3b"/>
    <path id="Path_719" data-name="Path 719" d="M242.441,111.945l1.059-.979,1.865.841-2.835,2.034a5.3,5.3,0,0,1-5.348-2.07c-2.906,2.477-6.137,2.638-9.719,1.3-1.716-1.446-3.285-3.218-2.757-5.565a7.826,7.826,0,0,1,4.876-4.655l6.654.6c.032-.85.086-1.869.1-2.887.019-1.059,0-2.118,0-3.074-1.853-1.93-3.757-2.112-5.8-.622l.84,3.061-2.309,1.834-2.708-1.21a3.116,3.116,0,0,1,.434-3.711,6.573,6.573,0,0,1,3.555-2.135c1.315-.206,2.742-.942,3.881-.643a19.148,19.148,0,0,1,4.857,1.511A4.193,4.193,0,0,1,241.5,99.74c.024,2.787.008,5.574.011,8.362C241.513,109.856,241.516,109.856,242.441,111.945Zm-12.739-2.12,3.339,2.237,3.884-2.083V106.4c-2.011-1.874-4.133-2.035-6.511-.448Q230.086,107.736,229.7,109.825Z" transform="translate(-137.995 -57.749)" fill="#1e2b3b"/>
    <path id="Path_720" data-name="Path 720" d="M563.779,99.9l4.2-4.181a12.9,12.9,0,0,0,1.743-.464c5-2.089,9.71.752,11.931,3.494.945,1.167,1.283,4.818,1.089,6.776a11.953,11.953,0,0,1-1.54,4.862,7.648,7.648,0,0,1-5.272,3.647,10.061,10.061,0,0,1-9.777-2.491,10.168,10.168,0,0,1-2.806-6.516A29.007,29.007,0,0,1,563.779,99.9Zm12.648,10.562c1.33-2.464,1.037-4.667,1.066-6.836.007-.534,0-1.067,0-1.6a6.234,6.234,0,0,0-2.255-5.164H571.53a4.188,4.188,0,0,0-2.324,3.831c-.05,3.662-1.052,7.538,1.761,11.14l3.523.559Z" transform="translate(-346.099 -58.081)" fill="#1e2b3b"/>
    <path id="Path_721" data-name="Path 721" d="M386.559,113.762c-2.523-1.477-5.449-2.215-6.676-5.176a10.917,10.917,0,0,1-.246-8.044c1.047-3.137,1.422-3.551,5.365-5.961,1.134-.387,2.217-.041,3.4-.59,1.274-.591,2.888.477,4.3.986,1.127.407,2.57.661,3.029,1.837.817,2.094,2.389,4.021,1.892,6.619H384.355c-.629,1.883.586,3.427.672,5.105,1.023.329.757,1.729,1.977,2.116,1.005.319,1.838,1.334,3.039,1.176a10.056,10.056,0,0,0,2.908-.747,26.746,26.746,0,0,0,3.151-2.066l.563,1.623C394.334,113.908,390.41,113.96,386.559,113.762Zm5.188-12.2V98.4l-1.321-1.937h-3.389c-1.554,1.418-2.71,2.9-2.039,5.1Z" transform="translate(-232.849 -57.641)" fill="#1e2b3b"/>
    <path id="Path_722" data-name="Path 722" d="M748.231,95.961c.32-.2.49-.4.661-.4,2.563-.02,5.128-.014,7.8-.014v17.25l2.585.2v1.715H749.207l-1.308-1.58,3.565-.315V97.543l-2.275-.127Z" transform="translate(-459.507 -58.702)" fill="#1e2b3b"/>
    <path id="Path_723" data-name="Path 723" d="M758.179,71.412l2.655,1.094a3.048,3.048,0,0,1-.153,4.272l-2.491.939-2.361-3.058Z" transform="translate(-464.379 -43.875)" fill="#1e2b3b"/>
    <path id="Path_724" data-name="Path 724" d="M54.874,17.083l-.45.526-.2-.2.528-.448Z" transform="translate(-33.313 -10.418)" fill="#1e2b3b"/>
  </g>
</svg>
