<svg id="Component_225_1" data-name="Component 225 – 1" xmlns="http://www.w3.org/2000/svg" xmlns:xlink="http://www.w3.org/1999/xlink"  height="62.992" viewBox="0 0 268.174 62.992" style="width:100%; height:100%">
  <defs>
    <clipPath id="clipPath">
      <rect id="Rectangle_665" data-name="Rectangle 665" width="268.174" height="62.992" fill="none"/>
    </clipPath>
    <clipPath id="clipPath-2">
      <rect id="Rectangle_664" data-name="Rectangle 664" width="268.174" height="62.993" fill="none"/>
    </clipPath>
  </defs>
  <g id="Group_1674" data-name="Group 1674" clipPath="url(#clipPath)">
    <g id="Group_1673" data-name="Group 1673" transform="translate(0 0)" opacity="0.43">
      <g id="Group_1672" data-name="Group 1672" clipPath="url(#clipPath-2)">
        <g id="Group_1671" data-name="Group 1671" transform="translate(0 0)">
          <g id="Group_1670" data-name="Group 1670" transform="translate(0 0)">
            <g id="Group_1669" data-name="Group 1669" clipPath="url(#clipPath)">
              <path id="Path_4268" data-name="Path 4268" d="M5.583,23.214H24.8v4.3H.008V0H4.254V14.743C15.183,1.232,28.452-3.124,44.4,3.92A29.215,29.215,0,0,1,61.412,27.845h-4.3A26.7,26.7,0,0,0,29.4,5.146c-12.785.547-21.557,9.913-23.82,18.068" transform="translate(0.003 0)" fill="#1e2b3b"/>
              <path id="Path_4269" data-name="Path 4269" d="M61.482,25.233v27.4H57.131V37.929C46.494,51.253,33.437,55.681,17.633,49.09,6.208,44.324.428,33.019,0,24.879H4.3A26.291,26.291,0,0,0,15.319,42.726a26.3,26.3,0,0,0,17.048,4.855c10.655-.591,21.863-9.254,23.369-18.074H36.56V25.233Z" transform="translate(0 10.358)" fill="#1e2b3b"/>
              <path id="Path_4270" data-name="Path 4270" d="M80.807,18.432l-3.932,1.921a30.6,30.6,0,0,0-2.049-2.96c-4.634-5.262-13.557-4.715-18.126,1.072-4.16,5.273-3.7,14.519.955,19.35,5.862,6.079,16.718,4.257,19.657-3.335a27.7,27.7,0,0,0,.881-3.854H66.661V26.61h15.8C84,35.584,78.945,43.29,70.772,45.152c-6.491,1.477-12.421.147-16.954-4.946C48.948,34.731,48,28.19,50.206,21.395a16.911,16.911,0,0,1,26.273-8.6,11.866,11.866,0,0,1,4.328,5.64" transform="translate(20.434 3.918)" fill="#1e2b3b"/>
              <path id="Path_4271" data-name="Path 4271" d="M136.986,36.178l3.909-1.613c.309.6.584,1.144.871,1.683,2.561,4.8,7.64,6.134,12.263,4.75a4.763,4.763,0,0,0,3.663-4.426,4.554,4.554,0,0,0-3.038-5c-2.836-1.129-5.807-1.915-8.71-2.872-4.9-1.617-7.657-5.147-7.566-9.722a8.87,8.87,0,0,1,4.467-7.76c6.161-3.794,15.3-1.219,18.589,5.2.249.484.406,1.017.644,1.629-1.344.555-2.538,1.05-3.851,1.591-.268-.51-.51-1.006-.782-1.486A9.215,9.215,0,0,0,147,13.963c-1.964.6-3.479,1.742-3.835,3.9a5.157,5.157,0,0,0,2.787,5.866,51.911,51.911,0,0,0,5.91,2.1,48.11,48.11,0,0,1,4.956,1.778c3.718,1.775,5.786,4.661,5.5,8.931a8.876,8.876,0,0,1-6.073,8.086c-7.575,2.99-16.6-.47-19.255-8.443" transform="translate(57.032 3.934)" fill="#1e2b3b"/>
              <path id="Path_4272" data-name="Path 4272" d="M125.579,30.883H106.434a7.353,7.353,0,0,0,4.442,7.16c3.779,1.729,6.871.807,10.865-3.313l3.534,1.787a11.033,11.033,0,0,1-8.618,6.12c-6.228.888-11.421-1.858-13.816-7.066A14.191,14.191,0,0,1,105.908,19.3,12.665,12.665,0,0,1,120.1,17.853a12.014,12.014,0,0,1,5.483,13.03M121,27.017a6.759,6.759,0,0,0-6.58-6.8,7.551,7.551,0,0,0-7.956,6.8Z" transform="translate(42.268 6.795)" fill="#1e2b3b"/>
              <path id="Path_4273" data-name="Path 4273" d="M87.99,30.895c.339,3.663,1.952,6.155,5.2,7.347,4.283,1.571,7.645.093,10.226-3.565l3.64,1.855a11.1,11.1,0,0,1-8.43,6.1c-7.259,1.229-13.461-2.8-14.918-9.919-1.7-8.317,2.807-14.568,9.195-16.068a11.984,11.984,0,0,1,14.836,12.865c-.116,1.289-.751,1.4-1.783,1.4-5.347-.03-10.693-.014-16.04-.014H87.99m14.826-3.885a6.88,6.88,0,0,0-7.089-6.788c-3.933.018-7.467,3.249-7.339,6.788Z" transform="translate(34.7 6.787)" fill="#1e2b3b"/>
              <path id="Path_4274" data-name="Path 4274" d="M195.521,42.238h-4.41V40.39c-.006-4.6.082-9.195-.042-13.787a5.978,5.978,0,0,0-8.814-5.413c-2.493,1.2-3.411,3.389-3.435,6-.042,4.368-.014,8.737-.014,13.107V42.2h-4.3V17.03h4.167c.054.765.109,1.566.17,2.435,4.158-3.486,8.607-4.09,12.377-1.687a8.63,8.63,0,0,1,4.3,7.638c0,5.551,0,11.1,0,16.822" transform="translate(72.652 6.798)" fill="#1e2b3b"/>
              <path id="Path_4275" data-name="Path 4275" d="M141.767,42.228h-4.461V36.44c0-3.008.014-6.015,0-9.022-.024-4.232-2.381-6.855-6.113-6.838s-6.172,2.688-6.184,6.83c-.013,4.876,0,9.753,0,14.762h-4.32V17.036h4.233c.035.773.069,1.5.11,2.412a6.453,6.453,0,0,0,.681-.491c3.072-2.94,6.7-3.3,10.428-1.8s5.583,4.529,5.619,8.546c.05,5.444.013,10.889.013,16.522" transform="translate(50.244 6.784)" fill="#1e2b3b"/>
              <path id="Path_4276" data-name="Path 4276" d="M156.928,16.79h4.164c.028.619.076,1.217.079,1.814.006,4.487-.01,8.974.007,13.461.014,3.714,2.279,6.189,5.719,6.3,3.8.118,6.4-2.224,6.505-6.094.115-4.484.035-8.972.04-13.459v-1.99h4.374V41.965h-4.139c-.059-.727-.123-1.494-.2-2.4a2.367,2.367,0,0,0-.588.306c-2.806,2.954-6.273,3.316-9.9,2.188a7.964,7.964,0,0,1-5.981-7.345c-.313-5.927-.085-11.882-.085-17.925" transform="translate(65.301 6.99)" fill="#1e2b3b"/>
              <path id="Path_4277" data-name="Path 4277" d="M79.219,19.452c2.309-2.616,5.034-3.153,8.175-2.8v4.034c-.67,0-1.276-.007-1.882,0-3.959.052-6.136,2.1-6.212,6.073-.088,4.48-.027,8.964-.03,13.445v1.909H75.039v-25.2h4c.048.688.1,1.4.177,2.535" transform="translate(31.241 6.892)" fill="#1e2b3b"/>
            </g>
          </g>
        </g>
      </g>
    </g>
  </g>
</svg>
