<svg id="Component_9_1" data-name="Component 9 – 1" xmlns="http://www.w3.org/2000/svg" width="252.251" height="55.025" viewBox="0 0 252.251 55.025">
  <g id="Group_113" data-name="Group 113" opacity="0.42">
    <path id="Path_685" data-name="Path 685" d="M44.572,43.208c-3.665,0-7.33.017-10.995-.006A5.651,5.651,0,0,1,27.7,38.665a5.241,5.241,0,0,1,.71-4.226c4.74-8.068,9.531-16.105,14.294-24.159C43.912,8.24,45.122,6.2,46.251,4.113A5.883,5.883,0,0,1,51.983.706C59.5.8,67.028.751,74.551.733a5.024,5.024,0,0,1,5.063,3.122,5.268,5.268,0,0,1-.243,4.983q-7.146,12.08-14.308,24.15c-1.4,2.371-2.822,4.736-4.174,7.137a5.532,5.532,0,0,1-5.322,3.1C51.9,43.153,48.237,43.209,44.572,43.208Z" transform="translate(-15.202 -0.389)" fill="#1e2b3b"/>
    <path id="Path_686" data-name="Path 686" d="M391.8.061c4.27.034,8.29-.126,12.546.108-.437,2.535-.836,4.844-1.234,7.152q-1.071,6.226-2.141,12.452c-.293,1.7-.671,3.386-.873,5.095a23.966,23.966,0,0,0-.234,4.773c.286,3.386,3.574,4.591,6.464,4.154a6.6,6.6,0,0,0,5.755-5.491c.934-4.431,1.609-8.917,2.392-13.38Q415.55,8.8,416.62,2.668c.13-.746.251-1.495.368-2.192,1.366-.506,9.881-.632,12.389-.2.423,1.257-.175,2.489-.366,3.695-.912,5.733-1.96,11.445-2.968,17.163-.532,3.017-.991,6.051-1.642,9.043-1.477,6.783-5.705,11.056-12.38,12.815a27.061,27.061,0,0,1-16.277-.512,12.124,12.124,0,0,1-8.341-9.695,23.825,23.825,0,0,1,.2-8.759c.728-4.212,1.443-8.427,2.18-12.638C390.428,7.687,391.1,3.989,391.8.061Z" transform="translate(-213.849 -0.007)" fill="#1e2b3b"/>
    <path id="Path_687" data-name="Path 687" d="M482.308,70.238h-12.2c-.66-1.324.062-2.567.252-3.749,1.02-6.357,2.222-12.684,3.336-19.026,1.059-6.029,2.081-12.064,3.139-18.092a13.528,13.528,0,0,1,.534-1.692c.621-.035,1.187-.094,1.753-.094,5.462-.006,10.924-.054,16.385.018a25.017,25.017,0,0,1,8.653,1.542,10.822,10.822,0,0,1,7.177,7.655,14.365,14.365,0,0,1-8.027,17.019,21.872,21.872,0,0,1-7.6,1.878c-3.007.136-6.015.239-9.022.36-.569.023-1.137.061-1.891.1C483.969,60.834,483.154,65.448,482.308,70.238Zm4.156-22.82a18.18,18.18,0,0,0,7.771-.566,5.77,5.77,0,0,0,4.112-5.845c-.017-2.186-.953-3.608-2.574-4.1-2.442-.734-4.919-.476-7.544-.37C487.739,40.242,486.793,43.721,486.464,47.418Z" transform="translate(-259.569 -15.228)" fill="#1e2b3b"/>
    <path id="Path_688" data-name="Path 688" d="M297.074,69.68l1.479-8.322c1.945.15,3.718.382,5.492.383a5.292,5.292,0,0,0,2.54-.707,3.586,3.586,0,0,0,1.644-4.149q-2.785-14-5.553-28.011c-.011-.056.03-.123.047-.185,1.182-.49,9.9-.641,12.792-.175.46,1.918.172,3.969.3,5.981.134,2.042.23,4.086.374,6.127s.326,4.077.5,6.211L324,28.4h12.562c-.242.619-.385,1.092-.6,1.527C331,39.848,326.05,49.781,321.04,59.683a24.76,24.76,0,0,1-5.085,7.189,13.922,13.922,0,0,1-7.949,3.508,26.28,26.28,0,0,1-7.467-.049C299.477,70.172,298.426,69.937,297.074,69.68Z" transform="translate(-164.125 -15.598)" fill="#1e2b3b"/>
    <path id="Path_689" data-name="Path 689" d="M248.014,38.883c.074-.528.124-.837.16-1.147.428-3.657-1.876-3.791-4.557-3.166-.561.131-1.041.882-1.419,1.441a8.416,8.416,0,0,0-.664,1.734c-3.906.113-7.788.132-11.819-.013a10.993,10.993,0,0,1,5.3-8.614,17.609,17.609,0,0,1,8.036-2.427,23.135,23.135,0,0,1,11.531,1.46,9.227,9.227,0,0,1,5.69,6.982,16.641,16.641,0,0,1-.175,5.9c-.476,3.284-1.221,6.529-1.729,9.809-.323,2.079-.422,4.192-.644,6.536-3.821.281-7.687.125-11.79.077.083-1.036.151-1.889.236-2.955a4.31,4.31,0,0,0-.654.458,10.521,10.521,0,0,1-8.12,3.314,14.317,14.317,0,0,1-6.037-.9c-3.894-1.694-5.4-5.37-4.681-9.332.7-3.82,3.241-5.991,6.746-7.192a34.813,34.813,0,0,1,8.489-1.527C243.887,39.15,245.867,39.032,248.014,38.883Zm-.781,5.561c-1.576.14-3.049.162-4.472.437a6.717,6.717,0,0,0-2.4,1.127,2.951,2.951,0,0,0-.936,3.289,2.4,2.4,0,0,0,2.448,1.51,6.947,6.947,0,0,0,2.428-.348C246.575,49.583,247.479,47.706,247.233,44.444Z" transform="translate(-125.135 -14.666)" fill="#1e2b3b"/>
    <path id="Path_690" data-name="Path 690" d="M167.737,32.712h15.944c-.633,3.512-1.229,6.813-1.8,10-1.759.525-26.822.551-28.52.083a4.759,4.759,0,0,1-.057-1.1c2.426-13.826,4.866-27.649,7.341-41.683,4.3.033,8.439-.1,12.759.1Z" transform="translate(-84.682 0)" fill="#1e2b3b"/>
    <path id="Path_691" data-name="Path 691" d="M27.384,38.2c-.044-.909-.085-1.348-.085-1.788,0-5.707.084-11.416-.04-17.121A5.2,5.2,0,0,1,32.63,13.8c2.443-.018,4.886-.009,7.329,0a13.032,13.032,0,0,1,1.4.185C36.819,22.107,32.148,29.926,27.384,38.2Z" transform="translate(-15.059 -7.62)" fill="#1e2b3b"/>
    <path id="Path_692" data-name="Path 692" d="M9.053,29.39V50.664c-.714-1.237-1.2-2.1-1.707-2.954-2.195-3.675-4.4-7.34-6.593-11.019a4.7,4.7,0,0,1,3.429-7.263A33.644,33.644,0,0,1,9.053,29.39Z" transform="translate(0 -16.195)" fill="#1e2b3b"/>
  </g>
</svg>
