<svg id="Component_228_1" data-name="Component 228 – 1" xmlns="http://www.w3.org/2000/svg" xmlns:xlink="http://www.w3.org/1999/xlink" height="73.85" viewBox="0 0 236.401 73.85" style="width:100%; height:100%">
  <defs>
    <clipPath id="clipPath">
      <rect id="Rectangle_857" data-name="Rectangle 857" width="236.401" height="73.85" fill="none"/>
    </clipPath>
  </defs>
  <g id="Group_1713" data-name="Group 1713" clipPath="url(#clipPath)">
    <g id="Group_1712" data-name="Group 1712" transform="translate(0 0)">
      <g id="Group_1711" data-name="Group 1711" clipPath="url(#clipPath)">
        <g id="Group_1710" data-name="Group 1710" opacity="0.43">
          <g id="Group_1709" data-name="Group 1709">
            <g id="Group_1708" data-name="Group 1708" clipPath="url(#clipPath)">
              <path id="Path_4462" data-name="Path 4462" d="M0,31.118c.121-.571.25-1.143.363-1.718A16.98,16.98,0,0,1,2.2,24.372,17.384,17.384,0,0,1,5.374,20.2,17.225,17.225,0,0,1,9.9,17.1a20.364,20.364,0,0,1,6.588-1.835,22.509,22.509,0,0,1,5.379.078,18.641,18.641,0,0,1,5.055,1.407,17.518,17.518,0,0,1,6.644,5.028,17.723,17.723,0,0,1,2.973,5.364,20.066,20.066,0,0,1,.912,8.573,17.324,17.324,0,0,1-3.575,9.258,17.641,17.641,0,0,1-6.552,5.274,19.22,19.22,0,0,1-4.395,1.423,21.507,21.507,0,0,1-6.232.294,18.935,18.935,0,0,1-8.155-2.622,17.4,17.4,0,0,1-6.3-6.5A16.851,16.851,0,0,1,.148,36.423,1.279,1.279,0,0,0,0,36.078v-4.96M18.743,46.343c.971-.135,1.944-.253,2.911-.412a9.9,9.9,0,0,0,3.86-1.581,11.246,11.246,0,0,0,4.233-5.094,12.468,12.468,0,0,0,1.027-4.172c.045-.758.046-1.519.038-2.276A12.317,12.317,0,0,0,29.1,26.591a10.986,10.986,0,0,0-8.392-5.511,13.3,13.3,0,0,0-6.061.522A11.034,11.034,0,0,0,9.3,25.375,12.562,12.562,0,0,0,6.73,32.261,13.945,13.945,0,0,0,8.1,39.86a11.447,11.447,0,0,0,4.3,4.686,13.372,13.372,0,0,0,6.346,1.8" transform="translate(0 8.959)" fill="#1e2b3b"/>
              <path id="Path_4463" data-name="Path 4463" d="M49.61,0A5.551,5.551,0,0,0,50.5.212a20.554,20.554,0,0,1,4.266.853,23.486,23.486,0,0,1,5.808,2.65,24.107,24.107,0,0,1,9.5,11.37,25.483,25.483,0,0,1,1.429,5.175c.073.431,0,.5-.447.5-1.433,0-2.864-.008-4.295.008a.526.526,0,0,1-.616-.5,17.49,17.49,0,0,0-2.228-5.805,18.2,18.2,0,0,0-4.379-5.057,18.643,18.643,0,0,0-4.014-2.458,19.6,19.6,0,0,0-5.821-1.549,17.533,17.533,0,0,0-4.236.046,18.847,18.847,0,0,0-10.2,4.707,18.332,18.332,0,0,0-3.558,4.379,18.579,18.579,0,0,0-1.831,4.247,15.364,15.364,0,0,0-.7,4.089c-.008.562-.016,1.125,0,1.687a13.68,13.68,0,0,0,.88,3.892c.016.049.045.1.062.145.248.7.25.705-.32,1.191q-1.676,1.43-3.36,2.851c-.078.067-.164.124-.306.229a13.115,13.115,0,0,1-.524-1.238c-.5-1.584-1.068-3.155-1.428-4.772a17.2,17.2,0,0,1-.084-5.99,23.5,23.5,0,0,1,2.068-7.053,23.761,23.761,0,0,1,6.084-7.973A24.008,24.008,0,0,1,39.6,1.511,19.633,19.633,0,0,1,43.889.392C44.524.309,45.162.239,45.8.15A1.394,1.394,0,0,0,46.143,0Z" transform="translate(14.134 0)" fill="#1e2b3b" opacity="0.694"/>
              <path id="Path_4464" data-name="Path 4464" d="M132.991,46.567c-.01.177-.025.355-.025.532q0,8.443,0,16.887c0,.131-.008.263,0,.393.024.363-.121.522-.5.513-.893-.018-1.786,0-2.679,0-1.011,0-2.022-.01-3.032,0-.342,0-.485-.132-.466-.465.006-.118,0-.236,0-.353V16.09c0-.56.018-.578.573-.578q2.619,0,5.239,0c.53,0,.543.014.544.562v4.791l.1.049a7.124,7.124,0,0,0,.519-.533,13.059,13.059,0,0,1,4.941-3.73,18,18,0,0,1,8.947-1.45,16.35,16.35,0,0,1,4.091.735,25.5,25.5,0,0,1,3.371,1.385,16.328,16.328,0,0,1,6.821,6.606,1.81,1.81,0,0,1,.226.856c.013,5.877.006,11.755.018,17.634a2.546,2.546,0,0,1-.551,1.359,16.815,16.815,0,0,1-7.206,6.477,19.447,19.447,0,0,1-9.522,1.768,16.135,16.135,0,0,1-6.5-1.682,14.448,14.448,0,0,1-4.486-3.459c-.1-.116-.207-.229-.309-.344l-.11.03m11.956-25.543c0-.043-.008-.086-.011-.131-1.109.177-2.236.274-3.322.543a10.883,10.883,0,0,0-5.845,3.69,12.043,12.043,0,0,0-2.536,5.208,16.526,16.526,0,0,0-.28,4.183A12.92,12.92,0,0,0,134.2,39.67a11.439,11.439,0,0,0,9.724,6.545,12.238,12.238,0,0,0,7.2-1.523,11.648,11.648,0,0,0,4.581-4.9,12.557,12.557,0,0,0,1.264-4.228,15.872,15.872,0,0,0-.158-4.933,12.412,12.412,0,0,0-1.469-3.913,11.066,11.066,0,0,0-4.758-4.492,11.513,11.513,0,0,0-5.633-1.207" transform="translate(74.729 8.957)" fill="#1e2b3b"/>
              <path id="Path_4465" data-name="Path 4465" d="M75.778,35.773H61.713c-.573,0-.559,0-.465.575A10.9,10.9,0,0,0,63.7,41.754a12.1,12.1,0,0,0,5.129,3.583,15.374,15.374,0,0,0,5.718.893,13.453,13.453,0,0,0,8.6-2.967,14.941,14.941,0,0,0,1.138-1.086c.226-.232.4-.239.613.014q1.564,1.846,3.147,3.677c.232.267.094.452-.08.648a14.57,14.57,0,0,1-3.583,2.922,18.938,18.938,0,0,1-6.211,2.238,23.729,23.729,0,0,1-5.762.309,30.232,30.232,0,0,1-3.613-.514,17.822,17.822,0,0,1-5.285-1.956,16.385,16.385,0,0,1-5.586-4.922,17.423,17.423,0,0,1-2.488-4.923,20.7,20.7,0,0,1-.887-6.631,19.715,19.715,0,0,1,.665-4.818,18.116,18.116,0,0,1,3.191-6.432,16.929,16.929,0,0,1,8.2-5.716,19.632,19.632,0,0,1,7.683-.9,17.8,17.8,0,0,1,5.133,1.1A16.469,16.469,0,0,1,87.4,22.52a18.21,18.21,0,0,1,2.475,5.318,21.493,21.493,0,0,1,.766,6.416c-.01.39-.1.78-.137,1.172a.343.343,0,0,1-.39.345c-.132,0-.263,0-.395,0H75.778m-3.021-4.742H83.55c.132,0,.263,0,.395,0,.215,0,.322-.092.279-.315-.062-.334-.123-.669-.189-1a11.128,11.128,0,0,0-3.008-5.638A10.592,10.592,0,0,0,75.757,21.1a14.176,14.176,0,0,0-4.261-.261,11.266,11.266,0,0,0-3.212.712A10.891,10.891,0,0,0,63.456,25.2a11.25,11.25,0,0,0-2.146,5.168c-.107.657-.078.664.573.664H72.757" transform="translate(32.277 8.946)" fill="#1e2b3b"/>
              <path id="Path_4466" data-name="Path 4466" d="M128.384,47.163c-.153.191-.3.385-.46.573a11.131,11.131,0,0,1-4.976,3.308,19.476,19.476,0,0,1-8.151.887,14.25,14.25,0,0,1-6.7-2.063,10.05,10.05,0,0,1-4-4.468,10.324,10.324,0,0,1-.775-4.524,9.43,9.43,0,0,1,1.7-5.307,10.1,10.1,0,0,1,5.426-3.827,23.872,23.872,0,0,1,7.22-.966c3.309.011,6.617,0,9.926,0,.548,0,.551,0,.554-.544a13.965,13.965,0,0,0-.261-3.443,7.112,7.112,0,0,0-2.478-4,9.264,9.264,0,0,0-4.621-1.8,17.7,17.7,0,0,0-5.057.059,18.975,18.975,0,0,0-4.565,1.28,15.647,15.647,0,0,0-3.669,2.106c-.269.209-.447.178-.622-.138-.739-1.34-1.5-2.671-2.249-4.006-.287-.508-.264-.551.188-.893a20.283,20.283,0,0,1,6.763-3.25,20.846,20.846,0,0,1,5.022-.877c1.519-.054,3.042-.137,4.557-.067a20.431,20.431,0,0,1,3.534.514,13.389,13.389,0,0,1,5.563,2.633A11.512,11.512,0,0,1,133.99,24a18.774,18.774,0,0,1,.828,5.616q0,10.687,0,21.374c0,.589-.014.6-.587.6q-2.581,0-5.16,0c-.528,0-.56-.032-.56-.557,0-1.129,0-2.257,0-3.384,0-.153-.014-.306-.022-.458l-.1-.032m-5.837-11.574c-1.431,0-2.862-.006-4.293,0a14.449,14.449,0,0,0-5.028.734,4.823,4.823,0,0,0-3.314,5.355,4.842,4.842,0,0,0,1.942,3.62,7.411,7.411,0,0,0,3.911,1.5,14.641,14.641,0,0,0,6.144-.5,9.729,9.729,0,0,0,5.528-4.338,3.439,3.439,0,0,0,.708-1.762c-.008-1.364,0-2.728,0-4.092,0-.479-.041-.521-.516-.521q-2.538,0-5.079,0" transform="translate(61.136 8.98)" fill="#1e2b3b"/>
              <path id="Path_4467" data-name="Path 4467" d="M46.142,16.2c-.861-.493-1.667-.957-2.47-1.415q-2.1-1.2-4.2-2.391c-.226-.129-.259-.282-.056-.463a.605.605,0,0,0,.059-.053,1.534,1.534,0,0,1,1.92-.53c1.592.514,3.228.895,4.845,1.331,1.226.331,2.45.67,3.679.985a.761.761,0,0,0,.481-.088c1.337-.689,2.669-1.4,4.01-2.087a1.368,1.368,0,0,1,.56-.146c.589-.019,1.18-.014,1.772,0a1.421,1.421,0,0,1,.39.116,1.671,1.671,0,0,1-.143.342c-.29.422-.575.85-.9,1.243a4.052,4.052,0,0,1-.793.747c-1.133.8-2.284,1.579-3.433,2.361a.893.893,0,0,0-.392.637c-.3,1.662-.629,3.319-.942,4.977-.248,1.3-.5,2.595-.734,3.9a.733.733,0,0,1-.645.68,2.9,2.9,0,0,0-.664.237c-.315.146-.4,0-.417-.282q-.091-1.886-.183-3.772-.088-1.788-.18-3.575a2.277,2.277,0,0,0-.065-.293c-.422.247-.8.484-1.2.7-1.1.584-2.2,1.168-3.3,1.729a.763.763,0,0,0-.5.7c-.065.78-.2,1.555-.32,2.33-.048.318-.239.4-.5.209a.78.78,0,0,0-.973.014c-2.276,1.32-4.576,2.607-6.853,3.93a3,3,0,0,0-1.251,3.951c.766,1.5,1.638,2.954,2.515,4.4a50.565,50.565,0,0,0,4.492,6.206,40.073,40.073,0,0,0,5.192,5.253c.07.057.138.121.205.183.536.5.618.5,1.081-.072,1.643-2.025,3.325-4.018,4.909-6.088,1.729-2.257,3.425-4.544,5.019-6.9,1.546-2.275,3-4.616,4.384-6.988A32.079,32.079,0,0,0,63.51,21.84c.377-1.178.6-2.407.858-3.62.059-.272.158-.39.43-.388q2.4,0,4.806,0c.261,0,.4.081.355.369-.193,1.148-.306,2.316-.589,3.44a43.817,43.817,0,0,1-5.242,11.5,119.759,119.759,0,0,1-8.4,12.107c-1.7,2.2-3.462,4.344-5.251,6.467-1.34,1.595-2.773,3.112-4.148,4.678-.244.277-.4.291-.654.029-1.574-1.635-3.179-3.239-4.735-4.89-1.539-1.63-3.063-3.277-4.544-4.96a73.69,73.69,0,0,1-6.181-7.838,40.77,40.77,0,0,1-2.373-4.019,7.383,7.383,0,0,1-.619-4.786,7.927,7.927,0,0,1,2.615-4.716,24.526,24.526,0,0,1,2.51-1.826c1.6-1.071,3.222-2.111,4.839-3.16a5.534,5.534,0,0,1,.745-.438,1.291,1.291,0,0,0,.737-.95c.094-.395.215-.444.587-.293.667.271,1.328.554,2,.8a.641.641,0,0,0,.5-.051c1.385-.944,2.757-1.907,4.129-2.867a2.6,2.6,0,0,0,.251-.236" transform="translate(16.023 6.637)" fill="#1e2b3b"/>
              <path id="Path_4468" data-name="Path 4468" d="M102.55,31.879V56.517c0,.619,0,.622-.606.622q-1.554,0-3.11,0c-.815,0-1.63-.01-2.443,0-.347,0-.519-.124-.5-.482.006-.118,0-.237,0-.355V7.465c0-.132,0-.263,0-.395-.008-.353.143-.533.516-.533q2.856.007,5.713,0c.3,0,.43.138.425.43,0,.158,0,.315,0,.471V31.879" transform="translate(56.746 3.868)" fill="#1e2b3b"/>
              <path id="Path_4469" data-name="Path 4469" d="M86.8,21.477a11.868,11.868,0,0,1,4.6-4.247,15.614,15.614,0,0,1,6.128-1.692l1.963-.146c.3-.024.43.107.43.411q-.007,2.813,0,5.628c0,.3-.132.406-.443.38a12.86,12.86,0,0,0-6.02.839,9.523,9.523,0,0,0-5.49,5.724,14.4,14.4,0,0,0-.847,5.086q.012,8.856,0,17.712c0,.729,0,.729-.718.729q-2.7,0-5.4,0c-.548,0-.562-.013-.562-.543V16.29c0-.513.022-.535.532-.536q2.638,0,5.277,0c.509,0,.519.013.52.54q0,2.323,0,4.645c0,.18.016.36.024.54" transform="translate(47.603 9.107)" fill="#1e2b3b"/>
            </g>
          </g>
        </g>
      </g>
    </g>
  </g>
</svg>
