<svg id="Component_223_1" data-name="Component 223 – 1" xmlns="http://www.w3.org/2000/svg" xmlns:xlink="http://www.w3.org/1999/xlink" height="95" viewBox="0 0 196 95" style="width:100%; height:100%">
  <defs>
    <clipPath id="clipPath">
      <rect id="Rectangle_662" data-name="Rectangle 662" width="196" height="95" transform="translate(0 0.486)" fill="#252b38" opacity="0.43"/>
    </clipPath>
    <clipPath id="clipPath-2">
      <rect id="Rectangle_661" data-name="Rectangle 661" width="196" height="95" transform="translate(0 0.486)" fill="#252b38"/>
    </clipPath>
    <clipPath id="clipPath-3">
      <rect id="Rectangle_660" data-name="Rectangle 660" width="196" height="95" transform="translate(0 0.487)" fill="#252b38"/>
    </clipPath>
  </defs>
  <g id="Group_1667" data-name="Group 1667" transform="translate(0 -0.486)" clipPath="url(#clipPath)">
    <g id="Group_1666" data-name="Group 1666" transform="translate(0 0)" opacity="0.43">
      <g id="Group_1665" data-name="Group 1665" clipPath="url(#clipPath-2)">
        <g id="Group_1664" data-name="Group 1664" transform="translate(0 0)">
          <g id="Group_1663" data-name="Group 1663" transform="translate(0 0)">
            <g id="Group_1662" data-name="Group 1662" clipPath="url(#clipPath-3)">
              <path id="Path_4265" data-name="Path 4265" d="M16.09.308,43.357.154c10.233,0,11.074,7.1,9.777,13.213-1.222,5.729-6.417,12.22-14.207,12.22H21.818L18.685,38.572H7ZM38.163,16.575c2.368,0,2.977-2.216,3.511-4.123a2.582,2.582,0,0,0-2.748-3.438H25.56L23.8,16.575ZM92.622,0l-1.833,8.86H69.174c-2.14,0-2.674,1.375-3.057,2.826-.458,1.451-1.3,2.826,1.3,2.826H88.269l-1.911,9.243h-22c-1.3,0-1.451,1.222-1.68,2.063-.3,1.3-.3,3.284,2.445,3.284h21.08l-2.214,9.165H59.855c-6.339,0-10.006-3.972-8.936-9.623.992-5.729,3.818-17.035,3.818-17.035C55.884,6.035,61.153,0,70.32,0h22.3ZM94.76.308,121.952.154c10.307,0,11.148,7.1,9.851,13.213-1.222,5.729-6.417,12.22-14.209,12.22H100.487L97.281,38.572H85.671Zm22.075,16.268c2.366,0,2.9-2.216,3.438-4.123A2.539,2.539,0,0,0,117.6,9.015H104.232l-1.758,7.561Z" transform="translate(6.596 -0.001)" fill="#252b38" fillRule="evenodd"/>
              <path id="Path_4266" data-name="Path 4266" d="M55.12,35.214a2.256,2.256,0,1,1,2.292,2.368,2.252,2.252,0,0,1-2.292-2.368m2.292,2.826a2.819,2.819,0,0,0,2.826-2.812v-.014a2.827,2.827,0,0,0-5.652,0A2.817,2.817,0,0,0,57.4,38.04h.016m-.61-2.6h.61l.839,1.375h.536l-.917-1.375a.864.864,0,0,0,.839-.917c0-.61-.379-.915-1.144-.915H56.344V36.82H56.8Zm0-.381v-.994h.686c.3,0,.688.076.688.458,0,.458-.385.536-.765.536ZM130.661.08l-2.294,8.936H102.932c-3.511,0-4.047,5.347-1.142,5.347h15.885c8.246,0,9.622,6.339,8.322,11.457-1.983,7.79-6.184,12.22-14.2,12.22H83.151l2.292-9.165h26.732c2.214,0,4.43-5.04-.076-5.04H95.374c-6.875,0-8.553-6.493-7.182-11.459C89.644,7.029,92.623.08,101.866.08Zm-5.729,37.96h11.457L144.714.08H133.563Zm15.735,27.5c-6.955-4.888-16.194-4.277-25.132-1.451-9.622,3.053-17.414,3.894-24.211-.612l-.151-.076a25.246,25.246,0,0,1,49.72,2.29Zm-.458,9.089c-6.953-4.735-16.042-4.125-24.9-1.3-9.623,3.055-17.415,3.974-24.291-.61l-.151-.076A25.26,25.26,0,0,0,140.36,74.78Z" transform="translate(51.429 0.075)" fill="#252b38" fillRule="evenodd"/>
              <path id="Path_4267" data-name="Path 4267" d="M153.6,22.181a29.127,29.127,0,0,0,1.527,52.091H0L12.451,22.181Z" transform="translate(0 20.898)" fill="#252b38" fillRule="evenodd"/>
            </g>
          </g>
        </g>
      </g>
    </g>
  </g>
</svg>
