<svg id="Component_227_1" data-name="Component 227 – 1" xmlns="http://www.w3.org/2000/svg" xmlns:xlink="http://www.w3.org/1999/xlink" height="56.266" viewBox="0 0 326.254 56.266" style="width:100%; height:100%">
  <defs>
    <clipPath id="clipPath">
      <rect id="Rectangle_854" data-name="Rectangle 854" width="326.254" height="56.266" fill="none"/>
    </clipPath>
    <clipPath id="clipPath-2">
      <rect id="Rectangle_853" data-name="Rectangle 853" width="326.254" height="56.267" fill="none"/>
    </clipPath>
  </defs>
  <g id="Group_1706" data-name="Group 1706" clipPath="url(#clipPath)">
    <g id="Group_1705" data-name="Group 1705" transform="translate(0 0)" opacity="0.43">
      <g id="Group_1704" data-name="Group 1704" clipPath="url(#clipPath-2)">
        <g id="Group_1703" data-name="Group 1703" transform="translate(0 0)">
          <g id="Group_1702" data-name="Group 1702" transform="translate(0 0)">
            <g id="Group_1701" data-name="Group 1701" clipPath="url(#clipPath-2)">
              <path id="Path_4450" data-name="Path 4450" d="M209.059,38.208v3.8L66.225,41.02V37.208l142.834,1" transform="translate(25.381 14.26)" fill="#1e2b3b"/>
              <path id="Path_4451" data-name="Path 4451" d="M133,6.984V35.136H129.05V.388l4.66-.333,17.419,27.74V.375l3.832-.235V35.18l-4.323.206L133,6.984" transform="translate(49.46 0.021)" fill="#1e2b3b"/>
              <path id="Path_4452" data-name="Path 4452" d="M18.086,18.191C18.5,7.226,25.8-.4,35.8.132,41.572.438,46,3.186,48.462,8.327a20.45,20.45,0,0,1-.317,19.017c-2.924,5.6-7.889,8.129-14.141,7.994C27.711,35.2,22.947,32.316,20.4,26.554c-1.159-2.62-1.566-5.566-2.313-8.363m28.389-.154c-.585-4.021-1.876-7.99-3.969-10.485a10.268,10.268,0,0,0-16.371.739c-3.552,5.151-3.591,13.606-.086,18.763,4.076,6,12.845,6.286,16.8.217,1.772-2.714,2.448-6.133,3.621-9.233" transform="translate(6.932 0.041)" fill="#1e2b3b"/>
              <path id="Path_4453" data-name="Path 4453" d="M133.77,17.468c.019,10.91-6.792,18.229-16.74,17.874a16.778,16.778,0,0,1-4.739-.88c-8.666-2.952-12.8-13.462-9.326-23.495A15.9,15.9,0,0,1,123.191.913c6.618,2.172,10.564,8.347,10.579,16.555m-3.978.089c-1.21-3.278-1.826-6.564-3.507-9.177a10.057,10.057,0,0,0-17.267.611,16.839,16.839,0,0,0,.047,17.607,10.02,10.02,0,0,0,17.251.4c1.712-2.755,2.321-6.186,3.476-9.438" transform="translate(38.991 0.029)" fill="#1e2b3b"/>
              <path id="Path_4454" data-name="Path 4454" d="M224.194,17.635c-.042,10.874-6.948,18.15-16.909,17.7a16.712,16.712,0,0,1-4.732-.93c-8.472-2.981-12.536-13.256-9.251-23.189A15.881,15.881,0,0,1,213.355.84c6.847,2.132,10.871,8.366,10.839,16.8m-4.5,1.549c-.382-5.164-1.026-8.582-3.361-11.466a10.272,10.272,0,0,0-16.383.415c-3.728,5.218-3.76,13.9-.068,19.122,4.068,5.756,12.637,6.046,16.534.18,1.866-2.809,2.567-6.382,3.278-8.251" transform="translate(73.649 0.03)" fill="#1e2b3b"/>
              <path id="Path_4455" data-name="Path 4455" d="M178.166,20.739V35.151h-4.377V.9c5.534-.966,11.186-1.636,16.67.578,5.859,2.367,7.114,10.085,2.576,14.687a42.177,42.177,0,0,1-3.3,2.717c5.685,3.988,4.483,10.686,7.255,16.286l-4.857.26c-.649-2.273-1.325-4.46-1.9-6.674-1.968-7.649-3.5-8.745-12.069-8.02m.272-3.938c2.327,0,4.226.051,6.12-.026a6.886,6.886,0,0,0,2.111-.552,6.461,6.461,0,0,0,4.4-6.359,5.73,5.73,0,0,0-4.7-5.6c-2.472-.537-5.1-.386-7.93-.556Z" transform="translate(66.606 0)" fill="#1e2b3b"/>
              <path id="Path_4456" data-name="Path 4456" d="M106.309,17.188V33.255c-10.226,3.971-20.234,2.253-24.9-4.179a19.517,19.517,0,0,1,.5-22.638C86.786.311,96.82-1.688,105.2,1.983c-.238.885-.488,1.819-.759,2.825a6.057,6.057,0,0,1-1.376-.014,20.256,20.256,0,0,0-10.925-.3,11.764,11.764,0,0,0-8.8,8.946,18.965,18.965,0,0,0-.6,4.338c-.1,10.435,8.4,16.191,19.057,12.754V20.565h-6.6V17.188Z" transform="translate(29.908 0.056)" fill="#1e2b3b"/>
              <path id="Path_4457" data-name="Path 4457" d="M0,.857A34.033,34.033,0,0,1,14.452.842c4.392,1.062,6.788,3.887,7.4,8.246.675,4.812-1.285,9.286-5.277,11.123a30.546,30.546,0,0,1-7.186,1.9,29.4,29.4,0,0,1-4.876.048V35.118L0,35.382ZM4.637,18.2c4.53.757,8.627.812,11.376-3.121a6.8,6.8,0,0,0,.061-8.257c-2.9-3.946-7.059-3.372-11.437-2.74Z" transform="translate(0 0.027)" fill="#1e2b3b"/>
              <path id="Path_4458" data-name="Path 4458" d="M158.323,22.978V35.1l-4.393.333V.882A32.055,32.055,0,0,1,168.312.858c4.656,1.2,7.06,4.053,7.5,8.622.477,4.911-1.469,9.286-5.691,10.865-3.5,1.31-7.36,1.685-11.8,2.632m.183-4.706c4.675.639,8.824.758,11.5-3.295a6.785,6.785,0,0,0-.1-8.253c-2.968-3.829-7.077-3.323-11.4-2.577Z" transform="translate(58.995 0.019)" fill="#1e2b3b"/>
              <path id="Path_4459" data-name="Path 4459" d="M219.984.878a32.208,32.208,0,0,1,14.4-.017c4.649,1.208,7.053,4.063,7.492,8.633.472,4.912-1.477,9.28-5.7,10.857-3.5,1.309-7.362,1.681-11.661,2.595V35.1l-4.526.325Zm4.6,17.376c4.606.682,8.731.772,11.441-3.223A6.789,6.789,0,0,0,236,6.776c-2.935-3.883-7.068-3.342-11.416-2.657Z" transform="translate(84.311 0.019)" fill="#1e2b3b"/>
              <path id="Path_4460" data-name="Path 4460" d="M73.523,35.124H68.865c0-3.7-.1-7.324.035-10.942a12.754,12.754,0,0,0-1.768-7.095C64.069,11.758,61.232,6.3,58,.334L62.978.111c2.753,5.406,5.4,10.611,8.436,16.576,3-5.691,5.739-10.9,8.6-16.327h5.053C81.836,5.98,78.9,11.376,75.669,16.6a13.782,13.782,0,0,0-2.184,8.3c.166,3.33.037,6.674.037,10.232" transform="translate(22.229 0.043)" fill="#1e2b3b"/>
              <path id="Path_4461" data-name="Path 4461" d="M46.116,35.171V.442l4.233-.4v31.3H65.068c.141,1.488.241,2.53.364,3.825Z" transform="translate(17.674 0.016)" fill="#1e2b3b"/>
            </g>
          </g>
        </g>
      </g>
    </g>
  </g>
</svg>
