<svg id="Component_232_1" data-name="Component 232 – 1" xmlns="http://www.w3.org/2000/svg" xmlns:xlink="http://www.w3.org/1999/xlink"  height="86.718" viewBox="0 0 250.704 86.718" style="width:100%; height:100%">
  <defs>
    <clipPath id="clipPath">
      <rect id="Rectangle_887" data-name="Rectangle 887" width="250.704" height="86.718" fill="none"/>
    </clipPath>
  </defs>
  <path id="Path_4558" data-name="Path 4558" d="M117.317,44.515h4.968l5.159-13.2.145-.389,2.266,5.769,1.209,3.216,1.733,4.6h5.018L127.542,19.286Z" transform="translate(112.889 18.558)" fill="#1e2b3b" opacity="0.42"/>
  <g id="Group_1798" data-name="Group 1798" opacity="0.42">
    <g id="Group_1797" data-name="Group 1797" clipPath="url(#clipPath)">
      <path id="Path_4559" data-name="Path 4559" d="M78.916,21.67a9.71,9.71,0,0,0-3.679-1.829,31.813,31.813,0,0,0-6.939-.555H62.674V44.515H69.3a23.186,23.186,0,0,0,6.044-.553,10.3,10.3,0,0,0,3.626-1.831,10.652,10.652,0,0,0,3.155-4.325,15.952,15.952,0,0,0,1.05-5.877,16.059,16.059,0,0,0-1.05-5.934,10.777,10.777,0,0,0-3.206-4.325M77.391,35.588a6.031,6.031,0,0,1-1.735,2.551,4.813,4.813,0,0,1-1.945,1.054,14.506,14.506,0,0,1-3.626.332h-2.68V24.276h2.312a17.091,17.091,0,0,1,4,.334,4.691,4.691,0,0,1,2,1.054,7.173,7.173,0,0,1,1.735,2.551,12.744,12.744,0,0,1,.526,3.66,11.434,11.434,0,0,1-.579,3.715" transform="translate(60.309 18.557)" fill="#1e2b3b"/>
      <path id="Path_4560" data-name="Path 4560" d="M79.549,44.514H93.74V39.783H84.28V33.477h9.46v-4.7H84.28v-4.76h9.46V19.286H79.549Z" transform="translate(76.547 18.557)" fill="#1e2b3b"/>
      <path id="Path_4561" data-name="Path 4561" d="M99.208,39.58V24.054l-5.194-4.768V44.515H108.2L105.42,39.58Z" transform="translate(90.466 18.557)" fill="#1e2b3b"/>
      <path id="Path_4562" data-name="Path 4562" d="M104.459,19.286l.051,4.768h6.381v20.46h4.678V24.054H121.8l-.047-4.768Z" transform="translate(100.517 18.557)" fill="#1e2b3b"/>
      <path id="Path_4563" data-name="Path 4563" d="M69.128,15.845h3.846v3.289H74.2V11.25h-1.23V14.7H69.128V11.25H67.9v7.884h1.23Z" transform="translate(65.335 10.824)" fill="#1e2b3b"/>
      <path id="Path_4564" data-name="Path 4564" d="M62.674,12.347h2.5v6.787h1.358V12.347h2.447v-1.1H62.674Z" transform="translate(60.309 10.824)" fill="#1e2b3b"/>
      <path id="Path_4565" data-name="Path 4565" d="M73.121,19.134h4.731V17.986H74.473V15.427h3.379v-1.1H74.473V12.347h3.379v-1.1H73.121Z" transform="translate(70.361 10.824)" fill="#1e2b3b"/>
      <path id="Path_4566" data-name="Path 4566" d="M48.438,0,11.187,64.949,7.8,70.851H53.379L48.85,62.967H21.41L52.987,7.918ZM98.245,86.718,60.95,21.8l-3.41-5.94-3.406,5.928L35.046,55.024h9.091l13.41-23.345L89.169,86.718Zm-25.036-.012H0l4.539-7.9H66.4L52.989,55.459l4.547-7.914L76.626,80.778l3.4,5.928Z" transform="translate(0 -0.001)" fill="#1e2b3b" fillRule="evenodd"/>
    </g>
  </g>
</svg>
