<svg xmlns="http://www.w3.org/2000/svg" width="24.258" height="113.974" viewBox="0 0 24.258 113.974">
  <g id="Group_724" data-name="Group 724" transform="translate(202.735 -55.005) rotate(92)">
    <path id="Path_1891" data-name="Path 1891" d="M64.331,186.055c.9.021,1.8-.106,2.694-.173.366-.029.731-.075,1.1-.12l4.829-.579q2.887-.346,5.774-.736l8.247-1.11c.63-.085,1.261-.143,1.891-.213q2.4-.275,4.8-.545l4.806-.543c.627-.071,1.254-.163,1.881-.212q3.833-.294,7.667-.582,2.357-.177,4.714-.358c.615-.047,1.231-.117,1.847-.139q3.706-.128,7.411-.269,3.657-.13,7.314-.264c.644-.022,1.288-.012,1.931-.018q2.388-.02,4.775-.045c2.475-.022,4.949-.04,7.424-.068.809-.009,1.619.013,2.428.019q2.541.021,5.084.043l.42.005q-5.721.187-11.444.386l-4.779.17c-.687.024-1.375.031-2.062.073-2.3.145-4.609.3-6.913.453l-7.991.52c-.448.03-.9.091-1.342.142l-4.255.473q-4.315.479-8.632.959c-.426.048-.851.12-1.277.191q-2.108.35-4.216.7-3.776.628-7.552,1.258c-.694.116-1.387.28-2.08.422l-4.836.982c-2.049.416-4.1.818-6.146,1.25q-4.277.9-8.552,1.8-1.026.217-2.051.431c-1.225.259-2.447.632-3.67.957-.129.034-.24.236-.24.578,0,.325.109.563.24.577q.67.072,1.341.14a4.716,4.716,0,0,0-.087.9c0,1.1.4,2.186.877,2.116,3.5-.526,6.989-1.1,10.488-1.5l9.111-1.046,10.073-1.158,3.171-.365c.305-.034.611-.082.916-.1q8.114-.521,16.227-1.027l8.672-.548q1.568-.1,3.133-.163,8.3-.312,16.6-.626,3.555-.136,7.111-.275c2.024-.078,4.048-.112,6.071-.295l5.015-.458c.834-.075,1.67-.124,2.5-.251,1.9-.288,3.795-.58,5.692-.886l0,.016a4.4,4.4,0,0,0-.08,1.469,2.566,2.566,0,0,0,.363,1.137c.166.235.421.372.609.192q.621-.593,1.236-1.216l-.026.026.091-.093.106-.107-.038.039.656-.668c.229-.23.458-.463.686-.7.248-.261.486-.579.725-.887a3.394,3.394,0,0,0,.436-1.834,4.612,4.612,0,0,0-.12-1.072c-.106-.437-.311-.886-.526-.976s-.423-.157-.636-.222a.484.484,0,0,0-.143-.02,2.635,2.635,0,0,0-.431.072c-.322.055-.642.17-.965.227l-.788.137q-1.062.187-2.123.371c-.183.033-.366.058-.549.088a2.81,2.81,0,0,0,.142-.627,3.865,3.865,0,0,0,.056-.588c.008-.145.016-.29.024-.434a3.818,3.818,0,0,0-.039-.541l.055-.059a2.3,2.3,0,0,0,.318-.77,4.865,4.865,0,0,0,0-2.163c-.046-.145-.092-.289-.139-.435a1.212,1.212,0,0,0-.392-.551,1.168,1.168,0,0,0-.848-.312c-.237,0-.475.041-.708.047-.34.007-.68.016-1.021.024-.481.012-.963.029-1.444.035-1.272.016-2.544.03-3.815.047-1.2.016-2.392.013-3.589.012-1.087,0-2.175-.005-3.262.006-4.334.046-8.668.062-13,.169q-4.875.116-9.749.236-2.179.055-4.358.164-4.885.248-9.769.5l-2.786.143c-.539.029-1.077.1-1.616.145q-4.827.442-9.655.883l-2.947.271c-.551.049-1.1.138-1.652.208q-4.795.622-9.591,1.242c-1.651.214-3.3.454-4.949.705q-4.236.644-8.472,1.289c-2.447.37-4.895.691-7.342,1.037l-1.163.163c-.626.089-1.254.149-1.881.216a9.77,9.77,0,0,1-1.673.062c-.056-.349-.2-.633-.358-.6-.36.069-.719.163-1.078.257-.175.044-.325.253-.375.687-.055.481.066,1.036.272,1.156.156.09.311.183.468.27a1.638,1.638,0,0,0,.471.141A6.592,6.592,0,0,0,64.331,186.055Zm98.887-3.272,1.576,0a3.076,3.076,0,0,0,.212.743c-.2.034-.407.066-.61.085l-1.149.1-5.015.455c-.765.068-1.531.17-2.3.2q-1.793.066-3.587.137-4.1.156-8.2.313-7.957.31-15.915.607c-3.8.147-7.6.432-11.394.673q-8.583.552-17.168,1.1c-1.147.073-2.295.25-3.441.382q-4.872.564-9.744,1.127l-9.566,1.1-.886.1q1.289-.251,2.579-.49,4.5-.829,9-1.66l3.144-.579c.54-.1,1.082-.162,1.623-.243l9.363-1.368c.61-.091,1.22-.209,1.831-.266l2.638-.247,9.654-.9,2.124-.2c.186-.016.373-.018.56-.028l1.492-.072,9.673-.476c1.486-.073,2.971-.158,4.457-.188,4.795-.093,9.589-.213,14.384-.265C153.448,182.874,158.333,182.792,163.219,182.783Z" transform="translate(0 0)" fill="#1e2b3b"/>
    <circle id="Ellipse_63" data-name="Ellipse 63" cx="0.568" cy="0.568" r="0.568" transform="translate(82.16 198.814)" fill="#1e2b3b"/>
  </g>
</svg>
