<svg xmlns="http://www.w3.org/2000/svg" width="918.952" height="24.319" viewBox="0 0 918.952 24.319">
  <path id="Path_2440" data-name="Path 2440" d="M947.978,222.277c-3.3.085-6.607.152-9.9.264l-13.65.465c-7.535.258-15.032.692-22.377,1.307-7.858.66-15.454,1.652-22.632,2.9-1.426.249-2.841.52-4.315.741l-4.762.711c-2.254.3-4.515.586-6.837.827-2.687.279-5.442.474-8.222.618-2.422.082-4.831.126-7.267.13-2.3.006-4.6-.062-6.892-.154-3.133-.168-6.2-.391-9.253-.684-3.2-.309-6.325-.72-9.4-1.146-5.281-.774-10.359-1.658-15.306-2.645q-3.494-.7-6.913-1.434c-2.742-.6-5.449-1.2-8.287-1.746-2.171-.42-4.367-.829-6.724-1.128-1.536-.2-3.037-.342-4.642-.465-1.57-.121-3.247-.152-4.851-.179-.972.006-1.941.038-2.9.094-1.419.072-2.745.175-4.116.311-2.127.21-4.13.6-6.088.939q-5.968,1.043-11.926,2.09c-5.027.886-10.1,1.753-15.307,2.514-3.178.423-6.394.8-9.675,1.124-4.3.424-8.727.709-13.162.932-4.278.175-8.548.285-12.864.3-4.865.019-9.737-.157-14.557-.36-6.116-.29-12.142-.7-18.144-1.181-5.542-.447-10.981-1-16.262-1.714-5.257-.766-10.407-1.607-15.42-2.536-5.683-1.052-11.582-2.008-17.708-2.741-2.422-.289-4.968-.478-7.483-.648-2.914-.2-5.9-.277-8.871-.262s-6.006.22-8.888.45c-2.982.239-5.8.671-8.541,1.12-6.634,1.091-12.438,2.65-18.333,4.117-3.539.88-6.975,1.812-10.441,2.721-2.9.741-5.793,1.484-8.847,2.157-3.181.7-6.542,1.3-10.026,1.819-1.618.217-3.243.414-4.913.59-2.168.231-4.422.372-6.676.482q-1.335.046-2.677.05c-.642,0-1.281,0-1.921-.024-1.824-.129-3.56-.3-5.291-.514-6.2-1.024-12.046-2.243-17.571-3.63q-3.973-1.049-7.682-2.194-2.6-.8-5.188-1.605c-4.5-1.394-8.5-2.975-13.458-4.2-2.062-.51-4.157-.961-6.466-1.338-1.288-.209-2.659-.36-4.03-.493l-1.357-.094-2.848-.128q-.691-.012-1.381-.029-.258,0-.515,0-1.273,0-2.542.073c-1.666.066-3.226.2-4.834.357-3.137.305-6.136.741-9.132,1.175-2.443.354-4.845.739-7.263,1.114-1.7.265-3.432.516-5.078.816l-7.775,1.42c-1.3.238-2.632.462-3.893.725q-3.51.739-7.026,1.476c-1.766.37-3.566.727-5.3,1.113l-13.049,2.908c-9.394,2.092-18.9,4.148-29.287,5.649-2.3.31-4.611.6-6.968.859-2.914.321-5.92.524-8.943.686-1.282.049-2.556.086-3.855.112-1.893.035-3.786-.008-5.673-.072-2.718-.152-5.332-.375-7.913-.694-2.8-.441-5.415-.973-7.947-1.571-3.951-1.071-7.5-2.278-11.019-3.507-1.742-.61-3.5-1.213-5.26-1.819-2.106-.727-4.391-1.394-6.7-2.046a58.692,58.692,0,0,0-6.143-1.366c-1.275-.213-2.635-.378-3.975-.537-1.319-.154-2.8-.171-4.171-.217q-1.361.026-2.7.1c-1.288.1-2.536.238-3.725.436a24.949,24.949,0,0,0-3.326.734c-.993.317-1.934.644-2.862.982-1.77.641-3.34,1.358-4.979,2.037-1.3.535-2.577,1.075-3.872,1.613-1.5.625-3.075,1.234-4.607,1.851a90.27,90.27,0,0,1-10.167,3.319c-2.869.689-5.872,1.288-9.081,1.783-2.931.365-5.892.621-8.978.793-4.363.153-8.672.123-13.029-.041-6.889-.374-13.5-1.061-19.945-1.942-5.868-.859-11.476-1.865-16.993-2.952-2.841-.561-5.58-1.178-8.308-1.795-2.749-.622-5.5-1.242-8.215-1.877-2.745-.643-5.456-1.293-8.3-1.884q-4.37-.9-9.033-1.629a116.648,116.648,0,0,0-18.306-1.424c-1.467.008-2.982.079-4.429.161-1.546.088-3.041.192-4.559.332-1.35.122-2.659.314-3.944.5-1.4.2-2.793.407-4.188.616-6.112.918-11.908,2-17.457,3.25a124.047,124.047,0,0,0-13.62,3.865c-1.907.669-3.7,1.352-5.374,2.086a6.623,6.623,0,0,0-1.848,1.116l-.495.48c-.2.343-.4.684-.591,1.027-.258.456-.038.9.983,1.237a9.881,9.881,0,0,0,3.718.327c.917-.086,1.831-.174,2.749-.262,1.313-.126,2.494-.322,3.711-.525,1.859-.309,2.36-1.168,1.367-1.735a5.821,5.821,0,0,0-2.271-.573,103.07,103.07,0,0,1,11.063-3.5,209.562,209.562,0,0,1,20.738-3.98q2.489-.345,5.006-.672c2.106-.27,4.264-.429,6.473-.544,1.958-.058,3.855-.07,5.82-.024,1.3.071,2.56.161,3.851.272,1.872.16,3.69.4,5.487.639,3.515.528,6.782,1.182,10.046,1.869,3.783.793,7.274,1.738,10.905,2.605,3.584.856,7.181,1.71,10.84,2.529,3.628.813,7.418,1.55,11.232,2.259,7.408,1.38,15.313,2.5,23.453,3.3a181.572,181.572,0,0,0,25.951.733c4.075-.2,7.968-.526,11.744-1.074,3.659-.529,7.057-1.192,10.27-1.976a94.356,94.356,0,0,0,9.6-2.878c1.56-.562,3-1.149,4.446-1.742,2.1-.859,4.157-1.727,6.2-2.6,2.532-1.083,4.979-2.193,7.892-3.17.217-.045.436-.086.663-.122.313-.037.629-.067.952-.094.1,0,.206,0,.313,0,.574.041,1.141.095,1.7.161,1.4.216,2.7.46,4,.749,3.618.971,6.875,2.054,10.091,3.172,4.089,1.418,8.139,2.837,12.644,4.116,1.938.55,4.054,1.029,6.191,1.485,2.525.538,5.243.939,8.023,1.3,2.532.332,5.25.5,7.926.638,3.2.165,6.36.2,9.586.134,2.666-.053,5.343-.209,7.961-.372,3.185-.2,6.263-.525,9.308-.887,5.7-.678,11.187-1.554,16.481-2.521,7.765-1.42,15.073-3.087,22.412-4.732,3.5-.788,6.975-1.6,10.541-2.356l12.255-2.591c.471-.1.986-.181,1.471-.271q2.1-.384,4.188-.769l6.384-1.174c.419-.078.873-.139,1.309-.207q2.242-.355,4.487-.707c2.512-.393,5.016-.782,7.559-1.15,2.567-.334,5.164-.618,7.854-.825.543-.015,1.086-.019,1.632-.014q.68.005,1.361.026c1.144.079,2.2.176,3.281.3,1.862.316,3.594.681,5.288,1.088,5.13,1.429,9.648,3.092,14.544,4.611,3.065.952,6.129,1.884,9.387,2.764,2.945.8,6.02,1.535,9.167,2.237,3.346.745,6.916,1.374,10.472,2a77.537,77.537,0,0,0,10.445,1.1c1.646.063,3.181.077,4.838.053,2.078-.03,4.174-.166,6.208-.29,3.477-.211,6.8-.613,10.053-1.063,3.7-.516,7.174-1.134,10.568-1.838,4.7-.973,9.022-2.158,13.338-3.307l7.682-2.044,6.1-1.551c4.381-1.115,8.985-2.1,13.973-2.876,2.467-.311,4.961-.526,7.569-.676,1.254-.042,2.5-.069,3.769-.075,1.113-.008,2.23.03,3.336.075,3.982.229,7.813.581,11.568,1.075,3.243.474,6.446.984,9.579,1.536,1.951.343,3.858.717,5.789,1.074,1.886.349,3.834.663,5.776.98,3.728.612,7.5,1.18,11.362,1.7,4.037.541,8.256.935,12.455,1.307,8.8.781,17.739,1.308,26.782,1.652q6.859.261,13.757.193c4.539-.04,9.06-.234,13.547-.446,8.054-.38,15.97-1.142,23.45-2.2,4.8-.678,9.435-1.456,14.09-2.241,5.566-.936,11.056-1.945,16.725-2.817,1.137-.129,2.261-.226,3.45-.311q1.036-.027,2.065,0c1.652.105,3.216.25,4.786.444,5.071.833,9.675,1.934,14.348,2.986,4.869,1.1,9.967,2.1,15.2,3s10.678,1.643,16.207,2.289c6.2.725,12.864,1.071,19.412,1.184,5.8.1,11.671-.153,17.31-.593,4.838-.377,9.472-1.015,13.973-1.707,1.941-.3,3.879-.589,5.758-.927q1.829-.326,3.652-.654c1.824-.327,3.752-.607,5.666-.878,9.246-1.234,18.966-1.9,28.792-2.362,5.315-.225,10.668-.349,16-.516,4.625-.144,9.273-.216,13.9-.318,9.393-.206,18.835-.4,28.256-.393,3.611,0,6.617-1,6.617-2.2s-3.006-2.222-6.617-2.2c-7.153.04-14.3.223-21.429.4Q953.154,222.144,947.978,222.277ZM773.807,224.5l.553-.024h0Z" transform="translate(-67.428 -218.776)" fill="#3d6895"/>
</svg>
