<svg xmlns="http://www.w3.org/2000/svg" xmlns:xlink="http://www.w3.org/1999/xlink" width="317.06" viewBox="0 0 317.06 196.373" style="width: 100%; height: 100%">
  <defs>
    <clipPath id="clip-path">
      <rect id="Rectangle_541" data-name="Rectangle 541" width="317.06" transform="translate(0 -5)" fill="none" style="width: 100%; height: 100%"/>
    </clipPath>
  </defs>
  <g id="Group_1305" data-name="Group 1305" transform="translate(0 5)">
    <g id="Group_1304" data-name="Group 1304" clip-path="url(#clip-path)">
      <path id="Path_3822" data-name="Path 3822" d="M291.927,108.5A53.844,53.844,0,1,1,238.085,54.65,53.844,53.844,0,0,1,291.927,108.5Z" transform="translate(-114.307 -33.906)" fill="none" stroke="#e97724" stroke-width="4"/>
      <path id="Path_3823" data-name="Path 3823" d="M358.857,75.83a73.892,73.892,0,0,1-88.383,72.4L259.9,129.676h25.128a53.846,53.846,0,0,0,0-107.692L274.577,2.736a73.875,73.875,0,0,1,84.28,73.094Z" transform="translate(-161.249 -1.241)" fill="none" stroke="#e97724" stroke-width="4"/>
      <path id="Path_3824" data-name="Path 3824" d="M259.255,77.034a53.844,53.844,0,0,1-53.842,53.846H154.9A73.833,73.833,0,0,1,194.964,3.94l10.45,19.248A53.844,53.844,0,0,1,259.255,77.034Z" transform="translate(-81.635 -2.444)" fill="none" stroke="#e97724" stroke-width="4"/>
      <path id="Path_3825" data-name="Path 3825" d="M0,338.37H98.65l10.575,18.55.816,1.435H0" transform="translate(0 -209.934)" fill="none" stroke="#e97724" stroke-width="4"/>
      <line id="Line_11" data-name="Line 11" x1="13.737" transform="translate(110.041 148.42)" fill="none" stroke="#e97724" stroke-width="4"/>
      <path id="Path_3826" data-name="Path 3826" d="M518.054,326.3h0l-33.648,23.49v-13.5H326.1a73.555,73.555,0,0,0,50.51-19.984h107.8v-13.5Z" transform="translate(-202.32 -187.872)" fill="none" stroke="#e97724" stroke-width="4"/>
      <line id="Line_12" data-name="Line 12" y1="0.004" transform="translate(113.328 1.492)" fill="none" stroke="#e97724" stroke-width="4"/>
      <line id="Line_13" data-name="Line 13" x1="0.194" y1="0.338" transform="translate(110.041 148.42)" fill="none" stroke="#e97724" stroke-width="4"/>
      <line id="Line_14" data-name="Line 14" x1="0.292" y1="0.512" transform="translate(98.358 127.923)" fill="none" stroke="#e97724" stroke-width="4"/>
      <line id="Line_15" data-name="Line 15" x2="10.447" y2="19.251" transform="translate(197.607 128.435)" fill="none" stroke="#e97724" stroke-width="4"/>
    </g>
  </g>
</svg>
