<svg xmlns="http://www.w3.org/2000/svg" height="16.365" viewBox="0 0 203.546 16.365" style="height: 100%; width: 100%">
  <path id="Path_4341" data-name="Path 4341" d="M262.469,221.132c-.731.057-1.463.1-2.193.178l-3.024.313a34.713,34.713,0,0,0-4.957.879,22.764,22.764,0,0,0-5.013,1.953c-.316.168-.629.35-.956.5l-1.055.479c-.5.2-1,.395-1.514.556a12.513,12.513,0,0,1-1.821.416c-.536.055-1.07.085-1.61.088a11.811,11.811,0,0,1-1.527-.1,17.154,17.154,0,0,1-2.049-.46,19.8,19.8,0,0,1-2.083-.771,30.267,30.267,0,0,1-3.39-1.78c-.516-.313-1.027-.633-1.531-.965-.607-.4-1.207-.806-1.836-1.175a10.3,10.3,0,0,0-1.489-.759,7.584,7.584,0,0,0-1.028-.313,6.146,6.146,0,0,0-1.075-.121,4.074,4.074,0,0,0-.642.063,6.581,6.581,0,0,0-.912.209,7.9,7.9,0,0,0-1.349.632q-1.322.7-2.642,1.406c-1.113.6-2.237,1.179-3.39,1.692-.7.285-1.416.537-2.143.756a21.443,21.443,0,0,1-2.915.627,25.381,25.381,0,0,1-2.849.2,23.21,23.21,0,0,1-3.224-.242c-1.355-.2-2.689-.47-4.019-.795a25.35,25.35,0,0,1-3.6-1.153q-1.747-.773-3.415-1.706a26.659,26.659,0,0,0-3.922-1.845,11.866,11.866,0,0,0-1.658-.436,8.664,8.664,0,0,0-5.826.881,26.794,26.794,0,0,0-4.061,2.77c-.784.592-1.545,1.219-2.313,1.831-.643.5-1.283,1-1.96,1.452a15.1,15.1,0,0,1-2.221,1.224c-.358.146-.718.278-1.088.4a9.223,9.223,0,0,1-1.479.325c-.2.021-.395.032-.593.034a3.93,3.93,0,0,1-.425-.016,7.862,7.862,0,0,1-1.172-.346,24.634,24.634,0,0,1-3.892-2.443c-.587-.471-1.154-.96-1.7-1.476q-.575-.539-1.149-1.08a37.662,37.662,0,0,0-2.981-2.828,9.074,9.074,0,0,0-1.432-.9,5.539,5.539,0,0,0-.893-.332l-.3-.063-.631-.086c-.1-.005-.2-.012-.306-.019l-.114,0a3.308,3.308,0,0,0-.563.049,6.47,6.47,0,0,0-1.071.24,17.056,17.056,0,0,0-2.023.791c-.541.239-1.073.5-1.609.749-.377.178-.76.347-1.125.549l-1.722.956c-.288.16-.583.311-.862.488l-1.556.993c-.391.249-.79.489-1.174.749L138.5,226.3a41.523,41.523,0,0,1-6.487,3.8c-.509.208-1.021.4-1.543.578a12.6,12.6,0,0,1-1.981.462c-.284.033-.566.058-.854.075a7.884,7.884,0,0,1-1.256-.048,9.446,9.446,0,0,1-1.753-.467,11.606,11.606,0,0,1-1.76-1.057,26.8,26.8,0,0,1-2.441-2.36c-.386-.411-.776-.816-1.165-1.224-.467-.489-.973-.938-1.484-1.377a7.021,7.021,0,0,0-1.361-.919,7.757,7.757,0,0,0-.88-.362,3.952,3.952,0,0,0-.924-.146,5.412,5.412,0,0,0-.6.068,3.794,3.794,0,0,0-.825.293,2.973,2.973,0,0,0-.737.494c-.22.213-.428.433-.634.661-.392.432-.74.914-1.1,1.371-.287.36-.571.723-.858,1.086-.333.421-.681.83-1.021,1.246a15.847,15.847,0,0,1-2.252,2.233,12.144,12.144,0,0,1-2.011,1.2,10.592,10.592,0,0,1-1.989.534,13.02,13.02,0,0,1-2.886-.028,19.963,19.963,0,0,1-4.418-1.307,35.074,35.074,0,0,1-3.764-1.986c-.629-.378-1.236-.792-1.84-1.208s-1.218-.835-1.82-1.263-1.209-.87-1.839-1.268a18.466,18.466,0,0,0-2-1.1,9.253,9.253,0,0,0-4.055-.959,6.477,6.477,0,0,0-.981.108,10.163,10.163,0,0,0-1.01.223,6.755,6.755,0,0,0-.874.335c-.31.135-.619.274-.928.415a25.58,25.58,0,0,0-3.867,2.187,18.6,18.6,0,0,0-3.017,2.6,16.662,16.662,0,0,0-1.19,1.4,2.782,2.782,0,0,0-.409.751l-.11.323c-.044.231-.088.46-.131.691a.9.9,0,0,0,.218.832.843.843,0,0,0,.823.22c.2-.058.406-.117.609-.176a4.792,4.792,0,0,0,.822-.353.864.864,0,0,0,.3-1.168.8.8,0,0,0-.5-.385,17.434,17.434,0,0,1,2.451-2.356,22.529,22.529,0,0,1,4.594-2.678c.368-.155.737-.307,1.109-.452a6.889,6.889,0,0,1,1.434-.366,7.928,7.928,0,0,1,1.289-.016c.287.048.567.108.853.183a9.716,9.716,0,0,1,1.215.43,18.1,18.1,0,0,1,2.225,1.258c.838.534,1.611,1.169,2.415,1.753s1.591,1.151,2.4,1.7,1.643,1.043,2.488,1.52a25.223,25.223,0,0,0,5.195,2.22,13.507,13.507,0,0,0,5.748.493,9.92,9.92,0,0,0,2.6-.722,11.76,11.76,0,0,0,2.275-1.329,15,15,0,0,0,2.127-1.936c.346-.379.665-.773.985-1.172.466-.578.921-1.162,1.374-1.751a23.034,23.034,0,0,1,1.748-2.133,1.631,1.631,0,0,1,.147-.082c.069-.025.139-.045.211-.063h.069a2.949,2.949,0,0,1,.376.108,6.4,6.4,0,0,1,.885.5,23.918,23.918,0,0,1,2.235,2.135,39.355,39.355,0,0,0,2.8,2.77,12.48,12.48,0,0,0,1.371,1,10.113,10.113,0,0,0,1.777.877,8.069,8.069,0,0,0,1.756.429,9.807,9.807,0,0,0,2.123.09,14.183,14.183,0,0,0,1.763-.25,13.28,13.28,0,0,0,2.062-.6,25.242,25.242,0,0,0,3.651-1.7c1.72-.956,3.339-2.077,4.964-3.184.776-.53,1.545-1.078,2.335-1.586l2.715-1.743c.1-.066.218-.122.326-.182q.465-.258.928-.518l1.414-.79c.093-.052.193-.094.29-.139l.994-.475c.556-.265,1.111-.526,1.674-.774a12.418,12.418,0,0,1,1.74-.555,3.145,3.145,0,0,1,.361-.009c.1,0,.2.008.3.018a5.576,5.576,0,0,1,.727.2,8.854,8.854,0,0,1,1.171.732c1.136.962,2.137,2.081,3.221,3.1.679.641,1.358,1.268,2.079,1.86.652.535,1.333,1.033,2.03,1.506a25.947,25.947,0,0,0,2.32,1.346,6.488,6.488,0,0,0,2.314.739,6.562,6.562,0,0,0,1.072.035,9.97,9.97,0,0,0,1.375-.2,10.872,10.872,0,0,0,2.227-.715,16.268,16.268,0,0,0,2.341-1.237,31.184,31.184,0,0,0,2.954-2.226l1.7-1.376,1.351-1.044a16.97,16.97,0,0,1,3.1-1.936,8.933,8.933,0,0,1,1.677-.455c.278-.028.553-.046.835-.051a5.066,5.066,0,0,1,.739.051,12.777,12.777,0,0,1,2.562.723c.718.319,1.428.662,2.122,1.034.432.231.855.482,1.282.722s.849.446,1.279.659c.826.412,1.662.794,2.517,1.142a23.44,23.44,0,0,0,2.759.879,40.7,40.7,0,0,0,5.932,1.112,21.441,21.441,0,0,0,3.047.13,26.159,26.159,0,0,0,3-.3,20.649,20.649,0,0,0,5.194-1.479c1.064-.456,2.09-.98,3.121-1.508,1.233-.63,2.449-1.309,3.7-1.9a6.555,6.555,0,0,1,.764-.209,3.03,3.03,0,0,1,.457,0,6.538,6.538,0,0,1,1.06.3,27.532,27.532,0,0,1,3.178,2.01,32.529,32.529,0,0,0,3.366,2.016,28.4,28.4,0,0,0,3.59,1.54,15.309,15.309,0,0,0,4.3.8,13.617,13.617,0,0,0,3.834-.4,16.24,16.24,0,0,0,3.1-1.149c.43-.2.859-.4,1.275-.624l.809-.44c.4-.22.831-.409,1.255-.591a27.053,27.053,0,0,1,6.377-1.589c1.177-.152,2.363-.235,3.544-.347,1.024-.1,2.054-.145,3.08-.214,2.081-.138,4.172-.272,6.259-.265a1.481,1.481,0,0,0,0-2.963c-1.584.027-3.167.15-4.746.267Q263.615,221.042,262.469,221.132Zm-38.579,1.5.123-.016h0Z" transform="translate(-67.428 -218.776)" fill="currentColor"/>
</svg>
