<svg xmlns="http://www.w3.org/2000/svg" width="996.442" height="24.319" viewBox="0 0 996.442 24.319">
  <path id="Path_1680" data-name="Path 1680" d="M1022.23,222.277c-3.576.085-7.164.152-10.733.264l-14.8.465c-8.17.258-16.3.692-24.264,1.307-8.52.66-16.758,1.652-24.54,2.9-1.546.249-3.081.52-4.679.741l-5.164.711c-2.444.3-4.9.586-7.414.827-2.913.279-5.9.474-8.915.618-2.626.082-5.238.126-7.879.13-2.5.006-4.988-.062-7.473-.154-3.4-.168-6.724-.391-10.033-.684-3.472-.309-6.859-.72-10.2-1.146-5.726-.774-11.232-1.658-16.6-2.645-2.526-.465-5.029-.941-7.5-1.434-2.973-.6-5.909-1.2-8.986-1.746-2.354-.42-4.735-.829-7.291-1.128-1.665-.2-3.293-.342-5.033-.465-1.7-.121-3.521-.152-5.26-.179-1.054.006-2.1.038-3.141.094-1.539.072-2.977.175-4.463.311-2.306.21-4.478.6-6.6.939q-6.471,1.043-12.931,2.09c-5.45.886-10.953,1.753-16.6,2.514-3.446.423-6.933.8-10.491,1.124-4.668.424-9.463.709-14.272.932-4.638.175-9.269.285-13.948.3-5.275.019-10.558-.157-15.785-.36-6.631-.29-13.166-.7-19.674-1.181-6.009-.447-11.907-1-17.633-1.714-5.7-.766-11.285-1.607-16.72-2.536-6.162-1.052-12.559-2.008-19.2-2.741-2.627-.289-5.387-.478-8.114-.648-3.159-.2-6.4-.277-9.619-.262s-6.512.22-9.638.45c-3.234.239-6.292.671-9.262,1.12-7.194,1.091-13.486,2.65-19.879,4.117-3.837.88-7.563,1.812-11.322,2.721-3.148.741-6.281,1.484-9.593,2.157-3.45.7-7.093,1.3-10.871,1.819-1.755.217-3.517.414-5.327.59-2.351.231-4.795.372-7.239.482q-1.447.046-2.9.05c-.7,0-1.389,0-2.083-.024-1.978-.129-3.86-.3-5.737-.514-6.725-1.024-13.062-2.243-19.052-3.63q-4.309-1.049-8.33-2.194-2.817-.8-5.626-1.605c-4.884-1.394-9.221-2.975-14.593-4.2-2.235-.51-4.508-.961-7.011-1.338-1.4-.209-2.884-.36-4.37-.493l-1.472-.094-3.088-.128q-.749-.012-1.5-.029-.279,0-.559,0-1.38,0-2.757.073c-1.807.066-3.5.2-5.242.357-3.4.305-6.654.741-9.9,1.175-2.649.354-5.253.739-7.876,1.114-1.844.265-3.722.516-5.506.816l-8.431,1.42c-1.412.238-2.854.462-4.221.725q-3.806.739-7.619,1.476c-1.915.37-3.867.727-5.748,1.113l-14.15,2.908c-10.186,2.092-20.49,4.148-31.756,5.649-2.492.31-5,.6-7.555.859-3.159.321-6.419.524-9.7.686-1.39.049-2.772.086-4.18.112-2.053.035-4.105-.008-6.151-.072-2.947-.152-5.782-.375-8.58-.694-3.04-.441-5.871-.973-8.617-1.571-4.284-1.071-8.137-2.278-11.948-3.507-1.889-.61-3.8-1.213-5.7-1.819-2.284-.727-4.761-1.394-7.265-2.046-2.06-.536-4.258-.99-6.661-1.366-1.382-.213-2.857-.378-4.31-.537-1.431-.154-3.033-.171-4.523-.217q-1.475.026-2.932.1c-1.4.1-2.75.238-4.039.436a29.022,29.022,0,0,0-3.606.734c-1.077.317-2.1.644-3.1.982-1.919.641-3.621,1.358-5.4,2.037-1.4.535-2.794,1.075-4.2,1.613-1.628.625-3.334,1.234-5,1.851a103.834,103.834,0,0,1-11.024,3.319c-3.111.689-6.367,1.288-9.847,1.783-3.178.365-6.389.621-9.735.793-4.731.153-9.4.123-14.127-.041-7.47-.374-14.641-1.061-21.627-1.942-6.363-.859-12.443-1.865-18.426-2.952-3.081-.561-6.05-1.178-9.008-1.795-2.98-.622-5.961-1.242-8.908-1.877-2.977-.643-5.916-1.293-9-1.884q-4.739-.9-9.794-1.629a136.932,136.932,0,0,0-19.85-1.424c-1.591.008-3.234.079-4.8.161-1.676.088-3.3.192-4.944.332-1.464.122-2.884.314-4.277.5-1.52.2-3.029.407-4.541.616-6.628.918-12.913,2-18.929,3.25a143.392,143.392,0,0,0-14.768,3.865c-2.068.669-4.012,1.352-5.827,2.086a7.314,7.314,0,0,0-2,1.116l-.536.48c-.216.343-.428.684-.641,1.027-.279.456-.041.9,1.065,1.237a11.58,11.58,0,0,0,4.031.327c.995-.086,1.986-.174,2.98-.262,1.423-.126,2.7-.322,4.024-.525,2.015-.309,2.559-1.168,1.483-1.735a6.738,6.738,0,0,0-2.463-.573,118.7,118.7,0,0,1,12-3.5c6.952-1.609,14.511-2.912,22.487-3.98q2.7-.345,5.428-.672c2.284-.27,4.623-.429,7.019-.544,2.124-.058,4.18-.07,6.311-.024,1.4.071,2.775.161,4.176.272,2.03.16,4,.4,5.95.639,3.811.528,7.354,1.182,10.893,1.869,4.1.793,7.887,1.738,11.825,2.605,3.886.856,7.786,1.71,11.754,2.529,3.934.813,8.043,1.55,12.179,2.259,8.032,1.38,16.6,2.5,25.43,3.3a213.405,213.405,0,0,0,28.139.733c4.418-.2,8.639-.526,12.734-1.074,3.968-.529,7.652-1.192,11.136-1.976,3.789-.849,7.224-1.823,10.413-2.878,1.691-.562,3.256-1.149,4.821-1.742,2.28-.859,4.508-1.727,6.725-2.6,2.746-1.083,5.4-2.193,8.557-3.17.235-.045.473-.086.719-.122.339-.037.682-.067,1.032-.094.112,0,.224,0,.339,0,.622.041,1.237.095,1.84.161,1.516.216,2.928.46,4.333.749,3.923.971,7.455,2.054,10.942,3.172,4.433,1.418,8.826,2.837,13.71,4.116,2.1.55,4.4,1.029,6.713,1.485,2.738.538,5.685.939,8.7,1.3,2.746.332,5.693.5,8.595.638,3.472.165,6.9.2,10.394.134,2.891-.053,5.793-.209,8.632-.372,3.454-.2,6.792-.525,10.092-.887,6.181-.678,12.13-1.554,17.871-2.521,8.42-1.42,16.344-3.087,24.3-4.732,3.8-.788,7.563-1.6,11.43-2.356l13.289-2.591c.51-.1,1.069-.181,1.595-.271q2.274-.384,4.541-.769l6.922-1.174c.454-.078.946-.139,1.419-.207q2.431-.355,4.866-.707c2.723-.393,5.439-.782,8.2-1.15,2.783-.334,5.6-.618,8.516-.825.589-.015,1.177-.019,1.77-.014q.738.005,1.475.026c1.241.079,2.384.176,3.558.3,2.019.316,3.9.681,5.734,1.088,5.562,1.429,10.461,3.092,15.77,4.611,3.323.952,6.646,1.884,10.178,2.764,3.193.8,6.527,1.535,9.94,2.237,3.629.745,7.5,1.374,11.355,2a90.922,90.922,0,0,0,11.326,1.1c1.784.063,3.45.077,5.246.053,2.254-.03,4.526-.166,6.732-.29,3.77-.211,7.373-.613,10.9-1.063,4.012-.516,7.779-1.134,11.46-1.838,5.1-.973,9.783-2.158,14.463-3.307l8.33-2.044,6.613-1.551c4.75-1.115,9.742-2.1,15.152-2.876,2.675-.311,5.38-.526,8.207-.676,1.36-.042,2.708-.069,4.087-.075,1.207-.008,2.418.03,3.617.075,4.318.229,8.472.581,12.544,1.075,3.517.474,6.989.984,10.387,1.536,2.116.343,4.184.717,6.277,1.074,2.045.349,4.158.663,6.263.98,4.042.612,8.136,1.18,12.32,1.7,4.378.541,8.952.935,13.505,1.307,9.541.781,19.235,1.308,29.04,1.652q7.438.261,14.917.193c4.921-.04,9.824-.234,14.69-.446,8.733-.38,17.316-1.142,25.427-2.2,5.208-.678,10.23-1.456,15.278-2.241,6.035-.936,11.989-1.945,18.136-2.817,1.233-.129,2.451-.226,3.74-.311.749-.018,1.494-.019,2.239,0,1.792.105,3.487.25,5.19.444,5.5.833,10.491,1.934,15.558,2.986,5.279,1.1,10.808,2.1,16.478,3,5.655.892,11.579,1.643,17.573,2.289,6.728.725,13.948,1.071,21.049,1.184,6.285.1,12.656-.153,18.769-.593,5.245-.377,10.271-1.015,15.152-1.707,2.1-.3,4.206-.589,6.244-.927q1.984-.326,3.96-.654c1.978-.327,4.068-.607,6.143-.878,10.025-1.234,20.565-1.9,31.22-2.362,5.763-.225,11.568-.349,17.35-.516,5.014-.144,10.055-.216,15.077-.318,10.186-.206,20.423-.4,30.639-.393,3.916,0,7.175-1,7.175-2.2s-3.26-2.222-7.175-2.2c-7.756.04-15.5.223-23.236.4Q1027.842,222.144,1022.23,222.277ZM833.372,224.5l.6-.024h0Z" transform="translate(-67.428 -218.776)" fill="#fff"/>
</svg>
