<svg id="Component_234_1" data-name="Component 234 – 1" xmlns="http://www.w3.org/2000/svg" xmlns:xlink="http://www.w3.org/1999/xlink" width="944.309" height="493.207" viewBox="0 0 944.309 493.207">
  <defs>
    <clipPath id="clip-path">
      <rect id="Rectangle_541" data-name="Rectangle 541" width="835.309" height="430.415" fill="none"/>
    </clipPath>
  </defs>
  <text id="_1_-_4_WEEKS" data-name="1 - 4
WEEKS" transform="translate(437 183.207)" fill="#1e2b3b" font-size="27" font-family="Montserrat" font-weight="700"><tspan x="-27" y="0">1 - 4</tspan><tspan x="-52" y="33">WEEKS</tspan></text>
  <text id="DESIGN" transform="translate(756 233.207)" fill="#fff" font-size="27" font-family="Montserrat-SemiBold, Montserrat" font-weight="600"><tspan x="-54" y="0">DESIGN</tspan></text>
  <text id="DELIVERY" transform="translate(756 486.207)" fill="#fff" font-size="27" font-family="Montserrat-SemiBold, Montserrat" font-weight="600"><tspan x="-69" y="0">DELIVERY</tspan></text>
  <text id="ANALYSIS" transform="translate(197 486.207)" fill="#fff" font-size="27" font-family="Montserrat-SemiBold, Montserrat" font-weight="600"><tspan x="-68" y="0">ANALYSIS</tspan></text>
  <text id="DEVELOPMENT" transform="translate(109 111.207)" fill="#fff" font-size="27" font-family="Montserrat-SemiBold, Montserrat" font-weight="600"><tspan x="-108" y="0">DEVELOPMENT</tspan></text>
  <g id="Group_1305" data-name="Group 1305" transform="translate(109)">
    <g id="Group_1304" data-name="Group 1304" clip-path="url(#clip-path)">
      <path id="Path_3822" data-name="Path 3822" d="M467.949,196.51A141.855,141.855,0,1,1,326.1,54.65,141.854,141.854,0,0,1,467.949,196.51Z" fill="none" stroke="#e97724" stroke-width="4"/>
      <path id="Path_3823" data-name="Path 3823" d="M520.609,196.51a194.673,194.673,0,0,1-232.85,190.73L259.9,338.37h66.2a141.86,141.86,0,0,0,0-283.72L298.569,3.94A195.423,195.423,0,0,1,326.1,2C433.519,2,520.609,89.08,520.609,196.51Z" fill="none" stroke="#e97724" stroke-width="4"/>
      <path id="Path_3824" data-name="Path 3824" d="M467.949,196.51A141.854,141.854,0,0,1,326.1,338.37H193.019a193.931,193.931,0,0,1-61.44-141.86c0-98.09,72.6-179.21,166.99-192.57L326.1,54.65A141.854,141.854,0,0,1,467.949,196.51Z" fill="none" stroke="#e97724" stroke-width="4"/>
      <path id="Path_3825" data-name="Path 3825" d="M0,338.37H259.9l27.86,48.87,2.15,3.78H0" fill="none" stroke="#e97724" stroke-width="4"/>
      <line id="Line_11" data-name="Line 11" x1="36.19" transform="translate(289.909 391.02)" fill="none" stroke="#e97724" stroke-width="4"/>
      <path id="Path_3826" data-name="Path 3826" d="M831.815,364.7h0L743.168,426.58V391.02H326.1a193.785,193.785,0,0,0,133.07-52.65h284V302.81Z" fill="none" stroke="#e97724" stroke-width="4"/>
      <line id="Line_12" data-name="Line 12" y1="0.01" transform="translate(298.569 3.93)" fill="none" stroke="#e97724" stroke-width="4"/>
      <line id="Line_13" data-name="Line 13" x1="0.51" y1="0.89" transform="translate(289.909 391.02)" fill="none" stroke="#e97724" stroke-width="4"/>
      <line id="Line_14" data-name="Line 14" x1="0.77" y1="1.35" transform="translate(259.129 337.02)" fill="none" stroke="#e97724" stroke-width="4"/>
      <line id="Line_15" data-name="Line 15" x2="27.524" y2="50.718" transform="translate(520.606 338.369)" fill="none" stroke="#e97724" stroke-width="4"/>
    </g>
  </g>
  <circle id="Ellipse_92" data-name="Ellipse 92" cx="8" cy="8" r="8" transform="translate(756 355.207)" fill="#fff"/>
  <circle id="Ellipse_95" data-name="Ellipse 95" cx="8" cy="8" r="8" transform="translate(199.191 354.172) rotate(8)" fill="#fff"/>
  <circle id="Ellipse_94" data-name="Ellipse 94" cx="8" cy="8" r="8" transform="translate(591 215.207)" fill="#fff"/>
  <circle id="Ellipse_93" data-name="Ellipse 93" cx="8" cy="8" r="8" transform="translate(281 93.207)" fill="#fff"/>
  <line id="Line_16" data-name="Line 16" y2="67" transform="translate(764.5 363.707)" fill="none" stroke="#fff" stroke-width="3"/>
  <line id="Line_18" data-name="Line 18" x1="63" transform="translate(599 223.207)" fill="none" stroke="#fff" stroke-width="3"/>
  <line id="Line_19" data-name="Line 19" x1="63" transform="translate(229 101.207)" fill="none" stroke="#fff" stroke-width="3"/>
  <line id="Line_17" data-name="Line 17" y2="67" transform="translate(205.779 363.707)" fill="none" stroke="#fff" stroke-width="3"/>
</svg>
